G04*
G04 #@! TF.GenerationSoftware,Altium Limited,Altium Designer,24.6.1 (21)*
G04*
G04 Layer_Physical_Order=4*
G04 Layer_Color=16711680*
%FSLAX44Y44*%
%MOMM*%
G71*
G04*
G04 #@! TF.SameCoordinates,7FE9C145-C3CB-471E-AB6E-A22DF7334544*
G04*
G04*
G04 #@! TF.FilePolarity,Positive*
G04*
G01*
G75*
%ADD11C,0.2000*%
%ADD44C,0.8500*%
G04:AMPARAMS|DCode=54|XSize=0.95mm|YSize=0.9mm|CornerRadius=0.09mm|HoleSize=0mm|Usage=FLASHONLY|Rotation=0.000|XOffset=0mm|YOffset=0mm|HoleType=Round|Shape=RoundedRectangle|*
%AMROUNDEDRECTD54*
21,1,0.9500,0.7200,0,0,0.0*
21,1,0.7700,0.9000,0,0,0.0*
1,1,0.1800,0.3850,-0.3600*
1,1,0.1800,-0.3850,-0.3600*
1,1,0.1800,-0.3850,0.3600*
1,1,0.1800,0.3850,0.3600*
%
%ADD54ROUNDEDRECTD54*%
%ADD74C,0.3000*%
%ADD75C,0.2500*%
%ADD76C,1.4000*%
%ADD77C,1.5000*%
G04:AMPARAMS|DCode=78|XSize=1.5mm|YSize=1.5mm|CornerRadius=0.375mm|HoleSize=0mm|Usage=FLASHONLY|Rotation=270.000|XOffset=0mm|YOffset=0mm|HoleType=Round|Shape=RoundedRectangle|*
%AMROUNDEDRECTD78*
21,1,1.5000,0.7500,0,0,270.0*
21,1,0.7500,1.5000,0,0,270.0*
1,1,0.7500,-0.3750,-0.3750*
1,1,0.7500,-0.3750,0.3750*
1,1,0.7500,0.3750,0.3750*
1,1,0.7500,0.3750,-0.3750*
%
%ADD78ROUNDEDRECTD78*%
%ADD79C,0.6500*%
%ADD80C,0.6000*%
%ADD81R,0.7000X1.4000*%
%ADD82R,1.6000X1.4000*%
%ADD83R,1.2000X2.2000*%
%ADD84C,0.8000*%
G36*
X27999Y295922D02*
X28000Y295922D01*
X28000Y295922D01*
X692000Y295922D01*
X692000Y295922D01*
X692001Y295922D01*
X693568Y295922D01*
X696678Y295513D01*
X699707Y294702D01*
X702604Y293502D01*
X705320Y291934D01*
X707807Y290025D01*
X710025Y287808D01*
X711934Y285320D01*
X713502Y282604D01*
X714702Y279707D01*
X715513Y276678D01*
X715922Y273568D01*
X715922Y272000D01*
X715922Y272000D01*
X715922Y272000D01*
Y234622D01*
X714074Y233857D01*
X697105Y250826D01*
X697685Y252740D01*
X697830Y252769D01*
X701470Y254276D01*
X704746Y256465D01*
X707532Y259251D01*
X709720Y262526D01*
X711228Y266166D01*
X711997Y270030D01*
Y273970D01*
X711228Y277834D01*
X709720Y281474D01*
X707532Y284749D01*
X704746Y287535D01*
X701470Y289724D01*
X697830Y291231D01*
X693966Y292000D01*
X690027D01*
X686163Y291231D01*
X682523Y289724D01*
X679247Y287535D01*
X676461Y284749D01*
X674273Y281474D01*
X672765Y277834D01*
X671997Y273970D01*
Y270030D01*
X672765Y266166D01*
X674273Y262526D01*
X676461Y259251D01*
X678104Y257608D01*
X677276Y255608D01*
X630000D01*
X627854Y255181D01*
X626035Y253965D01*
X621427Y249358D01*
X533500D01*
Y249836D01*
X532587Y252041D01*
X530899Y253729D01*
X528694Y254642D01*
X526306D01*
X524101Y253729D01*
X522413Y252041D01*
X521500Y249836D01*
Y247449D01*
X522413Y245244D01*
X524086Y243571D01*
X522914Y242399D01*
X522000Y240194D01*
Y237806D01*
X522914Y235601D01*
X524601Y233913D01*
X526806Y233000D01*
X529193D01*
X531399Y233913D01*
X531908Y234423D01*
X534267Y233954D01*
X534413Y233601D01*
X536101Y231913D01*
X538307Y231000D01*
X540694D01*
X542899Y231913D01*
X544586Y233601D01*
X545500Y235807D01*
Y238142D01*
X617599D01*
X618364Y236294D01*
X612203Y230134D01*
X610242Y230524D01*
X610087Y230899D01*
X608399Y232587D01*
X606194Y233500D01*
X603806D01*
X602860Y233108D01*
X580000D01*
X577854Y232681D01*
X576035Y231465D01*
X567677Y223108D01*
X524823D01*
X505608Y242323D01*
Y252677D01*
X518673Y265742D01*
X524010D01*
X524957Y265350D01*
X527343D01*
X529549Y266264D01*
X531236Y267951D01*
X532150Y270156D01*
Y272544D01*
X531236Y274749D01*
X529549Y276437D01*
X527343Y277350D01*
X524957D01*
X524010Y276958D01*
X516350D01*
X514204Y276531D01*
X512385Y275315D01*
X496035Y258965D01*
X494819Y257146D01*
X494710Y256595D01*
X494635Y256500D01*
X492458Y255528D01*
X491319Y256000D01*
X488932D01*
X486726Y255087D01*
X485038Y253399D01*
X484655Y252473D01*
X483694Y252314D01*
X482480Y252447D01*
X481465Y253965D01*
X478215Y257215D01*
X476396Y258431D01*
X474250Y258858D01*
X471641D01*
X470694Y259250D01*
X468307D01*
X468108Y259383D01*
Y265177D01*
X472452Y269521D01*
X473399Y269914D01*
X475087Y271601D01*
X476000Y273806D01*
Y276194D01*
X475087Y278399D01*
X473399Y280087D01*
X471194Y281000D01*
X468806D01*
X466601Y280087D01*
X464913Y278399D01*
X464521Y277452D01*
X458535Y271465D01*
X457319Y269646D01*
X456892Y267500D01*
Y209823D01*
X432608Y185538D01*
X430608Y186367D01*
Y210000D01*
X430181Y212146D01*
X428965Y213965D01*
X422979Y219952D01*
X422587Y220899D01*
X420899Y222586D01*
X418694Y223500D01*
X416306D01*
X414101Y222586D01*
X412413Y220899D01*
X411500Y218694D01*
Y216759D01*
X410189Y215932D01*
X409652Y215778D01*
X396465Y228965D01*
X394646Y230181D01*
X392500Y230608D01*
X379206D01*
X378296Y232608D01*
X379000Y234307D01*
Y236693D01*
X378087Y238899D01*
X376399Y240586D01*
X374193Y241500D01*
X371806D01*
X369601Y240586D01*
X367913Y238899D01*
X367000Y236693D01*
Y234307D01*
X367704Y232608D01*
X366794Y230608D01*
X182500D01*
X180354Y230181D01*
X178535Y228965D01*
X115035Y165465D01*
X113819Y163646D01*
X113392Y161500D01*
Y157500D01*
X89500D01*
Y140608D01*
X77323D01*
X63108Y154823D01*
Y170000D01*
X62681Y172146D01*
X61465Y173965D01*
X56465Y178965D01*
X55352Y179709D01*
X54641Y180361D01*
X54591Y182231D01*
X55416Y183661D01*
X56200Y186586D01*
Y189614D01*
X55416Y192539D01*
X53902Y195161D01*
X51761Y197302D01*
X49139Y198816D01*
X46214Y199600D01*
X43186D01*
X40261Y198816D01*
X37639Y197302D01*
X35498Y195161D01*
X33984Y192539D01*
X33200Y189614D01*
Y186586D01*
X33984Y183661D01*
X34592Y182608D01*
X33437Y180608D01*
X31600D01*
X29454Y180181D01*
X27635Y178965D01*
X22435Y173766D01*
X20814Y174200D01*
X17786D01*
X14861Y173416D01*
X12239Y171902D01*
X10098Y169761D01*
X8584Y167139D01*
X7800Y164214D01*
Y161186D01*
X8584Y158261D01*
X10098Y155639D01*
X12239Y153498D01*
X14861Y151984D01*
X17786Y151200D01*
X20814D01*
X23739Y151984D01*
X26361Y153498D01*
X28502Y155639D01*
X30016Y158261D01*
X30800Y161186D01*
Y164214D01*
X30366Y165835D01*
X32002Y167472D01*
X33796Y166437D01*
X33200Y164214D01*
Y161186D01*
X33984Y158261D01*
X35498Y155639D01*
X37639Y153498D01*
X40261Y151984D01*
X40310Y151971D01*
X40735Y151335D01*
X41619Y150451D01*
X41021Y148220D01*
X40261Y148016D01*
X37639Y146502D01*
X35498Y144361D01*
X33984Y141739D01*
X33200Y138814D01*
Y135786D01*
X33795Y133563D01*
X32002Y132528D01*
X30366Y134165D01*
X30800Y135786D01*
Y138814D01*
X30016Y141739D01*
X28502Y144361D01*
X26361Y146502D01*
X23739Y148016D01*
X20814Y148800D01*
X17786D01*
X14861Y148016D01*
X12239Y146502D01*
X10098Y144361D01*
X8584Y141739D01*
X7800Y138814D01*
Y135786D01*
X8584Y132861D01*
X10098Y130239D01*
X12239Y128098D01*
X14861Y126584D01*
X17786Y125800D01*
X20814D01*
X22435Y126234D01*
X24072Y124598D01*
X23037Y122804D01*
X20814Y123400D01*
X17786D01*
X14861Y122616D01*
X12239Y121102D01*
X10098Y118961D01*
X8584Y116339D01*
X7800Y113414D01*
Y110386D01*
X8584Y107461D01*
X10098Y104839D01*
X12239Y102698D01*
X13692Y101859D01*
Y98200D01*
X14119Y96054D01*
X15335Y94235D01*
X33535Y76035D01*
X35354Y74819D01*
X37500Y74392D01*
X222500D01*
X224646Y74819D01*
X226465Y76035D01*
X297323Y146892D01*
X345794D01*
X346997Y144892D01*
X346500Y143694D01*
Y141306D01*
X347413Y139101D01*
X349101Y137413D01*
X351306Y136500D01*
X353694D01*
X354641Y136892D01*
X387677D01*
X391035Y133535D01*
X392854Y132319D01*
X395000Y131892D01*
X465000D01*
X467146Y132319D01*
X468965Y133535D01*
X507323Y171892D01*
X532677D01*
X537021Y167548D01*
X537413Y166601D01*
X539101Y164913D01*
X539380Y164798D01*
X539771Y162836D01*
X530537Y153603D01*
X495750D01*
X493702Y153195D01*
X491965Y152035D01*
X468715Y128785D01*
X467555Y127048D01*
X467147Y125000D01*
Y107500D01*
X467555Y105452D01*
X468715Y103715D01*
X483715Y88715D01*
X485452Y87555D01*
X487500Y87147D01*
X502783D01*
X516215Y73715D01*
X517952Y72555D01*
X520000Y72147D01*
X526049D01*
X527102Y70147D01*
X526500Y68693D01*
Y66307D01*
X527413Y64101D01*
X529101Y62413D01*
X531306Y61500D01*
X532998D01*
X534230Y60091D01*
X534397Y59652D01*
X534000Y58693D01*
Y56307D01*
X534913Y54101D01*
X536601Y52413D01*
X538806Y51500D01*
X541194D01*
X543399Y52413D01*
X545087Y54101D01*
X546000Y56307D01*
Y58693D01*
X545087Y60899D01*
X543399Y62586D01*
X541194Y63500D01*
X539502D01*
X538270Y64909D01*
X538103Y65348D01*
X538234Y65664D01*
X543785Y71215D01*
X544945Y72952D01*
X545353Y75000D01*
Y80000D01*
X544945Y82048D01*
X543785Y83785D01*
X538785Y88785D01*
X537048Y89945D01*
X535000Y90353D01*
X534409D01*
X533581Y92353D01*
X534329Y93101D01*
X535243Y95307D01*
Y97693D01*
X534329Y99899D01*
X534862Y101931D01*
X542323Y109392D01*
X552500D01*
X554646Y109819D01*
X556465Y111035D01*
X564823Y119392D01*
X612500D01*
X614646Y119819D01*
X616465Y121035D01*
X655824Y160393D01*
X656870Y160101D01*
X657750Y159491D01*
Y157945D01*
X658244Y156102D01*
X659199Y154448D01*
X660548Y153099D01*
X660730Y151716D01*
X659913Y150899D01*
X659000Y148694D01*
Y146306D01*
X659913Y144101D01*
X661601Y142414D01*
X663807Y141500D01*
X666193D01*
X668399Y142414D01*
X670087Y144101D01*
X671000Y146306D01*
Y148694D01*
X670087Y150899D01*
X669270Y151716D01*
X669452Y153099D01*
X670801Y154448D01*
X671756Y156102D01*
X672250Y157945D01*
Y159854D01*
X671756Y161698D01*
X670801Y163352D01*
X669452Y164701D01*
X667798Y165656D01*
X665955Y166150D01*
X664409D01*
X663799Y167031D01*
X663507Y168076D01*
X668965Y173535D01*
X670181Y175354D01*
X670608Y177500D01*
Y197977D01*
X679430Y206800D01*
X680553D01*
X682588Y207345D01*
X684412Y208398D01*
X685850Y209836D01*
X687288Y208398D01*
X689112Y207345D01*
X691147Y206800D01*
X692769D01*
X693535Y206035D01*
X695354Y204819D01*
X697500Y204392D01*
X706271D01*
X708417Y204819D01*
X710236Y206035D01*
X714074Y209873D01*
X715922Y209107D01*
X715922Y28002D01*
X715921Y26434D01*
X715510Y23325D01*
X714698Y20297D01*
X713497Y17400D01*
X711929Y14685D01*
X710020Y12197D01*
X707803Y9980D01*
X705315Y8071D01*
X702600Y6503D01*
X699703Y5302D01*
X696674Y4489D01*
X693566Y4079D01*
X691998Y4078D01*
X28000D01*
X28000Y4078D01*
X27999Y4078D01*
X26432Y4078D01*
X23322Y4487D01*
X20293Y5298D01*
X17396Y6498D01*
X14680Y8066D01*
X12192Y9975D01*
X9975Y12192D01*
X8066Y14680D01*
X6498Y17396D01*
X5298Y20293D01*
X4487Y23322D01*
X4078Y26432D01*
X4078Y27999D01*
X4078Y28000D01*
X4078Y28000D01*
Y272000D01*
X4078Y272000D01*
X4078Y272001D01*
X4078Y273568D01*
X4487Y276678D01*
X5298Y279707D01*
X6498Y282604D01*
X8066Y285320D01*
X9975Y287808D01*
X12192Y290025D01*
X14680Y291934D01*
X17396Y293502D01*
X20293Y294702D01*
X23322Y295513D01*
X26432Y295922D01*
X27999Y295922D01*
D02*
G37*
G36*
X686592Y237977D02*
Y233206D01*
X685798Y232412D01*
X684745Y230588D01*
X684200Y228553D01*
Y226447D01*
X684745Y224412D01*
X685798Y222588D01*
X684412Y221202D01*
X682588Y222255D01*
X680553Y222800D01*
X678447D01*
X676412Y222255D01*
X674588Y221202D01*
X673202Y222588D01*
X674255Y224412D01*
X674800Y226447D01*
Y228553D01*
X674255Y230588D01*
X673202Y232412D01*
X671712Y233902D01*
X669888Y234955D01*
X667853Y235500D01*
X665747D01*
X663975Y235025D01*
X662021Y234591D01*
X660902Y236529D01*
X660039Y237392D01*
X660867Y239392D01*
X685177D01*
X686592Y237977D01*
D02*
G37*
G36*
X486726Y244914D02*
X488932Y244000D01*
X491319D01*
X492392Y244445D01*
X494392Y243169D01*
Y240000D01*
X494819Y237854D01*
X496035Y236035D01*
X518535Y213535D01*
X520354Y212319D01*
X522500Y211892D01*
X570000D01*
X572146Y212319D01*
X573965Y213535D01*
X581760Y221329D01*
X583420Y221178D01*
X584522Y219351D01*
X584250Y218694D01*
Y216306D01*
X584945Y214630D01*
X585094Y213916D01*
X584396Y212041D01*
X583535Y211465D01*
X573535Y201465D01*
X572598Y200063D01*
X571043Y199960D01*
X570411Y200116D01*
X570087Y200899D01*
X568399Y202587D01*
X566194Y203500D01*
X563806D01*
X561601Y202587D01*
X559913Y200899D01*
X559266Y199336D01*
X546215Y186285D01*
X545055Y184548D01*
X544647Y182500D01*
Y178396D01*
X542799Y177631D01*
X538965Y181465D01*
X537146Y182681D01*
X535000Y183108D01*
X505000D01*
X502854Y182681D01*
X501035Y181465D01*
X462677Y143108D01*
X431467D01*
X431000Y143806D01*
Y146193D01*
X431537Y147198D01*
X432146Y147319D01*
X433965Y148535D01*
X481465Y196035D01*
X482681Y197854D01*
X483108Y200000D01*
Y246036D01*
X484740Y246514D01*
X485108Y246532D01*
X486726Y244914D01*
D02*
G37*
G36*
X648161Y237392D02*
X647298Y236529D01*
X646179Y234591D01*
X645600Y232429D01*
Y230191D01*
X646179Y228029D01*
X647298Y226091D01*
X646371Y224190D01*
X646035Y223965D01*
X641035Y218965D01*
X639819Y217146D01*
X639392Y215000D01*
Y207500D01*
X639819Y205354D01*
X641035Y203535D01*
X649521Y195048D01*
X649913Y194101D01*
X651601Y192414D01*
X653807Y191500D01*
X656193D01*
X657392Y191997D01*
X659392Y190794D01*
Y179823D01*
X610177Y130608D01*
X606367D01*
X605538Y132608D01*
X607452Y134521D01*
X608399Y134913D01*
X610087Y136601D01*
X611000Y138806D01*
Y141194D01*
X610087Y143399D01*
X608485Y145000D01*
X610087Y146601D01*
X611000Y148806D01*
Y151194D01*
X610087Y153399D01*
X608399Y155087D01*
X606194Y156000D01*
X603806D01*
X602859Y155608D01*
X591801D01*
X591000Y156807D01*
Y159193D01*
X590266Y160967D01*
X591204Y161983D01*
X591744Y162354D01*
X593806Y161500D01*
X596193D01*
X598399Y162413D01*
X600087Y164101D01*
X601000Y166306D01*
Y168693D01*
X600087Y170899D01*
X598399Y172586D01*
X596193Y173500D01*
X593806D01*
X591601Y172586D01*
X589913Y170899D01*
X589000Y168693D01*
Y166306D01*
X589734Y164533D01*
X588796Y163517D01*
X588256Y163146D01*
X586194Y164000D01*
X583806D01*
X581601Y163087D01*
X579913Y161399D01*
X579000Y159193D01*
Y156807D01*
X578199Y155608D01*
X571151D01*
X570386Y157456D01*
X581465Y168535D01*
X582681Y170354D01*
X583108Y172500D01*
Y193838D01*
X585108Y194236D01*
X585163Y194101D01*
X586851Y192414D01*
X589057Y191500D01*
X591443D01*
X593649Y192414D01*
X595336Y194101D01*
X596250Y196306D01*
Y198694D01*
X595336Y200899D01*
X595904Y203160D01*
X596465Y203535D01*
X604823Y211892D01*
X607500D01*
X609646Y212319D01*
X611465Y213535D01*
X637323Y239392D01*
X647333D01*
X648161Y237392D01*
D02*
G37*
G36*
X416306Y189000D02*
X418613D01*
X418870Y188384D01*
X419222Y187152D01*
X412677Y180608D01*
X384206D01*
X383718Y181700D01*
X383593Y182608D01*
X385087Y184101D01*
X386000Y186306D01*
Y188694D01*
X386467Y189392D01*
X415359D01*
X416306Y189000D01*
D02*
G37*
G36*
X396962Y212608D02*
X396133Y210608D01*
X182500D01*
X180354Y210181D01*
X178535Y208965D01*
X137035Y167465D01*
X135819Y165646D01*
X135392Y163500D01*
Y157500D01*
X133500D01*
Y140608D01*
X126500D01*
Y157500D01*
X125387D01*
X124931Y159500D01*
X184823Y219392D01*
X390177D01*
X396962Y212608D01*
D02*
G37*
G36*
X529462Y122392D02*
X525177Y118108D01*
X510000D01*
X507854Y117681D01*
X506035Y116465D01*
X500177Y110608D01*
X494823D01*
X493108Y112323D01*
Y115794D01*
X495108Y116997D01*
X496306Y116500D01*
X498694D01*
X500899Y117414D01*
X502587Y119101D01*
X502979Y120048D01*
X507323Y124392D01*
X528633D01*
X529462Y122392D01*
D02*
G37*
G36*
X276962Y177392D02*
X207677Y108108D01*
X81823D01*
X77002Y112928D01*
X77836Y114712D01*
X77961Y114798D01*
X80000Y114392D01*
X155978D01*
X158124Y114819D01*
X159943Y116035D01*
X166965Y123057D01*
X168181Y124876D01*
X168608Y127022D01*
Y135500D01*
X192500D01*
Y157500D01*
X185544D01*
X184778Y159348D01*
X204823Y179392D01*
X276133D01*
X276962Y177392D01*
D02*
G37*
%LPC*%
G36*
X587144Y284442D02*
X584757D01*
X582551Y283529D01*
X580863Y281841D01*
X579950Y279636D01*
Y277249D01*
X580863Y275044D01*
X582551Y273356D01*
X584757Y272442D01*
X587144D01*
X589349Y273356D01*
X591037Y275044D01*
X591950Y277249D01*
Y279636D01*
X591037Y281841D01*
X589349Y283529D01*
X587144Y284442D01*
D02*
G37*
G36*
X491194Y281000D02*
X488806D01*
X486601Y280087D01*
X484913Y278399D01*
X484000Y276194D01*
Y273806D01*
X484913Y271601D01*
X486601Y269914D01*
X488806Y269000D01*
X491194D01*
X493399Y269914D01*
X495087Y271601D01*
X496000Y273806D01*
Y276194D01*
X495087Y278399D01*
X493399Y280087D01*
X491194Y281000D01*
D02*
G37*
G36*
X29966Y292000D02*
X26027D01*
X22163Y291231D01*
X18523Y289724D01*
X15247Y287535D01*
X12462Y284749D01*
X10273Y281474D01*
X8765Y277834D01*
X7997Y273970D01*
Y270030D01*
X8765Y266166D01*
X10273Y262526D01*
X12462Y259251D01*
X15247Y256465D01*
X18523Y254276D01*
X22163Y252769D01*
X26027Y252000D01*
X29966D01*
X33830Y252769D01*
X37470Y254276D01*
X40746Y256465D01*
X43531Y259251D01*
X45720Y262526D01*
X47228Y266166D01*
X47997Y270030D01*
Y273970D01*
X47228Y277834D01*
X45720Y281474D01*
X43531Y284749D01*
X40746Y287535D01*
X37470Y289724D01*
X33830Y291231D01*
X29966Y292000D01*
D02*
G37*
G36*
X194448Y263500D02*
X191552D01*
X188754Y262750D01*
X186246Y261302D01*
X184198Y259254D01*
X182750Y256746D01*
X182000Y253948D01*
Y251052D01*
X182750Y248254D01*
X184198Y245746D01*
X186246Y243698D01*
X188754Y242250D01*
X191552Y241500D01*
X194448D01*
X197246Y242250D01*
X199754Y243698D01*
X201802Y245746D01*
X203250Y248254D01*
X204000Y251052D01*
Y253948D01*
X203250Y256746D01*
X201802Y259254D01*
X199754Y261302D01*
X197246Y262750D01*
X194448Y263500D01*
D02*
G37*
G36*
X114448D02*
X111552D01*
X108754Y262750D01*
X106246Y261302D01*
X104198Y259254D01*
X102750Y256746D01*
X102000Y253948D01*
Y251052D01*
X102750Y248254D01*
X104198Y245746D01*
X106246Y243698D01*
X108754Y242250D01*
X111552Y241500D01*
X114448D01*
X117246Y242250D01*
X119754Y243698D01*
X121802Y245746D01*
X123250Y248254D01*
X124000Y251052D01*
Y253948D01*
X123250Y256746D01*
X121802Y259254D01*
X119754Y261302D01*
X117246Y262750D01*
X114448Y263500D01*
D02*
G37*
G36*
X340000Y290000D02*
X335000D01*
Y237500D01*
X340000D01*
Y290000D01*
D02*
G37*
G36*
X433694Y264000D02*
X431306D01*
X429101Y263086D01*
X427413Y261399D01*
X426500Y259193D01*
Y256807D01*
X427413Y254601D01*
X429101Y252913D01*
X429875Y252593D01*
X429913Y252399D01*
X429000Y250194D01*
Y247806D01*
X429913Y245601D01*
X430515Y245000D01*
X429913Y244399D01*
X429000Y242194D01*
Y239806D01*
X429913Y237601D01*
X431601Y235913D01*
X433806Y235000D01*
X436194D01*
X438399Y235913D01*
X440087Y237601D01*
X441000Y239806D01*
Y242194D01*
X440087Y244399D01*
X439485Y245000D01*
X440087Y245601D01*
X441000Y247806D01*
Y250194D01*
X440087Y252399D01*
X438399Y254087D01*
X437625Y254407D01*
X437587Y254601D01*
X438500Y256807D01*
Y259193D01*
X437587Y261399D01*
X435899Y263086D01*
X433694Y264000D01*
D02*
G37*
G36*
X406193Y128500D02*
X403806D01*
X401601Y127586D01*
X399913Y125899D01*
X399000Y123694D01*
Y121306D01*
X399913Y119101D01*
X401601Y117413D01*
X403806Y116500D01*
X406193D01*
X408399Y117413D01*
X410087Y119101D01*
X411000Y121306D01*
Y123694D01*
X410087Y125899D01*
X408399Y127586D01*
X406193Y128500D01*
D02*
G37*
G36*
X443694Y123500D02*
X441306D01*
X439101Y122586D01*
X437413Y120899D01*
X436500Y118694D01*
Y116306D01*
X437413Y114101D01*
X439101Y112413D01*
X441306Y111500D01*
X443694D01*
X445899Y112413D01*
X447587Y114101D01*
X448500Y116306D01*
Y118694D01*
X447587Y120899D01*
X445899Y122586D01*
X443694Y123500D01*
D02*
G37*
G36*
X666193Y118500D02*
X663807D01*
X661601Y117587D01*
X659913Y115899D01*
X659000Y113694D01*
Y111306D01*
X659913Y109101D01*
X660730Y108284D01*
X660548Y106901D01*
X659199Y105552D01*
X658244Y103898D01*
X657750Y102055D01*
Y100146D01*
X658244Y98302D01*
X659199Y96648D01*
X660548Y95299D01*
X662202Y94344D01*
X664045Y93850D01*
X665955D01*
X667798Y94344D01*
X669452Y95299D01*
X670801Y96648D01*
X671756Y98302D01*
X672250Y100146D01*
Y102055D01*
X671756Y103898D01*
X670801Y105552D01*
X669452Y106901D01*
X669270Y108284D01*
X670087Y109101D01*
X671000Y111306D01*
Y113694D01*
X670087Y115899D01*
X668399Y117587D01*
X666193Y118500D01*
D02*
G37*
G36*
X643280Y98086D02*
X640893D01*
X638688Y97173D01*
X637000Y95485D01*
X636086Y93280D01*
Y90893D01*
X637000Y88687D01*
X638688Y87000D01*
X640893Y86086D01*
X643280D01*
X645485Y87000D01*
X647173Y88687D01*
X648086Y90893D01*
Y93280D01*
X647173Y95485D01*
X645485Y97173D01*
X643280Y98086D01*
D02*
G37*
G36*
X622922Y87934D02*
X616487D01*
X614927Y87623D01*
X614428Y87290D01*
X613913D01*
X612353Y86980D01*
X611527Y86428D01*
X611066Y86336D01*
X610240Y85785D01*
X609779Y85693D01*
X608953Y85141D01*
X608492Y85050D01*
X607169Y84165D01*
X606911Y83780D01*
X606525Y83522D01*
X606268Y83136D01*
X605882Y82879D01*
X605624Y82493D01*
X605238Y82235D01*
X604981Y81849D01*
X604595Y81592D01*
X604337Y81206D01*
X603952Y80948D01*
X603694Y80562D01*
X603308Y80305D01*
X603139Y80052D01*
X602331Y80212D01*
X597827D01*
X596266Y79902D01*
X595713Y79532D01*
X594336Y79258D01*
X593013Y78374D01*
X592795Y78049D01*
X592406Y77972D01*
X591082Y77087D01*
X590825Y76702D01*
X590439Y76444D01*
X589555Y75121D01*
X589477Y74731D01*
X589152Y74514D01*
X588268Y73190D01*
X587994Y71813D01*
X587625Y71260D01*
X587498Y70624D01*
X587076Y70342D01*
X586614Y70250D01*
X585789Y69698D01*
X585327Y69606D01*
X584004Y68722D01*
X583747Y68337D01*
X583361Y68079D01*
X583103Y67693D01*
X582718Y67435D01*
X582460Y67050D01*
X582074Y66792D01*
X581190Y65469D01*
X581112Y65079D01*
X580787Y64862D01*
X579903Y63539D01*
X579629Y62161D01*
X579259Y61608D01*
X578986Y60231D01*
X578616Y59678D01*
X578306Y58117D01*
Y52326D01*
X578616Y50765D01*
X578985Y50212D01*
X579259Y48835D01*
X579811Y48009D01*
X579903Y47548D01*
X580455Y46722D01*
X580546Y46261D01*
X581431Y44938D01*
X581816Y44680D01*
X582074Y44294D01*
X582402Y44075D01*
Y20871D01*
X581500Y18693D01*
Y16307D01*
X582413Y14101D01*
X584101Y12413D01*
X586306Y11500D01*
X588694D01*
X590899Y12413D01*
X592587Y14101D01*
X593500Y16307D01*
Y18693D01*
X592598Y20871D01*
Y27155D01*
X593431Y27670D01*
X594598Y28009D01*
X594686Y27950D01*
X594943Y27564D01*
X596266Y26680D01*
X596727Y26589D01*
X597553Y26037D01*
X599114Y25726D01*
X601688D01*
X603248Y26037D01*
X604074Y26589D01*
X604535Y26680D01*
X605858Y27564D01*
X606116Y27950D01*
X606190Y27999D01*
X607454Y28208D01*
X607504D01*
X608768Y27999D01*
X608842Y27950D01*
X609099Y27564D01*
X610422Y26680D01*
X610884Y26589D01*
X611709Y26037D01*
X613270Y25726D01*
X615844D01*
X617405Y26037D01*
X618230Y26589D01*
X618691Y26680D01*
X620015Y27564D01*
X620272Y27950D01*
X620346Y27999D01*
X621610Y28208D01*
X621660D01*
X622924Y27999D01*
X622998Y27950D01*
X623255Y27564D01*
X624579Y26680D01*
X625040Y26589D01*
X625865Y26037D01*
X627426Y25726D01*
X630000D01*
X631561Y26037D01*
X632386Y26589D01*
X632848Y26680D01*
X634171Y27564D01*
X634429Y27950D01*
X634814Y28208D01*
X635698Y29531D01*
X635790Y29992D01*
X636342Y30818D01*
X636652Y32379D01*
Y34952D01*
X636342Y36513D01*
X636287Y36596D01*
X637144Y38403D01*
X637389Y38596D01*
X637721D01*
X639282Y38906D01*
X639835Y39276D01*
X641213Y39550D01*
X642038Y40101D01*
X642500Y40193D01*
X643325Y40745D01*
X643786Y40837D01*
X645110Y41721D01*
X645367Y42106D01*
X645753Y42364D01*
X646011Y42750D01*
X646396Y43007D01*
X646654Y43393D01*
X647040Y43651D01*
X647298Y44037D01*
X647683Y44294D01*
X648568Y45617D01*
X648659Y46079D01*
X649211Y46905D01*
X649303Y47366D01*
X649854Y48191D01*
X650128Y49569D01*
X650498Y50122D01*
X650808Y51683D01*
Y56830D01*
X650498Y58391D01*
X650128Y58944D01*
X649854Y60321D01*
X649303Y61147D01*
X649211Y61608D01*
X648659Y62434D01*
X648568Y62895D01*
X647683Y64218D01*
X647298Y64476D01*
X647040Y64862D01*
X646654Y65120D01*
X646396Y65505D01*
X646011Y65763D01*
X645753Y66149D01*
X645367Y66406D01*
X645110Y66792D01*
X644724Y67050D01*
X644466Y67435D01*
X643143Y68320D01*
X642753Y68397D01*
X642536Y68722D01*
X641213Y69606D01*
X640513Y69746D01*
Y70343D01*
X640202Y71904D01*
X639869Y72402D01*
Y72917D01*
X639559Y74477D01*
X639007Y75303D01*
X638916Y75764D01*
X638364Y76590D01*
X638272Y77051D01*
X637720Y77877D01*
X637629Y78338D01*
X636745Y79661D01*
X636359Y79919D01*
X636101Y80305D01*
X635715Y80562D01*
X635458Y80948D01*
X635072Y81206D01*
X634814Y81592D01*
X634429Y81849D01*
X634171Y82235D01*
X633785Y82493D01*
X633527Y82879D01*
X633142Y83136D01*
X632884Y83522D01*
X632498Y83780D01*
X632240Y84165D01*
X630917Y85050D01*
X630456Y85141D01*
X629630Y85693D01*
X629169Y85785D01*
X628343Y86336D01*
X627882Y86428D01*
X627057Y86980D01*
X625496Y87290D01*
X624981D01*
X624483Y87623D01*
X622922Y87934D01*
D02*
G37*
G36*
X561194Y63500D02*
X558806D01*
X556601Y62587D01*
X554913Y60899D01*
X554000Y58693D01*
Y56307D01*
X554913Y54101D01*
X556601Y52414D01*
X558806Y51500D01*
X561194D01*
X563399Y52414D01*
X565087Y54101D01*
X566000Y56307D01*
Y58693D01*
X565087Y60899D01*
X563399Y62587D01*
X561194Y63500D01*
D02*
G37*
G36*
X413694Y61000D02*
X411306D01*
X409101Y60086D01*
X407413Y58399D01*
X406500Y56193D01*
Y53807D01*
X407413Y51601D01*
X409101Y49913D01*
X411306Y49000D01*
X413694D01*
X415899Y49913D01*
X417587Y51601D01*
X418500Y53807D01*
Y56193D01*
X417587Y58399D01*
X415899Y60086D01*
X413694Y61000D01*
D02*
G37*
G36*
X423694Y51000D02*
X421306D01*
X419101Y50087D01*
X417413Y48399D01*
X416500Y46193D01*
Y43807D01*
X417413Y41601D01*
X419101Y39913D01*
X421306Y39000D01*
X423694D01*
X425899Y39913D01*
X427587Y41601D01*
X428500Y43807D01*
Y46193D01*
X427587Y48399D01*
X425899Y50087D01*
X423694Y51000D01*
D02*
G37*
G36*
X650693Y28500D02*
X648307D01*
X646101Y27587D01*
X644413Y25899D01*
X643500Y23693D01*
Y21307D01*
X644413Y19101D01*
X646101Y17414D01*
X648307Y16500D01*
X650693D01*
X652899Y17414D01*
X654586Y19101D01*
X655500Y21307D01*
Y23693D01*
X654586Y25899D01*
X652899Y27587D01*
X650693Y28500D01*
D02*
G37*
G36*
X340000Y140000D02*
X335000D01*
Y10000D01*
X340000D01*
Y140000D01*
D02*
G37*
G36*
X693966Y48000D02*
X690027D01*
X686163Y47231D01*
X682523Y45724D01*
X679247Y43535D01*
X676461Y40749D01*
X674273Y37473D01*
X672765Y33834D01*
X671997Y29970D01*
Y26030D01*
X672765Y22166D01*
X674273Y18527D01*
X676461Y15251D01*
X679247Y12465D01*
X682523Y10276D01*
X686163Y8769D01*
X690027Y8000D01*
X693966D01*
X697830Y8769D01*
X701470Y10276D01*
X704746Y12465D01*
X707532Y15251D01*
X709720Y18527D01*
X711228Y22166D01*
X711997Y26030D01*
Y29970D01*
X711228Y33834D01*
X709720Y37473D01*
X707532Y40749D01*
X704746Y43535D01*
X701470Y45724D01*
X697830Y47231D01*
X693966Y48000D01*
D02*
G37*
G36*
X29966D02*
X26027D01*
X22163Y47231D01*
X18523Y45724D01*
X15247Y43535D01*
X12462Y40749D01*
X10273Y37473D01*
X8765Y33834D01*
X7997Y29970D01*
Y26030D01*
X8765Y22166D01*
X10273Y18527D01*
X12462Y15251D01*
X15247Y12465D01*
X18523Y10276D01*
X22163Y8769D01*
X26027Y8000D01*
X29966D01*
X33830Y8769D01*
X37470Y10276D01*
X40746Y12465D01*
X43531Y15251D01*
X45720Y18527D01*
X47228Y22166D01*
X47997Y26030D01*
Y29970D01*
X47228Y33834D01*
X45720Y37473D01*
X43531Y40749D01*
X40746Y43535D01*
X37470Y45724D01*
X33830Y47231D01*
X29966Y48000D01*
D02*
G37*
G36*
X573694Y18500D02*
X571306D01*
X569101Y17587D01*
X567413Y15899D01*
X566500Y13693D01*
Y11307D01*
X567413Y9101D01*
X569101Y7413D01*
X571306Y6500D01*
X573694D01*
X575899Y7413D01*
X577587Y9101D01*
X578500Y11307D01*
Y13693D01*
X577587Y15899D01*
X575899Y17587D01*
X573694Y18500D01*
D02*
G37*
%LPD*%
G36*
X622922Y83212D02*
X625496D01*
Y82569D01*
X626783D01*
Y81925D01*
X628070D01*
Y81282D01*
X629357D01*
Y80638D01*
X630000D01*
Y79995D01*
X630644D01*
Y79351D01*
X631287D01*
Y78708D01*
X631930D01*
Y78064D01*
X632574D01*
Y77421D01*
X633217D01*
Y76777D01*
X633861D01*
Y75490D01*
X634504D01*
Y74204D01*
X635148D01*
Y72917D01*
X635791D01*
Y70343D01*
X636435D01*
Y66482D01*
X637721D01*
Y65839D01*
X639652D01*
Y65195D01*
X640295D01*
Y64552D01*
X641582D01*
Y63908D01*
X642226D01*
Y63265D01*
X642869D01*
Y62621D01*
X643513D01*
Y61978D01*
X644156D01*
Y61334D01*
X644800D01*
Y60047D01*
X645443D01*
Y58760D01*
X646087D01*
Y56830D01*
X646730D01*
Y51683D01*
X646087D01*
Y49752D01*
X645443D01*
Y48465D01*
X644800D01*
Y47178D01*
X644156D01*
Y46535D01*
X643513D01*
Y45891D01*
X642869D01*
Y45248D01*
X642226D01*
Y44604D01*
X640939D01*
Y43961D01*
X639652D01*
Y43317D01*
X637721D01*
Y42674D01*
X630000D01*
Y52326D01*
X629357D01*
Y54256D01*
X628713D01*
Y54900D01*
X628070D01*
Y56187D01*
X627426D01*
Y56830D01*
X626783D01*
Y57474D01*
X626139D01*
Y58760D01*
X625496D01*
Y59404D01*
X624852D01*
Y60047D01*
X624209D01*
Y60691D01*
X623565D01*
Y61334D01*
X622922D01*
Y61978D01*
X621635D01*
Y61334D01*
X620992D01*
Y60047D01*
X621635D01*
Y58760D01*
X622279D01*
Y58117D01*
X622922D01*
Y57474D01*
X623565D01*
Y56830D01*
X624209D01*
Y56187D01*
X624852D01*
Y54900D01*
X625496D01*
Y54256D01*
X626139D01*
Y53613D01*
X626783D01*
Y51683D01*
X627426D01*
Y42674D01*
X630000D01*
Y36883D01*
X631287D01*
Y36239D01*
X631930D01*
Y34952D01*
X632574D01*
Y32379D01*
X631930D01*
Y31092D01*
X631287D01*
Y30448D01*
X630000D01*
Y29805D01*
X627426D01*
Y30448D01*
X626139D01*
Y31092D01*
X625496D01*
Y32379D01*
X624852D01*
Y34952D01*
X625496D01*
Y36239D01*
X626139D01*
Y36883D01*
X627426D01*
Y42674D01*
X615844D01*
Y61334D01*
X615200D01*
Y61978D01*
X613913D01*
Y61334D01*
X613270D01*
Y42674D01*
X615844D01*
Y38813D01*
Y38170D01*
Y36883D01*
X617131D01*
Y36239D01*
X617774D01*
Y34952D01*
X618418D01*
Y32379D01*
X617774D01*
Y31092D01*
X617131D01*
Y30448D01*
X615844D01*
Y29805D01*
X613270D01*
Y30448D01*
X611983D01*
Y31092D01*
X611340D01*
Y32379D01*
X610696D01*
Y34952D01*
X611340D01*
Y36239D01*
X611983D01*
Y36883D01*
X613270D01*
Y42674D01*
X601688D01*
Y51683D01*
X602331D01*
Y53613D01*
X602975D01*
Y54256D01*
X603618D01*
Y54900D01*
X604262D01*
Y56187D01*
X604905D01*
Y56830D01*
X605549D01*
Y57474D01*
X606192D01*
Y58117D01*
X606836D01*
Y58760D01*
X607479D01*
Y60047D01*
X608122D01*
Y61334D01*
X607479D01*
Y61978D01*
X606192D01*
Y61334D01*
X605549D01*
Y60691D01*
X604905D01*
Y60047D01*
X604262D01*
Y59404D01*
X603618D01*
Y58760D01*
X602975D01*
Y57474D01*
X602331D01*
Y56830D01*
X601688D01*
Y56187D01*
X601044D01*
Y54900D01*
X600401D01*
Y54256D01*
X599757D01*
Y52326D01*
X599114D01*
Y42674D01*
X601688D01*
Y36883D01*
X602975D01*
Y36239D01*
X603618D01*
Y34952D01*
X604262D01*
Y32379D01*
X603618D01*
Y31092D01*
X602975D01*
Y30448D01*
X601688D01*
Y29805D01*
X599114D01*
Y30448D01*
X597827D01*
Y31092D01*
X597184D01*
Y32379D01*
X596540D01*
Y34952D01*
X597184D01*
Y36239D01*
X597827D01*
Y36883D01*
X599114D01*
Y38170D01*
Y38813D01*
Y42674D01*
X592036D01*
Y43317D01*
X590106D01*
Y43961D01*
X588819D01*
Y44604D01*
X587532D01*
Y45248D01*
X586888D01*
Y45891D01*
X586245D01*
Y46535D01*
X585601D01*
Y47178D01*
X584958D01*
Y47822D01*
X584314D01*
Y49109D01*
X583671D01*
Y50396D01*
X583027D01*
Y52326D01*
X582384D01*
Y58117D01*
X583027D01*
Y60047D01*
X583671D01*
Y61978D01*
X584314D01*
Y62621D01*
X584958D01*
Y63908D01*
X585601D01*
Y64552D01*
X586245D01*
Y65195D01*
X586888D01*
Y65839D01*
X588175D01*
Y66482D01*
X589462D01*
Y67126D01*
X590749D01*
Y67769D01*
X591392D01*
Y69699D01*
X592036D01*
Y71630D01*
X592679D01*
Y72273D01*
X593323D01*
Y73560D01*
X593966D01*
Y74204D01*
X595253D01*
Y74847D01*
X595897D01*
Y75490D01*
X597827D01*
Y76134D01*
X602331D01*
Y75490D01*
X604262D01*
Y74847D01*
X604905D01*
Y75490D01*
X605549D01*
Y76777D01*
X606192D01*
Y77421D01*
X606836D01*
Y78064D01*
X607479D01*
Y78708D01*
X608122D01*
Y79351D01*
X608766D01*
Y79995D01*
X609409D01*
Y80638D01*
X610053D01*
Y81282D01*
X611340D01*
Y81925D01*
X612627D01*
Y82569D01*
X613913D01*
Y83212D01*
X616487D01*
Y83855D01*
X622922D01*
Y83212D01*
D02*
G37*
%LPC*%
G36*
X631693Y203500D02*
X629306D01*
X627101Y202587D01*
X625414Y200899D01*
X624500Y198694D01*
Y196306D01*
X625414Y194101D01*
X627101Y192414D01*
X629306Y191500D01*
X631693D01*
X633899Y192414D01*
X635587Y194101D01*
X636500Y196306D01*
Y198694D01*
X635587Y200899D01*
X633899Y202587D01*
X631693Y203500D01*
D02*
G37*
%LPD*%
D11*
X587500Y45000D02*
X590000Y47500D01*
X587500Y17500D02*
Y45000D01*
D44*
X654100Y210990D02*
D03*
Y231310D02*
D03*
X704900Y221150D02*
D03*
D54*
X150000Y112000D02*
D03*
Y128000D02*
D03*
D74*
X650000Y220000D02*
X659300D01*
X666800Y227500D01*
X679500Y227500D02*
Y237000D01*
X680000Y237500D01*
X687500Y245000D02*
X692200Y240300D01*
Y227500D02*
Y240300D01*
X665000Y200300D02*
X679500Y214800D01*
X665000Y177500D02*
Y200300D01*
X535000Y177500D02*
X542500Y170000D01*
X505000Y177500D02*
X535000D01*
X465000Y137500D02*
X505000Y177500D01*
X462500Y207500D02*
Y267500D01*
X470000Y275000D01*
X645000Y207500D02*
X655000Y197500D01*
X645000Y207500D02*
Y215000D01*
X650000Y220000D01*
X202500Y185000D02*
X352500D01*
X174000Y156500D02*
X202500Y185000D01*
X174000Y146500D02*
Y156500D01*
X352500Y142500D02*
X390000D01*
X395000Y137500D01*
X465000D01*
X392500Y225000D02*
X410000Y207500D01*
X182500Y225000D02*
X392500D01*
X119000Y161500D02*
X182500Y225000D01*
X141000Y163500D02*
X182500Y205000D01*
X400000D01*
X200000Y195000D02*
X417500D01*
X163000Y158000D02*
X200000Y195000D01*
X163000Y127022D02*
Y158000D01*
X57500Y152500D02*
X75000Y135000D01*
X57500Y152500D02*
Y170000D01*
X75000Y135000D02*
X140000D01*
X80000Y120000D02*
X155978D01*
X44700Y155300D02*
X80000Y120000D01*
X44700Y155300D02*
Y162700D01*
X19300Y98200D02*
X37500Y80000D01*
X222500D01*
X295000Y152500D01*
X32500Y105000D02*
X50000Y87500D01*
X220000D01*
X292500Y160000D01*
X210000Y102500D02*
X282500Y175000D01*
X44700Y137300D02*
X79500Y102500D01*
X210000D01*
X152000Y137000D02*
Y146500D01*
X150000Y135000D02*
X152000Y137000D01*
X150000Y128000D02*
Y135000D01*
X155978Y120000D02*
X163000Y127022D01*
X138000Y128000D02*
X150000D01*
X215000Y95000D02*
X287500Y167500D01*
X44700Y111900D02*
X61600Y95000D01*
X215000D01*
X141000Y136000D02*
Y146500D01*
X140000Y135000D02*
X141000Y136000D01*
X427500Y160000D02*
X470000Y202500D01*
X292500Y160000D02*
X427500D01*
X422500Y167500D02*
X462500Y207500D01*
X469500Y253250D02*
X474250D01*
X477500Y200000D02*
Y250000D01*
X474250Y253250D02*
X477500Y250000D01*
X430000Y152500D02*
X477500Y200000D01*
X295000Y152500D02*
X430000D01*
X19300Y98200D02*
Y111900D01*
X470000Y202500D02*
Y245000D01*
X32500Y105000D02*
Y124100D01*
X19300Y137300D02*
X32500Y124100D01*
X287500Y167500D02*
X422500D01*
X417500Y217500D02*
X425000Y210000D01*
Y185000D02*
Y210000D01*
X415000Y175000D02*
X425000Y185000D01*
X282500Y175000D02*
X415000D01*
X119000Y146500D02*
Y161500D01*
X410000Y202500D02*
Y207500D01*
X130000Y146500D02*
Y159500D01*
X141000Y146500D02*
Y163500D01*
X52500Y175000D02*
X57500Y170000D01*
X31600Y175000D02*
X52500D01*
X630000Y250000D02*
X690000D01*
X623750Y243750D02*
X630000Y250000D01*
X532750Y243750D02*
X623750D01*
X697500Y210000D02*
X706271D01*
X692700Y214800D02*
X697500Y210000D01*
X706271D02*
X713900Y217629D01*
X635000Y245000D02*
X687500D01*
X607500Y217500D02*
X635000Y245000D01*
X577500Y135000D02*
X600000D01*
X605000Y140000D01*
X577500Y197500D02*
X587500Y207500D01*
X592500D02*
X602500Y217500D01*
X587500Y207500D02*
X592500D01*
X557000Y158000D02*
X563000D01*
X577500Y172500D01*
Y197500D01*
X602500Y217500D02*
X607500D01*
X612500Y125000D02*
X665000Y177500D01*
X562500Y125000D02*
X612500D01*
X552500Y115000D02*
X562500Y125000D01*
X540000Y115000D02*
X552500D01*
X530000Y105000D02*
X540000Y115000D01*
X515000Y105000D02*
X530000D01*
X557500Y142500D02*
X570000D01*
X527500Y112500D02*
X557500Y142500D01*
X510000Y112500D02*
X527500D01*
X502500Y105000D02*
X510000Y112500D01*
X492500Y105000D02*
X502500D01*
X530000Y130000D02*
X550000Y150000D01*
X505000Y130000D02*
X530000D01*
X497500Y122500D02*
X505000Y130000D01*
X487500Y110000D02*
X492500Y105000D01*
X487500Y110000D02*
Y122500D01*
X570000Y142500D02*
X577500Y135000D01*
X550000Y150000D02*
X605000D01*
X713900Y217629D02*
Y226100D01*
X690000Y250000D02*
X713900Y226100D01*
X528000Y239000D02*
X532750Y243750D01*
X522500Y217500D02*
X570000D01*
X500000Y240000D02*
Y255000D01*
Y240000D02*
X522500Y217500D01*
X570000D02*
X580000Y227500D01*
X500000Y255000D02*
X516350Y271350D01*
X526150D01*
X580000Y227500D02*
X605000D01*
X19300Y162700D02*
X31600Y175000D01*
D75*
X550000Y165496D02*
Y182500D01*
X495750Y148250D02*
X532754D01*
X472500Y125000D02*
X495750Y148250D01*
X534411Y144250D02*
X557500Y167339D01*
X499250Y144250D02*
X534411D01*
X477500Y122500D02*
X499250Y144250D01*
X532754Y148250D02*
X550000Y165496D01*
Y182500D02*
X565000Y197500D01*
X557500Y167339D02*
Y180000D01*
X565000Y187500D01*
X535000Y85000D02*
X540000Y80000D01*
X520000Y85000D02*
X535000D01*
X540000Y75000D02*
Y80000D01*
X507500Y97500D02*
X520000Y85000D01*
X490000Y97500D02*
X507500D01*
X472500Y107500D02*
X487500Y92500D01*
X505000D01*
X520000Y77500D01*
X472500Y107500D02*
Y125000D01*
X477500Y110000D02*
Y122500D01*
Y110000D02*
X490000Y97500D01*
X520000Y77500D02*
X532500D01*
Y67500D02*
X540000Y75000D01*
D76*
X193000Y252500D02*
D03*
X113000D02*
D03*
D77*
X44700Y111900D02*
D03*
Y137300D02*
D03*
X44700Y162700D02*
D03*
X44700Y188100D02*
D03*
X19300Y137300D02*
D03*
Y162700D02*
D03*
Y111900D02*
D03*
D78*
Y188100D02*
D03*
D79*
X665000Y158900D02*
D03*
Y101100D02*
D03*
D80*
X70000Y242500D02*
D03*
Y255000D02*
D03*
X217500Y152500D02*
D03*
X230000Y165000D02*
D03*
X252500Y242500D02*
D03*
Y255000D02*
D03*
X542500Y170000D02*
D03*
X510000Y167500D02*
D03*
X487500Y190000D02*
D03*
Y215000D02*
D03*
X510000Y190000D02*
D03*
X462500Y167500D02*
D03*
X510000Y215000D02*
D03*
X470000Y275000D02*
D03*
X655000Y197500D02*
D03*
X405000Y122500D02*
D03*
X490000Y275000D02*
D03*
X352500Y142500D02*
D03*
Y185000D02*
D03*
X138000Y112000D02*
D03*
Y128000D02*
D03*
X400000Y205000D02*
D03*
X130000Y159500D02*
D03*
X680000Y237500D02*
D03*
X649500Y22500D02*
D03*
X567500Y177500D02*
D03*
X405000Y65000D02*
D03*
X529243Y96500D02*
D03*
X525000Y120000D02*
D03*
X515000Y105000D02*
D03*
X587500Y17500D02*
D03*
X425000Y145000D02*
D03*
X587000Y8000D02*
D03*
X572500Y12500D02*
D03*
X490125Y250000D02*
D03*
X585000Y142000D02*
D03*
X560000Y57500D02*
D03*
X495000Y112500D02*
D03*
X7500Y95000D02*
D03*
X82500Y185000D02*
D03*
X67500Y165000D02*
D03*
X497500Y122500D02*
D03*
X487500D02*
D03*
X539500Y237000D02*
D03*
X567500Y287500D02*
D03*
X577500D02*
D03*
X557500D02*
D03*
X512500Y292500D02*
D03*
X640000Y267500D02*
D03*
Y287500D02*
D03*
X605000Y170000D02*
D03*
X602500Y187500D02*
D03*
Y207500D02*
D03*
X571500Y26500D02*
D03*
X585000Y267500D02*
D03*
X585950Y278442D02*
D03*
X527500Y248642D02*
D03*
X605000Y227500D02*
D03*
X526150Y271350D02*
D03*
X590250Y217500D02*
D03*
Y197500D02*
D03*
X564750Y207500D02*
D03*
X565000Y227500D02*
D03*
X557000Y158000D02*
D03*
X528000Y239000D02*
D03*
X509000Y251000D02*
D03*
X630500Y197500D02*
D03*
X532500Y77500D02*
D03*
X425000Y130000D02*
D03*
X445000D02*
D03*
X452500Y147500D02*
D03*
X412500Y55000D02*
D03*
X422500Y45000D02*
D03*
X410000Y182500D02*
D03*
X373000Y235500D02*
D03*
X383000Y132000D02*
D03*
X365000Y122500D02*
D03*
X383250Y53750D02*
D03*
X367500Y62500D02*
D03*
Y45000D02*
D03*
X412500Y17500D02*
D03*
X402500Y30000D02*
D03*
X450000Y32500D02*
D03*
X505000D02*
D03*
X502500Y82500D02*
D03*
X452500D02*
D03*
X437500Y22500D02*
D03*
X422500Y35000D02*
D03*
X517500Y22500D02*
D03*
X540000Y17500D02*
D03*
X530000Y30000D02*
D03*
X655000Y62500D02*
D03*
Y42500D02*
D03*
X665000Y52500D02*
D03*
Y32500D02*
D03*
Y12500D02*
D03*
X612500Y22500D02*
D03*
X550000Y122500D02*
D03*
X560000Y132500D02*
D03*
Y112500D02*
D03*
X550000Y102500D02*
D03*
X585000D02*
D03*
X575000Y112500D02*
D03*
X582500Y72500D02*
D03*
X567500Y80000D02*
D03*
X665000Y112500D02*
D03*
X615000Y97500D02*
D03*
X622500Y115250D02*
D03*
X442500Y117500D02*
D03*
X697500Y60000D02*
D03*
Y162500D02*
D03*
Y97500D02*
D03*
X680000Y60000D02*
D03*
Y97500D02*
D03*
Y80000D02*
D03*
Y200000D02*
D03*
Y162500D02*
D03*
Y180000D02*
D03*
X645000Y170000D02*
D03*
X595000Y167500D02*
D03*
X585000Y158000D02*
D03*
X665000Y147500D02*
D03*
X642086Y92086D02*
D03*
X432500Y258000D02*
D03*
X435000Y227500D02*
D03*
X425000Y275000D02*
D03*
X442500D02*
D03*
X380000Y187500D02*
D03*
X565000Y197500D02*
D03*
Y187500D02*
D03*
X532500Y67500D02*
D03*
X417500Y195000D02*
D03*
X410000Y202500D02*
D03*
X417500Y217500D02*
D03*
X469500Y253250D02*
D03*
X470000Y245000D02*
D03*
X540000Y57500D02*
D03*
X527000Y138000D02*
D03*
X435000Y241000D02*
D03*
Y249000D02*
D03*
X605000Y150000D02*
D03*
Y140000D02*
D03*
D81*
X185000Y146500D02*
D03*
X174000D02*
D03*
X163000D02*
D03*
X152000D02*
D03*
X141000D02*
D03*
X130000D02*
D03*
X119000D02*
D03*
X108000D02*
D03*
X97000D02*
D03*
D82*
X82500Y152500D02*
D03*
X231000D02*
D03*
D83*
X85000Y248500D02*
D03*
X240000D02*
D03*
D84*
X666800Y227500D02*
D03*
X692200Y214800D02*
D03*
Y227500D02*
D03*
X679500Y214800D02*
D03*
X666800D02*
D03*
X679500Y227500D02*
D03*
M02*
