G04*
G04 #@! TF.GenerationSoftware,Altium Limited,Altium Designer,24.6.1 (21)*
G04*
G04 Layer_Physical_Order=3*
G04 Layer_Color=16440176*
%FSLAX44Y44*%
%MOMM*%
G71*
G04*
G04 #@! TF.SameCoordinates,7FE9C145-C3CB-471E-AB6E-A22DF7334544*
G04*
G04*
G04 #@! TF.FilePolarity,Positive*
G04*
G01*
G75*
%ADD44C,0.8500*%
%ADD76C,1.4000*%
%ADD77C,1.5000*%
G04:AMPARAMS|DCode=78|XSize=1.5mm|YSize=1.5mm|CornerRadius=0.375mm|HoleSize=0mm|Usage=FLASHONLY|Rotation=270.000|XOffset=0mm|YOffset=0mm|HoleType=Round|Shape=RoundedRectangle|*
%AMROUNDEDRECTD78*
21,1,1.5000,0.7500,0,0,270.0*
21,1,0.7500,1.5000,0,0,270.0*
1,1,0.7500,-0.3750,-0.3750*
1,1,0.7500,-0.3750,0.3750*
1,1,0.7500,0.3750,0.3750*
1,1,0.7500,0.3750,-0.3750*
%
%ADD78ROUNDEDRECTD78*%
%ADD79C,0.6500*%
%ADD80C,0.6000*%
G36*
X696678Y295513D02*
X699707Y294702D01*
X702604Y293502D01*
X705320Y291934D01*
X707807Y290025D01*
X710025Y287808D01*
X711934Y285320D01*
X713502Y282604D01*
X714702Y279707D01*
X715513Y276678D01*
X715922Y273568D01*
X715922Y272000D01*
X715922Y272000D01*
X715922Y272000D01*
X715922Y82500D01*
X685459D01*
X685087Y83399D01*
X683399Y85086D01*
X681193Y86000D01*
X678807D01*
X676601Y85086D01*
X674913Y83399D01*
X674541Y82500D01*
X637500D01*
X636505Y82500D01*
X634668Y83261D01*
X633261Y84668D01*
X632500Y86505D01*
X632500Y87500D01*
Y142500D01*
X632500D01*
X632500Y142500D01*
X632500Y142500D01*
X632404Y143476D01*
X632326Y143664D01*
X631658Y145278D01*
X630278Y146658D01*
X628475Y147404D01*
X627500Y147500D01*
X611602Y147500D01*
X610896Y148556D01*
X611000Y148806D01*
Y151194D01*
X610087Y153399D01*
X608399Y155087D01*
X606194Y156000D01*
X603806D01*
X601601Y155087D01*
X599913Y153399D01*
X599000Y151194D01*
Y148806D01*
X599104Y148556D01*
X598398Y147500D01*
X587401Y147500D01*
X586194Y148000D01*
X583806D01*
X582599Y147500D01*
X581505Y147500D01*
X579668Y148261D01*
X578261Y149668D01*
X577500Y151505D01*
X577500Y152500D01*
Y170000D01*
X577500Y170000D01*
X577597Y171230D01*
X578261Y172833D01*
X579667Y174239D01*
X581505Y175000D01*
X582500Y175000D01*
X592500Y175000D01*
X593475Y175096D01*
X593693Y175186D01*
X595278Y175842D01*
X596658Y177222D01*
X597404Y179024D01*
X597500Y180000D01*
Y182355D01*
X598673Y182841D01*
X599101Y182414D01*
X601306Y181500D01*
X603694D01*
X605899Y182414D01*
X607587Y184101D01*
X608500Y186306D01*
Y188694D01*
X607587Y190899D01*
X605899Y192587D01*
X603694Y193500D01*
X601306D01*
X599101Y192587D01*
X598770Y192255D01*
X597500Y192781D01*
X597500Y202355D01*
X598673Y202841D01*
X599101Y202413D01*
X601306Y201500D01*
X603694D01*
X605899Y202413D01*
X607587Y204101D01*
X608500Y206306D01*
Y208694D01*
X607587Y210899D01*
X605899Y212586D01*
X603694Y213500D01*
X601306D01*
X599101Y212586D01*
X598673Y212159D01*
X597843Y212502D01*
X597500Y212781D01*
X597500Y240000D01*
X597500D01*
X597500Y240000D01*
X597500Y240000D01*
X597404Y240975D01*
X597326Y241164D01*
X596658Y242778D01*
X595278Y244158D01*
X593475Y244904D01*
X592500Y245000D01*
X529193Y245000D01*
X522500D01*
X521505Y245000D01*
X519668Y245761D01*
X518261Y247168D01*
X517500Y249005D01*
X517500Y250000D01*
Y252500D01*
X517500D01*
X517500Y252500D01*
X517500Y252500D01*
X517404Y253475D01*
X517326Y253664D01*
X516658Y255278D01*
X515278Y256658D01*
X513475Y257404D01*
X512500Y257500D01*
X487500Y257500D01*
X487500Y257500D01*
X486525Y257404D01*
X484722Y256657D01*
X483343Y255278D01*
X482596Y253475D01*
X482500Y252500D01*
X482500Y218485D01*
X482413Y218399D01*
X481500Y216194D01*
Y213806D01*
X482413Y211601D01*
X482500Y211515D01*
X482500Y193485D01*
X482413Y193399D01*
X481500Y191194D01*
Y188806D01*
X482413Y186601D01*
X482500Y186515D01*
X482500Y125985D01*
X482413Y125899D01*
X481500Y123694D01*
Y121306D01*
X482413Y119101D01*
X482500Y119015D01*
Y112500D01*
X482500Y112500D01*
X482500Y111505D01*
X481739Y109668D01*
X480332Y108261D01*
X478494Y107500D01*
X477500Y107500D01*
X442500D01*
X442500Y107500D01*
X441505Y107500D01*
X439667Y108261D01*
X438261Y109668D01*
X437500Y111505D01*
X437500Y112500D01*
Y148764D01*
X437755Y148815D01*
X439022Y149339D01*
X439278Y149511D01*
X439278Y149511D01*
X439356Y149563D01*
X439727Y149716D01*
X439983Y149888D01*
X439983Y149888D01*
X440382Y150154D01*
X440666Y150438D01*
X441000Y150661D01*
X441839Y151500D01*
X442062Y151834D01*
X442346Y152118D01*
X442562Y152442D01*
X442562Y152442D01*
X442784Y152773D01*
X442937Y153144D01*
X443160Y153478D01*
X443614Y154574D01*
X443693Y154968D01*
X443846Y155339D01*
X444000Y156111D01*
X444000Y156513D01*
X444078Y156907D01*
X444078Y157501D01*
X444078Y202500D01*
Y221954D01*
X444000Y222348D01*
X444000Y222749D01*
X443930Y223102D01*
X443835Y223331D01*
X443805Y223577D01*
X443533Y224060D01*
X443321Y224573D01*
X443146Y224748D01*
X443024Y224964D01*
X442588Y225306D01*
X442196Y225698D01*
X441967Y225793D01*
X441772Y225945D01*
X441000Y226336D01*
Y228664D01*
X441771Y229054D01*
X441967Y229207D01*
X442196Y229302D01*
X442588Y229694D01*
X443024Y230036D01*
X443145Y230252D01*
X443321Y230427D01*
X443533Y230940D01*
X443805Y231422D01*
X443835Y231669D01*
X443930Y231898D01*
X444000Y232251D01*
Y232652D01*
X444078Y233046D01*
Y247500D01*
X444078Y247501D01*
Y247503D01*
X444053Y247631D01*
X444070Y247760D01*
X444022Y248528D01*
X443953Y248787D01*
X443953Y248788D01*
X443945Y248918D01*
X443910Y249047D01*
X443893Y249317D01*
X443825Y249576D01*
X443772Y249839D01*
X443669Y250090D01*
X443643Y250221D01*
X443593Y250341D01*
X443593Y250341D01*
X443540Y250604D01*
X443160Y251522D01*
X442937Y251856D01*
X442784Y252227D01*
X442346Y252882D01*
X442062Y253166D01*
X441839Y253500D01*
X441000Y254338D01*
X440666Y254562D01*
X440382Y254846D01*
X439891Y255174D01*
X439891Y255174D01*
X439727Y255284D01*
X439356Y255437D01*
X439186Y255551D01*
X438314Y256357D01*
X438500Y256807D01*
Y259193D01*
X437587Y261399D01*
X437500Y261485D01*
Y266000D01*
X437750D01*
X438102Y266070D01*
X438331Y266165D01*
X438578Y266195D01*
X439061Y266467D01*
X439573Y266679D01*
X439748Y266854D01*
X439964Y266976D01*
X440306Y267412D01*
X440698Y267804D01*
X440793Y268033D01*
X440946Y268228D01*
X441336Y269000D01*
X443664D01*
X444054Y268228D01*
X444207Y268034D01*
X444302Y267804D01*
X444694Y267412D01*
X445036Y266976D01*
X445252Y266854D01*
X445428Y266679D01*
X445939Y266467D01*
X446423Y266195D01*
X446669Y266165D01*
X446898Y266070D01*
X447251Y266000D01*
X447652Y266000D01*
X448046Y265922D01*
X464454D01*
X464848Y266000D01*
X465250D01*
X465602Y266070D01*
X465831Y266165D01*
X466078Y266195D01*
X466561Y266467D01*
X467073Y266679D01*
X467248Y266854D01*
X467464Y266976D01*
X467806Y267412D01*
X468198Y267804D01*
X468293Y268033D01*
X468446Y268228D01*
X468836Y269000D01*
X471164D01*
X471554Y268228D01*
X471707Y268034D01*
X471802Y267804D01*
X472194Y267412D01*
X472536Y266976D01*
X472752Y266854D01*
X472928Y266679D01*
X473439Y266467D01*
X473923Y266195D01*
X474169Y266165D01*
X474398Y266070D01*
X474751Y266000D01*
X475152Y266000D01*
X475546Y265922D01*
X488789D01*
X488789Y265922D01*
X488789Y265922D01*
X490000Y265922D01*
X490246Y265971D01*
X490497Y265952D01*
X491466Y266071D01*
X491540Y266077D01*
X491994Y266205D01*
X492165D01*
X492396Y266251D01*
X492617Y266342D01*
X492779Y266375D01*
X492930Y266437D01*
X493162Y266483D01*
X494022Y266840D01*
X494356Y267063D01*
X494727Y267216D01*
X495382Y267654D01*
X495666Y267938D01*
X496000Y268161D01*
X496839Y269000D01*
X497062Y269334D01*
X497346Y269618D01*
X497784Y270273D01*
X497937Y270644D01*
X498160Y270978D01*
X498614Y272074D01*
X498693Y272468D01*
X498846Y272839D01*
X499000Y273611D01*
Y274013D01*
X499078Y274407D01*
X499078Y275001D01*
X499078Y295922D01*
X500348Y295922D01*
X506048D01*
X506897Y294652D01*
X506500Y293694D01*
Y291306D01*
X507413Y289101D01*
X509101Y287413D01*
X511306Y286500D01*
X513694D01*
X515899Y287413D01*
X517587Y289101D01*
X518500Y291306D01*
Y293694D01*
X518103Y294652D01*
X518952Y295922D01*
X692000D01*
X692000Y295922D01*
X692001Y295922D01*
X693568Y295922D01*
X696678Y295513D01*
D02*
G37*
G36*
X495000Y295922D02*
X495000Y275001D01*
X495000Y274407D01*
X494846Y273634D01*
X494393Y272539D01*
X493955Y271884D01*
X493116Y271045D01*
X492461Y270607D01*
X491601Y270251D01*
X491370Y270205D01*
X491219Y270143D01*
X491056Y270130D01*
X490000Y270000D01*
X490000Y270000D01*
X488789Y270000D01*
X475546D01*
X475193Y270070D01*
X474643Y271158D01*
X475087Y271601D01*
X476000Y273806D01*
Y276194D01*
X475087Y278399D01*
X473399Y280087D01*
X471194Y281000D01*
X468806D01*
X466601Y280087D01*
X464913Y278399D01*
X464000Y276194D01*
Y273806D01*
X464913Y271601D01*
X465357Y271158D01*
X464807Y270070D01*
X464454Y270000D01*
X461250D01*
X448046D01*
X447693Y270070D01*
X447143Y271158D01*
X447587Y271601D01*
X448500Y273806D01*
Y276194D01*
X447587Y278399D01*
X445899Y280087D01*
X443694Y281000D01*
X441306D01*
X439101Y280087D01*
X437413Y278399D01*
X436500Y276194D01*
Y273806D01*
X437413Y271601D01*
X437857Y271158D01*
X437307Y270070D01*
X436954Y270000D01*
X432500D01*
X431525Y269904D01*
X429722Y269157D01*
X428343Y267778D01*
X427686Y266193D01*
X427596Y265975D01*
X427500Y265000D01*
X427500Y265000D01*
Y261485D01*
X427413Y261399D01*
X426500Y259193D01*
Y256807D01*
X427413Y254601D01*
X429101Y252913D01*
X431306Y252000D01*
X433694D01*
X434901Y252500D01*
X435995Y252500D01*
X436610Y252245D01*
X436610Y252245D01*
X437461Y251893D01*
X437625Y251783D01*
X437625Y251783D01*
X437625Y251783D01*
X438116Y251455D01*
X438955Y250616D01*
X439392Y249961D01*
X439772Y249044D01*
X439825Y248781D01*
X439874Y248661D01*
X439883Y248531D01*
X439951Y248272D01*
X440000Y247503D01*
Y247501D01*
X440000Y247500D01*
Y233046D01*
X439930Y232693D01*
X438842Y232143D01*
X438399Y232587D01*
X436194Y233500D01*
X433806D01*
X431601Y232587D01*
X429913Y230899D01*
X429000Y228694D01*
Y226306D01*
X429913Y224101D01*
X431601Y222413D01*
X433806Y221500D01*
X436194D01*
X438399Y222413D01*
X438842Y222857D01*
X439930Y222307D01*
X440000Y221954D01*
Y202500D01*
X440000Y157500D01*
X440000Y156907D01*
X439846Y156134D01*
X439393Y155039D01*
X439171Y154708D01*
X439171Y154708D01*
X438955Y154384D01*
X438116Y153545D01*
X437718Y153279D01*
X437718Y153279D01*
X437461Y153107D01*
X436194Y152583D01*
X435000Y152500D01*
X435000Y152500D01*
X417500Y152500D01*
X416525Y152404D01*
X414722Y151657D01*
X413342Y150278D01*
X412686Y148693D01*
X412596Y148475D01*
X412500Y147500D01*
X412500Y147500D01*
X412500Y147500D01*
X412500Y112553D01*
X412500Y111907D01*
X412476Y111784D01*
Y111784D01*
X412475Y111783D01*
X412346Y111134D01*
X411892Y110038D01*
X411695Y109743D01*
X411695Y109743D01*
X411695Y109743D01*
X411455Y109384D01*
X410616Y108545D01*
X410111Y108207D01*
X410111Y108207D01*
X410111Y108207D01*
X409961Y108107D01*
X408865Y107654D01*
X408438Y107569D01*
X408438Y107569D01*
X408438D01*
X408093Y107500D01*
X407500Y107500D01*
X400000D01*
X399407Y107500D01*
X399316Y107518D01*
X399316D01*
X399316Y107518D01*
X398634Y107654D01*
X397539Y108107D01*
X397029Y108448D01*
X397029Y108448D01*
X396884Y108545D01*
X396045Y109383D01*
X395607Y110039D01*
X395154Y111134D01*
X395030Y111757D01*
X395030Y111757D01*
X395000Y111907D01*
X395000Y112500D01*
X395000Y112500D01*
Y199454D01*
X395070Y199807D01*
X396158Y200357D01*
X396601Y199913D01*
X398806Y199000D01*
X401194D01*
X403399Y199913D01*
X403424Y199938D01*
X404669Y199691D01*
X404913Y199101D01*
X406601Y197413D01*
X408806Y196500D01*
X410327D01*
X411257Y196257D01*
X411500Y195327D01*
Y193806D01*
X412413Y191601D01*
X414101Y189913D01*
X416306Y189000D01*
X418694D01*
X420899Y189913D01*
X422587Y191601D01*
X423500Y193806D01*
Y196194D01*
X422587Y198399D01*
X420899Y200086D01*
X418694Y201000D01*
X417173D01*
X416243Y201243D01*
X416000Y202173D01*
Y203693D01*
X415087Y205899D01*
X413399Y207586D01*
X411194Y208500D01*
X408806D01*
X406601Y207586D01*
X406576Y207561D01*
X405331Y207809D01*
X405087Y208399D01*
X403399Y210086D01*
X401194Y211000D01*
X398806D01*
X396601Y210086D01*
X396080Y209565D01*
X395561Y209912D01*
X395561Y209912D01*
X395371Y209991D01*
X395056Y210201D01*
X395000Y210286D01*
Y211515D01*
X395087Y211601D01*
X396000Y213806D01*
Y216194D01*
X395087Y218399D01*
X395000Y218485D01*
Y295922D01*
X495000D01*
D02*
G37*
G36*
X27999Y295922D02*
X28000Y295922D01*
X28000Y295922D01*
X388922Y295922D01*
X390922Y295922D01*
Y218485D01*
X390922Y218485D01*
X391232Y216925D01*
X391366Y216725D01*
X391922Y215382D01*
Y214618D01*
X391366Y213275D01*
X391232Y213075D01*
X390922Y211515D01*
X390922Y211515D01*
Y210286D01*
X391000Y209892D01*
Y209490D01*
X391154Y209119D01*
X391232Y208725D01*
X391455Y208391D01*
X391609Y208020D01*
X391665Y207936D01*
X391665Y207935D01*
X391949Y207651D01*
X392116Y207402D01*
X392366Y207235D01*
X392474Y207127D01*
X392487Y207107D01*
X392506Y207094D01*
X392791Y206810D01*
X392791Y206810D01*
X393105Y206600D01*
X393295Y206521D01*
X393814Y206174D01*
X394000Y206097D01*
Y203836D01*
X393228Y203445D01*
X393033Y203293D01*
X392804Y203198D01*
X392412Y202806D01*
X391976Y202464D01*
X391854Y202248D01*
X391679Y202073D01*
X391467Y201560D01*
X391195Y201077D01*
X391165Y200831D01*
X391070Y200602D01*
X391000Y200250D01*
X391000Y199848D01*
X390922Y199454D01*
Y133383D01*
X389000Y133194D01*
X388087Y135399D01*
X386399Y137086D01*
X384193Y138000D01*
X381806D01*
X379601Y137086D01*
X377913Y135399D01*
X377000Y133194D01*
Y130807D01*
X377913Y128601D01*
X379601Y126913D01*
X381806Y126000D01*
X384193D01*
X386399Y126913D01*
X388087Y128601D01*
X389000Y130807D01*
X390922Y130617D01*
Y112500D01*
X390922Y112500D01*
X390922Y111907D01*
X391000Y111513D01*
Y111111D01*
X391030Y110962D01*
X391030Y110962D01*
X391154Y110339D01*
X391307Y109967D01*
X391386Y109573D01*
X391840Y108478D01*
X392063Y108144D01*
X392216Y107773D01*
X392654Y107118D01*
X392938Y106834D01*
X393161Y106500D01*
X394000Y105661D01*
X394266Y105483D01*
X394356Y105367D01*
X394469Y105303D01*
X394618Y105154D01*
X394763Y105057D01*
X394763Y105057D01*
X395273Y104716D01*
X395644Y104563D01*
X395978Y104340D01*
X397074Y103886D01*
X397468Y103807D01*
X397839Y103653D01*
X398520Y103518D01*
X398611Y103500D01*
X398983D01*
X399266Y103440D01*
X399291Y103445D01*
X399316Y103440D01*
X399316Y103440D01*
X399407Y103422D01*
X400000Y103422D01*
X407500D01*
X408092Y103422D01*
X408437Y103490D01*
X408438Y103490D01*
X408438D01*
X408487Y103500D01*
X408888Y103500D01*
X409233Y103568D01*
X409660Y103653D01*
X410032Y103807D01*
X410426Y103885D01*
X411521Y104339D01*
X411671Y104439D01*
X411671Y104439D01*
X411856Y104563D01*
X412227Y104716D01*
X412376Y104816D01*
X412882Y105154D01*
X413166Y105438D01*
X413500Y105661D01*
X414339Y106500D01*
X414562Y106834D01*
X414846Y107118D01*
X415086Y107478D01*
X415086Y107478D01*
X415283Y107773D01*
X415437Y108144D01*
X415463Y108183D01*
Y108183D01*
X415660Y108478D01*
X416114Y109574D01*
X416193Y109968D01*
X416346Y110339D01*
X416500Y111111D01*
Y111481D01*
X416553Y111734D01*
X416549Y111759D01*
X416554Y111784D01*
Y111784D01*
X416554Y111784D01*
X416578Y111907D01*
X416578Y112553D01*
X416578Y147300D01*
X416595Y147474D01*
X416800Y147968D01*
X417032Y148200D01*
X417526Y148405D01*
X417700Y148422D01*
X433422Y148422D01*
Y112500D01*
X433422Y111506D01*
X433562Y110800D01*
X433732Y109945D01*
X433732Y109945D01*
X434493Y108107D01*
X434493Y108107D01*
X434493Y108107D01*
X435377Y106784D01*
X436783Y105378D01*
X436783Y105377D01*
X437608Y104826D01*
X438106Y104493D01*
X439944Y103732D01*
X439944Y103732D01*
X440826Y103557D01*
X441505Y103422D01*
X441505Y103422D01*
X441505Y103422D01*
X442500Y103422D01*
X442500Y103422D01*
X442500Y103422D01*
X477500D01*
X478494Y103422D01*
X480055Y103732D01*
X480055Y103732D01*
X481893Y104493D01*
X482391Y104826D01*
X483216Y105377D01*
X483216Y105377D01*
X484623Y106784D01*
X485507Y108107D01*
X485507Y108107D01*
X486268Y109945D01*
X486268Y109945D01*
X486268Y109945D01*
X486578Y111505D01*
X486578Y112500D01*
X486578Y112500D01*
Y115085D01*
X487601Y115469D01*
X489081Y113889D01*
X489000Y113694D01*
Y111306D01*
X489913Y109101D01*
X491601Y107414D01*
X493806Y106500D01*
X496194D01*
X498399Y107414D01*
X500087Y109101D01*
X501000Y111306D01*
Y113694D01*
X500435Y115057D01*
X500899Y117414D01*
X502587Y119101D01*
X503500Y121306D01*
Y123694D01*
X502587Y125899D01*
X500899Y127587D01*
X498694Y128500D01*
X496306D01*
X494101Y127587D01*
X492500Y125985D01*
X490899Y127587D01*
X488694Y128500D01*
X486578D01*
X486578Y184000D01*
X488694D01*
X490899Y184913D01*
X492587Y186601D01*
X493500Y188806D01*
Y191194D01*
X492587Y193399D01*
X490899Y195087D01*
X488694Y196000D01*
X486578D01*
X486578Y209000D01*
X488694D01*
X490899Y209913D01*
X492587Y211601D01*
X493500Y213806D01*
Y216194D01*
X492587Y218399D01*
X490899Y220087D01*
X488694Y221000D01*
X486578D01*
X486578Y251887D01*
X488114Y253422D01*
X502179Y253422D01*
X503000Y252194D01*
Y249806D01*
X503913Y247601D01*
X505601Y245914D01*
X507807Y245000D01*
X510193D01*
X512230Y245844D01*
X512881Y245959D01*
X513340Y245868D01*
X514664Y245351D01*
X515377Y244284D01*
X515377Y244284D01*
X515377Y244284D01*
X516784Y242877D01*
X516784Y242877D01*
X516784Y242877D01*
X517607Y242327D01*
X518107Y241993D01*
X518107D01*
X518107Y241993D01*
X519945Y241232D01*
X519945Y241232D01*
X519945Y241232D01*
X520241Y241173D01*
X521636Y240396D01*
X522000Y238922D01*
Y237806D01*
X522914Y235601D01*
X524601Y233913D01*
X526806Y233000D01*
X529193D01*
X531399Y233913D01*
X533087Y235601D01*
X534000Y237806D01*
Y238922D01*
X535698Y240922D01*
X591886Y240922D01*
X593422Y239386D01*
X593422Y212781D01*
X593463Y212573D01*
X593443Y212362D01*
X593617Y211799D01*
X593732Y211221D01*
X593850Y211044D01*
X593913Y210841D01*
X594289Y210388D01*
X594616Y209897D01*
X594793Y209779D01*
X594928Y209616D01*
X595271Y209337D01*
X595792Y209062D01*
X596282Y208735D01*
X596500Y208644D01*
Y206356D01*
X595939Y206123D01*
X594616Y205239D01*
X593732Y203916D01*
X593422Y202355D01*
X593422Y192782D01*
X593422Y192781D01*
X593732Y191221D01*
X594616Y189897D01*
X595939Y189013D01*
X596531Y188768D01*
X596500Y188694D01*
Y186356D01*
X595939Y186123D01*
X594616Y185239D01*
X594616Y185239D01*
X593732Y183916D01*
X593422Y182355D01*
Y180200D01*
X593405Y180025D01*
X593200Y179532D01*
X592968Y179300D01*
X592475Y179095D01*
X592300Y179078D01*
X582501Y179078D01*
X581507Y179079D01*
X581506Y179079D01*
X581506Y179079D01*
X580745Y178927D01*
X579946Y178769D01*
X579945Y178769D01*
X579945Y178768D01*
X578107Y178007D01*
X578107Y178007D01*
X578107Y178007D01*
X577463Y177577D01*
X576784Y177124D01*
X576784Y177123D01*
X576784Y177123D01*
X575377Y175716D01*
X575230Y175774D01*
X573612Y176417D01*
X573500Y176508D01*
Y178694D01*
X572587Y180899D01*
X570899Y182587D01*
X570342Y182817D01*
X570087Y184101D01*
X571000Y186306D01*
Y188694D01*
X570087Y190899D01*
X568485Y192500D01*
X570087Y194101D01*
X571000Y196306D01*
Y198694D01*
X570087Y200899D01*
X569775Y201211D01*
X569759Y204023D01*
X569837Y204101D01*
X570750Y206306D01*
Y208694D01*
X569837Y210899D01*
X568149Y212586D01*
X565943Y213500D01*
X563557D01*
X561351Y212586D01*
X559663Y210899D01*
X558750Y208694D01*
Y206306D01*
X559663Y204101D01*
X559976Y203789D01*
X559991Y200977D01*
X559913Y200899D01*
X559000Y198694D01*
Y196306D01*
X559913Y194101D01*
X561515Y192500D01*
X559913Y190899D01*
X559000Y188694D01*
Y186306D01*
X559913Y184101D01*
X561601Y182414D01*
X562065Y180057D01*
X561500Y178694D01*
Y176306D01*
X562413Y174101D01*
X564101Y172413D01*
X566306Y171500D01*
X568694D01*
X570899Y172413D01*
X571981Y173496D01*
X573052Y173086D01*
X573761Y172447D01*
X573705Y172164D01*
X573531Y171551D01*
X573434Y170321D01*
X573436Y170305D01*
X573432Y170289D01*
X573450Y170144D01*
X573422Y170000D01*
Y152500D01*
X573422Y151506D01*
X573422Y151506D01*
X573422Y151506D01*
X573576Y150730D01*
X573732Y149945D01*
X573732Y149945D01*
X573732Y149945D01*
X574493Y148107D01*
X574493Y148107D01*
X574493Y148107D01*
X574816Y147623D01*
X575377Y146784D01*
X575377Y146784D01*
X576784Y145377D01*
X576784Y145377D01*
X576784Y145377D01*
X577391Y144971D01*
X578107Y144493D01*
X579000Y143194D01*
Y140807D01*
X579913Y138601D01*
X581601Y136913D01*
X583806Y136000D01*
X586194D01*
X588399Y136913D01*
X590087Y138601D01*
X591000Y140807D01*
Y141422D01*
X592906Y143422D01*
X597758D01*
X598895Y142153D01*
X599109Y141607D01*
X599127Y141500D01*
X599000Y141194D01*
Y138806D01*
X599913Y136601D01*
X601601Y134913D01*
X603806Y134000D01*
X606194D01*
X608399Y134913D01*
X610087Y136601D01*
X611000Y138806D01*
Y141194D01*
X610873Y141500D01*
X610891Y141607D01*
X611105Y142153D01*
X612242Y143422D01*
X627300Y143422D01*
X627474Y143405D01*
X627968Y143200D01*
X628200Y142968D01*
X628405Y142474D01*
X628422Y142300D01*
Y120642D01*
X626422Y119813D01*
X625899Y120337D01*
X623693Y121250D01*
X621306D01*
X619101Y120337D01*
X617413Y118649D01*
X616500Y116443D01*
Y114057D01*
X617413Y111851D01*
X619101Y110163D01*
X621306Y109250D01*
X623693D01*
X625899Y110163D01*
X626422Y110686D01*
X628422Y109858D01*
Y87500D01*
X628422Y86506D01*
X628422Y86506D01*
X628422Y86505D01*
X628525Y85988D01*
X628732Y84945D01*
X628732Y84945D01*
X629493Y83107D01*
X630377Y81784D01*
X630377Y81784D01*
X631784Y80377D01*
X631784Y80377D01*
X631784Y80377D01*
X632391Y79971D01*
X633107Y79493D01*
X633107Y79493D01*
X633107Y79493D01*
X634945Y78732D01*
X636506Y78422D01*
X637500Y78422D01*
X674159D01*
X674913Y76601D01*
X676601Y74913D01*
X678807Y74000D01*
X681193D01*
X683399Y74913D01*
X685087Y76601D01*
X685841Y78422D01*
X715922D01*
X715922Y76422D01*
Y28002D01*
X715921Y26434D01*
X715510Y23325D01*
X714698Y20297D01*
X713497Y17400D01*
X711929Y14685D01*
X710020Y12197D01*
X707803Y9980D01*
X705315Y8071D01*
X702600Y6503D01*
X699703Y5302D01*
X696674Y4489D01*
X693566Y4079D01*
X691998Y4078D01*
X594035D01*
X592698Y6078D01*
X593000Y6806D01*
Y9194D01*
X592087Y11399D01*
X590985Y12500D01*
X592587Y14101D01*
X593500Y16307D01*
Y18693D01*
X592587Y20899D01*
X590899Y22587D01*
X588694Y23500D01*
X586306D01*
X584101Y22587D01*
X582413Y20899D01*
X581500Y18693D01*
Y16307D01*
X582413Y14101D01*
X583515Y13000D01*
X581913Y11399D01*
X581000Y9194D01*
Y6806D01*
X581302Y6078D01*
X579965Y4078D01*
X28000D01*
X28000Y4078D01*
X27999Y4078D01*
X26432Y4078D01*
X23322Y4487D01*
X20293Y5298D01*
X17396Y6498D01*
X14680Y8066D01*
X12192Y9975D01*
X9975Y12192D01*
X8066Y14680D01*
X6498Y17396D01*
X5298Y20293D01*
X4487Y23322D01*
X4078Y26432D01*
X4078Y27999D01*
X4078Y28000D01*
X4078Y28000D01*
Y87758D01*
X6078Y89095D01*
X6306Y89000D01*
X8694D01*
X10899Y89913D01*
X12587Y91601D01*
X13500Y93806D01*
Y96194D01*
X12587Y98399D01*
X10899Y100086D01*
X8694Y101000D01*
X6306D01*
X6078Y100905D01*
X4078Y102242D01*
Y272000D01*
X4078Y272000D01*
X4078Y272001D01*
X4078Y273568D01*
X4487Y276678D01*
X5298Y279707D01*
X6498Y282604D01*
X8066Y285320D01*
X9975Y287808D01*
X12192Y290025D01*
X14680Y291934D01*
X17396Y293502D01*
X20293Y294702D01*
X23322Y295513D01*
X26432Y295922D01*
X27999Y295922D01*
D02*
G37*
%LPC*%
G36*
X578694Y293500D02*
X576306D01*
X574101Y292587D01*
X572500Y290985D01*
X570899Y292587D01*
X568694Y293500D01*
X566306D01*
X564101Y292587D01*
X562500Y290985D01*
X560899Y292587D01*
X558694Y293500D01*
X556306D01*
X554101Y292587D01*
X552413Y290899D01*
X551500Y288694D01*
Y286306D01*
X552413Y284101D01*
X554101Y282414D01*
X556306Y281500D01*
X558694D01*
X560899Y282414D01*
X562500Y284015D01*
X564101Y282414D01*
X566306Y281500D01*
X568694D01*
X570899Y282414D01*
X572500Y284015D01*
X574101Y282414D01*
X576306Y281500D01*
X578694D01*
X580899Y282414D01*
X582587Y284101D01*
X583500Y286306D01*
Y288694D01*
X582587Y290899D01*
X580899Y292587D01*
X578694Y293500D01*
D02*
G37*
G36*
X641193D02*
X638806D01*
X636601Y292587D01*
X634913Y290899D01*
X634000Y288694D01*
Y286306D01*
X634913Y284101D01*
X636601Y282414D01*
X638806Y281500D01*
X641193D01*
X643399Y282414D01*
X645087Y284101D01*
X646000Y286306D01*
Y288694D01*
X645087Y290899D01*
X643399Y292587D01*
X641193Y293500D01*
D02*
G37*
G36*
X527343Y277350D02*
X524957D01*
X522751Y276437D01*
X521063Y274749D01*
X520150Y272544D01*
Y270156D01*
X521063Y267951D01*
X522751Y266264D01*
X524957Y265350D01*
X527343D01*
X529549Y266264D01*
X531236Y267951D01*
X532150Y270156D01*
Y272544D01*
X531236Y274749D01*
X529549Y276437D01*
X527343Y277350D01*
D02*
G37*
G36*
X641193Y273500D02*
X638806D01*
X636601Y272587D01*
X634913Y270899D01*
X634000Y268694D01*
Y266306D01*
X634913Y264101D01*
X636601Y262413D01*
X638806Y261500D01*
X641193D01*
X643399Y262413D01*
X645087Y264101D01*
X646000Y266306D01*
Y268694D01*
X645087Y270899D01*
X643399Y272587D01*
X641193Y273500D01*
D02*
G37*
G36*
X586194D02*
X583806D01*
X581601Y272587D01*
X579913Y270899D01*
X579000Y268694D01*
Y266306D01*
X579913Y264101D01*
X581601Y262413D01*
X583806Y261500D01*
X586194D01*
X588399Y262413D01*
X590087Y264101D01*
X591000Y266306D01*
Y268694D01*
X590087Y270899D01*
X588399Y272587D01*
X586194Y273500D01*
D02*
G37*
G36*
X693966Y292000D02*
X690027D01*
X686163Y291231D01*
X682523Y289724D01*
X679247Y287535D01*
X676461Y284749D01*
X674273Y281474D01*
X672765Y277834D01*
X671997Y273970D01*
Y270030D01*
X672765Y266166D01*
X674273Y262526D01*
X676461Y259251D01*
X679247Y256465D01*
X682523Y254276D01*
X686163Y252769D01*
X690027Y252000D01*
X693966D01*
X697830Y252769D01*
X701470Y254276D01*
X704746Y256465D01*
X707532Y259251D01*
X709720Y262526D01*
X711228Y266166D01*
X711997Y270030D01*
Y273970D01*
X711228Y277834D01*
X709720Y281474D01*
X707532Y284749D01*
X704746Y287535D01*
X701470Y289724D01*
X697830Y291231D01*
X693966Y292000D01*
D02*
G37*
G36*
X470694Y259250D02*
X468307D01*
X466101Y258337D01*
X464413Y256649D01*
X463500Y254443D01*
Y252057D01*
X464413Y249851D01*
X465390Y248875D01*
X464913Y248399D01*
X464000Y246194D01*
Y243806D01*
X464913Y241601D01*
X466601Y239913D01*
X468806Y239000D01*
X471194D01*
X473399Y239913D01*
X475087Y241601D01*
X476000Y243806D01*
Y246194D01*
X475087Y248399D01*
X474110Y249375D01*
X474587Y249851D01*
X475500Y252057D01*
Y254443D01*
X474587Y256649D01*
X472899Y258337D01*
X470694Y259250D01*
D02*
G37*
G36*
X681193Y243500D02*
X678807D01*
X676601Y242586D01*
X674913Y240899D01*
X674000Y238694D01*
Y236306D01*
X674913Y234101D01*
X676601Y232413D01*
X678807Y231500D01*
X681193D01*
X683399Y232413D01*
X685087Y234101D01*
X686000Y236306D01*
Y238694D01*
X685087Y240899D01*
X683399Y242586D01*
X681193Y243500D01*
D02*
G37*
G36*
X655219Y239810D02*
X652981D01*
X650819Y239231D01*
X648881Y238112D01*
X647298Y236529D01*
X646179Y234591D01*
X645600Y232429D01*
Y230191D01*
X646179Y228029D01*
X647298Y226091D01*
X648881Y224508D01*
X650819Y223389D01*
X652981Y222810D01*
X655219D01*
X657381Y223389D01*
X659319Y224508D01*
X660902Y226091D01*
X662021Y228029D01*
X662600Y230191D01*
Y232429D01*
X662021Y234591D01*
X660902Y236529D01*
X659319Y238112D01*
X657381Y239231D01*
X655219Y239810D01*
D02*
G37*
G36*
X606194Y233500D02*
X603806D01*
X601601Y232587D01*
X599913Y230899D01*
X599000Y228694D01*
Y226306D01*
X599913Y224101D01*
X601601Y222413D01*
X603806Y221500D01*
X606194D01*
X608399Y222413D01*
X610087Y224101D01*
X611000Y226306D01*
Y228694D01*
X610087Y230899D01*
X608399Y232587D01*
X606194Y233500D01*
D02*
G37*
G36*
X706019Y229650D02*
X703781D01*
X701619Y229071D01*
X699681Y227952D01*
X698098Y226369D01*
X696979Y224431D01*
X696400Y222269D01*
Y220031D01*
X696979Y217869D01*
X698098Y215931D01*
X699681Y214348D01*
X701619Y213229D01*
X703781Y212650D01*
X706019D01*
X708181Y213229D01*
X710119Y214348D01*
X711702Y215931D01*
X712821Y217869D01*
X713400Y220031D01*
Y222269D01*
X712821Y224431D01*
X711702Y226369D01*
X710119Y227952D01*
X708181Y229071D01*
X706019Y229650D01*
D02*
G37*
G36*
X655219Y219490D02*
X652981D01*
X650819Y218911D01*
X648881Y217792D01*
X647298Y216209D01*
X646179Y214271D01*
X645600Y212109D01*
Y209871D01*
X646179Y207709D01*
X647298Y205771D01*
X648881Y204188D01*
X650819Y203069D01*
X652981Y202490D01*
X655219D01*
X657381Y203069D01*
X659319Y204188D01*
X660902Y205771D01*
X662021Y207709D01*
X662600Y209871D01*
Y212109D01*
X662021Y214271D01*
X660902Y216209D01*
X659319Y217792D01*
X657381Y218911D01*
X655219Y219490D01*
D02*
G37*
G36*
X681193Y206000D02*
X678807D01*
X676601Y205087D01*
X674913Y203399D01*
X674000Y201194D01*
Y198806D01*
X674913Y196601D01*
X676601Y194914D01*
X678807Y194000D01*
X681193D01*
X683399Y194914D01*
X685087Y196601D01*
X686000Y198806D01*
Y201194D01*
X685087Y203399D01*
X683399Y205087D01*
X681193Y206000D01*
D02*
G37*
G36*
Y186000D02*
X678807D01*
X676601Y185086D01*
X674913Y183399D01*
X674000Y181194D01*
Y178806D01*
X674913Y176601D01*
X676601Y174913D01*
X678807Y174000D01*
X681193D01*
X683399Y174913D01*
X685087Y176601D01*
X686000Y178806D01*
Y181194D01*
X685087Y183399D01*
X683399Y185086D01*
X681193Y186000D01*
D02*
G37*
G36*
X646193Y176000D02*
X643807D01*
X641601Y175086D01*
X639913Y173399D01*
X639000Y171194D01*
Y168806D01*
X639913Y166601D01*
X641601Y164913D01*
X643807Y164000D01*
X646193D01*
X648399Y164913D01*
X650087Y166601D01*
X651000Y168806D01*
Y171194D01*
X650087Y173399D01*
X648399Y175086D01*
X646193Y176000D01*
D02*
G37*
G36*
X606194D02*
X603806D01*
X601601Y175086D01*
X599913Y173399D01*
X599000Y171194D01*
Y168806D01*
X599913Y166601D01*
X601601Y164913D01*
X603806Y164000D01*
X606194D01*
X608399Y164913D01*
X610087Y166601D01*
X611000Y168806D01*
Y171194D01*
X610087Y173399D01*
X608399Y175086D01*
X606194Y176000D01*
D02*
G37*
G36*
X463694Y173500D02*
X461306D01*
X459101Y172586D01*
X457413Y170899D01*
X456500Y168694D01*
Y166306D01*
X457413Y164101D01*
X459101Y162413D01*
X461306Y161500D01*
X463694D01*
X465899Y162413D01*
X467587Y164101D01*
X468500Y166306D01*
Y168694D01*
X467587Y170899D01*
X465899Y172586D01*
X463694Y173500D01*
D02*
G37*
G36*
X698693Y168500D02*
X696307D01*
X694101Y167587D01*
X692413Y165899D01*
X691500Y163694D01*
Y161306D01*
X692413Y159101D01*
X694101Y157414D01*
X696307Y156500D01*
X698693D01*
X700899Y157414D01*
X702587Y159101D01*
X703500Y161306D01*
Y163694D01*
X702587Y165899D01*
X700899Y167587D01*
X698693Y168500D01*
D02*
G37*
G36*
X681193D02*
X678807D01*
X676601Y167587D01*
X674913Y165899D01*
X674000Y163694D01*
Y161306D01*
X674913Y159101D01*
X676601Y157414D01*
X678807Y156500D01*
X681193D01*
X683399Y157414D01*
X685087Y159101D01*
X686000Y161306D01*
Y163694D01*
X685087Y165899D01*
X683399Y167587D01*
X681193Y168500D01*
D02*
G37*
G36*
X665955Y166150D02*
X664045D01*
X662202Y165656D01*
X660548Y164701D01*
X659199Y163352D01*
X658244Y161698D01*
X657750Y159854D01*
Y157945D01*
X658244Y156102D01*
X659199Y154448D01*
X660548Y153098D01*
X662202Y152144D01*
X664045Y151650D01*
X665955D01*
X667798Y152144D01*
X669452Y153098D01*
X670801Y154448D01*
X671756Y156102D01*
X672250Y157945D01*
Y159854D01*
X671756Y161698D01*
X670801Y163352D01*
X669452Y164701D01*
X667798Y165656D01*
X665955Y166150D01*
D02*
G37*
G36*
X453694Y153500D02*
X451306D01*
X449101Y152587D01*
X447413Y150899D01*
X446500Y148694D01*
Y146306D01*
X447413Y144101D01*
X449101Y142414D01*
X451306Y141500D01*
X453694D01*
X455899Y142414D01*
X457587Y144101D01*
X458500Y146306D01*
Y148694D01*
X457587Y150899D01*
X455899Y152587D01*
X453694Y153500D01*
D02*
G37*
G36*
X446194Y136000D02*
X443806D01*
X441601Y135086D01*
X439913Y133399D01*
X439000Y131194D01*
Y128806D01*
X439913Y126601D01*
X441601Y124913D01*
X443806Y124000D01*
X446194D01*
X448399Y124913D01*
X450087Y126601D01*
X451000Y128806D01*
Y131194D01*
X450087Y133399D01*
X448399Y135086D01*
X446194Y136000D01*
D02*
G37*
G36*
X665955Y108350D02*
X664045D01*
X662202Y107856D01*
X660548Y106901D01*
X659199Y105552D01*
X658244Y103898D01*
X657750Y102055D01*
Y100146D01*
X658244Y98302D01*
X659199Y96648D01*
X660548Y95299D01*
X662202Y94344D01*
X664045Y93850D01*
X665955D01*
X667798Y94344D01*
X669452Y95299D01*
X670801Y96648D01*
X671756Y98302D01*
X672250Y100146D01*
Y102055D01*
X671756Y103898D01*
X670801Y105552D01*
X669452Y106901D01*
X667798Y107856D01*
X665955Y108350D01*
D02*
G37*
G36*
X698693Y103500D02*
X696307D01*
X694101Y102587D01*
X692413Y100899D01*
X691500Y98694D01*
Y96306D01*
X692413Y94101D01*
X694101Y92414D01*
X696307Y91500D01*
X698693D01*
X700899Y92414D01*
X702587Y94101D01*
X703500Y96306D01*
Y98694D01*
X702587Y100899D01*
X700899Y102587D01*
X698693Y103500D01*
D02*
G37*
G36*
X681193D02*
X678807D01*
X676601Y102587D01*
X674913Y100899D01*
X674000Y98694D01*
Y96306D01*
X674913Y94101D01*
X676601Y92414D01*
X678807Y91500D01*
X681193D01*
X683399Y92414D01*
X685087Y94101D01*
X686000Y96306D01*
Y98694D01*
X685087Y100899D01*
X683399Y102587D01*
X681193Y103500D01*
D02*
G37*
G36*
X426194Y281000D02*
X423806D01*
X421601Y280087D01*
X419913Y278399D01*
X419000Y276194D01*
Y273806D01*
X419913Y271601D01*
X421601Y269914D01*
X423806Y269000D01*
X426194D01*
X428399Y269914D01*
X430087Y271601D01*
X431000Y273806D01*
Y276194D01*
X430087Y278399D01*
X428399Y280087D01*
X426194Y281000D01*
D02*
G37*
G36*
X418694Y223500D02*
X416306D01*
X414101Y222586D01*
X412413Y220899D01*
X411500Y218694D01*
Y216306D01*
X412413Y214101D01*
X414101Y212413D01*
X416306Y211500D01*
X418694D01*
X420899Y212413D01*
X422587Y214101D01*
X423500Y216306D01*
Y218694D01*
X422587Y220899D01*
X420899Y222586D01*
X418694Y223500D01*
D02*
G37*
G36*
X411194Y188500D02*
X408806D01*
X406601Y187586D01*
X404913Y185899D01*
X404000Y183694D01*
Y181306D01*
X404913Y179101D01*
X406601Y177413D01*
X408806Y176500D01*
X411194D01*
X413399Y177413D01*
X415087Y179101D01*
X416000Y181306D01*
Y183694D01*
X415087Y185899D01*
X413399Y187586D01*
X411194Y188500D01*
D02*
G37*
G36*
X29966Y292000D02*
X26027D01*
X22163Y291231D01*
X18523Y289724D01*
X15247Y287535D01*
X12462Y284749D01*
X10273Y281474D01*
X8765Y277834D01*
X7997Y273970D01*
Y270030D01*
X8765Y266166D01*
X10273Y262526D01*
X12462Y259251D01*
X15247Y256465D01*
X18523Y254276D01*
X22163Y252769D01*
X26027Y252000D01*
X29966D01*
X33830Y252769D01*
X37470Y254276D01*
X40746Y256465D01*
X43531Y259251D01*
X45720Y262526D01*
X47228Y266166D01*
X47997Y270030D01*
Y273970D01*
X47228Y277834D01*
X45720Y281474D01*
X43531Y284749D01*
X40746Y287535D01*
X37470Y289724D01*
X33830Y291231D01*
X29966Y292000D01*
D02*
G37*
G36*
X194448Y263500D02*
X191552D01*
X188754Y262750D01*
X186246Y261302D01*
X184198Y259254D01*
X182750Y256746D01*
X182000Y253948D01*
Y251052D01*
X182750Y248254D01*
X184198Y245746D01*
X186246Y243698D01*
X188754Y242250D01*
X191552Y241500D01*
X194448D01*
X197246Y242250D01*
X199754Y243698D01*
X201802Y245746D01*
X203250Y248254D01*
X204000Y251052D01*
Y253948D01*
X203250Y256746D01*
X201802Y259254D01*
X199754Y261302D01*
X197246Y262750D01*
X194448Y263500D01*
D02*
G37*
G36*
X114448D02*
X111552D01*
X108754Y262750D01*
X106246Y261302D01*
X104198Y259254D01*
X102750Y256746D01*
X102000Y253948D01*
Y251052D01*
X102750Y248254D01*
X104198Y245746D01*
X106246Y243698D01*
X108754Y242250D01*
X111552Y241500D01*
X114448D01*
X117246Y242250D01*
X119754Y243698D01*
X121802Y245746D01*
X123250Y248254D01*
X124000Y251052D01*
Y253948D01*
X123250Y256746D01*
X121802Y259254D01*
X119754Y261302D01*
X117246Y262750D01*
X114448Y263500D01*
D02*
G37*
G36*
X340000Y290000D02*
X335000D01*
Y237500D01*
X340000D01*
Y290000D01*
D02*
G37*
G36*
X253694Y261000D02*
X251306D01*
X249101Y260087D01*
X247413Y258399D01*
X246500Y256194D01*
Y253806D01*
X247413Y251601D01*
X249101Y249913D01*
X249297Y249832D01*
Y247668D01*
X249101Y247587D01*
X247413Y245899D01*
X246500Y243694D01*
Y241306D01*
X247413Y239101D01*
X249101Y237413D01*
X251306Y236500D01*
X253694D01*
X255899Y237413D01*
X257587Y239101D01*
X258500Y241306D01*
Y243694D01*
X257587Y245899D01*
X255899Y247587D01*
X255703Y247668D01*
Y249832D01*
X255899Y249913D01*
X257587Y251601D01*
X258500Y253806D01*
Y256194D01*
X257587Y258399D01*
X255899Y260087D01*
X253694Y261000D01*
D02*
G37*
G36*
X71193D02*
X68807D01*
X66601Y260087D01*
X64914Y258399D01*
X64000Y256194D01*
Y253806D01*
X64914Y251601D01*
X66601Y249913D01*
X66797Y249832D01*
Y247668D01*
X66601Y247587D01*
X64914Y245899D01*
X64000Y243694D01*
Y241306D01*
X64914Y239101D01*
X66601Y237413D01*
X68807Y236500D01*
X71193D01*
X73399Y237413D01*
X75087Y239101D01*
X76000Y241306D01*
Y243694D01*
X75087Y245899D01*
X73399Y247587D01*
X73203Y247668D01*
Y249832D01*
X73399Y249913D01*
X75087Y251601D01*
X76000Y253806D01*
Y256194D01*
X75087Y258399D01*
X73399Y260087D01*
X71193Y261000D01*
D02*
G37*
G36*
X374193Y241500D02*
X371806D01*
X369601Y240586D01*
X367913Y238899D01*
X367000Y236693D01*
Y234307D01*
X367913Y232101D01*
X369601Y230413D01*
X371806Y229500D01*
X374193D01*
X376399Y230413D01*
X378087Y232101D01*
X379000Y234307D01*
Y236693D01*
X378087Y238899D01*
X376399Y240586D01*
X374193Y241500D01*
D02*
G37*
G36*
X566194Y233500D02*
X563806D01*
X561601Y232587D01*
X559913Y230899D01*
X559000Y228694D01*
Y226306D01*
X559913Y224101D01*
X561601Y222413D01*
X563806Y221500D01*
X566194D01*
X568399Y222413D01*
X570087Y224101D01*
X571000Y226306D01*
Y228694D01*
X570087Y230899D01*
X568399Y232587D01*
X566194Y233500D01*
D02*
G37*
G36*
X511194Y221000D02*
X508806D01*
X506601Y220087D01*
X504913Y218399D01*
X504000Y216194D01*
Y213806D01*
X504913Y211601D01*
X506601Y209913D01*
X508806Y209000D01*
X511194D01*
X513399Y209913D01*
X515087Y211601D01*
X516000Y213806D01*
Y216194D01*
X515087Y218399D01*
X513399Y220087D01*
X511194Y221000D01*
D02*
G37*
G36*
Y196000D02*
X508806D01*
X506601Y195087D01*
X504913Y193399D01*
X504000Y191194D01*
Y188806D01*
X504913Y186601D01*
X506601Y184913D01*
X508806Y184000D01*
X511194D01*
X513399Y184913D01*
X515087Y186601D01*
X516000Y188806D01*
Y191194D01*
X515087Y193399D01*
X513399Y195087D01*
X511194Y196000D01*
D02*
G37*
G36*
X381194Y193500D02*
X378806D01*
X376601Y192587D01*
X374913Y190899D01*
X374000Y188694D01*
Y186306D01*
X374913Y184101D01*
X376601Y182414D01*
X378806Y181500D01*
X381194D01*
X383399Y182414D01*
X385087Y184101D01*
X386000Y186306D01*
Y188694D01*
X385087Y190899D01*
X383399Y192587D01*
X381194Y193500D01*
D02*
G37*
G36*
X353694Y191000D02*
X351306D01*
X349101Y190087D01*
X347413Y188399D01*
X346500Y186194D01*
Y183806D01*
X347413Y181601D01*
X349101Y179914D01*
X351306Y179000D01*
X353694D01*
X355899Y179914D01*
X357587Y181601D01*
X358500Y183806D01*
Y186194D01*
X357587Y188399D01*
X355899Y190087D01*
X353694Y191000D01*
D02*
G37*
G36*
X83694D02*
X81306D01*
X79101Y190087D01*
X77413Y188399D01*
X76500Y186194D01*
Y183806D01*
X77413Y181601D01*
X79101Y179914D01*
X81306Y179000D01*
X83694D01*
X85899Y179914D01*
X87586Y181601D01*
X88500Y183806D01*
Y186194D01*
X87586Y188399D01*
X85899Y190087D01*
X83694Y191000D01*
D02*
G37*
G36*
X23050Y199667D02*
X15550D01*
X13527Y199401D01*
X11642Y198620D01*
X10023Y197377D01*
X8780Y195758D01*
X8000Y193873D01*
X7733Y191850D01*
Y184350D01*
X8000Y182327D01*
X8780Y180442D01*
X10023Y178823D01*
X11642Y177580D01*
X13527Y176800D01*
X15550Y176533D01*
X23050D01*
X25073Y176800D01*
X26958Y177580D01*
X28577Y178823D01*
X29820Y180442D01*
X30601Y182327D01*
X30867Y184350D01*
Y191850D01*
X30601Y193873D01*
X29820Y195758D01*
X28577Y197377D01*
X26958Y198620D01*
X25073Y199401D01*
X23050Y199667D01*
D02*
G37*
G36*
X543694Y176000D02*
X541306D01*
X539101Y175086D01*
X537413Y173399D01*
X536500Y171194D01*
Y168806D01*
X537413Y166601D01*
X539101Y164913D01*
X541306Y164000D01*
X543694D01*
X545899Y164913D01*
X547587Y166601D01*
X548500Y168806D01*
Y171194D01*
X547587Y173399D01*
X545899Y175086D01*
X543694Y176000D01*
D02*
G37*
G36*
X511194Y173500D02*
X508806D01*
X506601Y172586D01*
X504913Y170899D01*
X504000Y168694D01*
Y166306D01*
X504913Y164101D01*
X506601Y162413D01*
X508806Y161500D01*
X511194D01*
X513399Y162413D01*
X515087Y164101D01*
X516000Y166306D01*
Y168694D01*
X515087Y170899D01*
X513399Y172586D01*
X511194Y173500D01*
D02*
G37*
G36*
X231194Y171000D02*
X228806D01*
X226601Y170087D01*
X224913Y168399D01*
X224000Y166194D01*
Y163806D01*
X224913Y161601D01*
X226601Y159913D01*
X228806Y159000D01*
X231194D01*
X233399Y159913D01*
X235087Y161601D01*
X236000Y163806D01*
Y166194D01*
X235087Y168399D01*
X233399Y170087D01*
X231194Y171000D01*
D02*
G37*
G36*
X68693D02*
X66307D01*
X64101Y170087D01*
X62413Y168399D01*
X61500Y166194D01*
Y163806D01*
X62413Y161601D01*
X64101Y159913D01*
X66307Y159000D01*
X68693D01*
X70899Y159913D01*
X72586Y161601D01*
X73500Y163806D01*
Y166194D01*
X72586Y168399D01*
X70899Y170087D01*
X68693Y171000D01*
D02*
G37*
G36*
X131194Y165500D02*
X128806D01*
X126601Y164587D01*
X124913Y162899D01*
X124000Y160693D01*
Y158307D01*
X124913Y156101D01*
X126601Y154413D01*
X128806Y153500D01*
X131194D01*
X133399Y154413D01*
X135086Y156101D01*
X136000Y158307D01*
Y160693D01*
X135086Y162899D01*
X133399Y164587D01*
X131194Y165500D01*
D02*
G37*
G36*
X558194Y164000D02*
X555807D01*
X553601Y163086D01*
X551913Y161399D01*
X551000Y159193D01*
Y156806D01*
X551913Y154601D01*
X553601Y152913D01*
X555807Y152000D01*
X558194D01*
X560399Y152913D01*
X562087Y154601D01*
X563000Y156806D01*
Y159193D01*
X562087Y161399D01*
X560399Y163086D01*
X558194Y164000D01*
D02*
G37*
G36*
X46214Y174200D02*
X43186D01*
X40261Y173416D01*
X37639Y171902D01*
X35498Y169761D01*
X33984Y167139D01*
X33200Y164214D01*
Y161186D01*
X33984Y158261D01*
X35498Y155639D01*
X37639Y153498D01*
X40261Y151984D01*
X43186Y151200D01*
X46214D01*
X49139Y151984D01*
X51761Y153498D01*
X53902Y155639D01*
X55416Y158261D01*
X56200Y161186D01*
Y164214D01*
X55416Y167139D01*
X53902Y169761D01*
X51761Y171902D01*
X49139Y173416D01*
X46214Y174200D01*
D02*
G37*
G36*
X20814D02*
X17786D01*
X14861Y173416D01*
X12239Y171902D01*
X10098Y169761D01*
X8584Y167139D01*
X7800Y164214D01*
Y161186D01*
X8584Y158261D01*
X10098Y155639D01*
X12239Y153498D01*
X14861Y151984D01*
X17786Y151200D01*
X20814D01*
X23739Y151984D01*
X26361Y153498D01*
X28502Y155639D01*
X30016Y158261D01*
X30800Y161186D01*
Y164214D01*
X30016Y167139D01*
X28502Y169761D01*
X26361Y171902D01*
X23739Y173416D01*
X20814Y174200D01*
D02*
G37*
G36*
X218694Y158500D02*
X216306D01*
X214101Y157587D01*
X212413Y155899D01*
X211500Y153694D01*
Y151306D01*
X212413Y149101D01*
X214101Y147413D01*
X216306Y146500D01*
X218694D01*
X220899Y147413D01*
X222586Y149101D01*
X223500Y151306D01*
Y153694D01*
X222586Y155899D01*
X220899Y157587D01*
X218694Y158500D01*
D02*
G37*
G36*
X353694Y148500D02*
X351306D01*
X349101Y147586D01*
X347413Y145899D01*
X346500Y143694D01*
Y141306D01*
X347413Y139101D01*
X349101Y137413D01*
X351306Y136500D01*
X353694D01*
X355899Y137413D01*
X357587Y139101D01*
X358500Y141306D01*
Y143694D01*
X357587Y145899D01*
X355899Y147586D01*
X353694Y148500D01*
D02*
G37*
G36*
X561194Y138500D02*
X558806D01*
X556601Y137586D01*
X554913Y135899D01*
X554000Y133694D01*
Y131306D01*
X554913Y129101D01*
X556601Y127413D01*
X558806Y126500D01*
X561194D01*
X563399Y127413D01*
X565087Y129101D01*
X566000Y131306D01*
Y133694D01*
X565087Y135899D01*
X563399Y137586D01*
X561194Y138500D01*
D02*
G37*
G36*
X46214Y148800D02*
X43186D01*
X40261Y148016D01*
X37639Y146502D01*
X35498Y144361D01*
X33984Y141739D01*
X33200Y138814D01*
Y135786D01*
X33984Y132861D01*
X35498Y130239D01*
X37639Y128098D01*
X40261Y126584D01*
X43186Y125800D01*
X46214D01*
X49139Y126584D01*
X51761Y128098D01*
X53902Y130239D01*
X55416Y132861D01*
X56200Y135786D01*
Y138814D01*
X55416Y141739D01*
X53902Y144361D01*
X51761Y146502D01*
X49139Y148016D01*
X46214Y148800D01*
D02*
G37*
G36*
X20814D02*
X17786D01*
X14861Y148016D01*
X12239Y146502D01*
X10098Y144361D01*
X8584Y141739D01*
X7800Y138814D01*
Y135786D01*
X8584Y132861D01*
X10098Y130239D01*
X12239Y128098D01*
X14861Y126584D01*
X17786Y125800D01*
X20814D01*
X23739Y126584D01*
X26361Y128098D01*
X28502Y130239D01*
X30016Y132861D01*
X30800Y135786D01*
Y138814D01*
X30016Y141739D01*
X28502Y144361D01*
X26361Y146502D01*
X23739Y148016D01*
X20814Y148800D01*
D02*
G37*
G36*
X426194Y136000D02*
X423806D01*
X421601Y135086D01*
X419913Y133399D01*
X419000Y131194D01*
Y128806D01*
X419913Y126601D01*
X421601Y124913D01*
X423806Y124000D01*
X426194D01*
X428399Y124913D01*
X430087Y126601D01*
X431000Y128806D01*
Y131194D01*
X430087Y133399D01*
X428399Y135086D01*
X426194Y136000D01*
D02*
G37*
G36*
X551194Y128500D02*
X548806D01*
X546601Y127587D01*
X544913Y125899D01*
X544000Y123694D01*
Y121306D01*
X544913Y119101D01*
X546601Y117414D01*
X548806Y116500D01*
X551194D01*
X553399Y117414D01*
X555087Y119101D01*
X556000Y121306D01*
Y123694D01*
X555087Y125899D01*
X553399Y127587D01*
X551194Y128500D01*
D02*
G37*
G36*
X366194D02*
X363806D01*
X361601Y127587D01*
X359913Y125899D01*
X359000Y123694D01*
Y121306D01*
X359913Y119101D01*
X361601Y117414D01*
X363806Y116500D01*
X366194D01*
X368399Y117414D01*
X370087Y119101D01*
X371000Y121306D01*
Y123694D01*
X370087Y125899D01*
X368399Y127587D01*
X366194Y128500D01*
D02*
G37*
G36*
X526194Y126000D02*
X523806D01*
X521601Y125086D01*
X519913Y123399D01*
X519000Y121194D01*
Y118806D01*
X519913Y116601D01*
X521601Y114913D01*
X523806Y114000D01*
X526194D01*
X528399Y114913D01*
X530087Y116601D01*
X531000Y118806D01*
Y121194D01*
X530087Y123399D01*
X528399Y125086D01*
X526194Y126000D01*
D02*
G37*
G36*
X576194Y118500D02*
X573806D01*
X571601Y117587D01*
X569913Y115899D01*
X569000Y113694D01*
Y111306D01*
X569913Y109101D01*
X571601Y107414D01*
X573806Y106500D01*
X576194D01*
X578399Y107414D01*
X580087Y109101D01*
X581000Y111306D01*
Y113694D01*
X580087Y115899D01*
X578399Y117587D01*
X576194Y118500D01*
D02*
G37*
G36*
X561194D02*
X558806D01*
X556601Y117587D01*
X554913Y115899D01*
X554000Y113694D01*
Y111306D01*
X554913Y109101D01*
X556601Y107414D01*
X558806Y106500D01*
X561194D01*
X563399Y107414D01*
X565087Y109101D01*
X566000Y111306D01*
Y113694D01*
X565087Y115899D01*
X563399Y117587D01*
X561194Y118500D01*
D02*
G37*
G36*
X139193Y118000D02*
X136806D01*
X134601Y117087D01*
X132914Y115399D01*
X132000Y113194D01*
Y110807D01*
X132914Y108601D01*
X134601Y106913D01*
X136806Y106000D01*
X139193D01*
X141399Y106913D01*
X143087Y108601D01*
X144000Y110807D01*
Y113194D01*
X143087Y115399D01*
X141399Y117087D01*
X139193Y118000D01*
D02*
G37*
G36*
X46214Y123400D02*
X43186D01*
X40261Y122616D01*
X37639Y121102D01*
X35498Y118961D01*
X33984Y116339D01*
X33200Y113414D01*
Y110386D01*
X33984Y107461D01*
X35498Y104839D01*
X37639Y102698D01*
X40261Y101184D01*
X43186Y100400D01*
X46214D01*
X49139Y101184D01*
X51761Y102698D01*
X53902Y104839D01*
X55416Y107461D01*
X56200Y110386D01*
Y113414D01*
X55416Y116339D01*
X53902Y118961D01*
X51761Y121102D01*
X49139Y122616D01*
X46214Y123400D01*
D02*
G37*
G36*
X20814D02*
X17786D01*
X14861Y122616D01*
X12239Y121102D01*
X10098Y118961D01*
X8584Y116339D01*
X7800Y113414D01*
Y110386D01*
X8584Y107461D01*
X10098Y104839D01*
X12239Y102698D01*
X14861Y101184D01*
X17786Y100400D01*
X20814D01*
X23739Y101184D01*
X26361Y102698D01*
X28502Y104839D01*
X30016Y107461D01*
X30800Y110386D01*
Y113414D01*
X30016Y116339D01*
X28502Y118961D01*
X26361Y121102D01*
X23739Y122616D01*
X20814Y123400D01*
D02*
G37*
G36*
X516194Y111000D02*
X513806D01*
X511601Y110086D01*
X509913Y108399D01*
X509000Y106194D01*
Y103806D01*
X509913Y101601D01*
X511601Y99913D01*
X513806Y99000D01*
X516194D01*
X518399Y99913D01*
X520087Y101601D01*
X521000Y103806D01*
Y106194D01*
X520087Y108399D01*
X518399Y110086D01*
X516194Y111000D01*
D02*
G37*
G36*
X586194Y108500D02*
X583806D01*
X581601Y107587D01*
X579913Y105899D01*
X579000Y103694D01*
Y101306D01*
X579913Y99101D01*
X581601Y97413D01*
X583806Y96500D01*
X586194D01*
X588399Y97413D01*
X590087Y99101D01*
X591000Y101306D01*
Y103694D01*
X590087Y105899D01*
X588399Y107587D01*
X586194Y108500D01*
D02*
G37*
G36*
X551194D02*
X548806D01*
X546601Y107587D01*
X544913Y105899D01*
X544000Y103694D01*
Y101306D01*
X544913Y99101D01*
X546601Y97413D01*
X548806Y96500D01*
X551194D01*
X553399Y97413D01*
X555087Y99101D01*
X556000Y101306D01*
Y103694D01*
X555087Y105899D01*
X553399Y107587D01*
X551194Y108500D01*
D02*
G37*
G36*
X616194Y103500D02*
X613806D01*
X611601Y102587D01*
X609913Y100899D01*
X609000Y98694D01*
Y96306D01*
X609913Y94101D01*
X611601Y92414D01*
X613806Y91500D01*
X616194D01*
X618399Y92414D01*
X620087Y94101D01*
X621000Y96306D01*
Y98694D01*
X620087Y100899D01*
X618399Y102587D01*
X616194Y103500D01*
D02*
G37*
G36*
X503694Y88500D02*
X501306D01*
X499101Y87586D01*
X497413Y85899D01*
X496500Y83694D01*
Y81306D01*
X497413Y79101D01*
X499101Y77413D01*
X501306Y76500D01*
X503694D01*
X505899Y77413D01*
X507587Y79101D01*
X508500Y81306D01*
Y83694D01*
X507587Y85899D01*
X505899Y87586D01*
X503694Y88500D01*
D02*
G37*
G36*
X453694D02*
X451306D01*
X449101Y87586D01*
X447413Y85899D01*
X446500Y83694D01*
Y81306D01*
X447413Y79101D01*
X449101Y77413D01*
X451306Y76500D01*
X453694D01*
X455899Y77413D01*
X457587Y79101D01*
X458500Y81306D01*
Y83694D01*
X457587Y85899D01*
X455899Y87586D01*
X453694Y88500D01*
D02*
G37*
G36*
X568694Y86000D02*
X566306D01*
X564101Y85086D01*
X562413Y83399D01*
X561500Y81194D01*
Y78807D01*
X562413Y76601D01*
X564101Y74913D01*
X566306Y74000D01*
X568694D01*
X570899Y74913D01*
X572587Y76601D01*
X573500Y78807D01*
Y81194D01*
X572587Y83399D01*
X570899Y85086D01*
X568694Y86000D01*
D02*
G37*
G36*
X583694Y78500D02*
X581306D01*
X579101Y77587D01*
X577413Y75899D01*
X576500Y73693D01*
Y71307D01*
X577413Y69101D01*
X579101Y67414D01*
X581306Y66500D01*
X583694D01*
X585899Y67414D01*
X587587Y69101D01*
X588500Y71307D01*
Y73693D01*
X587587Y75899D01*
X585899Y77587D01*
X583694Y78500D01*
D02*
G37*
G36*
X533694Y83500D02*
X531306D01*
X529101Y82587D01*
X527413Y80899D01*
X526500Y78693D01*
Y76307D01*
X527413Y74101D01*
X529015Y72500D01*
X527413Y70899D01*
X526500Y68693D01*
Y66307D01*
X527413Y64101D01*
X529101Y62413D01*
X531306Y61500D01*
X533694D01*
X535899Y62413D01*
X537587Y64101D01*
X538500Y66307D01*
Y68693D01*
X537587Y70899D01*
X535985Y72500D01*
X537587Y74101D01*
X538500Y76307D01*
Y78693D01*
X537587Y80899D01*
X535899Y82587D01*
X533694Y83500D01*
D02*
G37*
G36*
X406194Y71000D02*
X403806D01*
X401601Y70087D01*
X399913Y68399D01*
X399000Y66193D01*
Y63807D01*
X399913Y61601D01*
X401601Y59913D01*
X403806Y59000D01*
X406194D01*
X408399Y59913D01*
X410087Y61601D01*
X411000Y63807D01*
Y66193D01*
X410087Y68399D01*
X408399Y70087D01*
X406194Y71000D01*
D02*
G37*
G36*
X656193Y68500D02*
X653807D01*
X651601Y67587D01*
X649913Y65899D01*
X649000Y63693D01*
Y61307D01*
X649913Y59101D01*
X651601Y57413D01*
X653807Y56500D01*
X656193D01*
X658399Y57413D01*
X660087Y59101D01*
X661000Y61307D01*
Y63693D01*
X660087Y65899D01*
X658399Y67587D01*
X656193Y68500D01*
D02*
G37*
G36*
X368694D02*
X366306D01*
X364101Y67587D01*
X362413Y65899D01*
X361500Y63693D01*
Y61307D01*
X362413Y59101D01*
X364101Y57413D01*
X366306Y56500D01*
X368694D01*
X370899Y57413D01*
X372587Y59101D01*
X373500Y61307D01*
Y63693D01*
X372587Y65899D01*
X370899Y67587D01*
X368694Y68500D01*
D02*
G37*
G36*
X698693Y66000D02*
X696307D01*
X694101Y65087D01*
X692413Y63399D01*
X691500Y61193D01*
Y58807D01*
X692413Y56601D01*
X694101Y54914D01*
X696307Y54000D01*
X698693D01*
X700899Y54914D01*
X702587Y56601D01*
X703500Y58807D01*
Y61193D01*
X702587Y63399D01*
X700899Y65087D01*
X698693Y66000D01*
D02*
G37*
G36*
X681193D02*
X678807D01*
X676601Y65087D01*
X674913Y63399D01*
X674000Y61193D01*
Y58807D01*
X674913Y56601D01*
X676601Y54914D01*
X678807Y54000D01*
X681193D01*
X683399Y54914D01*
X685087Y56601D01*
X686000Y58807D01*
Y61193D01*
X685087Y63399D01*
X683399Y65087D01*
X681193Y66000D01*
D02*
G37*
G36*
X384444Y59750D02*
X382057D01*
X379851Y58837D01*
X378163Y57149D01*
X377250Y54943D01*
Y52557D01*
X378163Y50351D01*
X379851Y48664D01*
X382057Y47750D01*
X384444D01*
X386649Y48664D01*
X388337Y50351D01*
X389250Y52557D01*
Y54943D01*
X388337Y57149D01*
X386649Y58837D01*
X384444Y59750D01*
D02*
G37*
G36*
X666193Y58500D02*
X663807D01*
X661601Y57586D01*
X659913Y55899D01*
X659000Y53693D01*
Y51307D01*
X659913Y49101D01*
X661601Y47413D01*
X663807Y46500D01*
X666193D01*
X668399Y47413D01*
X670087Y49101D01*
X671000Y51307D01*
Y53693D01*
X670087Y55899D01*
X668399Y57586D01*
X666193Y58500D01*
D02*
G37*
G36*
X368694Y51000D02*
X366306D01*
X364101Y50087D01*
X362413Y48399D01*
X361500Y46193D01*
Y43807D01*
X362413Y41601D01*
X364101Y39913D01*
X366306Y39000D01*
X368694D01*
X370899Y39913D01*
X372587Y41601D01*
X373500Y43807D01*
Y46193D01*
X372587Y48399D01*
X370899Y50087D01*
X368694Y51000D01*
D02*
G37*
G36*
X656193Y48500D02*
X653807D01*
X651601Y47586D01*
X649913Y45899D01*
X649000Y43693D01*
Y41307D01*
X649913Y39101D01*
X651601Y37413D01*
X653807Y36500D01*
X656193D01*
X658399Y37413D01*
X660087Y39101D01*
X661000Y41307D01*
Y43693D01*
X660087Y45899D01*
X658399Y47586D01*
X656193Y48500D01*
D02*
G37*
G36*
X693966Y48000D02*
X690027D01*
X686163Y47231D01*
X682523Y45724D01*
X679247Y43535D01*
X676461Y40749D01*
X674273Y37473D01*
X672853Y34047D01*
X672739Y34025D01*
X671996Y33971D01*
X670796Y34186D01*
X670087Y35899D01*
X668399Y37587D01*
X666193Y38500D01*
X663807D01*
X661601Y37587D01*
X659913Y35899D01*
X659000Y33693D01*
Y31307D01*
X659913Y29101D01*
X661601Y27413D01*
X663807Y26500D01*
X666193D01*
X668399Y27413D01*
X669997Y29011D01*
X670457Y28982D01*
X671997Y28486D01*
Y26030D01*
X672765Y22166D01*
X674273Y18527D01*
X676461Y15251D01*
X679247Y12465D01*
X682523Y10276D01*
X686163Y8769D01*
X690027Y8000D01*
X693966D01*
X697830Y8769D01*
X701470Y10276D01*
X704746Y12465D01*
X707532Y15251D01*
X709720Y18527D01*
X711228Y22166D01*
X711997Y26030D01*
Y29970D01*
X711228Y33834D01*
X709720Y37473D01*
X707532Y40749D01*
X704746Y43535D01*
X701470Y45724D01*
X697830Y47231D01*
X693966Y48000D01*
D02*
G37*
G36*
X423694Y41000D02*
X421306D01*
X419101Y40087D01*
X417413Y38399D01*
X416500Y36193D01*
Y33807D01*
X417413Y31601D01*
X419101Y29913D01*
X421306Y29000D01*
X423694D01*
X425899Y29913D01*
X427587Y31601D01*
X428500Y33807D01*
Y36193D01*
X427587Y38399D01*
X425899Y40087D01*
X423694Y41000D01*
D02*
G37*
G36*
X506194Y38500D02*
X503806D01*
X501601Y37587D01*
X499913Y35899D01*
X499000Y33693D01*
Y31307D01*
X499913Y29101D01*
X501601Y27413D01*
X503806Y26500D01*
X506194D01*
X508399Y27413D01*
X510087Y29101D01*
X511000Y31307D01*
Y33693D01*
X510087Y35899D01*
X508399Y37587D01*
X506194Y38500D01*
D02*
G37*
G36*
X451194D02*
X448806D01*
X446601Y37587D01*
X444913Y35899D01*
X444000Y33693D01*
Y31307D01*
X444913Y29101D01*
X446601Y27413D01*
X448806Y26500D01*
X451194D01*
X453399Y27413D01*
X455087Y29101D01*
X456000Y31307D01*
Y33693D01*
X455087Y35899D01*
X453399Y37587D01*
X451194Y38500D01*
D02*
G37*
G36*
X531194Y36000D02*
X528806D01*
X526601Y35087D01*
X524913Y33399D01*
X524000Y31193D01*
Y28807D01*
X524913Y26601D01*
X526601Y24913D01*
X528806Y24000D01*
X531194D01*
X533399Y24913D01*
X535087Y26601D01*
X536000Y28807D01*
Y31193D01*
X535087Y33399D01*
X533399Y35087D01*
X531194Y36000D01*
D02*
G37*
G36*
X403694D02*
X401306D01*
X399101Y35087D01*
X397413Y33399D01*
X396500Y31193D01*
Y28807D01*
X397413Y26601D01*
X399101Y24913D01*
X401306Y24000D01*
X403694D01*
X405899Y24913D01*
X407587Y26601D01*
X408500Y28807D01*
Y31193D01*
X407587Y33399D01*
X405899Y35087D01*
X403694Y36000D01*
D02*
G37*
G36*
X572693Y32500D02*
X570307D01*
X568101Y31586D01*
X566413Y29899D01*
X565500Y27693D01*
Y25306D01*
X566413Y23101D01*
X568101Y21413D01*
X570307Y20500D01*
X572693D01*
X574899Y21413D01*
X576586Y23101D01*
X577500Y25306D01*
Y27693D01*
X576586Y29899D01*
X574899Y31586D01*
X572693Y32500D01*
D02*
G37*
G36*
X613694Y28500D02*
X611306D01*
X609101Y27587D01*
X607413Y25899D01*
X606500Y23693D01*
Y21307D01*
X607413Y19101D01*
X609101Y17414D01*
X611306Y16500D01*
X613694D01*
X615899Y17414D01*
X617587Y19101D01*
X618500Y21307D01*
Y23693D01*
X617587Y25899D01*
X615899Y27587D01*
X613694Y28500D01*
D02*
G37*
G36*
X518694D02*
X516306D01*
X514101Y27587D01*
X512413Y25899D01*
X511500Y23693D01*
Y21307D01*
X512413Y19101D01*
X514101Y17414D01*
X516306Y16500D01*
X518694D01*
X520899Y17414D01*
X522587Y19101D01*
X523500Y21307D01*
Y23693D01*
X522587Y25899D01*
X520899Y27587D01*
X518694Y28500D01*
D02*
G37*
G36*
X438694D02*
X436306D01*
X434101Y27587D01*
X432413Y25899D01*
X431500Y23693D01*
Y21307D01*
X432413Y19101D01*
X434101Y17414D01*
X436306Y16500D01*
X438694D01*
X440899Y17414D01*
X442587Y19101D01*
X443500Y21307D01*
Y23693D01*
X442587Y25899D01*
X440899Y27587D01*
X438694Y28500D01*
D02*
G37*
G36*
X541194Y23500D02*
X538806D01*
X536601Y22587D01*
X534913Y20899D01*
X534000Y18693D01*
Y16307D01*
X534913Y14101D01*
X536601Y12413D01*
X538806Y11500D01*
X541194D01*
X543399Y12413D01*
X545087Y14101D01*
X546000Y16307D01*
Y18693D01*
X545087Y20899D01*
X543399Y22587D01*
X541194Y23500D01*
D02*
G37*
G36*
X413694D02*
X411306D01*
X409101Y22587D01*
X407413Y20899D01*
X406500Y18693D01*
Y16307D01*
X407413Y14101D01*
X409101Y12413D01*
X411306Y11500D01*
X413694D01*
X415899Y12413D01*
X417587Y14101D01*
X418500Y16307D01*
Y18693D01*
X417587Y20899D01*
X415899Y22587D01*
X413694Y23500D01*
D02*
G37*
G36*
X340000Y140000D02*
X335000D01*
Y10000D01*
X340000D01*
Y140000D01*
D02*
G37*
G36*
X29966Y48000D02*
X26027D01*
X22163Y47231D01*
X18523Y45724D01*
X15247Y43535D01*
X12462Y40749D01*
X10273Y37473D01*
X8765Y33834D01*
X7997Y29970D01*
Y26030D01*
X8765Y22166D01*
X10273Y18527D01*
X12462Y15251D01*
X15247Y12465D01*
X18523Y10276D01*
X22163Y8769D01*
X26027Y8000D01*
X29966D01*
X33830Y8769D01*
X37470Y10276D01*
X40746Y12465D01*
X43531Y15251D01*
X45720Y18527D01*
X47228Y22166D01*
X47997Y26030D01*
Y29970D01*
X47228Y33834D01*
X45720Y37473D01*
X43531Y40749D01*
X40746Y43535D01*
X37470Y45724D01*
X33830Y47231D01*
X29966Y48000D01*
D02*
G37*
G36*
X666193Y18500D02*
X663807D01*
X661601Y17587D01*
X659913Y15899D01*
X659000Y13693D01*
Y11307D01*
X659913Y9101D01*
X661601Y7413D01*
X663807Y6500D01*
X666193D01*
X668399Y7413D01*
X670087Y9101D01*
X671000Y11307D01*
Y13693D01*
X670087Y15899D01*
X668399Y17587D01*
X666193Y18500D01*
D02*
G37*
%LPD*%
D44*
X654100Y210990D02*
D03*
Y231310D02*
D03*
X704900Y221150D02*
D03*
D76*
X193000Y252500D02*
D03*
X113000D02*
D03*
D77*
X44700Y111900D02*
D03*
Y137300D02*
D03*
X44700Y162700D02*
D03*
X44700Y188100D02*
D03*
X19300Y137300D02*
D03*
Y162700D02*
D03*
Y111900D02*
D03*
D78*
Y188100D02*
D03*
D79*
X665000Y158900D02*
D03*
Y101100D02*
D03*
D80*
X70000Y242500D02*
D03*
Y255000D02*
D03*
X217500Y152500D02*
D03*
X230000Y165000D02*
D03*
X252500Y242500D02*
D03*
Y255000D02*
D03*
X542500Y170000D02*
D03*
X510000Y167500D02*
D03*
X487500Y190000D02*
D03*
Y215000D02*
D03*
X510000Y190000D02*
D03*
X462500Y167500D02*
D03*
X510000Y215000D02*
D03*
X470000Y275000D02*
D03*
X655000Y197500D02*
D03*
X405000Y122500D02*
D03*
X490000Y275000D02*
D03*
X352500Y142500D02*
D03*
Y185000D02*
D03*
X138000Y112000D02*
D03*
Y128000D02*
D03*
X400000Y205000D02*
D03*
X130000Y159500D02*
D03*
X680000Y237500D02*
D03*
X649500Y22500D02*
D03*
X567500Y177500D02*
D03*
X405000Y65000D02*
D03*
X529243Y96500D02*
D03*
X525000Y120000D02*
D03*
X515000Y105000D02*
D03*
X587500Y17500D02*
D03*
X425000Y145000D02*
D03*
X587000Y8000D02*
D03*
X572500Y12500D02*
D03*
X490125Y250000D02*
D03*
X585000Y142000D02*
D03*
X560000Y57500D02*
D03*
X495000Y112500D02*
D03*
X7500Y95000D02*
D03*
X82500Y185000D02*
D03*
X67500Y165000D02*
D03*
X497500Y122500D02*
D03*
X487500D02*
D03*
X539500Y237000D02*
D03*
X567500Y287500D02*
D03*
X577500D02*
D03*
X557500D02*
D03*
X512500Y292500D02*
D03*
X640000Y267500D02*
D03*
Y287500D02*
D03*
X605000Y170000D02*
D03*
X602500Y187500D02*
D03*
Y207500D02*
D03*
X571500Y26500D02*
D03*
X585000Y267500D02*
D03*
X585950Y278442D02*
D03*
X527500Y248642D02*
D03*
X605000Y227500D02*
D03*
X526150Y271350D02*
D03*
X590250Y217500D02*
D03*
Y197500D02*
D03*
X564750Y207500D02*
D03*
X565000Y227500D02*
D03*
X557000Y158000D02*
D03*
X528000Y239000D02*
D03*
X509000Y251000D02*
D03*
X630500Y197500D02*
D03*
X532500Y77500D02*
D03*
X425000Y130000D02*
D03*
X445000D02*
D03*
X452500Y147500D02*
D03*
X412500Y55000D02*
D03*
X422500Y45000D02*
D03*
X410000Y182500D02*
D03*
X373000Y235500D02*
D03*
X383000Y132000D02*
D03*
X365000Y122500D02*
D03*
X383250Y53750D02*
D03*
X367500Y62500D02*
D03*
Y45000D02*
D03*
X412500Y17500D02*
D03*
X402500Y30000D02*
D03*
X450000Y32500D02*
D03*
X505000D02*
D03*
X502500Y82500D02*
D03*
X452500D02*
D03*
X437500Y22500D02*
D03*
X422500Y35000D02*
D03*
X517500Y22500D02*
D03*
X540000Y17500D02*
D03*
X530000Y30000D02*
D03*
X655000Y62500D02*
D03*
Y42500D02*
D03*
X665000Y52500D02*
D03*
Y32500D02*
D03*
Y12500D02*
D03*
X612500Y22500D02*
D03*
X550000Y122500D02*
D03*
X560000Y132500D02*
D03*
Y112500D02*
D03*
X550000Y102500D02*
D03*
X585000D02*
D03*
X575000Y112500D02*
D03*
X582500Y72500D02*
D03*
X567500Y80000D02*
D03*
X665000Y112500D02*
D03*
X615000Y97500D02*
D03*
X622500Y115250D02*
D03*
X442500Y117500D02*
D03*
X697500Y60000D02*
D03*
Y162500D02*
D03*
Y97500D02*
D03*
X680000Y60000D02*
D03*
Y97500D02*
D03*
Y80000D02*
D03*
Y200000D02*
D03*
Y162500D02*
D03*
Y180000D02*
D03*
X645000Y170000D02*
D03*
X595000Y167500D02*
D03*
X585000Y158000D02*
D03*
X665000Y147500D02*
D03*
X642086Y92086D02*
D03*
X432500Y258000D02*
D03*
X435000Y227500D02*
D03*
X425000Y275000D02*
D03*
X442500D02*
D03*
X380000Y187500D02*
D03*
X565000Y197500D02*
D03*
Y187500D02*
D03*
X532500Y67500D02*
D03*
X417500Y195000D02*
D03*
X410000Y202500D02*
D03*
X417500Y217500D02*
D03*
X469500Y253250D02*
D03*
X470000Y245000D02*
D03*
X540000Y57500D02*
D03*
X527000Y138000D02*
D03*
X435000Y241000D02*
D03*
Y249000D02*
D03*
X605000Y150000D02*
D03*
Y140000D02*
D03*
M02*
