G04*
G04 #@! TF.GenerationSoftware,Altium Limited,Altium Designer,23.9.2 (47)*
G04*
G04 Layer_Physical_Order=1*
G04 Layer_Color=255*
%FSLAX44Y44*%
%MOMM*%
G71*
G04*
G04 #@! TF.SameCoordinates,DB526BF8-E997-4231-925B-FFD4C5E6FE8C*
G04*
G04*
G04 #@! TF.FilePolarity,Positive*
G04*
G01*
G75*
%ADD40C,0.8500*%
G04:AMPARAMS|DCode=42|XSize=0.5mm|YSize=0.3mm|CornerRadius=0.0375mm|HoleSize=0mm|Usage=FLASHONLY|Rotation=0.000|XOffset=0mm|YOffset=0mm|HoleType=Round|Shape=RoundedRectangle|*
%AMROUNDEDRECTD42*
21,1,0.5000,0.2250,0,0,0.0*
21,1,0.4250,0.3000,0,0,0.0*
1,1,0.0750,0.2125,-0.1125*
1,1,0.0750,-0.2125,-0.1125*
1,1,0.0750,-0.2125,0.1125*
1,1,0.0750,0.2125,0.1125*
%
%ADD42ROUNDEDRECTD42*%
G04:AMPARAMS|DCode=43|XSize=0.5mm|YSize=0.4mm|CornerRadius=0.05mm|HoleSize=0mm|Usage=FLASHONLY|Rotation=0.000|XOffset=0mm|YOffset=0mm|HoleType=Round|Shape=RoundedRectangle|*
%AMROUNDEDRECTD43*
21,1,0.5000,0.3000,0,0,0.0*
21,1,0.4000,0.4000,0,0,0.0*
1,1,0.1000,0.2000,-0.1500*
1,1,0.1000,-0.2000,-0.1500*
1,1,0.1000,-0.2000,0.1500*
1,1,0.1000,0.2000,0.1500*
%
%ADD43ROUNDEDRECTD43*%
G04:AMPARAMS|DCode=44|XSize=0.5mm|YSize=0.3mm|CornerRadius=0.0375mm|HoleSize=0mm|Usage=FLASHONLY|Rotation=270.000|XOffset=0mm|YOffset=0mm|HoleType=Round|Shape=RoundedRectangle|*
%AMROUNDEDRECTD44*
21,1,0.5000,0.2250,0,0,270.0*
21,1,0.4250,0.3000,0,0,270.0*
1,1,0.0750,-0.1125,-0.2125*
1,1,0.0750,-0.1125,0.2125*
1,1,0.0750,0.1125,0.2125*
1,1,0.0750,0.1125,-0.2125*
%
%ADD44ROUNDEDRECTD44*%
G04:AMPARAMS|DCode=45|XSize=0.5mm|YSize=0.4mm|CornerRadius=0.05mm|HoleSize=0mm|Usage=FLASHONLY|Rotation=270.000|XOffset=0mm|YOffset=0mm|HoleType=Round|Shape=RoundedRectangle|*
%AMROUNDEDRECTD45*
21,1,0.5000,0.3000,0,0,270.0*
21,1,0.4000,0.4000,0,0,270.0*
1,1,0.1000,-0.1500,-0.2000*
1,1,0.1000,-0.1500,0.2000*
1,1,0.1000,0.1500,0.2000*
1,1,0.1000,0.1500,-0.2000*
%
%ADD45ROUNDEDRECTD45*%
G04:AMPARAMS|DCode=46|XSize=0.9mm|YSize=0.85mm|CornerRadius=0.085mm|HoleSize=0mm|Usage=FLASHONLY|Rotation=90.000|XOffset=0mm|YOffset=0mm|HoleType=Round|Shape=RoundedRectangle|*
%AMROUNDEDRECTD46*
21,1,0.9000,0.6800,0,0,90.0*
21,1,0.7300,0.8500,0,0,90.0*
1,1,0.1700,0.3400,0.3650*
1,1,0.1700,0.3400,-0.3650*
1,1,0.1700,-0.3400,-0.3650*
1,1,0.1700,-0.3400,0.3650*
%
%ADD46ROUNDEDRECTD46*%
G04:AMPARAMS|DCode=47|XSize=1.15mm|YSize=0.6mm|CornerRadius=0.15mm|HoleSize=0mm|Usage=FLASHONLY|Rotation=0.000|XOffset=0mm|YOffset=0mm|HoleType=Round|Shape=RoundedRectangle|*
%AMROUNDEDRECTD47*
21,1,1.1500,0.3000,0,0,0.0*
21,1,0.8500,0.6000,0,0,0.0*
1,1,0.3000,0.4250,-0.1500*
1,1,0.3000,-0.4250,-0.1500*
1,1,0.3000,-0.4250,0.1500*
1,1,0.3000,0.4250,0.1500*
%
%ADD47ROUNDEDRECTD47*%
G04:AMPARAMS|DCode=48|XSize=0.95mm|YSize=0.9mm|CornerRadius=0.09mm|HoleSize=0mm|Usage=FLASHONLY|Rotation=270.000|XOffset=0mm|YOffset=0mm|HoleType=Round|Shape=RoundedRectangle|*
%AMROUNDEDRECTD48*
21,1,0.9500,0.7200,0,0,270.0*
21,1,0.7700,0.9000,0,0,270.0*
1,1,0.1800,-0.3600,-0.3850*
1,1,0.1800,-0.3600,0.3850*
1,1,0.1800,0.3600,0.3850*
1,1,0.1800,0.3600,-0.3850*
%
%ADD48ROUNDEDRECTD48*%
G04:AMPARAMS|DCode=49|XSize=0.95mm|YSize=0.9mm|CornerRadius=0.09mm|HoleSize=0mm|Usage=FLASHONLY|Rotation=0.000|XOffset=0mm|YOffset=0mm|HoleType=Round|Shape=RoundedRectangle|*
%AMROUNDEDRECTD49*
21,1,0.9500,0.7200,0,0,0.0*
21,1,0.7700,0.9000,0,0,0.0*
1,1,0.1800,0.3850,-0.3600*
1,1,0.1800,-0.3850,-0.3600*
1,1,0.1800,-0.3850,0.3600*
1,1,0.1800,0.3850,0.3600*
%
%ADD49ROUNDEDRECTD49*%
%ADD50O,1.0000X3.5000*%
%ADD51R,0.8000X1.5000*%
%ADD52R,1.5000X0.8000*%
%ADD53R,4.8000X4.8000*%
G04:AMPARAMS|DCode=54|XSize=0.7mm|YSize=1.35mm|CornerRadius=0.07mm|HoleSize=0mm|Usage=FLASHONLY|Rotation=90.000|XOffset=0mm|YOffset=0mm|HoleType=Round|Shape=RoundedRectangle|*
%AMROUNDEDRECTD54*
21,1,0.7000,1.2100,0,0,90.0*
21,1,0.5600,1.3500,0,0,90.0*
1,1,0.1400,0.6050,0.2800*
1,1,0.1400,0.6050,-0.2800*
1,1,0.1400,-0.6050,-0.2800*
1,1,0.1400,-0.6050,0.2800*
%
%ADD54ROUNDEDRECTD54*%
%ADD55R,2.5000X3.4000*%
G04:AMPARAMS|DCode=56|XSize=0.6mm|YSize=1.15mm|CornerRadius=0.15mm|HoleSize=0mm|Usage=FLASHONLY|Rotation=90.000|XOffset=0mm|YOffset=0mm|HoleType=Round|Shape=RoundedRectangle|*
%AMROUNDEDRECTD56*
21,1,0.6000,0.8500,0,0,90.0*
21,1,0.3000,1.1500,0,0,90.0*
1,1,0.3000,0.4250,0.1500*
1,1,0.3000,0.4250,-0.1500*
1,1,0.3000,-0.4250,-0.1500*
1,1,0.3000,-0.4250,0.1500*
%
%ADD56ROUNDEDRECTD56*%
G04:AMPARAMS|DCode=57|XSize=0.3mm|YSize=1.15mm|CornerRadius=0.075mm|HoleSize=0mm|Usage=FLASHONLY|Rotation=90.000|XOffset=0mm|YOffset=0mm|HoleType=Round|Shape=RoundedRectangle|*
%AMROUNDEDRECTD57*
21,1,0.3000,1.0000,0,0,90.0*
21,1,0.1500,1.1500,0,0,90.0*
1,1,0.1500,0.5000,0.0750*
1,1,0.1500,0.5000,-0.0750*
1,1,0.1500,-0.5000,-0.0750*
1,1,0.1500,-0.5000,0.0750*
%
%ADD57ROUNDEDRECTD57*%
G04:AMPARAMS|DCode=58|XSize=2.18mm|YSize=2mm|CornerRadius=0.5mm|HoleSize=0mm|Usage=FLASHONLY|Rotation=90.000|XOffset=0mm|YOffset=0mm|HoleType=Round|Shape=RoundedRectangle|*
%AMROUNDEDRECTD58*
21,1,2.1800,1.0000,0,0,90.0*
21,1,1.1800,2.0000,0,0,90.0*
1,1,1.0000,0.5000,0.5900*
1,1,1.0000,0.5000,-0.5900*
1,1,1.0000,-0.5000,-0.5900*
1,1,1.0000,-0.5000,0.5900*
%
%ADD58ROUNDEDRECTD58*%
%ADD59R,0.4000X0.4000*%
%ADD60R,0.3500X0.5000*%
G04:AMPARAMS|DCode=61|XSize=0.9mm|YSize=0.85mm|CornerRadius=0.085mm|HoleSize=0mm|Usage=FLASHONLY|Rotation=0.000|XOffset=0mm|YOffset=0mm|HoleType=Round|Shape=RoundedRectangle|*
%AMROUNDEDRECTD61*
21,1,0.9000,0.6800,0,0,0.0*
21,1,0.7300,0.8500,0,0,0.0*
1,1,0.1700,0.3650,-0.3400*
1,1,0.1700,-0.3650,-0.3400*
1,1,0.1700,-0.3650,0.3400*
1,1,0.1700,0.3650,0.3400*
%
%ADD61ROUNDEDRECTD61*%
G04:AMPARAMS|DCode=62|XSize=1.15mm|YSize=0.6mm|CornerRadius=0.15mm|HoleSize=0mm|Usage=FLASHONLY|Rotation=270.000|XOffset=0mm|YOffset=0mm|HoleType=Round|Shape=RoundedRectangle|*
%AMROUNDEDRECTD62*
21,1,1.1500,0.3000,0,0,270.0*
21,1,0.8500,0.6000,0,0,270.0*
1,1,0.3000,-0.1500,-0.4250*
1,1,0.3000,-0.1500,0.4250*
1,1,0.3000,0.1500,0.4250*
1,1,0.3000,0.1500,-0.4250*
%
%ADD62ROUNDEDRECTD62*%
G04:AMPARAMS|DCode=63|XSize=1.2mm|YSize=0.6mm|CornerRadius=0.15mm|HoleSize=0mm|Usage=FLASHONLY|Rotation=90.000|XOffset=0mm|YOffset=0mm|HoleType=Round|Shape=RoundedRectangle|*
%AMROUNDEDRECTD63*
21,1,1.2000,0.3000,0,0,90.0*
21,1,0.9000,0.6000,0,0,90.0*
1,1,0.3000,0.1500,0.4500*
1,1,0.3000,0.1500,-0.4500*
1,1,0.3000,-0.1500,-0.4500*
1,1,0.3000,-0.1500,0.4500*
%
%ADD63ROUNDEDRECTD63*%
G04:AMPARAMS|DCode=64|XSize=0.8mm|YSize=0.4mm|CornerRadius=0.04mm|HoleSize=0mm|Usage=FLASHONLY|Rotation=180.000|XOffset=0mm|YOffset=0mm|HoleType=Round|Shape=RoundedRectangle|*
%AMROUNDEDRECTD64*
21,1,0.8000,0.3200,0,0,180.0*
21,1,0.7200,0.4000,0,0,180.0*
1,1,0.0800,-0.3600,0.1600*
1,1,0.0800,0.3600,0.1600*
1,1,0.0800,0.3600,-0.1600*
1,1,0.0800,-0.3600,-0.1600*
%
%ADD64ROUNDEDRECTD64*%
G04:AMPARAMS|DCode=65|XSize=1.5mm|YSize=0.45mm|CornerRadius=0.1125mm|HoleSize=0mm|Usage=FLASHONLY|Rotation=270.000|XOffset=0mm|YOffset=0mm|HoleType=Round|Shape=RoundedRectangle|*
%AMROUNDEDRECTD65*
21,1,1.5000,0.2250,0,0,270.0*
21,1,1.2750,0.4500,0,0,270.0*
1,1,0.2250,-0.1125,-0.6375*
1,1,0.2250,-0.1125,0.6375*
1,1,0.2250,0.1125,0.6375*
1,1,0.2250,0.1125,-0.6375*
%
%ADD65ROUNDEDRECTD65*%
G04:AMPARAMS|DCode=66|XSize=0.85mm|YSize=0.3mm|CornerRadius=0.075mm|HoleSize=0mm|Usage=FLASHONLY|Rotation=0.000|XOffset=0mm|YOffset=0mm|HoleType=Round|Shape=RoundedRectangle|*
%AMROUNDEDRECTD66*
21,1,0.8500,0.1500,0,0,0.0*
21,1,0.7000,0.3000,0,0,0.0*
1,1,0.1500,0.3500,-0.0750*
1,1,0.1500,-0.3500,-0.0750*
1,1,0.1500,-0.3500,0.0750*
1,1,0.1500,0.3500,0.0750*
%
%ADD66ROUNDEDRECTD66*%
G04:AMPARAMS|DCode=67|XSize=0.85mm|YSize=0.3mm|CornerRadius=0.075mm|HoleSize=0mm|Usage=FLASHONLY|Rotation=270.000|XOffset=0mm|YOffset=0mm|HoleType=Round|Shape=RoundedRectangle|*
%AMROUNDEDRECTD67*
21,1,0.8500,0.1500,0,0,270.0*
21,1,0.7000,0.3000,0,0,270.0*
1,1,0.1500,-0.0750,-0.3500*
1,1,0.1500,-0.0750,0.3500*
1,1,0.1500,0.0750,0.3500*
1,1,0.1500,0.0750,-0.3500*
%
%ADD67ROUNDEDRECTD67*%
%ADD68R,5.7000X5.7000*%
%ADD69C,0.2000*%
%ADD70C,0.3000*%
%ADD71C,0.1500*%
%ADD72C,0.2500*%
%ADD73C,1.4000*%
%ADD74C,1.5000*%
G04:AMPARAMS|DCode=75|XSize=1.5mm|YSize=1.5mm|CornerRadius=0.375mm|HoleSize=0mm|Usage=FLASHONLY|Rotation=270.000|XOffset=0mm|YOffset=0mm|HoleType=Round|Shape=RoundedRectangle|*
%AMROUNDEDRECTD75*
21,1,1.5000,0.7500,0,0,270.0*
21,1,0.7500,1.5000,0,0,270.0*
1,1,0.7500,-0.3750,-0.3750*
1,1,0.7500,-0.3750,0.3750*
1,1,0.7500,0.3750,0.3750*
1,1,0.7500,0.3750,-0.3750*
%
%ADD75ROUNDEDRECTD75*%
%ADD76C,0.6500*%
%ADD77C,0.6000*%
G36*
X696678Y295513D02*
X699707Y294702D01*
X702604Y293502D01*
X705320Y291934D01*
X707807Y290025D01*
X710025Y287808D01*
X711934Y285320D01*
X713502Y282604D01*
X714702Y279707D01*
X715513Y276678D01*
X715922Y273568D01*
X715922Y272000D01*
X715922Y272000D01*
X715922Y272000D01*
X715922Y28002D01*
X715921Y26434D01*
X715510Y23325D01*
X714698Y20297D01*
X713497Y17400D01*
X711929Y14685D01*
X710020Y12197D01*
X707803Y9980D01*
X705315Y8071D01*
X702600Y6503D01*
X699703Y5302D01*
X696674Y4489D01*
X693566Y4079D01*
X691998Y4078D01*
X648064D01*
X647131Y6078D01*
X647719Y6958D01*
X648095Y8850D01*
Y14652D01*
X648270Y16181D01*
X650049Y16500D01*
X650693D01*
X652899Y17414D01*
X654586Y19101D01*
X655500Y21307D01*
Y23693D01*
X654586Y25899D01*
X652899Y27587D01*
X651952Y27979D01*
X648096Y31835D01*
Y36350D01*
X647716Y38262D01*
X646633Y39883D01*
X645012Y40966D01*
X643100Y41346D01*
X639959D01*
X639585Y41905D01*
X640654Y43905D01*
X643150D01*
X645042Y44281D01*
X646647Y45353D01*
X647719Y46958D01*
X648095Y48850D01*
Y56150D01*
X647719Y58042D01*
X646647Y59647D01*
X645042Y60719D01*
X643150Y61095D01*
X636350D01*
X634458Y60719D01*
X632853Y59647D01*
X631781Y58042D01*
X631776Y58013D01*
X630104Y57681D01*
X628285Y56465D01*
X628232Y56412D01*
X627250Y56608D01*
X618750D01*
X616604Y56181D01*
X614785Y54965D01*
X613569Y53146D01*
X613142Y51000D01*
Y48000D01*
X613569Y45854D01*
X614307Y44750D01*
X613569Y43646D01*
X613142Y41500D01*
Y38500D01*
X613569Y36354D01*
X614307Y35250D01*
X613569Y34146D01*
X613142Y32000D01*
Y29000D01*
X613569Y26854D01*
X614785Y25035D01*
X616604Y23819D01*
X617566Y23628D01*
X617819Y22354D01*
X619035Y20535D01*
X621035Y18535D01*
X622854Y17319D01*
X625000Y16892D01*
X630796D01*
X631405Y16150D01*
Y8850D01*
X631781Y6958D01*
X632369Y6078D01*
X631436Y4078D01*
X610529D01*
X609608Y6078D01*
X610216Y6988D01*
X610596Y8900D01*
Y16600D01*
X610216Y18512D01*
X609133Y20133D01*
X607512Y21216D01*
X607463Y21225D01*
X607181Y22646D01*
X605965Y24465D01*
X605288Y25143D01*
X606431Y26854D01*
X606858Y29000D01*
Y32000D01*
X606431Y34146D01*
X605215Y35965D01*
X603396Y37181D01*
X601250Y37608D01*
X592750D01*
X592353Y37529D01*
X590594Y38972D01*
Y41028D01*
X592353Y42471D01*
X592750Y42392D01*
X601250D01*
X603396Y42819D01*
X605215Y44035D01*
X606431Y45854D01*
X606858Y48000D01*
Y51000D01*
X606431Y53146D01*
X605288Y54857D01*
X608965Y58535D01*
X610181Y60354D01*
X610608Y62500D01*
Y78000D01*
X610181Y80146D01*
X608965Y81965D01*
X603846Y87085D01*
Y91600D01*
X603466Y93512D01*
X602383Y95133D01*
X600762Y96216D01*
X600608Y96246D01*
Y99325D01*
X602147Y100353D01*
X603219Y101958D01*
X603595Y103850D01*
Y107914D01*
X608965Y113285D01*
X610181Y115104D01*
X610239Y115143D01*
X611500Y114892D01*
X614500D01*
X616646Y115319D01*
X618465Y116535D01*
X619681Y118354D01*
X620108Y120500D01*
Y129392D01*
X624892D01*
Y120500D01*
X625319Y118354D01*
X625628Y117891D01*
X625006Y115874D01*
X624762Y115588D01*
X623353Y114647D01*
X622281Y113042D01*
X621905Y111150D01*
Y103850D01*
X622281Y101958D01*
X623353Y100353D01*
X624958Y99281D01*
X626850Y98905D01*
X633650D01*
X634280Y99030D01*
X635784Y97720D01*
X635274Y96086D01*
X630400D01*
X628683Y95745D01*
X627228Y94772D01*
X626255Y93317D01*
X625914Y91600D01*
Y88400D01*
X626255Y86683D01*
X627228Y85228D01*
X628392Y84450D01*
Y81095D01*
X626600D01*
X624708Y80718D01*
X623103Y79647D01*
X622031Y78042D01*
X621655Y76150D01*
Y68850D01*
X622031Y66958D01*
X623103Y65353D01*
X624708Y64281D01*
X626600Y63905D01*
X633400D01*
X635292Y64281D01*
X636897Y65353D01*
X637969Y66958D01*
X638345Y68850D01*
Y73353D01*
X639181Y74604D01*
X639608Y76750D01*
Y84450D01*
X639619Y84457D01*
X640065D01*
X642211Y84884D01*
X644030Y86100D01*
X644538Y86607D01*
X645485Y87000D01*
X647173Y88687D01*
X648086Y90893D01*
Y93280D01*
X647694Y94227D01*
Y98846D01*
X647750Y98892D01*
X656250D01*
X657993Y99239D01*
X658244Y98302D01*
X659199Y96648D01*
X660548Y95299D01*
X662202Y94344D01*
X664045Y93850D01*
X665955D01*
X667798Y94344D01*
X669452Y95299D01*
X670801Y96648D01*
X671756Y98302D01*
X672250Y100146D01*
Y102055D01*
X671756Y103898D01*
X670801Y105552D01*
X669452Y106901D01*
X669270Y108284D01*
X670087Y109101D01*
X671000Y111306D01*
Y113694D01*
X670087Y115899D01*
X668399Y117587D01*
X666193Y118500D01*
X663807D01*
X663774Y118487D01*
X661549Y119730D01*
X661495Y120000D01*
X661843Y121750D01*
Y122259D01*
X662146Y122319D01*
X663965Y123535D01*
X666465Y126035D01*
X667681Y127854D01*
X668108Y130000D01*
Y135000D01*
X667681Y137146D01*
X666465Y138965D01*
X665930Y139500D01*
X666033Y140282D01*
X666593Y141666D01*
X668399Y142414D01*
X670087Y144101D01*
X671000Y146306D01*
Y148694D01*
X670087Y150899D01*
X669270Y151716D01*
X669452Y153099D01*
X670801Y154448D01*
X671756Y156102D01*
X672250Y157945D01*
Y159854D01*
X671756Y161698D01*
X670801Y163352D01*
X669452Y164701D01*
X667798Y165656D01*
X665955Y166150D01*
X664045D01*
X662202Y165656D01*
X660548Y164701D01*
X659199Y163352D01*
X658244Y161698D01*
X657993Y160761D01*
X656250Y161108D01*
X647750D01*
X645604Y160681D01*
X645006Y160281D01*
X644215Y161465D01*
X638595Y167085D01*
Y171150D01*
X638219Y173042D01*
X637147Y174647D01*
X635542Y175719D01*
X633650Y176095D01*
X626850D01*
X624958Y175719D01*
X623353Y174647D01*
X622281Y173042D01*
X621905Y171150D01*
Y166305D01*
X620359Y165036D01*
X620000Y165108D01*
X602529D01*
X601000Y166306D01*
Y168693D01*
X600087Y170899D01*
X598399Y172586D01*
X596193Y173500D01*
X593806D01*
X591601Y172586D01*
X589913Y170899D01*
X589000Y168693D01*
Y166306D01*
X589081Y166111D01*
X587617Y165133D01*
X586716Y163784D01*
X586194Y164000D01*
X583806D01*
X581601Y163087D01*
X580723Y162208D01*
X563278Y179652D01*
X563432Y180189D01*
X564259Y181500D01*
X566194D01*
X566893Y181790D01*
X567853Y180353D01*
X569458Y179281D01*
X571350Y178905D01*
X578150D01*
X580042Y179281D01*
X581164Y180031D01*
X582500Y180228D01*
X583836Y180031D01*
X584958Y179281D01*
X586850Y178905D01*
X593650D01*
X595542Y179281D01*
X597147Y180353D01*
X598219Y181958D01*
X598595Y183850D01*
Y191150D01*
X598219Y193042D01*
X597147Y194647D01*
X595906Y195476D01*
X596250Y196306D01*
Y198694D01*
X595906Y199524D01*
X597147Y200353D01*
X598219Y201958D01*
X598595Y203850D01*
Y211150D01*
X598219Y213042D01*
X597147Y214647D01*
X595906Y215476D01*
X596250Y216306D01*
Y218694D01*
X595906Y219524D01*
X597147Y220353D01*
X598219Y221958D01*
X598408Y222908D01*
X600556Y223458D01*
X601601Y222413D01*
X603806Y221500D01*
X606194D01*
X606894Y221790D01*
X607853Y220353D01*
X609458Y219281D01*
X611350Y218905D01*
X618150D01*
X620042Y219281D01*
X621164Y220031D01*
X622500Y220228D01*
X623836Y220031D01*
X624958Y219281D01*
X626850Y218905D01*
X633650D01*
X635542Y219281D01*
X636889Y220181D01*
X641035Y216035D01*
X642854Y214819D01*
X644185Y214554D01*
X645475Y212987D01*
X645676Y212392D01*
X645600Y212109D01*
Y209871D01*
X646179Y207709D01*
X647298Y205771D01*
X648881Y204188D01*
X649828Y203642D01*
X650271Y201371D01*
X650217Y201202D01*
X649913Y200899D01*
X649000Y198694D01*
Y196306D01*
X649913Y194101D01*
X651601Y192414D01*
X653807Y191500D01*
X656193D01*
X657141Y191892D01*
X667677D01*
X671035Y188535D01*
X672854Y187319D01*
X675000Y186892D01*
X682500D01*
X684646Y187319D01*
X686465Y188535D01*
X691715Y193785D01*
X692931Y195604D01*
X693358Y197750D01*
Y200742D01*
X694647Y201603D01*
X695719Y203208D01*
X696095Y205100D01*
Y212400D01*
X695719Y214292D01*
X694647Y215897D01*
X693358Y216758D01*
Y219909D01*
X694431Y220703D01*
X695635Y220292D01*
X696457Y219819D01*
X696979Y217869D01*
X698098Y215931D01*
X699681Y214348D01*
X701619Y213229D01*
X703781Y212650D01*
X706019D01*
X708181Y213229D01*
X710119Y214348D01*
X711702Y215931D01*
X712821Y217869D01*
X713400Y220031D01*
Y222269D01*
X712821Y224431D01*
X711702Y226369D01*
X710119Y227952D01*
X708181Y229071D01*
X706019Y229650D01*
X703781D01*
X701619Y229071D01*
X699681Y227952D01*
X698098Y226369D01*
X698095Y226364D01*
X696095Y226899D01*
Y232400D01*
X695719Y234292D01*
X694647Y235897D01*
X693042Y236969D01*
X691150Y237345D01*
X684350D01*
X682458Y236969D01*
X680853Y235897D01*
X679147D01*
X677542Y236969D01*
X675650Y237345D01*
X671585D01*
X657465Y251465D01*
X655646Y252681D01*
X653500Y253108D01*
X638175D01*
X637147Y254647D01*
X635542Y255718D01*
X633650Y256095D01*
X626850D01*
X624958Y255718D01*
X623836Y254969D01*
X622500Y254772D01*
X621164Y254969D01*
X620042Y255718D01*
X619729Y255781D01*
X618670Y257749D01*
X619221Y259118D01*
X620042Y259281D01*
X621647Y260353D01*
X622719Y261958D01*
X623095Y263850D01*
Y271150D01*
X622719Y273042D01*
X621647Y274647D01*
X620042Y275718D01*
X618150Y276095D01*
X615085D01*
X614202Y278095D01*
X614940Y278905D01*
X618150D01*
X620042Y279281D01*
X621647Y280353D01*
X622719Y281958D01*
X623095Y283850D01*
Y291150D01*
X622719Y293042D01*
X622131Y293922D01*
X623064Y295922D01*
X692000D01*
X692000Y295922D01*
X692001Y295922D01*
X693568Y295922D01*
X696678Y295513D01*
D02*
G37*
G36*
X606436Y295922D02*
X607369Y293922D01*
X606781Y293042D01*
X606553Y291896D01*
X604912Y290985D01*
X604405Y290929D01*
X603884Y291277D01*
X602050Y291642D01*
X589950D01*
X588116Y291277D01*
X586562Y290238D01*
X585523Y288684D01*
X585158Y286850D01*
Y285581D01*
X583498Y283921D01*
X582551Y283529D01*
X580863Y281841D01*
X579950Y279636D01*
Y277249D01*
X580863Y275044D01*
X582551Y273356D01*
X584757Y272442D01*
X587144D01*
X589349Y273356D01*
X591037Y275044D01*
X591429Y275991D01*
X591880Y276442D01*
X594000D01*
X594079Y276458D01*
X601892D01*
Y269823D01*
X598312Y266242D01*
X589950D01*
X588116Y265877D01*
X586562Y264839D01*
X585523Y263284D01*
X585158Y261450D01*
Y255850D01*
X585523Y254016D01*
X586562Y252461D01*
Y252139D01*
X585523Y250584D01*
X585158Y248750D01*
Y243150D01*
X585123Y243108D01*
X559823D01*
X555608Y247323D01*
Y255692D01*
X555181Y257838D01*
X553965Y259657D01*
X552088Y261534D01*
X550269Y262750D01*
X549555Y262892D01*
X549477Y263284D01*
X548438Y264839D01*
Y265161D01*
X549477Y266716D01*
X549842Y268550D01*
Y274150D01*
X549477Y275984D01*
X548438Y277539D01*
Y277861D01*
X549477Y279416D01*
X549842Y281250D01*
Y286850D01*
X549477Y288684D01*
X548438Y290238D01*
X546884Y291277D01*
X545050Y291642D01*
X532950D01*
X531116Y291277D01*
X530947Y291164D01*
X530133Y292383D01*
X528512Y293466D01*
X526600Y293846D01*
X519400D01*
X517488Y293466D01*
X515867Y292383D01*
X514784Y290762D01*
X514404Y288850D01*
Y284335D01*
X510677Y280608D01*
X499204D01*
X498595Y281350D01*
Y288650D01*
X498219Y290542D01*
X497147Y292147D01*
X495542Y293219D01*
X493650Y293595D01*
X486850D01*
X484958Y293219D01*
X483836Y292469D01*
X482500Y292272D01*
X481164Y292469D01*
X480042Y293219D01*
X478150Y293595D01*
X471350D01*
X469458Y293219D01*
X467853Y292147D01*
X467391Y291454D01*
X465109D01*
X464647Y292147D01*
X463042Y293219D01*
X461150Y293595D01*
X454350D01*
X452458Y293219D01*
X450853Y292147D01*
X449781Y290542D01*
X449405Y288650D01*
Y281350D01*
X449781Y279458D01*
X450853Y277853D01*
X452392Y276825D01*
Y273402D01*
X450867Y272383D01*
X449784Y270762D01*
X449404Y268850D01*
Y266463D01*
X448285Y265715D01*
X443570Y261001D01*
X442355Y259181D01*
X441928Y257036D01*
Y254803D01*
X441897Y254778D01*
X440066Y254131D01*
X439825Y254185D01*
X439583Y254427D01*
X438758Y254978D01*
X438260Y255311D01*
X437936Y255445D01*
X438500Y256807D01*
Y259193D01*
X437587Y261399D01*
X435899Y263086D01*
X434952Y263479D01*
X434096Y264335D01*
Y268850D01*
X433716Y270762D01*
X432633Y272383D01*
X431012Y273466D01*
X429100Y273846D01*
X421900D01*
X421587Y273784D01*
X421465Y273965D01*
X417105Y278325D01*
X417716Y279238D01*
X418096Y281150D01*
Y288850D01*
X417716Y290762D01*
X416633Y292383D01*
X415012Y293466D01*
X413100Y293846D01*
X405900D01*
X403988Y293466D01*
X402104Y294140D01*
X403199Y295922D01*
X606436D01*
D02*
G37*
G36*
X483879Y276314D02*
X484000Y276087D01*
Y273806D01*
X484913Y271601D01*
X486601Y269914D01*
X488806Y269000D01*
X491194D01*
X492141Y269392D01*
X513000D01*
X515146Y269819D01*
X516965Y271035D01*
X518150Y272219D01*
X520150Y271391D01*
Y270156D01*
X521063Y267951D01*
X522751Y266264D01*
X524957Y265350D01*
X527343D01*
X527557Y265438D01*
X528770Y263960D01*
X528829Y263742D01*
X528523Y263284D01*
X528158Y261450D01*
Y255850D01*
X527167Y254642D01*
X526306D01*
X524101Y253729D01*
X522413Y252041D01*
X521780Y250511D01*
X521350Y250596D01*
X513650D01*
X511738Y250216D01*
X510117Y249133D01*
X509748Y248580D01*
X507525Y248580D01*
X507147Y249147D01*
Y250853D01*
X508219Y252458D01*
X508595Y254350D01*
Y261150D01*
X508219Y263042D01*
X507147Y264647D01*
X505542Y265719D01*
X503650Y266095D01*
X496350D01*
X494458Y265719D01*
X492853Y264647D01*
X491781Y263042D01*
X491405Y261150D01*
Y259210D01*
X487673Y255479D01*
X486726Y255087D01*
X485038Y253399D01*
X484646Y252452D01*
X482790Y250596D01*
X477060D01*
X475724Y251846D01*
X475500Y252506D01*
Y254443D01*
X474587Y256649D01*
X472899Y258337D01*
X473936Y259913D01*
X474710Y261071D01*
X475098Y263022D01*
Y271629D01*
X476000Y273806D01*
Y276194D01*
X476141Y276405D01*
X478150D01*
X480042Y276781D01*
X481164Y277531D01*
X482469Y277723D01*
X483879Y276314D01*
D02*
G37*
G36*
X436699Y251543D02*
X437543Y250699D01*
X438000Y249597D01*
Y249000D01*
Y241000D01*
Y240403D01*
X437543Y239301D01*
X436699Y238457D01*
X435597Y238000D01*
X435000D01*
X435000Y238000D01*
X422903D01*
X421801Y238457D01*
X420957Y239301D01*
X420500Y240403D01*
X420500Y241000D01*
Y241000D01*
Y252000D01*
X435597D01*
X436699Y251543D01*
D02*
G37*
G36*
X553535Y233535D02*
X555354Y232319D01*
X557500Y231892D01*
X565796D01*
X566405Y231150D01*
Y227085D01*
X562427Y223108D01*
X550491D01*
X550408Y223114D01*
X548985Y224287D01*
X548578Y224914D01*
X548578Y231548D01*
X548578Y231548D01*
X548268Y233109D01*
X548040Y233660D01*
X547155Y234984D01*
X546734Y235406D01*
X545500Y236230D01*
Y238193D01*
X545652Y238478D01*
X546884Y238723D01*
X547761Y239309D01*
X553535Y233535D01*
D02*
G37*
G36*
X417996Y236532D02*
X418073Y236417D01*
X418073Y236417D01*
X418917Y235573D01*
X418917Y235573D01*
X420240Y234689D01*
X421342Y234232D01*
X421343Y234232D01*
X422903Y233922D01*
X435000D01*
X435000Y233922D01*
X435597D01*
X435597Y233922D01*
X437157Y234232D01*
X438260Y234689D01*
X439583Y235573D01*
X439583Y235573D01*
X439825Y235815D01*
X439979Y235849D01*
X441892Y235126D01*
Y230000D01*
X442319Y227854D01*
X443535Y226035D01*
X446239Y223331D01*
X446075Y221674D01*
X445026Y220103D01*
X444657Y218250D01*
Y218108D01*
X441452D01*
X441256Y218239D01*
X439500Y218588D01*
X435500D01*
X433744Y218239D01*
X432500Y217407D01*
X431256Y218239D01*
X429500Y218588D01*
X425500D01*
X424534Y218396D01*
X422979Y219952D01*
X422587Y220899D01*
X420899Y222586D01*
X418694Y223500D01*
X418382D01*
X418095Y223850D01*
Y231150D01*
X417719Y233042D01*
X417086Y233989D01*
X417417Y236002D01*
X417637Y236390D01*
X417989Y236539D01*
X417996Y236532D01*
D02*
G37*
G36*
X482397Y216526D02*
X484250Y216157D01*
X485750D01*
X487500Y216505D01*
X489250Y216157D01*
X490750D01*
X492500Y216505D01*
X494250Y216157D01*
X495750D01*
X497500Y216505D01*
X499250Y216157D01*
X500750D01*
X502500Y216505D01*
X504250Y216157D01*
X505750D01*
X507500Y216505D01*
X509250Y216157D01*
X510750D01*
X511887Y216383D01*
X512298Y216268D01*
X513936Y215268D01*
X513980Y215044D01*
X513980Y215043D01*
X513981Y215042D01*
X514011Y214968D01*
X514026Y214897D01*
X514066Y214837D01*
X514095Y214766D01*
X514095Y214765D01*
X514095Y214764D01*
X514535Y214107D01*
X514978Y213443D01*
X515021Y212660D01*
X514997Y212371D01*
X514718Y211140D01*
X514026Y210103D01*
X513657Y208250D01*
Y206750D01*
X514005Y205000D01*
X513657Y203250D01*
Y201750D01*
X514005Y200000D01*
X513657Y198250D01*
Y196750D01*
X514005Y195000D01*
X513657Y193250D01*
Y191750D01*
X514005Y190000D01*
X513657Y188250D01*
Y186750D01*
X514005Y185000D01*
X513657Y183250D01*
Y181750D01*
X514005Y180000D01*
X513657Y178250D01*
Y176750D01*
X514005Y175000D01*
X513657Y173250D01*
Y171750D01*
X514005Y170000D01*
X513657Y168250D01*
Y166750D01*
X514005Y165000D01*
X513755Y163745D01*
X512397Y163474D01*
X510826Y162425D01*
X509174D01*
X507603Y163474D01*
X505750Y163843D01*
X504250D01*
X502500Y163495D01*
X500750Y163843D01*
X499250D01*
X497500Y163495D01*
X495750Y163843D01*
X494250D01*
X492500Y163495D01*
X490750Y163843D01*
X489250D01*
X487500Y163495D01*
X485750Y163843D01*
X484250D01*
X482500Y163495D01*
X480750Y163843D01*
X479250D01*
X477500Y163495D01*
X475750Y163843D01*
X474250D01*
X472500Y163495D01*
X470750Y163843D01*
X469250D01*
X467500Y163495D01*
X465750Y163843D01*
X464250D01*
X462500Y163495D01*
X461245Y163745D01*
X460974Y165103D01*
X459925Y166674D01*
Y168326D01*
X460974Y169897D01*
X461343Y171750D01*
Y173250D01*
X460995Y175000D01*
X461343Y176750D01*
Y178250D01*
X460995Y180000D01*
X461343Y181750D01*
Y183250D01*
X460995Y185000D01*
X461343Y186750D01*
Y188250D01*
X460995Y190000D01*
X461343Y191750D01*
Y193250D01*
X460995Y195000D01*
X461343Y196750D01*
Y198250D01*
X460995Y200000D01*
X461343Y201750D01*
Y203250D01*
X460995Y205000D01*
X461343Y206750D01*
Y208250D01*
X460995Y210000D01*
X461343Y211750D01*
Y213250D01*
X460995Y215000D01*
X461046Y215255D01*
X463103Y216385D01*
X464250Y216157D01*
X465750D01*
X467500Y216505D01*
X469250Y216157D01*
X470750D01*
X472500Y216505D01*
X474250Y216157D01*
X475750D01*
X477603Y216526D01*
X479174Y217575D01*
X480826D01*
X482397Y216526D01*
D02*
G37*
G36*
X517500Y232750D02*
X543000Y232750D01*
X543298D01*
X543850Y232522D01*
X544272Y232100D01*
X544500Y231548D01*
Y231250D01*
X544500Y223500D01*
X544500Y223251D01*
X544310Y222792D01*
X543958Y222440D01*
X543499Y222250D01*
X527750D01*
X527750Y222250D01*
X527457Y222221D01*
X526917Y221997D01*
X526503Y221583D01*
X526279Y221043D01*
X526250Y220750D01*
Y216750D01*
X526250Y216750D01*
Y216601D01*
X526136Y216325D01*
X525925Y216114D01*
X525649Y216000D01*
X518499D01*
X518350Y216000D01*
X518074Y216114D01*
X517864Y216325D01*
X517750Y216600D01*
X517750Y216749D01*
X517750Y218500D01*
X517750Y218500D01*
X517716Y218841D01*
X517455Y219473D01*
X516973Y219956D01*
X516342Y220217D01*
X516000Y220250D01*
X514250Y220250D01*
X514250D01*
X514095Y220229D01*
X513800Y220329D01*
X513579Y220550D01*
X513479Y220846D01*
X513500Y221000D01*
X513500Y228750D01*
X513499Y229545D01*
X514108Y231016D01*
X515233Y232142D01*
X516704Y232750D01*
X517500Y232750D01*
D02*
G37*
G36*
X564895Y211743D02*
X566405Y210182D01*
Y206725D01*
X562737Y203057D01*
X561601Y202587D01*
X559913Y200899D01*
X559443Y199763D01*
X557533Y197853D01*
X551834D01*
X551256Y198239D01*
X549500Y198588D01*
X547605D01*
X547072Y199570D01*
X546804Y200588D01*
X547719Y201958D01*
X548095Y203850D01*
Y207915D01*
X552073Y211892D01*
X564513D01*
X564895Y211743D01*
D02*
G37*
G36*
X27999Y295922D02*
X28000Y295922D01*
X28000Y295922D01*
X365908Y295922D01*
X366883Y293922D01*
X366232Y292349D01*
X365922Y290000D01*
Y265000D01*
X366232Y262651D01*
X367138Y260461D01*
X368508Y258677D01*
X367819Y257646D01*
X367464Y255859D01*
X366319Y254146D01*
X365892Y252000D01*
Y243000D01*
X366319Y240854D01*
X367392Y239248D01*
Y237640D01*
X367000Y236693D01*
Y234307D01*
X367913Y232101D01*
X367820Y231156D01*
X367535Y230965D01*
X366319Y229146D01*
X365892Y227000D01*
Y218823D01*
X361035Y213965D01*
X359819Y212146D01*
X359392Y210000D01*
Y189206D01*
X358300Y188718D01*
X357392Y188593D01*
X355899Y190087D01*
X353694Y191000D01*
X351306D01*
X349101Y190087D01*
X347413Y188399D01*
X346500Y186194D01*
Y183806D01*
X346892Y182860D01*
Y144641D01*
X346500Y143694D01*
Y141306D01*
X347413Y139101D01*
X349101Y137413D01*
X351306Y136500D01*
X353694D01*
X355899Y137413D01*
X357587Y139101D01*
X358500Y141306D01*
Y143694D01*
X358108Y144641D01*
Y166986D01*
X360108Y167422D01*
X361035Y166035D01*
X367142Y159927D01*
Y152391D01*
X366797Y151875D01*
X366400Y149875D01*
Y137125D01*
X366797Y135125D01*
X367930Y133430D01*
X369625Y132297D01*
X371625Y131900D01*
X373875D01*
X375875Y132297D01*
X377570Y133430D01*
X378703Y135125D01*
X379100Y137125D01*
Y149875D01*
X378703Y151875D01*
X378358Y152391D01*
Y162250D01*
X377931Y164396D01*
X376715Y166215D01*
X370608Y172323D01*
Y187266D01*
X372608Y188549D01*
X372922Y188406D01*
Y187500D01*
X372922Y186903D01*
X372922Y186903D01*
X372922Y186903D01*
X373052Y186246D01*
X373232Y185343D01*
X373232Y185342D01*
X373232Y185342D01*
X373689Y184240D01*
X374573Y182917D01*
X374573Y182917D01*
X375417Y182073D01*
X376740Y181189D01*
X377843Y180732D01*
X377843Y180732D01*
X378839Y180534D01*
X379403Y180422D01*
X380000Y180422D01*
X385000D01*
X385597Y180422D01*
X385597Y180422D01*
X386642Y178590D01*
Y152391D01*
X386297Y151875D01*
X385900Y149875D01*
Y137125D01*
X386297Y135125D01*
X387430Y133430D01*
X387934Y133094D01*
X387511Y130970D01*
X387488Y130966D01*
X385867Y129883D01*
X384784Y128262D01*
X384404Y126350D01*
Y118650D01*
X384784Y116738D01*
X385867Y115117D01*
X387488Y114034D01*
X387839Y111925D01*
X387819Y111896D01*
X387392Y109750D01*
Y101250D01*
X386865Y100608D01*
X383135D01*
X382608Y101250D01*
Y109750D01*
X382181Y111896D01*
X380965Y113715D01*
X379146Y114931D01*
X377000Y115358D01*
X374000D01*
X371854Y114931D01*
X370035Y113715D01*
X368819Y111896D01*
X368392Y109750D01*
Y101250D01*
X368819Y99104D01*
X369892Y97498D01*
Y97000D01*
X370319Y94854D01*
X371535Y93035D01*
X373310Y91260D01*
X373237Y90256D01*
X372801Y89119D01*
X371854Y88931D01*
X370035Y87715D01*
X368819Y85896D01*
X368392Y83750D01*
Y75250D01*
X368819Y73104D01*
X370035Y71285D01*
X371854Y70069D01*
X374000Y69642D01*
X377000D01*
X379146Y70069D01*
X380965Y71285D01*
X382181Y73104D01*
X382608Y75250D01*
Y83750D01*
X382181Y85896D01*
X381181Y87392D01*
X381546Y88609D01*
X382055Y89392D01*
X387945D01*
X388454Y88609D01*
X388819Y87392D01*
X387819Y85896D01*
X387392Y83750D01*
Y75250D01*
X387819Y73104D01*
X387889Y72999D01*
X387319Y72146D01*
X387023Y70655D01*
X385867Y69883D01*
X384784Y68262D01*
X384404Y66350D01*
Y58650D01*
X384784Y56738D01*
X385867Y55117D01*
X386362Y54787D01*
Y52654D01*
X385603Y52147D01*
X384531Y50542D01*
X384155Y48650D01*
Y41350D01*
X384531Y39458D01*
X385603Y37853D01*
X387208Y36781D01*
X389100Y36405D01*
X395900D01*
X397792Y36781D01*
X399397Y37853D01*
X400469Y39458D01*
X400555Y39892D01*
X404098D01*
X405117Y38367D01*
X406738Y37284D01*
X408650Y36904D01*
X416350D01*
X418262Y37284D01*
X419883Y38367D01*
X420522Y39325D01*
X421306Y39000D01*
X423694D01*
X424000Y39127D01*
X426000Y38139D01*
Y37250D01*
X449000D01*
Y49750D01*
Y62250D01*
Y74750D01*
Y86250D01*
X506000D01*
Y74750D01*
Y62250D01*
Y49750D01*
Y37250D01*
X529000D01*
Y39892D01*
X531598D01*
X532617Y38367D01*
X534238Y37284D01*
X536150Y36904D01*
X543850D01*
X544647Y36250D01*
Y13500D01*
X545055Y11451D01*
X546215Y9715D01*
X549500Y6430D01*
Y4078D01*
X28000D01*
X28000Y4078D01*
X27999Y4078D01*
X26432Y4078D01*
X23322Y4487D01*
X20293Y5298D01*
X17396Y6498D01*
X14680Y8066D01*
X12192Y9975D01*
X9975Y12192D01*
X8066Y14680D01*
X6498Y17396D01*
X5298Y20293D01*
X4487Y23322D01*
X4078Y26432D01*
X4078Y27999D01*
X4078Y28000D01*
X4078Y28000D01*
Y272000D01*
X4078Y272000D01*
X4078Y272001D01*
X4078Y273568D01*
X4487Y276678D01*
X5298Y279707D01*
X6498Y282604D01*
X8066Y285320D01*
X9975Y287808D01*
X12192Y290025D01*
X14680Y291934D01*
X17396Y293502D01*
X20293Y294702D01*
X23322Y295513D01*
X26432Y295922D01*
X27999Y295922D01*
D02*
G37*
G36*
X387566Y208848D02*
X387848Y208566D01*
X388000Y208199D01*
Y208000D01*
X388000D01*
X388000Y187500D01*
X388000Y186903D01*
X387543Y185801D01*
X386699Y184957D01*
X385597Y184500D01*
X385000Y184500D01*
X380000D01*
X379403Y184500D01*
X378301Y184957D01*
X377457Y185801D01*
X377000Y186903D01*
X377000Y187500D01*
Y187500D01*
Y208000D01*
Y208199D01*
X377152Y208566D01*
X377434Y208848D01*
X377801Y209000D01*
X378000D01*
X378000Y209000D01*
X387000Y209000D01*
X387199D01*
X387566Y208848D01*
D02*
G37*
G36*
X571892Y155177D02*
Y137500D01*
X572319Y135354D01*
X573535Y133535D01*
X574127Y132943D01*
X573361Y131095D01*
X571850D01*
X569958Y130719D01*
X568353Y129647D01*
X567281Y128042D01*
X566905Y126150D01*
Y118850D01*
X567281Y116958D01*
X568353Y115353D01*
X569958Y114281D01*
X571850Y113905D01*
X578650D01*
X580542Y114281D01*
X582147Y115353D01*
X583219Y116958D01*
X583255Y117142D01*
X586992D01*
X587531Y116336D01*
X587853Y114147D01*
X586781Y112542D01*
X586405Y110650D01*
Y103850D01*
X586781Y101958D01*
X587853Y100353D01*
X589392Y99325D01*
Y96246D01*
X589238Y96216D01*
X587617Y95133D01*
X586534Y93512D01*
X586154Y91600D01*
Y84400D01*
X586534Y82488D01*
X587617Y80867D01*
X589238Y79784D01*
X591150Y79404D01*
X595665D01*
X599392Y75677D01*
Y64823D01*
X593035Y58465D01*
X591819Y56646D01*
X591773Y56413D01*
X590604Y56181D01*
X589395Y55373D01*
X588785Y56285D01*
X581285Y63785D01*
X579548Y64945D01*
X577500Y65353D01*
X574000D01*
Y70782D01*
X574093Y71250D01*
X574093Y71250D01*
Y71294D01*
X578175Y75376D01*
X579224Y76947D01*
X579593Y78801D01*
X579593Y78801D01*
Y83250D01*
X580500D01*
Y96250D01*
X577099D01*
X574674Y98675D01*
X573103Y99724D01*
X571250Y100093D01*
X568095D01*
Y106150D01*
X567719Y108042D01*
X566647Y109647D01*
X565042Y110719D01*
X563150Y111095D01*
X556350D01*
X554458Y110719D01*
X552853Y109647D01*
X551781Y108042D01*
X551405Y106150D01*
Y101835D01*
X551285Y101715D01*
X550069Y99896D01*
X549642Y97750D01*
Y96250D01*
X549500D01*
Y94564D01*
X547500Y93957D01*
X547383Y94133D01*
X545762Y95216D01*
X543850Y95596D01*
X536150D01*
X535243Y96341D01*
Y97693D01*
X534329Y99899D01*
X532641Y101587D01*
X530436Y102500D01*
X528049D01*
X525844Y101587D01*
X524156Y99899D01*
X523242Y97693D01*
Y95307D01*
X524156Y93101D01*
X524399Y92858D01*
Y90758D01*
X524393Y90750D01*
X510500D01*
Y98402D01*
X512500Y99541D01*
X513806Y99000D01*
X516194D01*
X518399Y99913D01*
X520087Y101601D01*
X521000Y103806D01*
Y106194D01*
X520087Y108399D01*
X518399Y110086D01*
X517452Y110479D01*
X510608Y117323D01*
Y125000D01*
X510181Y127146D01*
X509864Y127621D01*
X511066Y129421D01*
X511150Y129404D01*
X518850D01*
X520762Y129784D01*
X522383Y130867D01*
X523402Y132392D01*
X524860D01*
X525807Y132000D01*
X528194D01*
X530399Y132914D01*
X532087Y134601D01*
X533000Y136806D01*
Y139193D01*
X532622Y140105D01*
X533139Y140869D01*
X534133Y141684D01*
X535500Y141412D01*
X539500D01*
X541256Y141761D01*
X542500Y142592D01*
X543744Y141761D01*
X545500Y141412D01*
X549500D01*
X551256Y141761D01*
X552744Y142756D01*
X553739Y144244D01*
X554088Y146000D01*
Y149000D01*
X553895Y149971D01*
X554783Y151892D01*
X556500D01*
X557042Y152000D01*
X558194D01*
X560399Y152913D01*
X562087Y154601D01*
X563000Y156806D01*
Y159193D01*
X562087Y161399D01*
X560399Y163086D01*
X558194Y164000D01*
X555807D01*
X553821Y165342D01*
X553739Y165756D01*
X552744Y167244D01*
X551256Y168239D01*
X550932Y168303D01*
X550126Y169826D01*
X551023Y171715D01*
X551256Y171761D01*
X551452Y171892D01*
X555177D01*
X571892Y155177D01*
D02*
G37*
G36*
X587617Y150867D02*
X589238Y149784D01*
X591150Y149404D01*
X598850D01*
X599000Y149281D01*
Y148806D01*
X599913Y146601D01*
X601515Y145000D01*
X599913Y143399D01*
X599000Y141194D01*
Y138807D01*
X598533Y138108D01*
X584823D01*
X583108Y139823D01*
Y151533D01*
X583807Y152000D01*
X586194D01*
X586716Y152216D01*
X587617Y150867D01*
D02*
G37*
G36*
X412413Y191601D02*
X414101Y189913D01*
X416306Y189000D01*
X418694D01*
X420899Y189913D01*
X422587Y191601D01*
X423744Y191761D01*
X425500Y191412D01*
X427395D01*
X427928Y190430D01*
X428196Y189412D01*
X427281Y188042D01*
X426905Y186150D01*
Y178850D01*
X427281Y176958D01*
X428353Y175353D01*
X428783Y175066D01*
X428783Y172661D01*
X428367Y172383D01*
X427284Y170762D01*
X426904Y168850D01*
Y161150D01*
X427284Y159238D01*
X428367Y157617D01*
X429988Y156534D01*
X430385Y154416D01*
X430111Y153889D01*
X429238Y153716D01*
X427617Y152633D01*
X426534Y151012D01*
X426373Y150926D01*
X426194Y151000D01*
X423806D01*
X421601Y150086D01*
X419913Y148399D01*
X419000Y146194D01*
Y143806D01*
X419913Y141601D01*
X421601Y139913D01*
X423806Y139000D01*
X426194D01*
X426978Y139325D01*
X427617Y138367D01*
X429238Y137284D01*
X431150Y136904D01*
X438850D01*
X440762Y137284D01*
X442383Y138367D01*
X443466Y139988D01*
X443846Y141900D01*
Y149100D01*
X443545Y150614D01*
X449823Y156892D01*
X453000D01*
X454407Y155576D01*
Y152000D01*
X454776Y150147D01*
X455826Y148575D01*
X457397Y147526D01*
X459250Y147157D01*
X460750D01*
X462500Y147505D01*
X463680Y147270D01*
X464188Y145665D01*
X464168Y145191D01*
X463353Y144647D01*
X462281Y143042D01*
X461905Y141150D01*
Y133850D01*
X462281Y131958D01*
X463353Y130353D01*
X463885Y129998D01*
X463814Y127989D01*
X462349Y127295D01*
X461164Y127469D01*
X460042Y128219D01*
X458150Y128595D01*
X451350D01*
X449458Y128219D01*
X447853Y127147D01*
X446825Y125608D01*
X445000D01*
X442854Y125181D01*
X441035Y123965D01*
X440048Y122979D01*
X439101Y122586D01*
X437413Y120899D01*
X436500Y118694D01*
Y116306D01*
X437413Y114101D01*
X439101Y112413D01*
X441306Y111500D01*
X443694D01*
X445899Y112413D01*
X446474Y112989D01*
X447853Y112853D01*
X449458Y111781D01*
X451350Y111405D01*
X458150D01*
X460042Y111781D01*
X461164Y112531D01*
X462500Y112728D01*
X463836Y112531D01*
X464958Y111781D01*
X466850Y111405D01*
X473650D01*
X475542Y111781D01*
X477147Y112853D01*
X478219Y114458D01*
X478595Y116350D01*
Y122850D01*
X479500Y123479D01*
X481500Y122432D01*
Y121306D01*
X482413Y119101D01*
X484101Y117414D01*
X486306Y116500D01*
X488694D01*
X490899Y117414D01*
X492500Y119015D01*
X494101Y117414D01*
X496306Y116500D01*
X498693D01*
X499461Y114653D01*
X499819Y112854D01*
X500891Y111250D01*
X500516Y109782D01*
X500295Y109250D01*
X444500D01*
Y90750D01*
X426000D01*
Y74750D01*
Y62250D01*
Y51861D01*
X424000Y50873D01*
X423694Y51000D01*
X421306D01*
X420966Y51012D01*
X419883Y52633D01*
X418419Y53611D01*
X418500Y53807D01*
Y56193D01*
X417587Y58399D01*
X415899Y60086D01*
X413694Y61000D01*
X411306D01*
X409101Y60086D01*
X407413Y58399D01*
X406500Y56193D01*
Y53807D01*
X406581Y53611D01*
X405117Y52633D01*
X404098Y51108D01*
X400658D01*
X399270Y52691D01*
X399478Y54680D01*
X400133Y55117D01*
X401216Y56738D01*
X401596Y58650D01*
Y66350D01*
X401216Y68262D01*
X400133Y69883D01*
X399739Y70146D01*
X399966Y71285D01*
X401181Y73104D01*
X401608Y75250D01*
Y83750D01*
X401181Y85896D01*
X399965Y87715D01*
X398146Y88931D01*
X397199Y89119D01*
X396763Y90256D01*
X396690Y91260D01*
X398465Y93035D01*
X399681Y94854D01*
X400108Y97000D01*
Y97498D01*
X401181Y99104D01*
X401608Y101250D01*
Y109750D01*
X401181Y111896D01*
X400108Y113502D01*
Y115101D01*
X400133Y115117D01*
X401216Y116738D01*
X403155Y116770D01*
X403806Y116500D01*
X406193D01*
X408399Y117413D01*
X410087Y119101D01*
X411000Y121306D01*
Y123694D01*
X410087Y125899D01*
X408399Y127586D01*
X406193Y128500D01*
X403806D01*
X403155Y128230D01*
X401216Y128262D01*
X400133Y129883D01*
X398512Y130966D01*
X397333Y131200D01*
X396842Y133278D01*
X397070Y133430D01*
X398203Y135125D01*
X398600Y137125D01*
Y149875D01*
X398203Y151875D01*
X397858Y152391D01*
Y192500D01*
X412041D01*
X412413Y191601D01*
D02*
G37*
%LPC*%
G36*
X693966Y292000D02*
X690027D01*
X686163Y291231D01*
X682523Y289724D01*
X679247Y287535D01*
X676461Y284749D01*
X674273Y281474D01*
X672765Y277834D01*
X671997Y273970D01*
Y270030D01*
X672765Y266166D01*
X674273Y262526D01*
X676461Y259251D01*
X679247Y256465D01*
X682523Y254276D01*
X686163Y252769D01*
X690027Y252000D01*
X693966D01*
X697830Y252769D01*
X701470Y254276D01*
X704746Y256465D01*
X707532Y259251D01*
X709720Y262526D01*
X711228Y266166D01*
X711997Y270030D01*
Y273970D01*
X711228Y277834D01*
X709720Y281474D01*
X707532Y284749D01*
X704746Y287535D01*
X701470Y289724D01*
X697830Y291231D01*
X693966Y292000D01*
D02*
G37*
G36*
X634100Y216346D02*
X626900D01*
X624988Y215966D01*
X623367Y214883D01*
X622284Y213262D01*
X621904Y211350D01*
Y203650D01*
X622284Y201738D01*
X623367Y200117D01*
X624716Y199216D01*
X624500Y198694D01*
Y196306D01*
X624716Y195784D01*
X623367Y194883D01*
X622284Y193262D01*
X621904Y191350D01*
Y183650D01*
X622284Y181738D01*
X623367Y180117D01*
X624988Y179034D01*
X626900Y178654D01*
X634100D01*
X636012Y179034D01*
X637633Y180117D01*
X638716Y181738D01*
X639096Y183650D01*
Y191350D01*
X638716Y193262D01*
X637633Y194883D01*
X636284Y195784D01*
X636500Y196306D01*
Y198694D01*
X636284Y199216D01*
X637633Y200117D01*
X638716Y201738D01*
X639096Y203650D01*
Y211350D01*
X638716Y213262D01*
X637633Y214883D01*
X636012Y215966D01*
X634100Y216346D01*
D02*
G37*
G36*
X693966Y48000D02*
X690027D01*
X686163Y47231D01*
X682523Y45724D01*
X679247Y43535D01*
X676461Y40749D01*
X674273Y37473D01*
X672765Y33834D01*
X671997Y29970D01*
Y26030D01*
X672765Y22166D01*
X674273Y18527D01*
X676461Y15251D01*
X679247Y12465D01*
X682523Y10276D01*
X686163Y8769D01*
X690027Y8000D01*
X693966D01*
X697830Y8769D01*
X701470Y10276D01*
X704746Y12465D01*
X707532Y15251D01*
X709720Y18527D01*
X711228Y22166D01*
X711997Y26030D01*
Y29970D01*
X711228Y33834D01*
X709720Y37473D01*
X707532Y40749D01*
X704746Y43535D01*
X701470Y45724D01*
X697830Y47231D01*
X693966Y48000D01*
D02*
G37*
G36*
X513500Y228750D02*
Y228750D01*
D01*
Y228750D01*
D02*
G37*
G36*
X29966Y292000D02*
X26027D01*
X22163Y291231D01*
X18523Y289724D01*
X15247Y287535D01*
X12462Y284749D01*
X10273Y281474D01*
X8765Y277834D01*
X7997Y273970D01*
Y270030D01*
X8765Y266166D01*
X10273Y262526D01*
X12462Y259251D01*
X15247Y256465D01*
X18523Y254276D01*
X22163Y252769D01*
X26027Y252000D01*
X29966D01*
X33830Y252769D01*
X37470Y254276D01*
X40746Y256465D01*
X43531Y259251D01*
X45720Y262526D01*
X47228Y266166D01*
X47997Y270030D01*
Y273970D01*
X47228Y277834D01*
X45720Y281474D01*
X43531Y284749D01*
X40746Y287535D01*
X37470Y289724D01*
X33830Y291231D01*
X29966Y292000D01*
D02*
G37*
G36*
X194448Y263500D02*
X191552D01*
X188754Y262750D01*
X186246Y261302D01*
X184198Y259254D01*
X182750Y256746D01*
X182000Y253948D01*
Y251052D01*
X182750Y248254D01*
X184198Y245746D01*
X186246Y243698D01*
X188754Y242250D01*
X191552Y241500D01*
X194448D01*
X197246Y242250D01*
X199754Y243698D01*
X201802Y245746D01*
X203250Y248254D01*
X204000Y251052D01*
Y253948D01*
X203250Y256746D01*
X201802Y259254D01*
X199754Y261302D01*
X197246Y262750D01*
X194448Y263500D01*
D02*
G37*
G36*
X114448D02*
X111552D01*
X108754Y262750D01*
X106246Y261302D01*
X104198Y259254D01*
X102750Y256746D01*
X102000Y253948D01*
Y251052D01*
X102750Y248254D01*
X104198Y245746D01*
X106246Y243698D01*
X108754Y242250D01*
X111552Y241500D01*
X114448D01*
X117246Y242250D01*
X119754Y243698D01*
X121802Y245746D01*
X123250Y248254D01*
X124000Y251052D01*
Y253948D01*
X123250Y256746D01*
X121802Y259254D01*
X119754Y261302D01*
X117246Y262750D01*
X114448Y263500D01*
D02*
G37*
G36*
X46214Y199600D02*
X43186D01*
X40261Y198816D01*
X37639Y197302D01*
X35498Y195161D01*
X33984Y192539D01*
X33200Y189614D01*
Y186586D01*
X33984Y183661D01*
X35498Y181039D01*
X37639Y178898D01*
X40261Y177384D01*
X43186Y176600D01*
X46214D01*
X49139Y177384D01*
X51761Y178898D01*
X53902Y181039D01*
X55416Y183661D01*
X56200Y186586D01*
Y189614D01*
X55416Y192539D01*
X53902Y195161D01*
X51761Y197302D01*
X49139Y198816D01*
X46214Y199600D01*
D02*
G37*
G36*
X46214Y174200D02*
X43186D01*
X40261Y173416D01*
X37639Y171902D01*
X35498Y169761D01*
X33984Y167139D01*
X33200Y164214D01*
Y161186D01*
X33984Y158261D01*
X35498Y155639D01*
X37639Y153498D01*
X40261Y151984D01*
X43186Y151200D01*
X46214D01*
X49139Y151984D01*
X51761Y153498D01*
X53902Y155639D01*
X55416Y158261D01*
X56200Y161186D01*
Y164214D01*
X55416Y167139D01*
X53902Y169761D01*
X51761Y171902D01*
X49139Y173416D01*
X46214Y174200D01*
D02*
G37*
G36*
X20814D02*
X17786D01*
X14861Y173416D01*
X12239Y171902D01*
X10098Y169761D01*
X8584Y167139D01*
X7800Y164214D01*
Y161186D01*
X8584Y158261D01*
X10098Y155639D01*
X12239Y153498D01*
X14861Y151984D01*
X17786Y151200D01*
X20814D01*
X23739Y151984D01*
X26361Y153498D01*
X28502Y155639D01*
X30016Y158261D01*
X30800Y161186D01*
Y164214D01*
X30016Y167139D01*
X28502Y169761D01*
X26361Y171902D01*
X23739Y173416D01*
X20814Y174200D01*
D02*
G37*
G36*
X46214Y148800D02*
X43186D01*
X40261Y148016D01*
X37639Y146502D01*
X35498Y144361D01*
X33984Y141739D01*
X33200Y138814D01*
Y135786D01*
X33984Y132861D01*
X35498Y130239D01*
X37639Y128098D01*
X40261Y126584D01*
X43186Y125800D01*
X46214D01*
X49139Y126584D01*
X51761Y128098D01*
X53902Y130239D01*
X55416Y132861D01*
X56200Y135786D01*
Y138814D01*
X55416Y141739D01*
X53902Y144361D01*
X51761Y146502D01*
X49139Y148016D01*
X46214Y148800D01*
D02*
G37*
G36*
X20814D02*
X17786D01*
X14861Y148016D01*
X12239Y146502D01*
X10098Y144361D01*
X8584Y141739D01*
X7800Y138814D01*
Y135786D01*
X8584Y132861D01*
X10098Y130239D01*
X12239Y128098D01*
X14861Y126584D01*
X17786Y125800D01*
X20814D01*
X23739Y126584D01*
X26361Y128098D01*
X28502Y130239D01*
X30016Y132861D01*
X30800Y135786D01*
Y138814D01*
X30016Y141739D01*
X28502Y144361D01*
X26361Y146502D01*
X23739Y148016D01*
X20814Y148800D01*
D02*
G37*
G36*
X139193Y134000D02*
X136806D01*
X134601Y133087D01*
X132914Y131399D01*
X132000Y129193D01*
Y126806D01*
X132914Y124601D01*
X134601Y122913D01*
X136806Y122000D01*
X139193D01*
X141399Y122913D01*
X143087Y124601D01*
X144000Y126806D01*
Y129193D01*
X143087Y131399D01*
X141399Y133087D01*
X139193Y134000D01*
D02*
G37*
G36*
X46214Y123400D02*
X43186D01*
X40261Y122616D01*
X37639Y121102D01*
X35498Y118961D01*
X33984Y116339D01*
X33200Y113414D01*
Y110386D01*
X33984Y107461D01*
X35498Y104839D01*
X37639Y102698D01*
X40261Y101184D01*
X43186Y100400D01*
X46214D01*
X49139Y101184D01*
X51761Y102698D01*
X53902Y104839D01*
X55416Y107461D01*
X56200Y110386D01*
Y113414D01*
X55416Y116339D01*
X53902Y118961D01*
X51761Y121102D01*
X49139Y122616D01*
X46214Y123400D01*
D02*
G37*
G36*
X20814D02*
X17786D01*
X14861Y122616D01*
X12239Y121102D01*
X10098Y118961D01*
X8584Y116339D01*
X7800Y113414D01*
Y110386D01*
X8584Y107461D01*
X10098Y104839D01*
X12239Y102698D01*
X14861Y101184D01*
X17786Y100400D01*
X20814D01*
X23739Y101184D01*
X26361Y102698D01*
X28502Y104839D01*
X30016Y107461D01*
X30800Y110386D01*
Y113414D01*
X30016Y116339D01*
X28502Y118961D01*
X26361Y121102D01*
X23739Y122616D01*
X20814Y123400D01*
D02*
G37*
G36*
X340000Y290000D02*
X335000D01*
Y10000D01*
X340000D01*
Y290000D01*
D02*
G37*
G36*
X29966Y48000D02*
X26027D01*
X22163Y47231D01*
X18523Y45724D01*
X15247Y43535D01*
X12462Y40749D01*
X10273Y37473D01*
X8765Y33834D01*
X7997Y29970D01*
Y26030D01*
X8765Y22166D01*
X10273Y18527D01*
X12462Y15251D01*
X15247Y12465D01*
X18523Y10276D01*
X22163Y8769D01*
X26027Y8000D01*
X29966D01*
X33830Y8769D01*
X37470Y10276D01*
X40746Y12465D01*
X43531Y15251D01*
X45720Y18527D01*
X47228Y22166D01*
X47997Y26030D01*
Y29970D01*
X47228Y33834D01*
X45720Y37473D01*
X43531Y40749D01*
X40746Y43535D01*
X37470Y45724D01*
X33830Y47231D01*
X29966Y48000D01*
D02*
G37*
G36*
X510500Y29250D02*
X444500D01*
Y6250D01*
X510500D01*
Y29250D01*
D02*
G37*
%LPD*%
D40*
X654100Y210990D02*
D03*
Y231310D02*
D03*
X704900Y221150D02*
D03*
D42*
X547500Y187500D02*
D03*
Y182500D02*
D03*
X537500Y187500D02*
D03*
Y182500D02*
D03*
X437500Y207500D02*
D03*
Y202500D02*
D03*
X427500Y207500D02*
D03*
Y202500D02*
D03*
X537500Y152500D02*
D03*
Y157500D02*
D03*
X547500Y152500D02*
D03*
Y157500D02*
D03*
D43*
Y192500D02*
D03*
Y177500D02*
D03*
X537500Y192500D02*
D03*
Y177500D02*
D03*
X437500Y212500D02*
D03*
Y197500D02*
D03*
X427500Y212500D02*
D03*
Y197500D02*
D03*
X537500Y147500D02*
D03*
Y162500D02*
D03*
X547500Y147500D02*
D03*
Y162500D02*
D03*
D44*
X457500Y240000D02*
D03*
X452500D02*
D03*
X457500Y250000D02*
D03*
X452500D02*
D03*
X490000Y140000D02*
D03*
X495000D02*
D03*
X490000Y130000D02*
D03*
X495000D02*
D03*
D45*
X462500Y240000D02*
D03*
X447500D02*
D03*
X462500Y250000D02*
D03*
X447500D02*
D03*
X485000Y140000D02*
D03*
X500000D02*
D03*
X485000Y130000D02*
D03*
X500000D02*
D03*
D46*
X454750Y137500D02*
D03*
X470250D02*
D03*
Y120000D02*
D03*
X454750D02*
D03*
X590250Y227500D02*
D03*
X574750D02*
D03*
X590250Y187500D02*
D03*
X574750D02*
D03*
X590250Y207500D02*
D03*
X574750D02*
D03*
X655250Y12500D02*
D03*
X639750D02*
D03*
X655250Y52500D02*
D03*
X639750D02*
D03*
X377500Y45000D02*
D03*
X559750Y45000D02*
D03*
X575250D02*
D03*
X559750Y102500D02*
D03*
X575250D02*
D03*
X575250Y122500D02*
D03*
X559750D02*
D03*
X392500Y45000D02*
D03*
X614750Y267500D02*
D03*
X630250D02*
D03*
X614750Y287500D02*
D03*
X630250D02*
D03*
Y247500D02*
D03*
X614750D02*
D03*
X672250Y228750D02*
D03*
X687750D02*
D03*
X630250Y227500D02*
D03*
X614750D02*
D03*
X687750Y208750D02*
D03*
X672250D02*
D03*
X630250Y107500D02*
D03*
X614750D02*
D03*
X630250Y167500D02*
D03*
X614750D02*
D03*
X630000Y72500D02*
D03*
X425250Y245000D02*
D03*
X409750D02*
D03*
X425250Y227500D02*
D03*
X409750D02*
D03*
X474750Y285000D02*
D03*
X490250D02*
D03*
X615000Y72500D02*
D03*
X442250Y285000D02*
D03*
X457750D02*
D03*
X435250Y182500D02*
D03*
X419750D02*
D03*
X539750Y207500D02*
D03*
X555250D02*
D03*
D47*
X597000Y49500D02*
D03*
Y40000D02*
D03*
Y30500D02*
D03*
X623000D02*
D03*
Y40000D02*
D03*
Y49500D02*
D03*
D48*
X618000Y12750D02*
D03*
X602000D02*
D03*
X639500Y32500D02*
D03*
X655500D02*
D03*
X507000Y285000D02*
D03*
X523000D02*
D03*
X393000Y62500D02*
D03*
X377000D02*
D03*
X393000Y122500D02*
D03*
X377000D02*
D03*
X614500Y207500D02*
D03*
X630500D02*
D03*
X614500Y187500D02*
D03*
X630500D02*
D03*
X425500Y265000D02*
D03*
X409500D02*
D03*
X425500Y285000D02*
D03*
X409500D02*
D03*
X442000Y265000D02*
D03*
X458000D02*
D03*
X555500Y227500D02*
D03*
X539500D02*
D03*
X419500Y165000D02*
D03*
X435500D02*
D03*
D49*
X595000Y88000D02*
D03*
Y72000D02*
D03*
X412500Y29500D02*
D03*
Y45500D02*
D03*
X540000Y29500D02*
D03*
Y45500D02*
D03*
Y103000D02*
D03*
Y87000D02*
D03*
X435000Y129500D02*
D03*
Y145500D02*
D03*
X515000Y122000D02*
D03*
Y138000D02*
D03*
X480000Y258000D02*
D03*
Y242000D02*
D03*
X595000Y142000D02*
D03*
Y158000D02*
D03*
X517500Y258000D02*
D03*
Y242000D02*
D03*
D50*
X392500Y277500D02*
D03*
X375000D02*
D03*
D51*
X452500Y17750D02*
D03*
X465000D02*
D03*
X477500D02*
D03*
X490000D02*
D03*
X502500D02*
D03*
Y97750D02*
D03*
X490000D02*
D03*
X477500D02*
D03*
X465000D02*
D03*
X452500D02*
D03*
D52*
X517500Y32750D02*
D03*
Y45250D02*
D03*
Y57750D02*
D03*
Y70250D02*
D03*
Y82750D02*
D03*
X437500D02*
D03*
Y70250D02*
D03*
Y57750D02*
D03*
Y45250D02*
D03*
Y32750D02*
D03*
D53*
X477500Y57750D02*
D03*
D54*
X539000Y284050D02*
D03*
Y245950D02*
D03*
Y258650D02*
D03*
Y271350D02*
D03*
X596000Y284050D02*
D03*
Y271350D02*
D03*
Y258650D02*
D03*
Y245950D02*
D03*
D55*
X567500Y265000D02*
D03*
D56*
X652000Y98000D02*
D03*
Y106000D02*
D03*
Y154000D02*
D03*
Y162000D02*
D03*
D57*
Y112500D02*
D03*
Y147500D02*
D03*
Y142500D02*
D03*
Y137500D02*
D03*
Y132500D02*
D03*
Y127500D02*
D03*
Y122500D02*
D03*
Y117500D02*
D03*
D58*
X660000Y181100D02*
D03*
X699000D02*
D03*
Y78900D02*
D03*
X660000D02*
D03*
D59*
X579500Y8000D02*
D03*
X571500D02*
D03*
X563500D02*
D03*
X555500D02*
D03*
Y32000D02*
D03*
X563500D02*
D03*
X571500D02*
D03*
X579500D02*
D03*
D60*
X574750Y89750D02*
D03*
X568250D02*
D03*
X561750D02*
D03*
X555250D02*
D03*
Y70250D02*
D03*
X561750D02*
D03*
X568250D02*
D03*
X574750D02*
D03*
D61*
X595000Y122750D02*
D03*
Y107250D02*
D03*
X500000Y242250D02*
D03*
Y257750D02*
D03*
D62*
X394500Y105500D02*
D03*
X385000D02*
D03*
X375500D02*
D03*
Y79500D02*
D03*
X394500D02*
D03*
D63*
X373000Y247500D02*
D03*
X382500Y247500D02*
D03*
X392000D02*
D03*
Y222500D02*
D03*
X382500D02*
D03*
X373000Y222500D02*
D03*
X613000Y150000D02*
D03*
X622500Y150000D02*
D03*
X632000D02*
D03*
Y125000D02*
D03*
X622500D02*
D03*
X613000Y125000D02*
D03*
D64*
X611000Y90000D02*
D03*
X634000D02*
D03*
D65*
X392250Y143500D02*
D03*
X385750D02*
D03*
X379250D02*
D03*
X372750D02*
D03*
Y201500D02*
D03*
X379250D02*
D03*
X385750D02*
D03*
X392250D02*
D03*
D66*
X522000Y167500D02*
D03*
Y162500D02*
D03*
Y177500D02*
D03*
Y172500D02*
D03*
Y212500D02*
D03*
Y217500D02*
D03*
Y207500D02*
D03*
Y202500D02*
D03*
Y197500D02*
D03*
Y192500D02*
D03*
Y187500D02*
D03*
Y182500D02*
D03*
X453000Y217500D02*
D03*
Y212500D02*
D03*
Y207500D02*
D03*
Y162500D02*
D03*
Y167500D02*
D03*
Y172500D02*
D03*
Y177500D02*
D03*
Y182500D02*
D03*
Y187500D02*
D03*
Y192500D02*
D03*
Y197500D02*
D03*
Y202500D02*
D03*
D67*
X500000Y155500D02*
D03*
X505000D02*
D03*
X510000D02*
D03*
X515000D02*
D03*
X495000D02*
D03*
X490000D02*
D03*
X515000Y224500D02*
D03*
X510000D02*
D03*
X505000D02*
D03*
X500000D02*
D03*
X495000D02*
D03*
X490000D02*
D03*
X485000D02*
D03*
X480000D02*
D03*
X475000D02*
D03*
X470000D02*
D03*
X465000D02*
D03*
X460000D02*
D03*
Y155500D02*
D03*
X465000D02*
D03*
X470000D02*
D03*
X485000D02*
D03*
X475000D02*
D03*
X480000D02*
D03*
D68*
X487500Y190000D02*
D03*
D69*
X459500Y225000D02*
X460000Y224500D01*
X452500Y234750D02*
X459500Y227750D01*
X452500Y234750D02*
Y240000D01*
X459500Y225000D02*
Y227750D01*
X463500Y234000D02*
X465000Y232500D01*
X457500Y236550D02*
X460050Y234000D01*
X463500D01*
X465000Y224500D02*
Y232500D01*
X455260Y256250D02*
X463228D01*
X470000Y263022D01*
X452767Y253756D02*
X455260Y256250D01*
X470000Y263022D02*
Y275000D01*
X466328Y250078D02*
X469500Y253250D01*
X462578Y250078D02*
X466328D01*
X462500Y250000D02*
X462578Y250078D01*
X452767Y250267D02*
Y253756D01*
X452500Y250000D02*
X452767Y250267D01*
X459366Y245000D02*
X470000D01*
X457944Y246422D02*
Y249555D01*
X457500Y250000D02*
X457944Y249555D01*
Y246422D02*
X459366Y245000D01*
X457500Y236550D02*
Y240000D01*
X495000Y143636D02*
X500000Y148636D01*
Y155500D01*
X495000Y140000D02*
Y143636D01*
X490000Y145000D02*
X495000Y150000D01*
X490000Y140000D02*
Y145000D01*
X495000Y150000D02*
Y155500D01*
D70*
X455000Y261750D02*
X458000Y264750D01*
X447536Y257036D02*
X452250Y261750D01*
X447536Y250035D02*
Y257036D01*
X452250Y261750D02*
X455000D01*
X458000Y264750D02*
Y284750D01*
X447500Y250000D02*
X447536Y250035D01*
X644632Y105132D02*
X651132D01*
X652000Y106000D01*
X642086Y102586D02*
X644632Y105132D01*
X642086Y92086D02*
Y102586D01*
X595000Y159500D02*
Y167500D01*
X596500Y159500D02*
X620000D01*
X621757Y150743D02*
Y157743D01*
X620000Y159500D02*
X621757Y157743D01*
X595000Y158000D02*
X596500Y159500D01*
X595000Y158000D02*
Y159500D01*
X621757Y150743D02*
X622500Y150000D01*
X640250Y152250D02*
X645000Y147500D01*
X633250Y164500D02*
X640250Y157500D01*
Y152250D02*
Y157500D01*
X546139Y164541D02*
X547500Y162500D01*
X542500Y170000D02*
X546139Y164541D01*
X547500Y157500D02*
X556500D01*
X557000Y158000D01*
X532500Y167500D02*
X536049Y163951D01*
X522000Y167500D02*
X532500D01*
X527500Y162500D02*
X532500Y157500D01*
X522000Y162500D02*
X527500D01*
X532500Y157500D02*
X537500D01*
X453000Y167500D02*
X459000D01*
X481500Y190000D01*
X487500D01*
X462500Y167500D02*
X485000Y190000D01*
X487500D01*
X670000Y197500D02*
X675000Y192500D01*
X655000Y197500D02*
X670000D01*
X675000Y192500D02*
X682500D01*
X687750Y197750D01*
Y208750D01*
X393000Y122500D02*
X405000D01*
X490000Y275000D02*
X490250Y275250D01*
X490000Y275000D02*
X513000D01*
X490250Y275250D02*
Y285000D01*
X513000Y275000D02*
X523000Y285000D01*
X393000Y122500D02*
X394500Y121000D01*
Y105500D02*
Y121000D01*
X352500Y142500D02*
Y185000D01*
X577500Y137500D02*
X582500Y132500D01*
X557500Y177500D02*
X577500Y157500D01*
Y137500D02*
Y157500D01*
X400000Y205000D02*
Y207500D01*
X405000Y212500D01*
X410000D01*
X687750Y208750D02*
Y228750D01*
X653500Y247500D02*
X672250Y228750D01*
X630250Y247500D02*
X653500D01*
X660762Y220000D02*
X670762Y210000D01*
X645000Y220000D02*
X660762D01*
X671000Y210000D02*
X672250Y208750D01*
X670762Y210000D02*
X671000D01*
X462741Y239759D02*
X465242D01*
X470000Y224500D02*
Y235000D01*
X465242Y239759D02*
X470000Y235000D01*
X639500Y32500D02*
X649500Y22500D01*
X547500Y177500D02*
X557500D01*
X582500Y132500D02*
X602500D01*
X605000Y130000D01*
Y117250D02*
Y130000D01*
X595000Y107250D02*
X605000Y117250D01*
X505000Y115000D02*
X515000Y105000D01*
X587500Y17500D02*
X592500Y12500D01*
X602000D01*
X425000Y145000D02*
X434500D01*
X435000Y145500D01*
X579500Y8000D02*
X587000D01*
X571500Y11500D02*
X572500Y12500D01*
X571500Y8000D02*
Y11500D01*
X490125Y250000D02*
X497875Y257750D01*
X500000D01*
X480000Y242000D02*
X482125D01*
X490125Y250000D01*
X585000Y142000D02*
X595000D01*
X487500Y190000D02*
X510000Y167500D01*
Y155500D02*
Y167500D01*
Y212500D02*
X522000D01*
X487500Y190000D02*
X510000Y212500D01*
X480000Y197500D02*
X487500Y190000D01*
X480000Y197500D02*
Y224500D01*
X505000Y115000D02*
Y125000D01*
X500000Y130000D02*
X505000Y125000D01*
X495000Y125000D02*
X497500Y122500D01*
X495000Y125000D02*
Y130000D01*
X487500Y122500D02*
X490000Y125000D01*
Y130000D01*
X571500Y26500D02*
Y32000D01*
X589474Y268074D02*
X592750Y271350D01*
X585000Y267500D02*
X585574Y268074D01*
X592750Y271350D02*
X596000D01*
X585574Y268074D02*
X589474D01*
X585950Y278442D02*
X589558Y282050D01*
X594000D01*
X596000Y284050D01*
X527500Y248642D02*
X530192Y245950D01*
X539000D01*
X605000Y227500D02*
X614750D01*
X526150Y271350D02*
X539000D01*
X590250Y187500D02*
Y207500D01*
Y227500D01*
X555250Y207500D02*
X564750D01*
X555500Y227500D02*
X565000D01*
X549750Y217500D02*
X564750D01*
X574750Y227500D01*
X539750Y207500D02*
X549750Y217500D01*
X522000Y197500D02*
X529750D01*
X539750Y207500D01*
X595000Y97625D02*
Y107250D01*
Y88000D02*
Y97625D01*
X500000Y242250D02*
X517250D01*
X499750D02*
X500000D01*
X525000Y242000D02*
X528000Y239000D01*
X517500Y242000D02*
X525000D01*
X412500Y45500D02*
Y55000D01*
X437500Y45000D02*
X437500Y45000D01*
X412500Y45500D02*
X412614Y45386D01*
X422114D02*
X422500Y45000D01*
X437500D01*
X412614Y45386D02*
X422114D01*
X479750Y242000D02*
X480000D01*
X392500Y45000D02*
Y70000D01*
X373000Y235500D02*
Y247500D01*
X612500Y22500D02*
X615750Y19250D01*
Y14750D02*
Y19250D01*
Y14750D02*
X618000Y12500D01*
X567500Y80000D02*
Y80812D01*
X568250Y81562D01*
Y89750D01*
X658500Y106000D02*
X665000Y112500D01*
X652000Y106000D02*
X658500D01*
X614750Y107500D02*
X622500Y115250D01*
Y125000D01*
X630500Y187500D02*
Y207500D01*
X442500Y117500D02*
X445000Y120000D01*
X454750D01*
X630250Y167250D02*
X633000Y164500D01*
X630250Y167250D02*
Y167500D01*
X633000Y164500D02*
X633250D01*
X585000Y158000D02*
X595000D01*
X658500Y154000D02*
X665000Y147500D01*
X652000Y154000D02*
X658500D01*
X523000Y285000D02*
X523950Y284050D01*
X539000D01*
X425500Y264750D02*
X428500Y261750D01*
X428750D02*
X432500Y258000D01*
X425500Y264750D02*
Y265000D01*
X428500Y261750D02*
X428750D01*
X612000Y244500D02*
X614750Y247250D01*
X611750Y244500D02*
X612000D01*
X557500Y237500D02*
X604750D01*
X614750Y247250D02*
Y247500D01*
X604750Y237500D02*
X611750Y244500D01*
X550000Y245000D02*
X557500Y237500D01*
X550000Y245000D02*
Y255692D01*
X548123Y257569D02*
X550000Y255692D01*
X540081Y257569D02*
X548123D01*
X539000Y258650D02*
X540081Y257569D01*
X417500Y195000D02*
X420000Y197500D01*
X427500D01*
X410000Y202500D02*
X427500D01*
X410000Y212500D02*
X415000Y207500D01*
X427500D01*
X417500Y217500D02*
X422500Y212500D01*
X427500D01*
X540000Y45500D02*
Y57500D01*
X559750Y44750D02*
Y45000D01*
X555500Y32000D02*
Y40500D01*
X559750Y44750D01*
X630000Y72750D02*
X634000Y76750D01*
X630000Y72500D02*
Y72750D01*
X634000Y76750D02*
Y90000D01*
X634065Y90065D02*
X640065D01*
X634000Y90000D02*
X634065Y90065D01*
X640065D02*
X642086Y92086D01*
X555250Y97750D02*
X559750Y102250D01*
X555250Y89750D02*
Y97750D01*
X559750Y102250D02*
Y102500D01*
X457750Y285000D02*
X474750D01*
X457750D02*
X458000Y284750D01*
X522000Y192500D02*
X537500D01*
X522000Y187500D02*
X537500D01*
X532500Y172500D02*
X536500Y176500D01*
Y177000D01*
X537000Y177500D01*
X537500D01*
X522000Y172500D02*
X532500D01*
X485000Y224500D02*
Y232500D01*
X487500Y235000D02*
X492750D01*
X485000Y232500D02*
X487500Y235000D01*
X492750D02*
X497000Y239250D01*
Y239500D02*
X499750Y242250D01*
X497000Y239250D02*
Y239500D01*
X517250Y242250D02*
X517500Y242000D01*
X475000Y237000D02*
X476750Y238750D01*
Y239000D01*
X475000Y224500D02*
Y237000D01*
X476750Y239000D02*
X479750Y242000D01*
X462500Y240000D02*
X462741Y239759D01*
X447500Y230000D02*
X453000Y224500D01*
X447500Y230000D02*
Y240000D01*
X453000Y217500D02*
Y224500D01*
X437500Y212500D02*
X453000D01*
X437500Y212500D02*
X437500Y212500D01*
X437500Y207500D02*
X453000D01*
X438500Y202500D02*
X438500Y202500D01*
X453000D01*
X437500Y202500D02*
X438500D01*
X437500Y197500D02*
X453000D01*
X437500Y197500D02*
X437500Y197500D01*
X435000Y145500D02*
X437293Y147793D01*
Y152293D01*
X447500Y162500D01*
X453000D01*
X435250Y182500D02*
X435250Y182500D01*
X453000D01*
X438750Y168250D02*
X443000Y172500D01*
X438500Y168250D02*
X438750D01*
X435500Y165000D02*
Y165250D01*
X443000Y172500D02*
X453000D01*
X435500Y165250D02*
X438500Y168250D01*
X470250Y130257D02*
Y137500D01*
Y129007D02*
X471243Y130000D01*
X470250Y129007D02*
Y130257D01*
X471243Y130000D02*
X485000D01*
X470250Y120000D02*
Y129007D01*
X515000Y138000D02*
X527000D01*
X515000D02*
Y155500D01*
X501000Y141000D02*
X505000Y145000D01*
X500500Y141000D02*
X501000D01*
X500000Y140500D02*
X500500Y141000D01*
X500000Y140000D02*
Y140500D01*
X505000Y145000D02*
Y155500D01*
X485000Y140000D02*
Y155500D01*
Y140000D02*
X485000Y140000D01*
X637500Y227500D02*
X645000Y220000D01*
X630250Y227500D02*
X637500D01*
X607500Y267500D02*
Y280250D01*
X596000Y258650D02*
X599250D01*
X601250Y260650D02*
Y261250D01*
X599250Y258650D02*
X601250Y260650D01*
Y261250D02*
X607500Y267500D01*
X613067Y260567D02*
Y265817D01*
X601250Y248750D02*
X613067Y260567D01*
Y265817D02*
X614750Y267500D01*
X596000Y245950D02*
X599250D01*
X601250Y247950D01*
Y248750D01*
X611750Y284500D02*
X612000D01*
X607500Y280250D02*
X611750Y284500D01*
X614750Y287250D02*
Y287500D01*
X612000Y284500D02*
X614750Y287250D01*
X423000Y247250D02*
Y250000D01*
Y247250D02*
X425250Y245000D01*
X417500Y255500D02*
X423000Y250000D01*
X417500Y255500D02*
Y270000D01*
X390000Y285000D02*
X409500D01*
Y278000D02*
X417500Y270000D01*
X409500Y278000D02*
Y285000D01*
X390000Y280000D02*
X392500Y277500D01*
X390000Y285000D02*
X390000Y285000D01*
X390000Y280000D02*
Y285000D01*
X409500Y265000D02*
X409750Y264750D01*
Y245000D02*
Y264750D01*
X402250Y237500D02*
X409750Y245000D01*
X385000Y237500D02*
X402250D01*
X382500Y240000D02*
X385000Y237500D01*
X382500Y240000D02*
Y247500D01*
X404750Y232500D02*
X409750Y227500D01*
X385000Y232500D02*
X404750D01*
X382500Y230000D02*
X385000Y232500D01*
X382500Y222500D02*
Y230000D01*
X517500Y45000D02*
X518000Y45500D01*
X540000D01*
X392500Y45000D02*
X393000Y45500D01*
X412500D01*
X392500Y70000D02*
X394500Y72000D01*
Y79500D01*
X377500Y95000D02*
X392500D01*
X394500Y97000D01*
Y105500D01*
X375500Y97000D02*
X377500Y95000D01*
X375500Y97000D02*
Y105500D01*
X392250Y143500D02*
Y201500D01*
X372750D02*
Y210250D01*
X375000Y212500D01*
X390000D01*
X392000Y214500D01*
Y222500D01*
X372750Y143500D02*
Y162250D01*
X365000Y170000D02*
X372750Y162250D01*
X365000Y170000D02*
Y210000D01*
X373000Y218000D01*
Y222500D01*
Y247500D02*
Y255500D01*
X375000Y257500D01*
Y277500D01*
X605000Y150000D02*
X605000Y150000D01*
X613000D01*
X605000Y140000D02*
X627500D01*
X632000Y144500D01*
Y150000D01*
X615000Y135000D02*
X632500D01*
X613000Y125000D02*
Y133000D01*
X615000Y135000D01*
X632500D02*
X635000Y137500D01*
X652000D01*
X595000Y88000D02*
X605000Y78000D01*
Y62500D02*
Y78000D01*
X597000Y54500D02*
X605000Y62500D01*
X597000Y49500D02*
Y54500D01*
X602000Y12500D02*
Y20500D01*
X597000Y25500D02*
X602000Y20500D01*
X597000Y25500D02*
Y30500D01*
X623000Y40000D02*
X632000D01*
X639500Y32500D01*
X625000Y22500D02*
X637250D01*
X639750Y20000D02*
Y20000D01*
X637250Y22500D02*
X639750Y20000D01*
X639750Y12500D02*
Y20000D01*
X639750Y20000D02*
X639750Y20000D01*
X623000Y24500D02*
X625000Y22500D01*
X623000Y24500D02*
Y30500D01*
X632250Y52500D02*
X639750D01*
X629250Y49500D02*
X632250Y52500D01*
X623000Y49500D02*
X629250D01*
X575250Y122500D02*
X575500Y122750D01*
X595000D01*
X645000Y147500D02*
X652000D01*
Y137500D02*
X660000D01*
X660000Y137500D01*
X662500Y135000D01*
Y130000D02*
Y135000D01*
X660000Y127500D02*
X662500Y130000D01*
X652000Y127500D02*
X660000D01*
X632000Y125000D02*
Y127000D01*
X637500Y132500D01*
X637500Y132500D01*
X652000D01*
X632000Y125000D02*
X634500Y122500D01*
X652000D01*
X630250Y107500D02*
X640250Y117500D01*
X652000D01*
D71*
X558535Y83750D02*
X561250Y86465D01*
X543250Y83750D02*
X558535D01*
X540000Y87000D02*
X543250Y83750D01*
X574750Y78801D02*
Y89750D01*
X569250Y71250D02*
Y73300D01*
X574750Y78801D01*
X568250Y70250D02*
X569250Y71250D01*
X561250Y89250D02*
X561750Y89750D01*
X574750D02*
Y91750D01*
X571250Y95250D02*
X574750Y91750D01*
X564500Y95250D02*
X571250D01*
X561750Y92500D02*
X564500Y95250D01*
X561750Y89750D02*
Y92500D01*
X533000Y87000D02*
X540000D01*
X529243Y90758D02*
X533000Y87000D01*
X529243Y90758D02*
Y96500D01*
X561250Y86465D02*
Y89250D01*
D72*
X559750Y192500D02*
X571500Y204250D01*
X560714Y57500D02*
X563214Y55000D01*
X572500D01*
X560000Y57500D02*
X560714D01*
X572500Y55000D02*
X575250Y52250D01*
Y45000D02*
Y52250D01*
X539500Y227500D02*
Y237000D01*
X565000Y187500D02*
X574750D01*
X547500D02*
X565000D01*
X547500Y192500D02*
X559750D01*
X571500Y204250D02*
X571750D01*
X574750Y207250D01*
Y207500D01*
X563500Y8000D02*
Y13500D01*
X570000Y20000D02*
X577500D01*
X563500Y13500D02*
X570000Y20000D01*
X577500D02*
X585000Y27500D01*
Y52500D01*
X577500Y60000D02*
X585000Y52500D01*
X567500Y60000D02*
X577500D01*
X561777Y65723D02*
X567500Y60000D01*
X561777Y65723D02*
Y70223D01*
X561750Y70250D02*
X561777Y70223D01*
X561750Y70250D02*
Y75750D01*
X560000Y77500D02*
X561750Y75750D01*
X532500Y77500D02*
X560000D01*
X527500Y82500D02*
X532500Y77500D01*
X517500Y82500D02*
X527500D01*
X545000Y67500D02*
X547750Y70250D01*
X555250D01*
X532500Y67500D02*
X545000D01*
X530000Y70000D02*
X532500Y67500D01*
X517500Y70000D02*
X530000D01*
X550000Y57500D02*
X555250Y62750D01*
Y70250D01*
X550000Y13500D02*
Y57500D01*
Y13500D02*
X555500Y8000D01*
X575000Y37500D02*
X577768D01*
X565116D02*
X575000D01*
X575250Y37750D01*
Y45000D01*
X579232Y32268D02*
X579500Y32000D01*
X579232Y32268D02*
Y36035D01*
X577768Y37500D02*
X579232Y36035D01*
X563652Y32152D02*
Y36035D01*
X565116Y37500D01*
X563500Y32000D02*
X563652Y32152D01*
D73*
X193000Y252500D02*
D03*
X113000D02*
D03*
D74*
X44700Y111900D02*
D03*
Y137300D02*
D03*
X44700Y162700D02*
D03*
X44700Y188100D02*
D03*
X19300Y137300D02*
D03*
Y162700D02*
D03*
Y111900D02*
D03*
D75*
Y188100D02*
D03*
D76*
X665000Y158900D02*
D03*
Y101100D02*
D03*
D77*
X70000Y242500D02*
D03*
Y255000D02*
D03*
X217500Y152500D02*
D03*
X230000Y165000D02*
D03*
X252500Y242500D02*
D03*
Y255000D02*
D03*
X542500Y170000D02*
D03*
X510000Y167500D02*
D03*
X487500Y190000D02*
D03*
Y215000D02*
D03*
X510000Y190000D02*
D03*
X462500Y167500D02*
D03*
X510000Y215000D02*
D03*
X470000Y275000D02*
D03*
X655000Y197500D02*
D03*
X405000Y122500D02*
D03*
X490000Y275000D02*
D03*
X352500Y142500D02*
D03*
Y185000D02*
D03*
X138000Y112000D02*
D03*
Y128000D02*
D03*
X400000Y205000D02*
D03*
X130000Y159500D02*
D03*
X680000Y237500D02*
D03*
X649500Y22500D02*
D03*
X567500Y177500D02*
D03*
X405000Y65000D02*
D03*
X529243Y96500D02*
D03*
X525000Y120000D02*
D03*
X515000Y105000D02*
D03*
X587500Y17500D02*
D03*
X425000Y145000D02*
D03*
X587000Y8000D02*
D03*
X572500Y12500D02*
D03*
X490125Y250000D02*
D03*
X585000Y142000D02*
D03*
X560000Y57500D02*
D03*
X495000Y112500D02*
D03*
X7500Y95000D02*
D03*
X82500Y185000D02*
D03*
X67500Y165000D02*
D03*
X497500Y122500D02*
D03*
X487500D02*
D03*
X539500Y237000D02*
D03*
X567500Y287500D02*
D03*
X577500D02*
D03*
X557500D02*
D03*
X512500Y292500D02*
D03*
X640000Y267500D02*
D03*
Y287500D02*
D03*
X605000Y170000D02*
D03*
X602500Y187500D02*
D03*
Y207500D02*
D03*
X571500Y26500D02*
D03*
X585000Y267500D02*
D03*
X585950Y278442D02*
D03*
X527500Y248642D02*
D03*
X605000Y227500D02*
D03*
X526150Y271350D02*
D03*
X590250Y217500D02*
D03*
Y197500D02*
D03*
X564750Y207500D02*
D03*
X565000Y227500D02*
D03*
X557000Y158000D02*
D03*
X528000Y239000D02*
D03*
X509000Y251000D02*
D03*
X630500Y197500D02*
D03*
X532500Y77500D02*
D03*
X425000Y130000D02*
D03*
X445000D02*
D03*
X452500Y147500D02*
D03*
X412500Y55000D02*
D03*
X422500Y45000D02*
D03*
X410000Y182500D02*
D03*
X373000Y235500D02*
D03*
X383000Y132000D02*
D03*
X365000Y122500D02*
D03*
X383250Y53750D02*
D03*
X367500Y62500D02*
D03*
Y45000D02*
D03*
X412500Y17500D02*
D03*
X402500Y30000D02*
D03*
X450000Y32500D02*
D03*
X505000D02*
D03*
X502500Y82500D02*
D03*
X452500D02*
D03*
X437500Y22500D02*
D03*
X422500Y35000D02*
D03*
X517500Y22500D02*
D03*
X540000Y17500D02*
D03*
X530000Y30000D02*
D03*
X655000Y62500D02*
D03*
Y42500D02*
D03*
X665000Y52500D02*
D03*
Y32500D02*
D03*
Y12500D02*
D03*
X612500Y22500D02*
D03*
X550000Y122500D02*
D03*
X560000Y132500D02*
D03*
Y112500D02*
D03*
X550000Y102500D02*
D03*
X585000D02*
D03*
X575000Y112500D02*
D03*
X582500Y72500D02*
D03*
X567500Y80000D02*
D03*
X665000Y112500D02*
D03*
X615000Y97500D02*
D03*
X622500Y115250D02*
D03*
X442500Y117500D02*
D03*
X697500Y60000D02*
D03*
Y162500D02*
D03*
Y97500D02*
D03*
X680000Y60000D02*
D03*
Y97500D02*
D03*
Y80000D02*
D03*
Y200000D02*
D03*
Y162500D02*
D03*
Y180000D02*
D03*
X645000Y170000D02*
D03*
X595000Y167500D02*
D03*
X585000Y158000D02*
D03*
X665000Y147500D02*
D03*
X642086Y92086D02*
D03*
X432500Y258000D02*
D03*
X435000Y227500D02*
D03*
X425000Y275000D02*
D03*
X442500D02*
D03*
X380000Y187500D02*
D03*
X565000Y197500D02*
D03*
Y187500D02*
D03*
X532500Y67500D02*
D03*
X417500Y195000D02*
D03*
X410000Y202500D02*
D03*
X417500Y217500D02*
D03*
X469500Y253250D02*
D03*
X470000Y245000D02*
D03*
X540000Y57500D02*
D03*
X527000Y138000D02*
D03*
X435000Y241000D02*
D03*
Y249000D02*
D03*
X605000Y150000D02*
D03*
Y140000D02*
D03*
M02*
