M48
;Layer_Color=9474304
;FILE_FORMAT=4:4
METRIC,LZ
;TYPE=PLATED
T01F00S00C0.3000
T02F00S00C0.9000
;TYPE=NON_PLATED
T03F00S00C0.6500
T04F00S00C0.9000
T05F00S00C3.2000
%
T01
X003675Y00045
Y000625
X0038325Y0005375
X004125Y00055
X00405Y00065
X004225Y00045
Y00035
X004025Y0003
X004125Y000175
X004375Y000225
X0045Y000325
X00505
X005175Y000225
X0053Y0003
X0054Y000175
X005725Y000125
X005715Y000265
X005875Y000175
X00587Y00008
X006125Y000225
X006495
X00655Y000425
X00665Y000325
Y000525
X00655Y000625
X0068Y0006
X006975
X0068Y0008
X00665Y000125
X005825Y000725
X005675Y0008
X0056Y000575
X0054Y000575
X005325Y000675
Y000775
X00529243Y000965
X00515Y00105
X00525Y0012
X00527Y00138
X0055Y001225
X0056Y001325
Y001125
X00575
X00585Y001025
X00615Y000975
X006225Y0011525
X00605Y0014
Y0015
X00605Y0017
X00595Y001675
X00585Y00158
Y00142
X00557Y00158
X005425Y0017
X005675Y001775
X00565Y001875
Y001975
X0056475Y002075
X00565Y002275
X005395Y00237
X00528Y00239
X005275Y00248642
X00509Y00251
X0051Y00215
Y0019
Y001675
X004975Y001225
X00495Y001125
X005025Y000825
X0055Y001025
X00642086Y00092086
X00665Y001125
X0068Y000975
X006975
Y001625
X0068
Y0018
Y002
X00655Y001975
X006305
X006025Y002075
Y001875
X0059025Y001975
Y002175
X00605Y002275
X00585Y002675
X0058595Y00278442
X005775Y002875
X005675
X005575
X0052615Y0027135
X005125Y002925
X0064Y002875
Y002675
X0068Y002375
X00645Y0017
X00665Y001475
X004875Y001225
X00445Y0013
X004425Y001175
X00425Y0013
Y00145
X004525Y001475
X004625Y001675
X004875Y0019
Y00215
X00490125Y0025
X004695Y0025325
X0047Y00245
Y00275
X0049
X004425
X00425
X004325Y00258
X00435Y00249
Y00241
Y002275
X004175Y002175
Y00195
X0041Y002025
X004Y00205
X0041Y001825
X0038Y001875
X003525Y00185
Y001425
X00365Y001225
X00383Y00132
X00405Y001225
X004525Y000825
X00373Y002355
X002525Y002425
Y00255
X0023Y00165
X002175Y001525
X0013Y001595
X00138Y00128
Y00112
X000675Y00165
X000825Y00185
X0007Y002425
Y00255
X000075Y00095
T02
X00113Y002525
X00193
X000447Y001881
X000193Y001881
Y001627
Y001373
X000447
Y001119
X000193
X000447Y001627
T03
X00665Y001011
Y001589
T04
X006541Y0021099
Y0023131
X007049Y0022115
T05
X00027996Y00028
X00691997
Y00272
X00027996
M30
