G04*
G04 #@! TF.GenerationSoftware,Altium Limited,Altium Designer,24.6.1 (21)*
G04*
G04 Layer_Color=16711935*
%FSLAX44Y44*%
%MOMM*%
G71*
G04*
G04 #@! TF.SameCoordinates,7FE9C145-C3CB-471E-AB6E-A22DF7334544*
G04*
G04*
G04 #@! TF.FilePolarity,Negative*
G04*
G01*
G75*
G04:AMPARAMS|DCode=21|XSize=1.15mm|YSize=1.1mm|CornerRadius=0.19mm|HoleSize=0mm|Usage=FLASHONLY|Rotation=0.000|XOffset=0mm|YOffset=0mm|HoleType=Round|Shape=RoundedRectangle|*
%AMROUNDEDRECTD21*
21,1,1.1500,0.7200,0,0,0.0*
21,1,0.7700,1.1000,0,0,0.0*
1,1,0.3800,0.3850,-0.3600*
1,1,0.3800,-0.3850,-0.3600*
1,1,0.3800,-0.3850,0.3600*
1,1,0.3800,0.3850,0.3600*
%
%ADD21ROUNDEDRECTD21*%
%ADD41C,1.6000*%
%ADD42C,1.7000*%
G04:AMPARAMS|DCode=43|XSize=1.7mm|YSize=1.7mm|CornerRadius=0.475mm|HoleSize=0mm|Usage=FLASHONLY|Rotation=270.000|XOffset=0mm|YOffset=0mm|HoleType=Round|Shape=RoundedRectangle|*
%AMROUNDEDRECTD43*
21,1,1.7000,0.7500,0,0,270.0*
21,1,0.7500,1.7000,0,0,270.0*
1,1,0.9500,-0.3750,-0.3750*
1,1,0.9500,-0.3750,0.3750*
1,1,0.9500,0.3750,0.3750*
1,1,0.9500,0.3750,-0.3750*
%
%ADD43ROUNDEDRECTD43*%
%ADD44C,0.8500*%
%ADD45C,0.2000*%
%ADD46C,0.8000*%
%ADD85R,0.9000X1.6000*%
%ADD86R,1.8000X1.6000*%
%ADD87R,1.4000X2.4000*%
%ADD88C,1.0000*%
G36*
X623118Y85848D02*
X623313Y85819D01*
X623503Y85772D01*
X623688Y85705D01*
X623866Y85621D01*
X624034Y85520D01*
X624192Y85403D01*
X624338Y85271D01*
X624389Y85214D01*
X625496D01*
X625692Y85205D01*
X625886Y85176D01*
X626077Y85128D01*
X626262Y85062D01*
X626440Y84978D01*
X626608Y84877D01*
X626766Y84760D01*
X626912Y84628D01*
X626972Y84562D01*
X626979Y84561D01*
X627173Y84532D01*
X627364Y84485D01*
X627549Y84419D01*
X627727Y84334D01*
X627895Y84234D01*
X628053Y84116D01*
X628199Y83984D01*
X628259Y83918D01*
X628266Y83918D01*
X628460Y83889D01*
X628651Y83841D01*
X628836Y83775D01*
X629014Y83691D01*
X629182Y83590D01*
X629340Y83473D01*
X629486Y83341D01*
X629546Y83275D01*
X629553Y83274D01*
X629747Y83246D01*
X629938Y83198D01*
X630123Y83132D01*
X630300Y83048D01*
X630469Y82947D01*
X630627Y82830D01*
X630773Y82698D01*
X630904Y82552D01*
X631021Y82394D01*
X631056Y82337D01*
X631113Y82303D01*
X631270Y82186D01*
X631416Y82054D01*
X631548Y81909D01*
X631665Y81751D01*
X631699Y81694D01*
X631756Y81660D01*
X631914Y81543D01*
X632059Y81411D01*
X632191Y81265D01*
X632308Y81107D01*
X632342Y81050D01*
X632399Y81016D01*
X632557Y80899D01*
X632703Y80767D01*
X632835Y80622D01*
X632952Y80464D01*
X632986Y80407D01*
X633043Y80373D01*
X633201Y80256D01*
X633346Y80124D01*
X633478Y79978D01*
X633595Y79820D01*
X633629Y79763D01*
X633686Y79729D01*
X633844Y79612D01*
X633990Y79480D01*
X634122Y79335D01*
X634239Y79177D01*
X634273Y79120D01*
X634330Y79086D01*
X634488Y78969D01*
X634633Y78837D01*
X634765Y78691D01*
X634882Y78533D01*
X634916Y78476D01*
X634973Y78442D01*
X635131Y78325D01*
X635277Y78193D01*
X635409Y78048D01*
X635526Y77890D01*
X635627Y77721D01*
X635711Y77544D01*
X635777Y77359D01*
X635825Y77168D01*
X635854Y76974D01*
X635854Y76967D01*
X635920Y76906D01*
X636052Y76761D01*
X636169Y76603D01*
X636270Y76434D01*
X636354Y76257D01*
X636420Y76072D01*
X636468Y75881D01*
X636497Y75687D01*
X636497Y75680D01*
X636564Y75620D01*
X636696Y75474D01*
X636813Y75316D01*
X636914Y75148D01*
X636998Y74970D01*
X637064Y74785D01*
X637112Y74594D01*
X637141Y74400D01*
X637141Y74393D01*
X637207Y74333D01*
X637339Y74187D01*
X637456Y74029D01*
X637557Y73861D01*
X637641Y73683D01*
X637707Y73498D01*
X637755Y73307D01*
X637784Y73113D01*
X637794Y72917D01*
Y71810D01*
X637850Y71759D01*
X637982Y71613D01*
X638100Y71455D01*
X638201Y71287D01*
X638285Y71109D01*
X638351Y70924D01*
X638399Y70733D01*
X638427Y70539D01*
X638437Y70343D01*
Y68350D01*
X638488Y68332D01*
X638666Y68248D01*
X638834Y68147D01*
X638992Y68030D01*
X639137Y67898D01*
X639189Y67841D01*
X639652D01*
X639848Y67831D01*
X640043Y67803D01*
X640233Y67755D01*
X640418Y67689D01*
X640596Y67605D01*
X640764Y67503D01*
X640922Y67386D01*
X641068Y67255D01*
X641200Y67109D01*
X641317Y66951D01*
X641351Y66894D01*
X641408Y66860D01*
X641566Y66743D01*
X641711Y66611D01*
X641771Y66545D01*
X641779Y66544D01*
X641973Y66516D01*
X642164Y66468D01*
X642349Y66402D01*
X642526Y66318D01*
X642695Y66217D01*
X642853Y66100D01*
X642998Y65968D01*
X643130Y65822D01*
X643247Y65664D01*
X643281Y65607D01*
X643338Y65573D01*
X643496Y65456D01*
X643642Y65324D01*
X643774Y65178D01*
X643891Y65021D01*
X643925Y64964D01*
X643982Y64930D01*
X644139Y64813D01*
X644285Y64681D01*
X644417Y64535D01*
X644534Y64377D01*
X644568Y64320D01*
X644625Y64286D01*
X644783Y64169D01*
X644929Y64037D01*
X645061Y63892D01*
X645178Y63734D01*
X645212Y63677D01*
X645269Y63643D01*
X645426Y63526D01*
X645572Y63394D01*
X645704Y63248D01*
X645821Y63090D01*
X645855Y63033D01*
X645912Y62999D01*
X646070Y62882D01*
X646216Y62750D01*
X646348Y62605D01*
X646464Y62447D01*
X646566Y62278D01*
X646650Y62101D01*
X646716Y61916D01*
X646764Y61725D01*
X646792Y61531D01*
X646793Y61523D01*
X646859Y61463D01*
X646991Y61318D01*
X647108Y61160D01*
X647209Y60991D01*
X647293Y60814D01*
X647359Y60629D01*
X647407Y60438D01*
X647436Y60244D01*
X647436Y60237D01*
X647502Y60177D01*
X647634Y60031D01*
X647751Y59873D01*
X647852Y59704D01*
X647936Y59527D01*
X648003Y59342D01*
X648050Y59151D01*
X648079Y58957D01*
X648089Y58760D01*
Y58298D01*
X648146Y58246D01*
X648278Y58101D01*
X648395Y57943D01*
X648496Y57774D01*
X648580Y57597D01*
X648646Y57411D01*
X648694Y57221D01*
X648723Y57026D01*
X648732Y56830D01*
Y51683D01*
X648723Y51486D01*
X648694Y51292D01*
X648646Y51101D01*
X648580Y50916D01*
X648496Y50739D01*
X648395Y50570D01*
X648278Y50412D01*
X648146Y50266D01*
X648089Y50215D01*
Y49752D01*
X648079Y49556D01*
X648050Y49361D01*
X648003Y49171D01*
X647936Y48986D01*
X647852Y48808D01*
X647751Y48640D01*
X647634Y48482D01*
X647502Y48336D01*
X647436Y48276D01*
X647436Y48269D01*
X647407Y48074D01*
X647359Y47884D01*
X647293Y47699D01*
X647209Y47521D01*
X647108Y47353D01*
X646991Y47195D01*
X646859Y47049D01*
X646793Y46989D01*
X646792Y46982D01*
X646764Y46788D01*
X646716Y46597D01*
X646650Y46412D01*
X646566Y46234D01*
X646464Y46066D01*
X646348Y45908D01*
X646216Y45762D01*
X646070Y45630D01*
X645912Y45513D01*
X645855Y45479D01*
X645821Y45422D01*
X645704Y45265D01*
X645572Y45119D01*
X645426Y44987D01*
X645269Y44870D01*
X645212Y44836D01*
X645178Y44779D01*
X645061Y44621D01*
X644929Y44475D01*
X644783Y44344D01*
X644625Y44226D01*
X644568Y44192D01*
X644534Y44135D01*
X644417Y43978D01*
X644285Y43832D01*
X644139Y43700D01*
X643982Y43583D01*
X643925Y43549D01*
X643891Y43492D01*
X643774Y43334D01*
X643642Y43189D01*
X643496Y43057D01*
X643338Y42940D01*
X643170Y42839D01*
X642992Y42754D01*
X642807Y42688D01*
X642616Y42641D01*
X642422Y42612D01*
X642415Y42611D01*
X642355Y42545D01*
X642209Y42413D01*
X642051Y42296D01*
X641883Y42195D01*
X641705Y42111D01*
X641520Y42045D01*
X641329Y41997D01*
X641135Y41968D01*
X641128Y41968D01*
X641068Y41902D01*
X640922Y41770D01*
X640764Y41653D01*
X640596Y41552D01*
X640418Y41467D01*
X640233Y41401D01*
X640043Y41354D01*
X639848Y41325D01*
X639652Y41315D01*
X639189D01*
X639137Y41258D01*
X638992Y41126D01*
X638834Y41009D01*
X638666Y40908D01*
X638488Y40824D01*
X638303Y40758D01*
X638112Y40710D01*
X637918Y40681D01*
X637721Y40672D01*
X632002D01*
Y38751D01*
X632053Y38733D01*
X632231Y38649D01*
X632399Y38548D01*
X632557Y38431D01*
X632703Y38299D01*
X632835Y38153D01*
X632952Y37995D01*
X632986Y37938D01*
X633043Y37904D01*
X633201Y37787D01*
X633346Y37655D01*
X633478Y37510D01*
X633595Y37352D01*
X633696Y37183D01*
X633780Y37006D01*
X633847Y36821D01*
X633894Y36630D01*
X633923Y36436D01*
X633923Y36428D01*
X633990Y36368D01*
X634122Y36223D01*
X634239Y36065D01*
X634340Y35896D01*
X634424Y35719D01*
X634490Y35534D01*
X634538Y35343D01*
X634567Y35149D01*
X634576Y34952D01*
Y32379D01*
X634567Y32182D01*
X634538Y31988D01*
X634490Y31797D01*
X634424Y31612D01*
X634340Y31435D01*
X634239Y31266D01*
X634122Y31108D01*
X633990Y30963D01*
X633923Y30903D01*
X633923Y30896D01*
X633894Y30701D01*
X633847Y30510D01*
X633780Y30326D01*
X633696Y30148D01*
X633595Y29979D01*
X633478Y29822D01*
X633346Y29676D01*
X633201Y29544D01*
X633043Y29427D01*
X632986Y29393D01*
X632952Y29336D01*
X632835Y29178D01*
X632703Y29032D01*
X632557Y28900D01*
X632399Y28783D01*
X632231Y28682D01*
X632053Y28598D01*
X631868Y28532D01*
X631678Y28484D01*
X631483Y28456D01*
X631476Y28455D01*
X631416Y28389D01*
X631270Y28257D01*
X631113Y28140D01*
X630944Y28039D01*
X630766Y27955D01*
X630581Y27889D01*
X630391Y27841D01*
X630196Y27812D01*
X630000Y27802D01*
X627426D01*
X627230Y27812D01*
X627035Y27841D01*
X626845Y27889D01*
X626660Y27955D01*
X626482Y28039D01*
X626314Y28140D01*
X626156Y28257D01*
X626010Y28389D01*
X625950Y28455D01*
X625943Y28456D01*
X625749Y28484D01*
X625558Y28532D01*
X625373Y28598D01*
X625195Y28682D01*
X625027Y28783D01*
X624869Y28900D01*
X624723Y29032D01*
X624591Y29178D01*
X624474Y29336D01*
X624440Y29393D01*
X624383Y29427D01*
X624226Y29544D01*
X624080Y29676D01*
X623948Y29822D01*
X623831Y29979D01*
X623730Y30148D01*
X623646Y30326D01*
X623580Y30510D01*
X623532Y30701D01*
X623503Y30896D01*
X623503Y30903D01*
X623436Y30963D01*
X623304Y31108D01*
X623187Y31266D01*
X623086Y31435D01*
X623002Y31612D01*
X622936Y31797D01*
X622888Y31988D01*
X622860Y32182D01*
X622850Y32379D01*
Y34952D01*
X622860Y35149D01*
X622888Y35343D01*
X622936Y35534D01*
X623002Y35719D01*
X623086Y35896D01*
X623187Y36065D01*
X623304Y36223D01*
X623436Y36368D01*
X623503Y36428D01*
X623503Y36436D01*
X623532Y36630D01*
X623580Y36821D01*
X623646Y37006D01*
X623730Y37183D01*
X623831Y37352D01*
X623948Y37510D01*
X624080Y37655D01*
X624226Y37787D01*
X624383Y37904D01*
X624440Y37938D01*
X624474Y37995D01*
X624591Y38153D01*
X624723Y38299D01*
X624869Y38431D01*
X625027Y38548D01*
X625195Y38649D01*
X625373Y38733D01*
X625424Y38751D01*
Y40672D01*
X617846D01*
Y38813D01*
Y38751D01*
X617897Y38733D01*
X618075Y38649D01*
X618243Y38548D01*
X618401Y38431D01*
X618547Y38299D01*
X618679Y38153D01*
X618796Y37995D01*
X618830Y37938D01*
X618887Y37904D01*
X619045Y37787D01*
X619190Y37655D01*
X619322Y37510D01*
X619439Y37352D01*
X619540Y37183D01*
X619624Y37006D01*
X619691Y36821D01*
X619738Y36630D01*
X619767Y36436D01*
X619767Y36428D01*
X619834Y36368D01*
X619966Y36223D01*
X620083Y36065D01*
X620184Y35896D01*
X620268Y35719D01*
X620334Y35534D01*
X620382Y35343D01*
X620410Y35149D01*
X620420Y34952D01*
Y32379D01*
X620410Y32182D01*
X620382Y31988D01*
X620334Y31797D01*
X620268Y31612D01*
X620184Y31435D01*
X620083Y31266D01*
X619966Y31108D01*
X619834Y30963D01*
X619767Y30903D01*
X619767Y30896D01*
X619738Y30701D01*
X619691Y30510D01*
X619624Y30326D01*
X619540Y30148D01*
X619439Y29979D01*
X619322Y29822D01*
X619190Y29676D01*
X619045Y29544D01*
X618887Y29427D01*
X618830Y29393D01*
X618796Y29336D01*
X618679Y29178D01*
X618547Y29032D01*
X618401Y28900D01*
X618243Y28783D01*
X618075Y28682D01*
X617897Y28598D01*
X617712Y28532D01*
X617522Y28484D01*
X617327Y28456D01*
X617320Y28455D01*
X617260Y28389D01*
X617114Y28257D01*
X616956Y28140D01*
X616788Y28039D01*
X616610Y27955D01*
X616425Y27889D01*
X616235Y27841D01*
X616040Y27812D01*
X615844Y27802D01*
X613270D01*
X613074Y27812D01*
X612879Y27841D01*
X612689Y27889D01*
X612504Y27955D01*
X612326Y28039D01*
X612158Y28140D01*
X612000Y28257D01*
X611854Y28389D01*
X611794Y28455D01*
X611787Y28456D01*
X611592Y28484D01*
X611402Y28532D01*
X611217Y28598D01*
X611039Y28682D01*
X610871Y28783D01*
X610713Y28900D01*
X610567Y29032D01*
X610435Y29178D01*
X610318Y29336D01*
X610284Y29393D01*
X610227Y29427D01*
X610069Y29544D01*
X609924Y29676D01*
X609792Y29822D01*
X609675Y29979D01*
X609574Y30148D01*
X609490Y30326D01*
X609423Y30510D01*
X609376Y30701D01*
X609347Y30896D01*
X609347Y30903D01*
X609280Y30963D01*
X609148Y31108D01*
X609031Y31266D01*
X608930Y31435D01*
X608846Y31612D01*
X608780Y31797D01*
X608732Y31988D01*
X608703Y32182D01*
X608694Y32379D01*
Y34952D01*
X608703Y35149D01*
X608732Y35343D01*
X608780Y35534D01*
X608846Y35719D01*
X608930Y35896D01*
X609031Y36065D01*
X609148Y36223D01*
X609280Y36368D01*
X609347Y36428D01*
X609347Y36436D01*
X609376Y36630D01*
X609423Y36821D01*
X609490Y37006D01*
X609574Y37183D01*
X609675Y37352D01*
X609792Y37510D01*
X609924Y37655D01*
X610069Y37787D01*
X610227Y37904D01*
X610284Y37938D01*
X610318Y37995D01*
X610435Y38153D01*
X610567Y38299D01*
X610713Y38431D01*
X610871Y38548D01*
X611039Y38649D01*
X611217Y38733D01*
X611268Y38751D01*
Y40672D01*
X603690D01*
Y38751D01*
X603741Y38733D01*
X603919Y38649D01*
X604087Y38548D01*
X604245Y38431D01*
X604391Y38299D01*
X604523Y38153D01*
X604640Y37995D01*
X604674Y37938D01*
X604731Y37904D01*
X604888Y37787D01*
X605034Y37655D01*
X605166Y37510D01*
X605283Y37352D01*
X605384Y37183D01*
X605468Y37006D01*
X605534Y36821D01*
X605582Y36630D01*
X605611Y36436D01*
X605611Y36428D01*
X605677Y36368D01*
X605810Y36223D01*
X605927Y36065D01*
X606028Y35896D01*
X606112Y35719D01*
X606178Y35534D01*
X606226Y35343D01*
X606254Y35149D01*
X606264Y34952D01*
Y32379D01*
X606254Y32182D01*
X606226Y31988D01*
X606178Y31797D01*
X606112Y31612D01*
X606028Y31435D01*
X605927Y31266D01*
X605810Y31108D01*
X605677Y30963D01*
X605611Y30903D01*
X605611Y30896D01*
X605582Y30701D01*
X605534Y30510D01*
X605468Y30326D01*
X605384Y30148D01*
X605283Y29979D01*
X605166Y29822D01*
X605034Y29676D01*
X604888Y29544D01*
X604731Y29427D01*
X604674Y29393D01*
X604640Y29336D01*
X604523Y29178D01*
X604391Y29032D01*
X604245Y28900D01*
X604087Y28783D01*
X603919Y28682D01*
X603741Y28598D01*
X603556Y28532D01*
X603365Y28484D01*
X603171Y28456D01*
X603164Y28455D01*
X603104Y28389D01*
X602958Y28257D01*
X602800Y28140D01*
X602632Y28039D01*
X602454Y27955D01*
X602269Y27889D01*
X602078Y27841D01*
X601884Y27812D01*
X601688Y27802D01*
X599114D01*
X598918Y27812D01*
X598723Y27841D01*
X598533Y27889D01*
X598348Y27955D01*
X598170Y28039D01*
X598002Y28140D01*
X597844Y28257D01*
X597698Y28389D01*
X597638Y28455D01*
X597631Y28456D01*
X597436Y28484D01*
X597246Y28532D01*
X597061Y28598D01*
X596883Y28682D01*
X596715Y28783D01*
X596557Y28900D01*
X596411Y29032D01*
X596279Y29178D01*
X596162Y29336D01*
X596128Y29393D01*
X596071Y29427D01*
X595913Y29544D01*
X595768Y29676D01*
X595636Y29822D01*
X595519Y29979D01*
X595418Y30148D01*
X595334Y30326D01*
X595267Y30510D01*
X595220Y30701D01*
X595191Y30896D01*
X595191Y30903D01*
X595124Y30963D01*
X594992Y31108D01*
X594875Y31266D01*
X594774Y31435D01*
X594690Y31612D01*
X594624Y31797D01*
X594576Y31988D01*
X594547Y32182D01*
X594538Y32379D01*
Y34952D01*
X594547Y35149D01*
X594576Y35343D01*
X594624Y35534D01*
X594690Y35719D01*
X594774Y35896D01*
X594875Y36065D01*
X594992Y36223D01*
X595124Y36368D01*
X595191Y36428D01*
X595191Y36436D01*
X595220Y36630D01*
X595267Y36821D01*
X595334Y37006D01*
X595418Y37183D01*
X595519Y37352D01*
X595636Y37510D01*
X595768Y37655D01*
X595913Y37787D01*
X596071Y37904D01*
X596128Y37938D01*
X596162Y37995D01*
X596279Y38153D01*
X596411Y38299D01*
X596557Y38431D01*
X596715Y38548D01*
X596883Y38649D01*
X597061Y38733D01*
X597112Y38751D01*
Y38813D01*
Y40672D01*
X592036D01*
X591840Y40681D01*
X591645Y40710D01*
X591455Y40758D01*
X591270Y40824D01*
X591092Y40908D01*
X590923Y41009D01*
X590766Y41126D01*
X590620Y41258D01*
X590568Y41315D01*
X590106D01*
X589909Y41325D01*
X589715Y41354D01*
X589524Y41401D01*
X589339Y41467D01*
X589162Y41552D01*
X588993Y41653D01*
X588835Y41770D01*
X588690Y41902D01*
X588684Y41908D01*
X588630Y41968D01*
X588622Y41968D01*
X588428Y41997D01*
X588237Y42045D01*
X588052Y42111D01*
X587875Y42195D01*
X587706Y42296D01*
X587548Y42413D01*
X587403Y42545D01*
X587343Y42611D01*
X587335Y42612D01*
X587141Y42641D01*
X586950Y42688D01*
X586765Y42754D01*
X586588Y42839D01*
X586419Y42940D01*
X586261Y43057D01*
X586116Y43189D01*
X585984Y43334D01*
X585867Y43492D01*
X585833Y43549D01*
X585776Y43583D01*
X585618Y43700D01*
X585472Y43832D01*
X585340Y43978D01*
X585223Y44135D01*
X585189Y44192D01*
X585132Y44226D01*
X584974Y44344D01*
X584829Y44475D01*
X584697Y44621D01*
X584580Y44779D01*
X584546Y44836D01*
X584489Y44870D01*
X584331Y44987D01*
X584185Y45119D01*
X584053Y45265D01*
X583936Y45422D01*
X583902Y45479D01*
X583845Y45513D01*
X583688Y45630D01*
X583542Y45762D01*
X583410Y45908D01*
X583293Y46066D01*
X583259Y46123D01*
X583202Y46157D01*
X583044Y46274D01*
X582898Y46406D01*
X582766Y46551D01*
X582649Y46709D01*
X582548Y46878D01*
X582464Y47055D01*
X582398Y47240D01*
X582350Y47431D01*
X582322Y47625D01*
X582321Y47633D01*
X582255Y47693D01*
X582123Y47838D01*
X582006Y47996D01*
X581905Y48165D01*
X581821Y48342D01*
X581755Y48527D01*
X581707Y48718D01*
X581678Y48912D01*
X581678Y48920D01*
X581612Y48980D01*
X581480Y49125D01*
X581362Y49283D01*
X581261Y49452D01*
X581177Y49629D01*
X581111Y49814D01*
X581063Y50005D01*
X581035Y50199D01*
X581025Y50396D01*
Y50858D01*
X580968Y50910D01*
X580836Y51056D01*
X580719Y51213D01*
X580618Y51382D01*
X580534Y51560D01*
X580468Y51745D01*
X580420Y51935D01*
X580391Y52130D01*
X580382Y52326D01*
Y58117D01*
X580391Y58313D01*
X580420Y58508D01*
X580468Y58698D01*
X580534Y58883D01*
X580618Y59061D01*
X580719Y59229D01*
X580836Y59387D01*
X580968Y59533D01*
X581025Y59585D01*
Y60047D01*
X581035Y60244D01*
X581063Y60438D01*
X581111Y60629D01*
X581177Y60814D01*
X581261Y60991D01*
X581362Y61160D01*
X581480Y61318D01*
X581612Y61463D01*
X581669Y61515D01*
Y61978D01*
X581678Y62174D01*
X581707Y62368D01*
X581755Y62559D01*
X581821Y62744D01*
X581905Y62922D01*
X582006Y63090D01*
X582123Y63248D01*
X582255Y63394D01*
X582401Y63526D01*
X582558Y63643D01*
X582615Y63677D01*
X582649Y63734D01*
X582766Y63892D01*
X582898Y64037D01*
X582965Y64097D01*
X582965Y64104D01*
X582994Y64299D01*
X583042Y64489D01*
X583108Y64675D01*
X583192Y64852D01*
X583293Y65021D01*
X583410Y65178D01*
X583542Y65324D01*
X583688Y65456D01*
X583845Y65573D01*
X583902Y65607D01*
X583936Y65664D01*
X584053Y65822D01*
X584185Y65968D01*
X584331Y66100D01*
X584489Y66217D01*
X584546Y66251D01*
X584580Y66308D01*
X584697Y66465D01*
X584829Y66611D01*
X584974Y66743D01*
X585132Y66860D01*
X585189Y66894D01*
X585223Y66951D01*
X585340Y67109D01*
X585472Y67255D01*
X585618Y67386D01*
X585776Y67503D01*
X585944Y67605D01*
X586122Y67689D01*
X586307Y67755D01*
X586498Y67803D01*
X586692Y67831D01*
X586699Y67832D01*
X586759Y67898D01*
X586905Y68030D01*
X587063Y68147D01*
X587231Y68248D01*
X587409Y68332D01*
X587594Y68398D01*
X587785Y68446D01*
X587979Y68475D01*
X587986Y68475D01*
X588046Y68541D01*
X588192Y68673D01*
X588350Y68790D01*
X588518Y68892D01*
X588696Y68976D01*
X588881Y69042D01*
X589071Y69089D01*
X589266Y69118D01*
X589273Y69119D01*
X589333Y69185D01*
X589390Y69236D01*
Y69699D01*
X589400Y69896D01*
X589428Y70090D01*
X589476Y70281D01*
X589542Y70466D01*
X589627Y70643D01*
X589728Y70812D01*
X589845Y70970D01*
X589977Y71115D01*
X590033Y71167D01*
Y71630D01*
X590043Y71826D01*
X590072Y72020D01*
X590120Y72211D01*
X590186Y72396D01*
X590270Y72574D01*
X590371Y72742D01*
X590488Y72900D01*
X590620Y73046D01*
X590766Y73178D01*
X590923Y73295D01*
X590980Y73329D01*
X591014Y73386D01*
X591132Y73544D01*
X591263Y73689D01*
X591330Y73749D01*
X591330Y73756D01*
X591359Y73951D01*
X591407Y74141D01*
X591473Y74326D01*
X591557Y74504D01*
X591658Y74673D01*
X591775Y74830D01*
X591907Y74976D01*
X592052Y75108D01*
X592210Y75225D01*
X592267Y75259D01*
X592301Y75316D01*
X592418Y75474D01*
X592550Y75620D01*
X592696Y75752D01*
X592854Y75869D01*
X593022Y75970D01*
X593200Y76054D01*
X593385Y76120D01*
X593576Y76167D01*
X593770Y76196D01*
X593777Y76197D01*
X593837Y76263D01*
X593983Y76395D01*
X594141Y76512D01*
X594198Y76546D01*
X594232Y76603D01*
X594349Y76761D01*
X594481Y76906D01*
X594626Y77038D01*
X594784Y77155D01*
X594953Y77256D01*
X595130Y77340D01*
X595315Y77407D01*
X595506Y77454D01*
X595700Y77483D01*
X595897Y77493D01*
X596359D01*
X596411Y77550D01*
X596557Y77682D01*
X596715Y77799D01*
X596883Y77900D01*
X597061Y77984D01*
X597246Y78050D01*
X597436Y78098D01*
X597631Y78127D01*
X597827Y78136D01*
X602331D01*
X602528Y78127D01*
X602722Y78098D01*
X602912Y78050D01*
X603097Y77984D01*
X603275Y77900D01*
X603444Y77799D01*
X603601Y77682D01*
X603715Y77579D01*
X603783Y77721D01*
X603884Y77890D01*
X604001Y78048D01*
X604133Y78193D01*
X604278Y78325D01*
X604436Y78442D01*
X604493Y78476D01*
X604527Y78533D01*
X604644Y78691D01*
X604776Y78837D01*
X604922Y78969D01*
X605079Y79086D01*
X605136Y79120D01*
X605171Y79177D01*
X605288Y79335D01*
X605420Y79480D01*
X605565Y79612D01*
X605723Y79729D01*
X605780Y79763D01*
X605814Y79820D01*
X605931Y79978D01*
X606063Y80124D01*
X606209Y80256D01*
X606367Y80373D01*
X606423Y80407D01*
X606457Y80464D01*
X606575Y80622D01*
X606707Y80767D01*
X606852Y80899D01*
X607010Y81016D01*
X607067Y81050D01*
X607101Y81107D01*
X607218Y81265D01*
X607350Y81411D01*
X607495Y81543D01*
X607653Y81660D01*
X607710Y81694D01*
X607744Y81751D01*
X607861Y81909D01*
X607993Y82054D01*
X608139Y82186D01*
X608297Y82303D01*
X608354Y82337D01*
X608388Y82394D01*
X608505Y82552D01*
X608637Y82698D01*
X608783Y82830D01*
X608940Y82947D01*
X609109Y83048D01*
X609286Y83132D01*
X609472Y83198D01*
X609662Y83246D01*
X609856Y83274D01*
X609864Y83275D01*
X609924Y83341D01*
X610069Y83473D01*
X610227Y83590D01*
X610396Y83691D01*
X610573Y83775D01*
X610758Y83841D01*
X610949Y83889D01*
X611143Y83918D01*
X611151Y83918D01*
X611211Y83984D01*
X611356Y84116D01*
X611514Y84234D01*
X611683Y84334D01*
X611860Y84419D01*
X612045Y84485D01*
X612236Y84532D01*
X612430Y84561D01*
X612438Y84562D01*
X612498Y84628D01*
X612643Y84760D01*
X612801Y84877D01*
X612970Y84978D01*
X613147Y85062D01*
X613332Y85128D01*
X613523Y85176D01*
X613717Y85205D01*
X613913Y85214D01*
X615020D01*
X615071Y85271D01*
X615217Y85403D01*
X615375Y85520D01*
X615543Y85621D01*
X615721Y85705D01*
X615906Y85772D01*
X616097Y85819D01*
X616291Y85848D01*
X616487Y85858D01*
X622922D01*
X623118Y85848D01*
D02*
G37*
G36*
X121268Y71108D02*
Y69076D01*
Y67044D01*
Y65012D01*
Y62980D01*
Y60948D01*
Y58916D01*
Y56884D01*
Y54852D01*
Y52820D01*
Y50788D01*
Y48756D01*
Y46724D01*
Y44692D01*
Y42660D01*
Y40628D01*
Y38596D01*
Y36564D01*
Y34532D01*
Y32500D01*
Y30468D01*
Y28436D01*
Y26404D01*
Y24372D01*
Y22340D01*
Y20308D01*
Y18276D01*
Y16244D01*
Y14212D01*
Y12180D01*
Y10148D01*
Y8116D01*
Y6084D01*
X54212D01*
Y8116D01*
Y10148D01*
Y12180D01*
Y14212D01*
Y16244D01*
Y18276D01*
Y20308D01*
Y22340D01*
Y24372D01*
Y26404D01*
Y28436D01*
Y30468D01*
Y32500D01*
Y34532D01*
Y36564D01*
Y38596D01*
Y40628D01*
Y42660D01*
Y44692D01*
Y46724D01*
Y48756D01*
Y50788D01*
Y52820D01*
Y54852D01*
Y56884D01*
Y58916D01*
Y60948D01*
Y62980D01*
Y65012D01*
Y67044D01*
Y69076D01*
Y71108D01*
Y73140D01*
X121268D01*
Y71108D01*
D02*
G37*
G36*
X135000Y6084D02*
X123435D01*
Y73140D01*
X135000D01*
Y6084D01*
D02*
G37*
%LPC*%
G36*
X92820Y65012D02*
X90788D01*
Y62980D01*
X92820D01*
Y65012D01*
D02*
G37*
G36*
X96884Y62980D02*
X94852D01*
Y60948D01*
X96884D01*
Y62980D01*
D02*
G37*
G36*
X88756Y65012D02*
X86724D01*
Y62980D01*
X88756D01*
Y60948D01*
Y58916D01*
X82660D01*
Y60948D01*
X86724D01*
Y62980D01*
X82660D01*
Y65012D01*
X78596D01*
Y62980D01*
Y60948D01*
Y58916D01*
X80628D01*
Y56884D01*
X78596D01*
Y54852D01*
X82660D01*
Y52820D01*
Y50788D01*
X84692D01*
Y52820D01*
X86724D01*
Y50788D01*
Y48756D01*
X90788D01*
Y46724D01*
X92820D01*
Y44692D01*
X90788D01*
Y42660D01*
X92820D01*
Y40628D01*
Y38596D01*
X88756D01*
Y40628D01*
Y42660D01*
X86724D01*
Y44692D01*
X88756D01*
Y46724D01*
X84692D01*
Y48756D01*
X82660D01*
Y50788D01*
X80628D01*
Y52820D01*
X78596D01*
Y50788D01*
X80628D01*
Y48756D01*
X68436D01*
Y46724D01*
X66404D01*
Y44692D01*
X62340D01*
Y42660D01*
X66404D01*
Y40628D01*
Y38596D01*
Y36564D01*
Y34532D01*
X64372D01*
Y32500D01*
Y30468D01*
X70468D01*
Y32500D01*
X68436D01*
Y34532D01*
Y36564D01*
X72500D01*
Y38596D01*
X70468D01*
Y40628D01*
Y42660D01*
X68436D01*
Y44692D01*
X70468D01*
Y46724D01*
X76564D01*
Y44692D01*
X80628D01*
Y42660D01*
X82660D01*
Y40628D01*
X84692D01*
Y38596D01*
X86724D01*
Y36564D01*
X88756D01*
Y34532D01*
X90788D01*
Y36564D01*
X92820D01*
Y34532D01*
X94852D01*
Y32500D01*
X92820D01*
Y30468D01*
X94852D01*
Y28436D01*
Y26404D01*
X92820D01*
Y28436D01*
Y30468D01*
X90788D01*
Y32500D01*
X88756D01*
Y30468D01*
X90788D01*
Y28436D01*
Y26404D01*
X88756D01*
Y24372D01*
X90788D01*
Y22340D01*
X92820D01*
Y20308D01*
X94852D01*
Y18276D01*
X98916D01*
Y16244D01*
Y14212D01*
X100948D01*
Y16244D01*
X105012D01*
Y14212D01*
X107044D01*
Y16244D01*
X105012D01*
Y18276D01*
X107044D01*
Y16244D01*
X111108D01*
Y14212D01*
X113140D01*
Y16244D01*
Y18276D01*
Y20308D01*
Y22340D01*
X109076D01*
Y20308D01*
X102980D01*
Y18276D01*
X98916D01*
Y20308D01*
X100948D01*
Y22340D01*
X105012D01*
Y24372D01*
Y26404D01*
Y28436D01*
Y30468D01*
Y32500D01*
X102980D01*
Y34532D01*
X98916D01*
Y36564D01*
X96884D01*
Y38596D01*
X94852D01*
Y40628D01*
X98916D01*
Y38596D01*
X100948D01*
Y40628D01*
X98916D01*
Y42660D01*
X94852D01*
Y44692D01*
Y46724D01*
Y48756D01*
X90788D01*
Y50788D01*
X88756D01*
Y52820D01*
X86724D01*
Y54852D01*
X82660D01*
Y56884D01*
X90788D01*
Y58916D01*
X94852D01*
Y56884D01*
Y54852D01*
Y52820D01*
Y50788D01*
Y48756D01*
X96884D01*
Y46724D01*
X98916D01*
Y48756D01*
X96884D01*
Y50788D01*
Y52820D01*
Y54852D01*
Y56884D01*
Y58916D01*
X94852D01*
Y60948D01*
X90788D01*
Y62980D01*
X88756D01*
Y65012D01*
D02*
G37*
G36*
X113140D02*
X98916D01*
Y62980D01*
Y60948D01*
Y58916D01*
Y56884D01*
Y54852D01*
Y52820D01*
Y50788D01*
X113140D01*
Y52820D01*
Y54852D01*
Y56884D01*
Y58916D01*
Y60948D01*
Y62980D01*
Y65012D01*
D02*
G37*
G36*
X90788Y54852D02*
X88756D01*
Y52820D01*
X90788D01*
Y50788D01*
X92820D01*
Y52820D01*
X90788D01*
Y54852D01*
D02*
G37*
G36*
X76564Y65012D02*
X62340D01*
Y62980D01*
Y60948D01*
Y58916D01*
Y56884D01*
Y54852D01*
Y52820D01*
Y50788D01*
X76564D01*
Y52820D01*
Y54852D01*
Y56884D01*
Y58916D01*
Y60948D01*
Y62980D01*
Y65012D01*
D02*
G37*
G36*
X113140Y48756D02*
X107044D01*
Y46724D01*
X105012D01*
Y48756D01*
X102980D01*
Y46724D01*
Y44692D01*
Y42660D01*
X105012D01*
Y40628D01*
X111108D01*
Y38596D01*
X113140D01*
Y40628D01*
Y42660D01*
Y44692D01*
X111108D01*
Y46724D01*
X113140D01*
Y48756D01*
D02*
G37*
G36*
X64372D02*
X62340D01*
Y46724D01*
X64372D01*
Y48756D01*
D02*
G37*
G36*
X102980Y42660D02*
X100948D01*
Y40628D01*
X102980D01*
Y42660D01*
D02*
G37*
G36*
X111108Y38596D02*
X109076D01*
Y36564D01*
X105012D01*
Y38596D01*
X102980D01*
Y36564D01*
Y34532D01*
X105012D01*
Y32500D01*
X107044D01*
Y30468D01*
Y28436D01*
X111108D01*
Y26404D01*
X113140D01*
Y28436D01*
X111108D01*
Y30468D01*
Y32500D01*
X109076D01*
Y34532D01*
X111108D01*
Y32500D01*
X113140D01*
Y34532D01*
Y36564D01*
X111108D01*
Y38596D01*
D02*
G37*
G36*
X84692D02*
X82660D01*
Y36564D01*
X84692D01*
Y38596D01*
D02*
G37*
G36*
X76564Y44692D02*
X74532D01*
Y42660D01*
X76564D01*
Y40628D01*
X72500D01*
Y38596D01*
X76564D01*
Y36564D01*
X80628D01*
Y34532D01*
X82660D01*
Y36564D01*
X80628D01*
Y38596D01*
X78596D01*
Y40628D01*
Y42660D01*
X76564D01*
Y44692D01*
D02*
G37*
G36*
Y36564D02*
X74532D01*
Y34532D01*
X76564D01*
Y36564D01*
D02*
G37*
G36*
X86724Y34532D02*
X84692D01*
Y32500D01*
X80628D01*
Y34532D01*
X78596D01*
Y32500D01*
X80628D01*
Y30468D01*
X82660D01*
Y28436D01*
Y26404D01*
X84692D01*
Y24372D01*
X80628D01*
Y26404D01*
Y28436D01*
Y30468D01*
X78596D01*
Y28436D01*
Y26404D01*
Y24372D01*
Y22340D01*
Y20308D01*
X80628D01*
Y18276D01*
Y16244D01*
X78596D01*
Y14212D01*
X82660D01*
Y16244D01*
X84692D01*
Y14212D01*
X86724D01*
Y16244D01*
X84692D01*
Y18276D01*
X86724D01*
Y16244D01*
X88756D01*
Y18276D01*
X92820D01*
Y20308D01*
X86724D01*
Y22340D01*
X88756D01*
Y24372D01*
X86724D01*
Y26404D01*
Y28436D01*
X84692D01*
Y30468D01*
X86724D01*
Y32500D01*
Y34532D01*
D02*
G37*
G36*
X76564Y32500D02*
X72500D01*
Y30468D01*
X76564D01*
Y32500D01*
D02*
G37*
G36*
X96884Y16244D02*
X92820D01*
Y14212D01*
X96884D01*
Y16244D01*
D02*
G37*
G36*
X76564Y28436D02*
X62340D01*
Y26404D01*
Y24372D01*
Y22340D01*
Y20308D01*
Y18276D01*
Y16244D01*
Y14212D01*
X76564D01*
Y16244D01*
Y18276D01*
Y20308D01*
Y22340D01*
Y24372D01*
Y26404D01*
Y28436D01*
D02*
G37*
%LPD*%
G36*
X84692Y44692D02*
Y42660D01*
X86724D01*
Y40628D01*
X84692D01*
Y42660D01*
X82660D01*
Y44692D01*
Y46724D01*
X84692D01*
Y44692D01*
D02*
G37*
G36*
X102980Y28436D02*
Y26404D01*
Y24372D01*
X96884D01*
Y26404D01*
Y28436D01*
Y30468D01*
X102980D01*
Y28436D01*
D02*
G37*
%LPC*%
G36*
X100948D02*
X98916D01*
Y26404D01*
X100948D01*
Y28436D01*
D02*
G37*
%LPD*%
G36*
X111108Y60948D02*
Y58916D01*
Y56884D01*
Y54852D01*
Y52820D01*
X100948D01*
Y54852D01*
Y56884D01*
Y58916D01*
Y60948D01*
Y62980D01*
X111108D01*
Y60948D01*
D02*
G37*
%LPC*%
G36*
X109076D02*
X102980D01*
Y58916D01*
Y56884D01*
Y54852D01*
X109076D01*
Y56884D01*
Y58916D01*
Y60948D01*
D02*
G37*
%LPD*%
G36*
X74532D02*
Y58916D01*
Y56884D01*
Y54852D01*
Y52820D01*
X64372D01*
Y54852D01*
Y56884D01*
Y58916D01*
Y60948D01*
Y62980D01*
X74532D01*
Y60948D01*
D02*
G37*
%LPC*%
G36*
X72500D02*
X66404D01*
Y58916D01*
Y56884D01*
Y54852D01*
X72500D01*
Y56884D01*
Y58916D01*
Y60948D01*
D02*
G37*
%LPD*%
G36*
X74532Y24372D02*
Y22340D01*
Y20308D01*
Y18276D01*
Y16244D01*
X64372D01*
Y18276D01*
Y20308D01*
Y22340D01*
Y24372D01*
Y26404D01*
X74532D01*
Y24372D01*
D02*
G37*
%LPC*%
G36*
X72500D02*
X66404D01*
Y22340D01*
Y20308D01*
Y18276D01*
X72500D01*
Y20308D01*
Y22340D01*
Y24372D01*
D02*
G37*
G36*
X131434Y63592D02*
X124652D01*
D01*
X127553D01*
Y59294D01*
X127544D01*
X127524D01*
X127476D01*
X127427Y59304D01*
X127359Y59314D01*
X127282Y59323D01*
X127117Y59352D01*
X126923Y59401D01*
X126719Y59469D01*
X126525Y59566D01*
X126350Y59702D01*
Y59711D01*
X126331Y59721D01*
X126282Y59770D01*
X126214Y59857D01*
X126146Y59973D01*
X126069Y60119D01*
X126001Y60293D01*
X125952Y60487D01*
X125943Y60594D01*
X125933Y60701D01*
Y60769D01*
X125943Y60837D01*
X125962Y60934D01*
X125982Y61041D01*
X126020Y61147D01*
X126079Y61264D01*
X126146Y61371D01*
X126156Y61380D01*
X126185Y61419D01*
X126243Y61467D01*
X126321Y61526D01*
X126418Y61603D01*
X126544Y61671D01*
X126690Y61739D01*
X126864Y61797D01*
X126573Y63505D01*
X126564D01*
X126535Y63486D01*
X126486Y63466D01*
X126418Y63447D01*
X126341Y63408D01*
X126253Y63360D01*
X126146Y63311D01*
X126040Y63253D01*
X125807Y63107D01*
X125574Y62923D01*
X125341Y62709D01*
X125234Y62583D01*
X125137Y62457D01*
X125128Y62448D01*
X125118Y62428D01*
X125089Y62389D01*
X125060Y62331D01*
X125021Y62263D01*
X124982Y62176D01*
X124943Y62079D01*
X124895Y61972D01*
X124846Y61846D01*
X124807Y61710D01*
X124769Y61564D01*
X124730Y61409D01*
X124701Y61244D01*
X124672Y61060D01*
X124662Y60876D01*
X124652Y60682D01*
Y60837D01*
Y60604D01*
X124662Y60517D01*
X124672Y60400D01*
X124681Y60264D01*
X124710Y60099D01*
X124740Y59925D01*
X124788Y59731D01*
X124846Y59527D01*
X124924Y59323D01*
X125011Y59119D01*
X125118Y58906D01*
X125244Y58712D01*
X125390Y58518D01*
X125555Y58343D01*
X125749Y58178D01*
X125758Y58169D01*
X125787Y58149D01*
X125836Y58120D01*
X125914Y58081D01*
X126001Y58033D01*
X126098Y57975D01*
X126224Y57916D01*
X126360Y57858D01*
X126515Y57800D01*
X126690Y57742D01*
X126874Y57683D01*
X127068Y57635D01*
X127282Y57596D01*
X127505Y57567D01*
X127747Y57548D01*
X127990Y57538D01*
X128058D01*
X128145Y57548D01*
X128252D01*
X128388Y57567D01*
X128553Y57586D01*
X128718Y57606D01*
X128912Y57645D01*
X129106Y57683D01*
X129310Y57742D01*
X129523Y57810D01*
X129736Y57887D01*
X129940Y57984D01*
X130144Y58101D01*
X130338Y58227D01*
X130513Y58372D01*
X130522Y58382D01*
X130552Y58411D01*
X130600Y58460D01*
X130658Y58528D01*
X130726Y58605D01*
X130804Y58712D01*
X130891Y58828D01*
X130978Y58955D01*
X131056Y59100D01*
X131143Y59265D01*
X131221Y59440D01*
X131289Y59634D01*
X131347Y59828D01*
X131396Y60041D01*
X131425Y60274D01*
X131434Y60507D01*
Y60575D01*
X131425Y60643D01*
X131415Y60750D01*
X131405Y60866D01*
X131386Y61012D01*
X131357Y61167D01*
X131318Y61332D01*
X131260Y61516D01*
X131202Y61700D01*
X131124Y61885D01*
X131027Y62079D01*
X130920Y62263D01*
X130794Y62448D01*
X130639Y62622D01*
X130474Y62787D01*
X130464Y62797D01*
X130425Y62826D01*
X130377Y62865D01*
X130299Y62913D01*
X130192Y62981D01*
X130066Y63049D01*
X129921Y63127D01*
X129756Y63204D01*
X129562Y63282D01*
X129339Y63350D01*
X129106Y63418D01*
X128844Y63476D01*
X128553Y63524D01*
X128242Y63563D01*
X127912Y63592D01*
X131434D01*
D02*
G37*
G36*
Y57295D02*
X124798D01*
D01*
X131434D01*
D02*
G37*
G36*
X131105D02*
X129610Y56762D01*
X129620Y56742D01*
X129659Y56684D01*
X129698Y56606D01*
X129756Y56500D01*
X129804Y56374D01*
X129853Y56238D01*
X129882Y56102D01*
X129892Y55956D01*
Y55898D01*
X129882Y55830D01*
X129863Y55743D01*
X129843Y55646D01*
X129804Y55549D01*
X129756Y55442D01*
X129688Y55345D01*
X129678Y55335D01*
X129649Y55306D01*
X129601Y55258D01*
X129523Y55199D01*
X129426Y55141D01*
X129300Y55073D01*
X129154Y55005D01*
X128970Y54947D01*
X128960D01*
X128941Y54938D01*
X128912D01*
X128863Y54928D01*
X128805Y54918D01*
X128718Y54908D01*
X128621Y54889D01*
X128504Y54879D01*
X128368Y54870D01*
X128213Y54850D01*
X128039Y54840D01*
X127835Y54831D01*
X127612Y54821D01*
X127369D01*
X127097Y54811D01*
X126797D01*
X124798D01*
Y53094D01*
X131289D01*
Y54685D01*
X130357D01*
X130367Y54695D01*
X130387Y54705D01*
X130416Y54724D01*
X130464Y54753D01*
X130581Y54831D01*
X130716Y54928D01*
X130862Y55044D01*
X130998Y55161D01*
X131124Y55287D01*
X131182Y55355D01*
X131221Y55413D01*
X131231Y55432D01*
X131250Y55471D01*
X131289Y55539D01*
X131328Y55626D01*
X131367Y55743D01*
X131405Y55869D01*
X131425Y56005D01*
X131434Y56160D01*
Y56257D01*
X131425Y56315D01*
X131415Y56374D01*
X131396Y56519D01*
X131357Y56694D01*
X131299Y56888D01*
X131211Y57092D01*
X131105Y57295D01*
D02*
G37*
G36*
X131434Y51852D02*
X124652D01*
D01*
X131434D01*
D02*
G37*
G36*
D02*
Y48941D01*
X131425Y49029D01*
Y49145D01*
X131415Y49261D01*
X131396Y49397D01*
X131367Y49679D01*
X131318Y49960D01*
X131250Y50232D01*
X131202Y50348D01*
X131153Y50465D01*
Y50474D01*
X131143Y50494D01*
X131124Y50523D01*
X131105Y50552D01*
X131046Y50659D01*
X130969Y50775D01*
X130862Y50911D01*
X130746Y51037D01*
X130610Y51163D01*
X130464Y51260D01*
X130445Y51270D01*
X130416Y51280D01*
X130387Y51299D01*
X130338Y51318D01*
X130270Y51338D01*
X130202Y51357D01*
X130115Y51377D01*
X130018Y51396D01*
X129911Y51415D01*
X129785Y51435D01*
X129639Y51454D01*
X129484Y51474D01*
X129319Y51483D01*
X129135Y51493D01*
X128931D01*
X126923Y51464D01*
X126913D01*
X126884D01*
X126845D01*
X126787D01*
X126709D01*
X126632D01*
X126447Y51474D01*
X126243Y51483D01*
X126030Y51493D01*
X125836Y51512D01*
X125739Y51532D01*
X125661Y51542D01*
X125642D01*
X125593Y51561D01*
X125506Y51580D01*
X125399Y51610D01*
X125273Y51648D01*
X125128Y51707D01*
X124963Y51774D01*
X124798Y51852D01*
Y50154D01*
X124807D01*
X124827Y50144D01*
X124866Y50125D01*
X124924Y50106D01*
X124992Y50086D01*
X125079Y50047D01*
X125186Y50018D01*
X125302Y49979D01*
X125312D01*
X125331Y49970D01*
X125390Y49960D01*
X125457Y49941D01*
X125487Y49931D01*
X125506Y49921D01*
X125487Y49902D01*
X125438Y49844D01*
X125360Y49756D01*
X125264Y49640D01*
X125167Y49504D01*
X125060Y49339D01*
X124953Y49164D01*
X124866Y48980D01*
Y48970D01*
X124856Y48961D01*
X124846Y48931D01*
X124837Y48893D01*
X124798Y48796D01*
X124759Y48660D01*
X124720Y48505D01*
X124681Y48320D01*
X124662Y48126D01*
X124652Y47913D01*
Y47816D01*
X124662Y47748D01*
X124672Y47660D01*
X124681Y47563D01*
X124701Y47457D01*
X124720Y47340D01*
X124778Y47088D01*
X124875Y46826D01*
X124943Y46690D01*
X125011Y46564D01*
X125089Y46448D01*
X125186Y46331D01*
X125196Y46321D01*
X125215Y46302D01*
X125244Y46283D01*
X125283Y46244D01*
X125341Y46195D01*
X125399Y46147D01*
X125477Y46098D01*
X125564Y46050D01*
X125661Y45992D01*
X125758Y45943D01*
X126001Y45846D01*
X126127Y45807D01*
X126263Y45788D01*
X126408Y45768D01*
X126564Y45759D01*
X126661D01*
X126758Y45768D01*
X126894Y45788D01*
X127049Y45827D01*
X127214Y45865D01*
X127379Y45933D01*
X127544Y46021D01*
X127553D01*
X127563Y46030D01*
X127612Y46069D01*
X127689Y46127D01*
X127786Y46215D01*
X127893Y46312D01*
X128000Y46438D01*
X128106Y46583D01*
X128194Y46748D01*
Y46758D01*
X128203Y46768D01*
X128213Y46797D01*
X128232Y46836D01*
X128252Y46884D01*
X128281Y46942D01*
X128301Y47020D01*
X128330Y47098D01*
X128359Y47185D01*
X128398Y47292D01*
X128427Y47408D01*
X128465Y47525D01*
X128495Y47660D01*
X128533Y47806D01*
X128572Y47951D01*
X128601Y48116D01*
Y48126D01*
X128611Y48165D01*
X128621Y48233D01*
X128640Y48310D01*
X128659Y48408D01*
X128679Y48524D01*
X128708Y48650D01*
X128737Y48786D01*
X128805Y49058D01*
X128873Y49339D01*
X128912Y49465D01*
X128951Y49591D01*
X128989Y49698D01*
X129028Y49795D01*
X129193D01*
X129203D01*
X129213D01*
X129280D01*
X129368Y49785D01*
X129474Y49766D01*
X129591Y49737D01*
X129707Y49688D01*
X129824Y49630D01*
X129911Y49543D01*
X129921Y49533D01*
X129940Y49494D01*
X129979Y49426D01*
X130018Y49339D01*
X130057Y49213D01*
X130096Y49048D01*
X130105Y48951D01*
X130115Y48854D01*
X130125Y48737D01*
Y48534D01*
X130115Y48446D01*
X130105Y48349D01*
X130076Y48233D01*
X130047Y48107D01*
X129998Y47990D01*
X129940Y47884D01*
X129930Y47874D01*
X129901Y47845D01*
X129863Y47796D01*
X129795Y47738D01*
X129707Y47670D01*
X129591Y47602D01*
X129455Y47534D01*
X129300Y47476D01*
X129581Y45933D01*
X129591D01*
X129620Y45943D01*
X129669Y45962D01*
X129736Y45982D01*
X129814Y46011D01*
X129901Y46050D01*
X130105Y46147D01*
X130338Y46273D01*
X130571Y46428D01*
X130784Y46613D01*
X130891Y46719D01*
X130978Y46836D01*
X130988Y46845D01*
X130998Y46865D01*
X131017Y46904D01*
X131046Y46952D01*
X131085Y47020D01*
X131124Y47107D01*
X131163Y47204D01*
X131211Y47311D01*
X131250Y47447D01*
X131289Y47583D01*
X131328Y47738D01*
X131367Y47913D01*
X131396Y48097D01*
X131415Y48301D01*
X131434Y48514D01*
Y45759D01*
D01*
Y51852D01*
D02*
G37*
G36*
Y44497D02*
X124798D01*
Y42780D01*
X128504D01*
X128514D01*
X128543D01*
X128591D01*
X128659D01*
X128737Y42770D01*
X128824D01*
X129028Y42761D01*
X129232Y42731D01*
X129445Y42702D01*
X129533Y42683D01*
X129620Y42654D01*
X129698Y42625D01*
X129756Y42596D01*
X129775Y42586D01*
X129814Y42547D01*
X129872Y42498D01*
X129940Y42421D01*
X130008Y42314D01*
X130066Y42188D01*
X130105Y42042D01*
X130125Y41868D01*
Y41810D01*
X130115Y41742D01*
X130096Y41645D01*
X130066Y41548D01*
X130028Y41431D01*
X129979Y41315D01*
X129901Y41189D01*
X129892Y41179D01*
X129863Y41140D01*
X129804Y41082D01*
X129736Y41014D01*
X129649Y40936D01*
X129533Y40859D01*
X129407Y40791D01*
X129251Y40733D01*
X129232Y40723D01*
X129203D01*
X129174Y40713D01*
X129125Y40704D01*
X129067Y40694D01*
X129009Y40674D01*
X128931Y40665D01*
X128844Y40655D01*
X128737Y40636D01*
X128630Y40626D01*
X128514Y40616D01*
X128378Y40606D01*
X128232D01*
X128077Y40597D01*
X127912D01*
X124798D01*
D01*
Y38879D01*
X128349D01*
X128359D01*
X128388D01*
X128436D01*
X128504D01*
X128582D01*
X128669D01*
X128863Y38870D01*
X129067Y38860D01*
X129271Y38841D01*
X129358Y38831D01*
X129445Y38812D01*
X129513Y38802D01*
X129572Y38782D01*
X129581D01*
X129620Y38763D01*
X129669Y38744D01*
X129727Y38714D01*
X129863Y38627D01*
X129930Y38569D01*
X129989Y38501D01*
X129998Y38491D01*
X130008Y38462D01*
X130028Y38423D01*
X130057Y38365D01*
X130086Y38287D01*
X130105Y38200D01*
X130115Y38094D01*
X130125Y37977D01*
Y37909D01*
X130115Y37831D01*
X130096Y37734D01*
X130066Y37628D01*
X130028Y37511D01*
X129979Y37385D01*
X129901Y37259D01*
X129892Y37249D01*
X129863Y37211D01*
X129814Y37152D01*
X129746Y37084D01*
X129659Y37016D01*
X129552Y36939D01*
X129426Y36871D01*
X129280Y36813D01*
X129261Y36803D01*
X129242D01*
X129203Y36793D01*
X129164Y36784D01*
X129106Y36774D01*
X129038Y36755D01*
X128970Y36745D01*
X128883Y36735D01*
X128786Y36716D01*
X128669Y36706D01*
X128553Y36696D01*
X128417Y36687D01*
X128271D01*
X128116Y36677D01*
X127951D01*
X124798D01*
Y34959D01*
X131289D01*
Y36541D01*
X130396D01*
X130406Y36551D01*
X130445Y36580D01*
X130493Y36628D01*
X130561Y36696D01*
X130639Y36774D01*
X130726Y36871D01*
X130823Y36987D01*
X130920Y37113D01*
X131017Y37249D01*
X131105Y37405D01*
X131192Y37569D01*
X131270Y37744D01*
X131337Y37938D01*
X131386Y38132D01*
X131425Y38346D01*
X131434Y38559D01*
Y38666D01*
X131425Y38714D01*
Y38782D01*
X131405Y38928D01*
X131367Y39093D01*
X131328Y39277D01*
X131260Y39462D01*
X131173Y39636D01*
Y39646D01*
X131163Y39656D01*
X131124Y39714D01*
X131066Y39801D01*
X130978Y39908D01*
X130872Y40024D01*
X130736Y40150D01*
X130581Y40277D01*
X130396Y40393D01*
X130406Y40403D01*
X130416Y40412D01*
X130445Y40432D01*
X130484Y40471D01*
X130571Y40558D01*
X130687Y40665D01*
X130814Y40810D01*
X130949Y40965D01*
X131066Y41130D01*
X131173Y41315D01*
Y41325D01*
X131182Y41334D01*
X131202Y41363D01*
X131211Y41402D01*
X131260Y41499D01*
X131308Y41635D01*
X131347Y41790D01*
X131396Y41975D01*
X131425Y42169D01*
X131434Y42372D01*
Y42625D01*
Y42489D01*
X131425Y42557D01*
X131415Y42625D01*
X131396Y42790D01*
X131367Y42974D01*
X131308Y43178D01*
X131240Y43382D01*
X131143Y43576D01*
Y43585D01*
X131134Y43595D01*
X131085Y43653D01*
X131017Y43741D01*
X130930Y43857D01*
X130804Y43973D01*
X130658Y44099D01*
X130484Y44216D01*
X130289Y44313D01*
X130270Y44323D01*
X130241Y44332D01*
X130212Y44342D01*
X130163Y44352D01*
X130105Y44371D01*
X130047Y44391D01*
X129969Y44410D01*
X129872Y44420D01*
X129775Y44439D01*
X129669Y44458D01*
X129542Y44468D01*
X129416Y44478D01*
X129271Y44488D01*
X129106Y44497D01*
X131434D01*
D02*
G37*
G36*
X133588Y34038D02*
X124652D01*
D01*
X124904D01*
Y34028D01*
X124895Y34009D01*
X124885Y33979D01*
X124866Y33931D01*
X124846Y33873D01*
X124827Y33805D01*
X124798Y33727D01*
X124778Y33640D01*
X124730Y33446D01*
X124691Y33213D01*
X124662Y32951D01*
X124652Y32679D01*
Y32728D01*
Y32602D01*
X124662Y32514D01*
X124672Y32398D01*
X124691Y32272D01*
X124720Y32136D01*
X124759Y31990D01*
X124807Y31845D01*
X124817Y31825D01*
X124837Y31787D01*
X124866Y31719D01*
X124914Y31641D01*
X124972Y31554D01*
X125040Y31457D01*
X125118Y31379D01*
X125205Y31302D01*
X125215Y31292D01*
X125254Y31272D01*
X125312Y31243D01*
X125380Y31205D01*
X125477Y31166D01*
X125593Y31127D01*
X125729Y31088D01*
X125875Y31059D01*
X125894D01*
X125933Y31049D01*
X125972D01*
X126020Y31040D01*
X126079D01*
X126137D01*
X126214Y31030D01*
X126302D01*
X126399Y31020D01*
X126515D01*
X126641Y31010D01*
X126777D01*
X126923D01*
X127088D01*
X129921D01*
Y30224D01*
X131289D01*
Y31010D01*
X132579D01*
X133588Y32728D01*
X131289D01*
Y33902D01*
X129921D01*
Y32728D01*
X127301D01*
X127291D01*
X127262D01*
X127223D01*
X127175D01*
X127117D01*
X127039D01*
X126884D01*
X126729Y32738D01*
X126573D01*
X126505Y32747D01*
X126447D01*
X126399Y32757D01*
X126370D01*
X126360D01*
X126350Y32767D01*
X126292Y32786D01*
X126224Y32835D01*
X126156Y32903D01*
Y32912D01*
X126146Y32922D01*
X126137Y32951D01*
X126117Y32990D01*
X126088Y33077D01*
X126079Y33194D01*
Y33242D01*
X126088Y33291D01*
X126098Y33368D01*
X126117Y33465D01*
X126146Y33591D01*
X126185Y33727D01*
X126234Y33883D01*
X124904Y34038D01*
X133588D01*
D01*
D02*
G37*
G36*
X133753Y29177D02*
X124798D01*
Y27459D01*
X133753D01*
Y29177D01*
D02*
G37*
G36*
X133783Y24519D02*
X124798D01*
Y20590D01*
Y22802D01*
X131250D01*
X131240Y22792D01*
X131211Y22763D01*
X131163Y22705D01*
X131105Y22637D01*
X131037Y22550D01*
X130949Y22433D01*
X130852Y22317D01*
X130755Y22171D01*
X130648Y22016D01*
X130542Y21851D01*
X130435Y21667D01*
X130328Y21473D01*
X130222Y21269D01*
X130125Y21046D01*
X130037Y20823D01*
X129950Y20590D01*
X131512D01*
Y20599D01*
X131522Y20619D01*
X131531Y20657D01*
X131551Y20706D01*
X131580Y20774D01*
X131609Y20842D01*
X131648Y20929D01*
X131696Y21026D01*
X131803Y21240D01*
X131949Y21482D01*
X132123Y21754D01*
X132337Y22045D01*
X132346Y22055D01*
X132366Y22084D01*
X132395Y22123D01*
X132444Y22171D01*
X132502Y22239D01*
X132579Y22307D01*
X132657Y22385D01*
X132754Y22472D01*
X132968Y22656D01*
X133210Y22831D01*
X133482Y22996D01*
X133627Y23064D01*
X133783Y23122D01*
Y24519D01*
D02*
G37*
G36*
X133588Y19445D02*
X124652D01*
D01*
X124904D01*
Y19435D01*
X124895Y19416D01*
X124885Y19387D01*
X124866Y19338D01*
X124846Y19280D01*
X124827Y19212D01*
X124798Y19134D01*
X124778Y19047D01*
X124730Y18853D01*
X124691Y18620D01*
X124662Y18358D01*
X124652Y18086D01*
Y18135D01*
Y18009D01*
X124662Y17921D01*
X124672Y17805D01*
X124691Y17679D01*
X124720Y17543D01*
X124759Y17397D01*
X124807Y17252D01*
X124817Y17233D01*
X124837Y17194D01*
X124866Y17126D01*
X124914Y17048D01*
X124972Y16961D01*
X125040Y16864D01*
X125118Y16786D01*
X125205Y16709D01*
X125215Y16699D01*
X125254Y16679D01*
X125312Y16650D01*
X125380Y16611D01*
X125477Y16573D01*
X125593Y16534D01*
X125729Y16495D01*
X125875Y16466D01*
X125894D01*
X125933Y16456D01*
X125972D01*
X126020Y16446D01*
X126079D01*
X126137D01*
X126214Y16437D01*
X126302D01*
X126399Y16427D01*
X126515D01*
X126641Y16417D01*
X126777D01*
X126923D01*
X127088D01*
X129921D01*
Y15632D01*
X131289D01*
Y16417D01*
X132579D01*
X133588Y18135D01*
X131289D01*
Y19309D01*
X129921D01*
Y18135D01*
X127301D01*
X127291D01*
X127262D01*
X127223D01*
X127175D01*
X127117D01*
X127039D01*
X126884D01*
X126729Y18145D01*
X126573D01*
X126505Y18154D01*
X126447D01*
X126399Y18164D01*
X126370D01*
X126360D01*
X126350Y18174D01*
X126292Y18193D01*
X126224Y18241D01*
X126156Y18310D01*
Y18319D01*
X126146Y18329D01*
X126137Y18358D01*
X126117Y18397D01*
X126088Y18484D01*
X126079Y18600D01*
Y18649D01*
X126088Y18698D01*
X126098Y18775D01*
X126117Y18872D01*
X126146Y18998D01*
X126185Y19134D01*
X126234Y19289D01*
X124904Y19445D01*
X133588D01*
D01*
D02*
G37*
%LPD*%
G36*
X128727Y61875D02*
X128786Y61865D01*
X128854Y61856D01*
X129018Y61827D01*
X129203Y61778D01*
X129387Y61710D01*
X129572Y61623D01*
X129727Y61497D01*
X129746Y61477D01*
X129785Y61429D01*
X129853Y61351D01*
X129930Y61244D01*
X129998Y61118D01*
X130066Y60963D01*
X130105Y60788D01*
X130125Y60604D01*
Y60546D01*
X130115Y60507D01*
X130105Y60410D01*
X130076Y60274D01*
X130028Y60128D01*
X129950Y59973D01*
X129843Y59828D01*
X129785Y59750D01*
X129707Y59682D01*
X129688Y59663D01*
X129630Y59624D01*
X129542Y59566D01*
X129416Y59498D01*
X129261Y59430D01*
X129067Y59372D01*
X128854Y59333D01*
X128601Y59323D01*
Y61885D01*
X128611D01*
X128630D01*
X128669D01*
X128727Y61875D01*
D02*
G37*
G36*
X127903Y49776D02*
X127893Y49727D01*
X127864Y49650D01*
X127835Y49533D01*
X127796Y49387D01*
X127747Y49203D01*
X127699Y48990D01*
X127641Y48737D01*
Y48728D01*
X127631Y48708D01*
Y48670D01*
X127612Y48621D01*
X127582Y48505D01*
X127553Y48359D01*
X127505Y48204D01*
X127456Y48049D01*
X127408Y47913D01*
X127379Y47854D01*
X127350Y47806D01*
X127340Y47796D01*
X127311Y47758D01*
X127253Y47699D01*
X127185Y47641D01*
X127097Y47583D01*
X126991Y47525D01*
X126874Y47486D01*
X126748Y47476D01*
X126729D01*
X126690D01*
X126622Y47486D01*
X126535Y47505D01*
X126438Y47544D01*
X126331Y47583D01*
X126234Y47651D01*
X126127Y47738D01*
X126117Y47748D01*
X126088Y47787D01*
X126040Y47845D01*
X126001Y47922D01*
X125952Y48029D01*
X125904Y48146D01*
X125875Y48281D01*
X125865Y48427D01*
Y48446D01*
X125875Y48505D01*
X125885Y48592D01*
X125904Y48708D01*
X125943Y48844D01*
X125991Y48999D01*
X126069Y49155D01*
X126166Y49310D01*
X126175Y49320D01*
X126205Y49358D01*
X126253Y49417D01*
X126321Y49475D01*
X126408Y49552D01*
X126505Y49620D01*
X126612Y49679D01*
X126729Y49727D01*
X126738D01*
X126777Y49737D01*
X126835Y49746D01*
X126913Y49766D01*
X127029Y49776D01*
X127175Y49785D01*
X127350Y49795D01*
X127563D01*
X127912D01*
X127903Y49776D01*
D02*
G37*
D21*
X150000Y112000D02*
D03*
Y128000D02*
D03*
D41*
X193000Y252500D02*
D03*
X113000D02*
D03*
D42*
X44700Y111900D02*
D03*
Y137300D02*
D03*
X44700Y162700D02*
D03*
X44700Y188100D02*
D03*
X19300Y137300D02*
D03*
Y162700D02*
D03*
Y111900D02*
D03*
D43*
Y188100D02*
D03*
D44*
X665000Y158900D02*
D03*
Y101100D02*
D03*
X654100Y210990D02*
D03*
Y231310D02*
D03*
X704900Y221150D02*
D03*
D45*
X691997Y272000D02*
D03*
Y28000D02*
D03*
X27996D02*
D03*
Y272000D02*
D03*
D46*
X542500Y170000D02*
D03*
X655000Y197500D02*
D03*
X405000Y122500D02*
D03*
X490000Y275000D02*
D03*
X352500Y142500D02*
D03*
Y185000D02*
D03*
D85*
X185000Y146500D02*
D03*
X174000D02*
D03*
X163000D02*
D03*
X152000D02*
D03*
X141000D02*
D03*
X130000D02*
D03*
X119000D02*
D03*
X108000D02*
D03*
X97000D02*
D03*
D86*
X82500Y152500D02*
D03*
X231000D02*
D03*
D87*
X85000Y248500D02*
D03*
X240000D02*
D03*
D88*
X666800Y227500D02*
D03*
X692200Y214800D02*
D03*
Y227500D02*
D03*
X679500Y214800D02*
D03*
X666800D02*
D03*
X679500Y227500D02*
D03*
M02*
