G04*
G04 #@! TF.GenerationSoftware,Altium Limited,Altium Designer,23.9.2 (47)*
G04*
G04 Layer_Color=8388736*
%FSLAX44Y44*%
%MOMM*%
G71*
G04*
G04 #@! TF.SameCoordinates,DB526BF8-E997-4231-925B-FFD4C5E6FE8C*
G04*
G04*
G04 #@! TF.FilePolarity,Negative*
G04*
G01*
G75*
G04:AMPARAMS|DCode=10|XSize=0.55mm|YSize=0.35mm|CornerRadius=0.0625mm|HoleSize=0mm|Usage=FLASHONLY|Rotation=0.000|XOffset=0mm|YOffset=0mm|HoleType=Round|Shape=RoundedRectangle|*
%AMROUNDEDRECTD10*
21,1,0.5500,0.2250,0,0,0.0*
21,1,0.4250,0.3500,0,0,0.0*
1,1,0.1250,0.2125,-0.1125*
1,1,0.1250,-0.2125,-0.1125*
1,1,0.1250,-0.2125,0.1125*
1,1,0.1250,0.2125,0.1125*
%
%ADD10ROUNDEDRECTD10*%
G04:AMPARAMS|DCode=11|XSize=0.55mm|YSize=0.45mm|CornerRadius=0.075mm|HoleSize=0mm|Usage=FLASHONLY|Rotation=0.000|XOffset=0mm|YOffset=0mm|HoleType=Round|Shape=RoundedRectangle|*
%AMROUNDEDRECTD11*
21,1,0.5500,0.3000,0,0,0.0*
21,1,0.4000,0.4500,0,0,0.0*
1,1,0.1500,0.2000,-0.1500*
1,1,0.1500,-0.2000,-0.1500*
1,1,0.1500,-0.2000,0.1500*
1,1,0.1500,0.2000,0.1500*
%
%ADD11ROUNDEDRECTD11*%
G04:AMPARAMS|DCode=12|XSize=0.55mm|YSize=0.35mm|CornerRadius=0.0625mm|HoleSize=0mm|Usage=FLASHONLY|Rotation=270.000|XOffset=0mm|YOffset=0mm|HoleType=Round|Shape=RoundedRectangle|*
%AMROUNDEDRECTD12*
21,1,0.5500,0.2250,0,0,270.0*
21,1,0.4250,0.3500,0,0,270.0*
1,1,0.1250,-0.1125,-0.2125*
1,1,0.1250,-0.1125,0.2125*
1,1,0.1250,0.1125,0.2125*
1,1,0.1250,0.1125,-0.2125*
%
%ADD12ROUNDEDRECTD12*%
G04:AMPARAMS|DCode=13|XSize=0.55mm|YSize=0.45mm|CornerRadius=0.075mm|HoleSize=0mm|Usage=FLASHONLY|Rotation=270.000|XOffset=0mm|YOffset=0mm|HoleType=Round|Shape=RoundedRectangle|*
%AMROUNDEDRECTD13*
21,1,0.5500,0.3000,0,0,270.0*
21,1,0.4000,0.4500,0,0,270.0*
1,1,0.1500,-0.1500,-0.2000*
1,1,0.1500,-0.1500,0.2000*
1,1,0.1500,0.1500,0.2000*
1,1,0.1500,0.1500,-0.2000*
%
%ADD13ROUNDEDRECTD13*%
G04:AMPARAMS|DCode=14|XSize=1.1mm|YSize=1.05mm|CornerRadius=0.185mm|HoleSize=0mm|Usage=FLASHONLY|Rotation=90.000|XOffset=0mm|YOffset=0mm|HoleType=Round|Shape=RoundedRectangle|*
%AMROUNDEDRECTD14*
21,1,1.1000,0.6800,0,0,90.0*
21,1,0.7300,1.0500,0,0,90.0*
1,1,0.3700,0.3400,0.3650*
1,1,0.3700,0.3400,-0.3650*
1,1,0.3700,-0.3400,-0.3650*
1,1,0.3700,-0.3400,0.3650*
%
%ADD14ROUNDEDRECTD14*%
G04:AMPARAMS|DCode=15|XSize=1.3mm|YSize=0.75mm|CornerRadius=0.225mm|HoleSize=0mm|Usage=FLASHONLY|Rotation=0.000|XOffset=0mm|YOffset=0mm|HoleType=Round|Shape=RoundedRectangle|*
%AMROUNDEDRECTD15*
21,1,1.3000,0.3000,0,0,0.0*
21,1,0.8500,0.7500,0,0,0.0*
1,1,0.4500,0.4250,-0.1500*
1,1,0.4500,-0.4250,-0.1500*
1,1,0.4500,-0.4250,0.1500*
1,1,0.4500,0.4250,0.1500*
%
%ADD15ROUNDEDRECTD15*%
G04:AMPARAMS|DCode=16|XSize=1.15mm|YSize=1.1mm|CornerRadius=0.19mm|HoleSize=0mm|Usage=FLASHONLY|Rotation=270.000|XOffset=0mm|YOffset=0mm|HoleType=Round|Shape=RoundedRectangle|*
%AMROUNDEDRECTD16*
21,1,1.1500,0.7200,0,0,270.0*
21,1,0.7700,1.1000,0,0,270.0*
1,1,0.3800,-0.3600,-0.3850*
1,1,0.3800,-0.3600,0.3850*
1,1,0.3800,0.3600,0.3850*
1,1,0.3800,0.3600,-0.3850*
%
%ADD16ROUNDEDRECTD16*%
G04:AMPARAMS|DCode=17|XSize=1.15mm|YSize=1.1mm|CornerRadius=0.19mm|HoleSize=0mm|Usage=FLASHONLY|Rotation=0.000|XOffset=0mm|YOffset=0mm|HoleType=Round|Shape=RoundedRectangle|*
%AMROUNDEDRECTD17*
21,1,1.1500,0.7200,0,0,0.0*
21,1,0.7700,1.1000,0,0,0.0*
1,1,0.3800,0.3850,-0.3600*
1,1,0.3800,-0.3850,-0.3600*
1,1,0.3800,-0.3850,0.3600*
1,1,0.3800,0.3850,0.3600*
%
%ADD17ROUNDEDRECTD17*%
%ADD18O,1.2000X3.7000*%
%ADD19R,1.0000X1.7000*%
%ADD20R,1.7000X1.0000*%
%ADD21R,5.0000X5.0000*%
G04:AMPARAMS|DCode=22|XSize=0.9mm|YSize=1.55mm|CornerRadius=0.17mm|HoleSize=0mm|Usage=FLASHONLY|Rotation=90.000|XOffset=0mm|YOffset=0mm|HoleType=Round|Shape=RoundedRectangle|*
%AMROUNDEDRECTD22*
21,1,0.9000,1.2100,0,0,90.0*
21,1,0.5600,1.5500,0,0,90.0*
1,1,0.3400,0.6050,0.2800*
1,1,0.3400,0.6050,-0.2800*
1,1,0.3400,-0.6050,-0.2800*
1,1,0.3400,-0.6050,0.2800*
%
%ADD22ROUNDEDRECTD22*%
%ADD23R,2.7000X3.6000*%
G04:AMPARAMS|DCode=24|XSize=0.8mm|YSize=1.35mm|CornerRadius=0.25mm|HoleSize=0mm|Usage=FLASHONLY|Rotation=90.000|XOffset=0mm|YOffset=0mm|HoleType=Round|Shape=RoundedRectangle|*
%AMROUNDEDRECTD24*
21,1,0.8000,0.8500,0,0,90.0*
21,1,0.3000,1.3500,0,0,90.0*
1,1,0.5000,0.4250,0.1500*
1,1,0.5000,0.4250,-0.1500*
1,1,0.5000,-0.4250,-0.1500*
1,1,0.5000,-0.4250,0.1500*
%
%ADD24ROUNDEDRECTD24*%
G04:AMPARAMS|DCode=25|XSize=0.5mm|YSize=1.35mm|CornerRadius=0.175mm|HoleSize=0mm|Usage=FLASHONLY|Rotation=90.000|XOffset=0mm|YOffset=0mm|HoleType=Round|Shape=RoundedRectangle|*
%AMROUNDEDRECTD25*
21,1,0.5000,1.0000,0,0,90.0*
21,1,0.1500,1.3500,0,0,90.0*
1,1,0.3500,0.5000,0.0750*
1,1,0.3500,0.5000,-0.0750*
1,1,0.3500,-0.5000,-0.0750*
1,1,0.3500,-0.5000,0.0750*
%
%ADD25ROUNDEDRECTD25*%
G04:AMPARAMS|DCode=26|XSize=2.38mm|YSize=2.2mm|CornerRadius=0.6mm|HoleSize=0mm|Usage=FLASHONLY|Rotation=90.000|XOffset=0mm|YOffset=0mm|HoleType=Round|Shape=RoundedRectangle|*
%AMROUNDEDRECTD26*
21,1,2.3800,1.0000,0,0,90.0*
21,1,1.1800,2.2000,0,0,90.0*
1,1,1.2000,0.5000,0.5900*
1,1,1.2000,0.5000,-0.5900*
1,1,1.2000,-0.5000,-0.5900*
1,1,1.2000,-0.5000,0.5900*
%
%ADD26ROUNDEDRECTD26*%
%ADD27R,0.6000X0.6000*%
%ADD28R,0.5500X0.7000*%
G04:AMPARAMS|DCode=29|XSize=1.1mm|YSize=1.05mm|CornerRadius=0.185mm|HoleSize=0mm|Usage=FLASHONLY|Rotation=0.000|XOffset=0mm|YOffset=0mm|HoleType=Round|Shape=RoundedRectangle|*
%AMROUNDEDRECTD29*
21,1,1.1000,0.6800,0,0,0.0*
21,1,0.7300,1.0500,0,0,0.0*
1,1,0.3700,0.3650,-0.3400*
1,1,0.3700,-0.3650,-0.3400*
1,1,0.3700,-0.3650,0.3400*
1,1,0.3700,0.3650,0.3400*
%
%ADD29ROUNDEDRECTD29*%
G04:AMPARAMS|DCode=30|XSize=1.3mm|YSize=0.75mm|CornerRadius=0.225mm|HoleSize=0mm|Usage=FLASHONLY|Rotation=270.000|XOffset=0mm|YOffset=0mm|HoleType=Round|Shape=RoundedRectangle|*
%AMROUNDEDRECTD30*
21,1,1.3000,0.3000,0,0,270.0*
21,1,0.8500,0.7500,0,0,270.0*
1,1,0.4500,-0.1500,-0.4250*
1,1,0.4500,-0.1500,0.4250*
1,1,0.4500,0.1500,0.4250*
1,1,0.4500,0.1500,-0.4250*
%
%ADD30ROUNDEDRECTD30*%
G04:AMPARAMS|DCode=31|XSize=1.35mm|YSize=0.75mm|CornerRadius=0.225mm|HoleSize=0mm|Usage=FLASHONLY|Rotation=90.000|XOffset=0mm|YOffset=0mm|HoleType=Round|Shape=RoundedRectangle|*
%AMROUNDEDRECTD31*
21,1,1.3500,0.3000,0,0,90.0*
21,1,0.9000,0.7500,0,0,90.0*
1,1,0.4500,0.1500,0.4500*
1,1,0.4500,0.1500,-0.4500*
1,1,0.4500,-0.1500,-0.4500*
1,1,0.4500,-0.1500,0.4500*
%
%ADD31ROUNDEDRECTD31*%
G04:AMPARAMS|DCode=32|XSize=1mm|YSize=0.6mm|CornerRadius=0.14mm|HoleSize=0mm|Usage=FLASHONLY|Rotation=180.000|XOffset=0mm|YOffset=0mm|HoleType=Round|Shape=RoundedRectangle|*
%AMROUNDEDRECTD32*
21,1,1.0000,0.3200,0,0,180.0*
21,1,0.7200,0.6000,0,0,180.0*
1,1,0.2800,-0.3600,0.1600*
1,1,0.2800,0.3600,0.1600*
1,1,0.2800,0.3600,-0.1600*
1,1,0.2800,-0.3600,-0.1600*
%
%ADD32ROUNDEDRECTD32*%
G04:AMPARAMS|DCode=33|XSize=1.7mm|YSize=0.65mm|CornerRadius=0.2125mm|HoleSize=0mm|Usage=FLASHONLY|Rotation=270.000|XOffset=0mm|YOffset=0mm|HoleType=Round|Shape=RoundedRectangle|*
%AMROUNDEDRECTD33*
21,1,1.7000,0.2250,0,0,270.0*
21,1,1.2750,0.6500,0,0,270.0*
1,1,0.4250,-0.1125,-0.6375*
1,1,0.4250,-0.1125,0.6375*
1,1,0.4250,0.1125,0.6375*
1,1,0.4250,0.1125,-0.6375*
%
%ADD33ROUNDEDRECTD33*%
G04:AMPARAMS|DCode=34|XSize=1.05mm|YSize=0.5mm|CornerRadius=0.175mm|HoleSize=0mm|Usage=FLASHONLY|Rotation=0.000|XOffset=0mm|YOffset=0mm|HoleType=Round|Shape=RoundedRectangle|*
%AMROUNDEDRECTD34*
21,1,1.0500,0.1500,0,0,0.0*
21,1,0.7000,0.5000,0,0,0.0*
1,1,0.3500,0.3500,-0.0750*
1,1,0.3500,-0.3500,-0.0750*
1,1,0.3500,-0.3500,0.0750*
1,1,0.3500,0.3500,0.0750*
%
%ADD34ROUNDEDRECTD34*%
G04:AMPARAMS|DCode=35|XSize=1.05mm|YSize=0.5mm|CornerRadius=0.175mm|HoleSize=0mm|Usage=FLASHONLY|Rotation=270.000|XOffset=0mm|YOffset=0mm|HoleType=Round|Shape=RoundedRectangle|*
%AMROUNDEDRECTD35*
21,1,1.0500,0.1500,0,0,270.0*
21,1,0.7000,0.5000,0,0,270.0*
1,1,0.3500,-0.0750,-0.3500*
1,1,0.3500,-0.0750,0.3500*
1,1,0.3500,0.0750,0.3500*
1,1,0.3500,0.0750,-0.3500*
%
%ADD35ROUNDEDRECTD35*%
%ADD36R,5.9000X5.9000*%
%ADD37C,1.6000*%
%ADD38C,1.7000*%
G04:AMPARAMS|DCode=39|XSize=1.7mm|YSize=1.7mm|CornerRadius=0.475mm|HoleSize=0mm|Usage=FLASHONLY|Rotation=270.000|XOffset=0mm|YOffset=0mm|HoleType=Round|Shape=RoundedRectangle|*
%AMROUNDEDRECTD39*
21,1,1.7000,0.7500,0,0,270.0*
21,1,0.7500,1.7000,0,0,270.0*
1,1,0.9500,-0.3750,-0.3750*
1,1,0.9500,-0.3750,0.3750*
1,1,0.9500,0.3750,0.3750*
1,1,0.9500,0.3750,-0.3750*
%
%ADD39ROUNDEDRECTD39*%
%ADD40C,0.8500*%
%ADD41C,0.2000*%
G36*
X464750Y247250D02*
X445250D01*
Y252750D01*
X464750D01*
Y247250D01*
D02*
G37*
G36*
Y237250D02*
X445250D01*
Y242750D01*
X464750D01*
Y237250D01*
D02*
G37*
G36*
X440250Y195250D02*
X434750D01*
Y214750D01*
X440250D01*
Y195250D01*
D02*
G37*
G36*
X430250D02*
X424750D01*
Y214750D01*
X430250D01*
Y195250D01*
D02*
G37*
G36*
X550250Y175250D02*
X544750D01*
Y194750D01*
X550250D01*
Y175250D01*
D02*
G37*
G36*
X540250D02*
X534750D01*
Y194750D01*
X540250D01*
Y175250D01*
D02*
G37*
G36*
X517500Y220000D02*
X527250D01*
Y160000D01*
X517500D01*
Y150250D01*
X457500D01*
Y160000D01*
X447750D01*
Y220000D01*
X457500D01*
Y229750D01*
X517500D01*
Y220000D01*
D02*
G37*
G36*
X550250Y145250D02*
X544750D01*
Y164750D01*
X550250D01*
Y145250D01*
D02*
G37*
G36*
X540250D02*
X534750D01*
Y164750D01*
X540250D01*
Y145250D01*
D02*
G37*
G36*
X502250Y137250D02*
X482750D01*
Y142750D01*
X502250D01*
Y137250D01*
D02*
G37*
G36*
Y127250D02*
X482750D01*
Y132750D01*
X502250D01*
Y127250D01*
D02*
G37*
G36*
X577500Y86250D02*
X552500D01*
Y93250D01*
X577500D01*
Y86250D01*
D02*
G37*
G36*
Y66750D02*
X552500D01*
Y73750D01*
X577500D01*
Y66750D01*
D02*
G37*
D10*
X547500Y187500D02*
D03*
Y182500D02*
D03*
X537500Y187500D02*
D03*
Y182500D02*
D03*
X437500Y207500D02*
D03*
Y202500D02*
D03*
X427500Y207500D02*
D03*
Y202500D02*
D03*
X537500Y152500D02*
D03*
Y157500D02*
D03*
X547500Y152500D02*
D03*
Y157500D02*
D03*
D11*
Y192500D02*
D03*
Y177500D02*
D03*
X537500Y192500D02*
D03*
Y177500D02*
D03*
X437500Y212500D02*
D03*
Y197500D02*
D03*
X427500Y212500D02*
D03*
Y197500D02*
D03*
X537500Y147500D02*
D03*
Y162500D02*
D03*
X547500Y147500D02*
D03*
Y162500D02*
D03*
D12*
X457500Y240000D02*
D03*
X452500D02*
D03*
X457500Y250000D02*
D03*
X452500D02*
D03*
X490000Y140000D02*
D03*
X495000D02*
D03*
X490000Y130000D02*
D03*
X495000D02*
D03*
D13*
X462500Y240000D02*
D03*
X447500D02*
D03*
X462500Y250000D02*
D03*
X447500D02*
D03*
X485000Y140000D02*
D03*
X500000D02*
D03*
X485000Y130000D02*
D03*
X500000D02*
D03*
D14*
X454750Y137500D02*
D03*
X470250D02*
D03*
Y120000D02*
D03*
X454750D02*
D03*
X590250Y227500D02*
D03*
X574750D02*
D03*
X590250Y187500D02*
D03*
X574750D02*
D03*
X590250Y207500D02*
D03*
X574750D02*
D03*
X655250Y12500D02*
D03*
X639750D02*
D03*
X655250Y52500D02*
D03*
X639750D02*
D03*
X377500Y45000D02*
D03*
X559750Y45000D02*
D03*
X575250D02*
D03*
X559750Y102500D02*
D03*
X575250D02*
D03*
X575250Y122500D02*
D03*
X559750D02*
D03*
X392500Y45000D02*
D03*
X614750Y267500D02*
D03*
X630250D02*
D03*
X614750Y287500D02*
D03*
X630250D02*
D03*
Y247500D02*
D03*
X614750D02*
D03*
X672250Y228750D02*
D03*
X687750D02*
D03*
X630250Y227500D02*
D03*
X614750D02*
D03*
X687750Y208750D02*
D03*
X672250D02*
D03*
X630250Y107500D02*
D03*
X614750D02*
D03*
X630250Y167500D02*
D03*
X614750D02*
D03*
X630000Y72500D02*
D03*
X425250Y245000D02*
D03*
X409750D02*
D03*
X425250Y227500D02*
D03*
X409750D02*
D03*
X474750Y285000D02*
D03*
X490250D02*
D03*
X615000Y72500D02*
D03*
X442250Y285000D02*
D03*
X457750D02*
D03*
X435250Y182500D02*
D03*
X419750D02*
D03*
X539750Y207500D02*
D03*
X555250D02*
D03*
D15*
X597000Y49500D02*
D03*
Y40000D02*
D03*
Y30500D02*
D03*
X623000D02*
D03*
Y40000D02*
D03*
Y49500D02*
D03*
D16*
X618000Y12750D02*
D03*
X602000D02*
D03*
X639500Y32500D02*
D03*
X655500D02*
D03*
X507000Y285000D02*
D03*
X523000D02*
D03*
X393000Y62500D02*
D03*
X377000D02*
D03*
X393000Y122500D02*
D03*
X377000D02*
D03*
X614500Y207500D02*
D03*
X630500D02*
D03*
X614500Y187500D02*
D03*
X630500D02*
D03*
X425500Y265000D02*
D03*
X409500D02*
D03*
X425500Y285000D02*
D03*
X409500D02*
D03*
X442000Y265000D02*
D03*
X458000D02*
D03*
X555500Y227500D02*
D03*
X539500D02*
D03*
X419500Y165000D02*
D03*
X435500D02*
D03*
D17*
X595000Y88000D02*
D03*
Y72000D02*
D03*
X412500Y29500D02*
D03*
Y45500D02*
D03*
X540000Y29500D02*
D03*
Y45500D02*
D03*
Y103000D02*
D03*
Y87000D02*
D03*
X435000Y129500D02*
D03*
Y145500D02*
D03*
X515000Y122000D02*
D03*
Y138000D02*
D03*
X480000Y258000D02*
D03*
Y242000D02*
D03*
X595000Y142000D02*
D03*
Y158000D02*
D03*
X517500Y258000D02*
D03*
Y242000D02*
D03*
D18*
X392500Y277500D02*
D03*
X375000D02*
D03*
D19*
X452500Y17750D02*
D03*
X465000D02*
D03*
X477500D02*
D03*
X490000D02*
D03*
X502500D02*
D03*
Y97750D02*
D03*
X490000D02*
D03*
X477500D02*
D03*
X465000D02*
D03*
X452500D02*
D03*
D20*
X517500Y32750D02*
D03*
Y45250D02*
D03*
Y57750D02*
D03*
Y70250D02*
D03*
Y82750D02*
D03*
X437500D02*
D03*
Y70250D02*
D03*
Y57750D02*
D03*
Y45250D02*
D03*
Y32750D02*
D03*
D21*
X477500Y57750D02*
D03*
D22*
X539000Y284050D02*
D03*
Y245950D02*
D03*
Y258650D02*
D03*
Y271350D02*
D03*
X596000Y284050D02*
D03*
Y271350D02*
D03*
Y258650D02*
D03*
Y245950D02*
D03*
D23*
X567500Y265000D02*
D03*
D24*
X652000Y98000D02*
D03*
Y106000D02*
D03*
Y154000D02*
D03*
Y162000D02*
D03*
D25*
Y112500D02*
D03*
Y147500D02*
D03*
Y142500D02*
D03*
Y137500D02*
D03*
Y132500D02*
D03*
Y127500D02*
D03*
Y122500D02*
D03*
Y117500D02*
D03*
D26*
X660000Y181100D02*
D03*
X699000D02*
D03*
Y78900D02*
D03*
X660000D02*
D03*
D27*
X579500Y8000D02*
D03*
X571500D02*
D03*
X563500D02*
D03*
X555500D02*
D03*
Y32000D02*
D03*
X563500D02*
D03*
X571500D02*
D03*
X579500D02*
D03*
D28*
X574750Y89750D02*
D03*
X568250D02*
D03*
X561750D02*
D03*
X555250D02*
D03*
Y70250D02*
D03*
X561750D02*
D03*
X568250D02*
D03*
X574750D02*
D03*
D29*
X595000Y122750D02*
D03*
Y107250D02*
D03*
X500000Y242250D02*
D03*
Y257750D02*
D03*
D30*
X394500Y105500D02*
D03*
X385000D02*
D03*
X375500D02*
D03*
Y79500D02*
D03*
X394500D02*
D03*
D31*
X373000Y247500D02*
D03*
X382500Y247500D02*
D03*
X392000D02*
D03*
Y222500D02*
D03*
X382500D02*
D03*
X373000Y222500D02*
D03*
X613000Y150000D02*
D03*
X622500Y150000D02*
D03*
X632000D02*
D03*
Y125000D02*
D03*
X622500D02*
D03*
X613000Y125000D02*
D03*
D32*
X611000Y90000D02*
D03*
X634000D02*
D03*
D33*
X392250Y143500D02*
D03*
X385750D02*
D03*
X379250D02*
D03*
X372750D02*
D03*
Y201500D02*
D03*
X379250D02*
D03*
X385750D02*
D03*
X392250D02*
D03*
D34*
X522000Y167500D02*
D03*
Y162500D02*
D03*
Y177500D02*
D03*
Y172500D02*
D03*
Y212500D02*
D03*
Y217500D02*
D03*
Y207500D02*
D03*
Y202500D02*
D03*
Y197500D02*
D03*
Y192500D02*
D03*
Y187500D02*
D03*
Y182500D02*
D03*
X453000Y217500D02*
D03*
Y212500D02*
D03*
Y207500D02*
D03*
Y162500D02*
D03*
Y167500D02*
D03*
Y172500D02*
D03*
Y177500D02*
D03*
Y182500D02*
D03*
Y187500D02*
D03*
Y192500D02*
D03*
Y197500D02*
D03*
Y202500D02*
D03*
D35*
X500000Y155500D02*
D03*
X505000D02*
D03*
X510000D02*
D03*
X515000D02*
D03*
X495000D02*
D03*
X490000D02*
D03*
X515000Y224500D02*
D03*
X510000D02*
D03*
X505000D02*
D03*
X500000D02*
D03*
X495000D02*
D03*
X490000D02*
D03*
X485000D02*
D03*
X480000D02*
D03*
X475000D02*
D03*
X470000D02*
D03*
X465000D02*
D03*
X460000D02*
D03*
Y155500D02*
D03*
X465000D02*
D03*
X470000D02*
D03*
X485000D02*
D03*
X475000D02*
D03*
X480000D02*
D03*
D36*
X487500Y190000D02*
D03*
D37*
X193000Y252500D02*
D03*
X113000D02*
D03*
D38*
X44700Y111900D02*
D03*
Y137300D02*
D03*
X44700Y162700D02*
D03*
X44700Y188100D02*
D03*
X19300Y137300D02*
D03*
Y162700D02*
D03*
Y111900D02*
D03*
D39*
Y188100D02*
D03*
D40*
X665000Y158900D02*
D03*
Y101100D02*
D03*
X654100Y210990D02*
D03*
Y231310D02*
D03*
X704900Y221150D02*
D03*
D41*
X691997Y272000D02*
D03*
Y28000D02*
D03*
X27996D02*
D03*
Y272000D02*
D03*
M02*
