G04*
G04 #@! TF.GenerationSoftware,Altium Limited,Altium Designer,23.9.2 (47)*
G04*
G04 Layer_Color=16711935*
%FSLAX44Y44*%
%MOMM*%
G71*
G04*
G04 #@! TF.SameCoordinates,DB526BF8-E997-4231-925B-FFD4C5E6FE8C*
G04*
G04*
G04 #@! TF.FilePolarity,Negative*
G04*
G01*
G75*
G04:AMPARAMS|DCode=17|XSize=1.15mm|YSize=1.1mm|CornerRadius=0.19mm|HoleSize=0mm|Usage=FLASHONLY|Rotation=0.000|XOffset=0mm|YOffset=0mm|HoleType=Round|Shape=RoundedRectangle|*
%AMROUNDEDRECTD17*
21,1,1.1500,0.7200,0,0,0.0*
21,1,0.7700,1.1000,0,0,0.0*
1,1,0.3800,0.3850,-0.3600*
1,1,0.3800,-0.3850,-0.3600*
1,1,0.3800,-0.3850,0.3600*
1,1,0.3800,0.3850,0.3600*
%
%ADD17ROUNDEDRECTD17*%
%ADD37C,1.6000*%
%ADD38C,1.7000*%
G04:AMPARAMS|DCode=39|XSize=1.7mm|YSize=1.7mm|CornerRadius=0.475mm|HoleSize=0mm|Usage=FLASHONLY|Rotation=270.000|XOffset=0mm|YOffset=0mm|HoleType=Round|Shape=RoundedRectangle|*
%AMROUNDEDRECTD39*
21,1,1.7000,0.7500,0,0,270.0*
21,1,0.7500,1.7000,0,0,270.0*
1,1,0.9500,-0.3750,-0.3750*
1,1,0.9500,-0.3750,0.3750*
1,1,0.9500,0.3750,0.3750*
1,1,0.9500,0.3750,-0.3750*
%
%ADD39ROUNDEDRECTD39*%
%ADD40C,0.8500*%
%ADD41C,0.2000*%
%ADD82R,0.8500X1.5500*%
%ADD83R,1.7500X1.5500*%
%ADD84R,1.4000X2.4000*%
%ADD85R,1.8000X1.6000*%
%ADD86C,1.0000*%
G36*
X93000Y144750D02*
X91000D01*
Y154250D01*
X93000D01*
Y144750D01*
D02*
G37*
G36*
X623118Y85848D02*
X623313Y85819D01*
X623503Y85772D01*
X623688Y85705D01*
X623866Y85621D01*
X624034Y85520D01*
X624192Y85403D01*
X624338Y85271D01*
X624389Y85214D01*
X625496D01*
X625692Y85205D01*
X625886Y85176D01*
X626077Y85128D01*
X626262Y85062D01*
X626440Y84978D01*
X626608Y84877D01*
X626766Y84760D01*
X626912Y84628D01*
X626972Y84562D01*
X626979Y84561D01*
X627173Y84532D01*
X627364Y84485D01*
X627549Y84419D01*
X627727Y84334D01*
X627895Y84234D01*
X628053Y84116D01*
X628199Y83984D01*
X628259Y83918D01*
X628266Y83918D01*
X628460Y83889D01*
X628651Y83841D01*
X628836Y83775D01*
X629014Y83691D01*
X629182Y83590D01*
X629340Y83473D01*
X629486Y83341D01*
X629546Y83275D01*
X629553Y83274D01*
X629747Y83246D01*
X629938Y83198D01*
X630123Y83132D01*
X630300Y83048D01*
X630469Y82947D01*
X630627Y82830D01*
X630773Y82698D01*
X630904Y82552D01*
X631021Y82394D01*
X631056Y82337D01*
X631113Y82303D01*
X631270Y82186D01*
X631416Y82054D01*
X631548Y81909D01*
X631665Y81751D01*
X631699Y81694D01*
X631756Y81660D01*
X631914Y81543D01*
X632059Y81411D01*
X632191Y81265D01*
X632308Y81107D01*
X632342Y81050D01*
X632399Y81016D01*
X632557Y80899D01*
X632703Y80767D01*
X632835Y80622D01*
X632952Y80464D01*
X632986Y80407D01*
X633043Y80373D01*
X633201Y80256D01*
X633346Y80124D01*
X633478Y79978D01*
X633595Y79820D01*
X633629Y79763D01*
X633686Y79729D01*
X633844Y79612D01*
X633990Y79480D01*
X634122Y79335D01*
X634239Y79177D01*
X634273Y79120D01*
X634330Y79086D01*
X634488Y78969D01*
X634633Y78837D01*
X634765Y78691D01*
X634882Y78533D01*
X634916Y78476D01*
X634973Y78442D01*
X635131Y78325D01*
X635277Y78193D01*
X635409Y78048D01*
X635526Y77890D01*
X635627Y77721D01*
X635711Y77544D01*
X635777Y77359D01*
X635825Y77168D01*
X635854Y76974D01*
X635854Y76967D01*
X635920Y76906D01*
X636052Y76761D01*
X636169Y76603D01*
X636270Y76434D01*
X636354Y76257D01*
X636420Y76072D01*
X636468Y75881D01*
X636497Y75687D01*
X636497Y75680D01*
X636564Y75620D01*
X636696Y75474D01*
X636813Y75316D01*
X636914Y75148D01*
X636998Y74970D01*
X637064Y74785D01*
X637112Y74594D01*
X637141Y74400D01*
X637141Y74393D01*
X637207Y74333D01*
X637339Y74187D01*
X637456Y74029D01*
X637557Y73861D01*
X637641Y73683D01*
X637707Y73498D01*
X637755Y73307D01*
X637784Y73113D01*
X637794Y72917D01*
Y71810D01*
X637850Y71759D01*
X637982Y71613D01*
X638100Y71455D01*
X638201Y71287D01*
X638285Y71109D01*
X638351Y70924D01*
X638399Y70733D01*
X638427Y70539D01*
X638437Y70343D01*
Y68350D01*
X638488Y68332D01*
X638666Y68248D01*
X638834Y68147D01*
X638992Y68030D01*
X639137Y67898D01*
X639189Y67841D01*
X639652D01*
X639848Y67831D01*
X640043Y67803D01*
X640233Y67755D01*
X640418Y67689D01*
X640596Y67605D01*
X640764Y67503D01*
X640922Y67386D01*
X641068Y67255D01*
X641200Y67109D01*
X641317Y66951D01*
X641351Y66894D01*
X641408Y66860D01*
X641566Y66743D01*
X641711Y66611D01*
X641771Y66545D01*
X641779Y66544D01*
X641973Y66516D01*
X642164Y66468D01*
X642349Y66402D01*
X642526Y66318D01*
X642695Y66217D01*
X642853Y66100D01*
X642998Y65968D01*
X643130Y65822D01*
X643247Y65664D01*
X643281Y65607D01*
X643338Y65573D01*
X643496Y65456D01*
X643642Y65324D01*
X643774Y65178D01*
X643891Y65021D01*
X643925Y64964D01*
X643982Y64930D01*
X644139Y64813D01*
X644285Y64681D01*
X644417Y64535D01*
X644534Y64377D01*
X644568Y64320D01*
X644625Y64286D01*
X644783Y64169D01*
X644929Y64037D01*
X645061Y63892D01*
X645178Y63734D01*
X645212Y63677D01*
X645269Y63643D01*
X645426Y63526D01*
X645572Y63394D01*
X645704Y63248D01*
X645821Y63090D01*
X645855Y63033D01*
X645912Y62999D01*
X646070Y62882D01*
X646216Y62750D01*
X646348Y62605D01*
X646464Y62447D01*
X646566Y62278D01*
X646650Y62101D01*
X646716Y61916D01*
X646764Y61725D01*
X646792Y61531D01*
X646793Y61523D01*
X646859Y61463D01*
X646991Y61318D01*
X647108Y61160D01*
X647209Y60991D01*
X647293Y60814D01*
X647359Y60629D01*
X647407Y60438D01*
X647436Y60244D01*
X647436Y60237D01*
X647502Y60177D01*
X647634Y60031D01*
X647751Y59873D01*
X647852Y59704D01*
X647936Y59527D01*
X648003Y59342D01*
X648050Y59151D01*
X648079Y58957D01*
X648089Y58760D01*
Y58298D01*
X648146Y58246D01*
X648278Y58101D01*
X648395Y57943D01*
X648496Y57774D01*
X648580Y57597D01*
X648646Y57411D01*
X648694Y57221D01*
X648723Y57026D01*
X648732Y56830D01*
Y51683D01*
X648723Y51486D01*
X648694Y51292D01*
X648646Y51101D01*
X648580Y50916D01*
X648496Y50739D01*
X648395Y50570D01*
X648278Y50412D01*
X648146Y50266D01*
X648089Y50215D01*
Y49752D01*
X648079Y49556D01*
X648050Y49361D01*
X648003Y49171D01*
X647936Y48986D01*
X647852Y48808D01*
X647751Y48640D01*
X647634Y48482D01*
X647502Y48336D01*
X647436Y48276D01*
X647436Y48269D01*
X647407Y48074D01*
X647359Y47884D01*
X647293Y47699D01*
X647209Y47521D01*
X647108Y47353D01*
X646991Y47195D01*
X646859Y47049D01*
X646793Y46989D01*
X646792Y46982D01*
X646764Y46788D01*
X646716Y46597D01*
X646650Y46412D01*
X646566Y46234D01*
X646464Y46066D01*
X646348Y45908D01*
X646216Y45762D01*
X646070Y45630D01*
X645912Y45513D01*
X645855Y45479D01*
X645821Y45422D01*
X645704Y45265D01*
X645572Y45119D01*
X645426Y44987D01*
X645269Y44870D01*
X645212Y44836D01*
X645178Y44779D01*
X645061Y44621D01*
X644929Y44475D01*
X644783Y44344D01*
X644625Y44226D01*
X644568Y44192D01*
X644534Y44135D01*
X644417Y43978D01*
X644285Y43832D01*
X644139Y43700D01*
X643982Y43583D01*
X643925Y43549D01*
X643891Y43492D01*
X643774Y43334D01*
X643642Y43189D01*
X643496Y43057D01*
X643338Y42940D01*
X643170Y42839D01*
X642992Y42754D01*
X642807Y42688D01*
X642616Y42641D01*
X642422Y42612D01*
X642415Y42611D01*
X642355Y42545D01*
X642209Y42413D01*
X642051Y42296D01*
X641883Y42195D01*
X641705Y42111D01*
X641520Y42045D01*
X641329Y41997D01*
X641135Y41968D01*
X641128Y41968D01*
X641068Y41902D01*
X640922Y41770D01*
X640764Y41653D01*
X640596Y41552D01*
X640418Y41467D01*
X640233Y41401D01*
X640043Y41354D01*
X639848Y41325D01*
X639652Y41315D01*
X639189D01*
X639137Y41258D01*
X638992Y41126D01*
X638834Y41009D01*
X638666Y40908D01*
X638488Y40824D01*
X638303Y40758D01*
X638112Y40710D01*
X637918Y40681D01*
X637721Y40672D01*
X632002D01*
Y38751D01*
X632053Y38733D01*
X632231Y38649D01*
X632399Y38548D01*
X632557Y38431D01*
X632703Y38299D01*
X632835Y38153D01*
X632952Y37995D01*
X632986Y37938D01*
X633043Y37904D01*
X633201Y37787D01*
X633346Y37655D01*
X633478Y37510D01*
X633595Y37352D01*
X633696Y37183D01*
X633780Y37006D01*
X633847Y36821D01*
X633894Y36630D01*
X633923Y36436D01*
X633923Y36428D01*
X633990Y36368D01*
X634122Y36223D01*
X634239Y36065D01*
X634340Y35896D01*
X634424Y35719D01*
X634490Y35534D01*
X634538Y35343D01*
X634567Y35149D01*
X634576Y34952D01*
Y32379D01*
X634567Y32182D01*
X634538Y31988D01*
X634490Y31797D01*
X634424Y31612D01*
X634340Y31435D01*
X634239Y31266D01*
X634122Y31108D01*
X633990Y30963D01*
X633923Y30903D01*
X633923Y30896D01*
X633894Y30701D01*
X633847Y30510D01*
X633780Y30326D01*
X633696Y30148D01*
X633595Y29979D01*
X633478Y29822D01*
X633346Y29676D01*
X633201Y29544D01*
X633043Y29427D01*
X632986Y29393D01*
X632952Y29336D01*
X632835Y29178D01*
X632703Y29032D01*
X632557Y28900D01*
X632399Y28783D01*
X632231Y28682D01*
X632053Y28598D01*
X631868Y28532D01*
X631678Y28484D01*
X631483Y28456D01*
X631476Y28455D01*
X631416Y28389D01*
X631270Y28257D01*
X631113Y28140D01*
X630944Y28039D01*
X630766Y27955D01*
X630581Y27889D01*
X630391Y27841D01*
X630196Y27812D01*
X630000Y27802D01*
X627426D01*
X627230Y27812D01*
X627035Y27841D01*
X626845Y27889D01*
X626660Y27955D01*
X626482Y28039D01*
X626314Y28140D01*
X626156Y28257D01*
X626010Y28389D01*
X625950Y28455D01*
X625943Y28456D01*
X625749Y28484D01*
X625558Y28532D01*
X625373Y28598D01*
X625195Y28682D01*
X625027Y28783D01*
X624869Y28900D01*
X624723Y29032D01*
X624591Y29178D01*
X624474Y29336D01*
X624440Y29393D01*
X624383Y29427D01*
X624226Y29544D01*
X624080Y29676D01*
X623948Y29822D01*
X623831Y29979D01*
X623730Y30148D01*
X623646Y30326D01*
X623580Y30510D01*
X623532Y30701D01*
X623503Y30896D01*
X623503Y30903D01*
X623436Y30963D01*
X623304Y31108D01*
X623187Y31266D01*
X623086Y31435D01*
X623002Y31612D01*
X622936Y31797D01*
X622888Y31988D01*
X622860Y32182D01*
X622850Y32379D01*
Y34952D01*
X622860Y35149D01*
X622888Y35343D01*
X622936Y35534D01*
X623002Y35719D01*
X623086Y35896D01*
X623187Y36065D01*
X623304Y36223D01*
X623436Y36368D01*
X623503Y36428D01*
X623503Y36436D01*
X623532Y36630D01*
X623580Y36821D01*
X623646Y37006D01*
X623730Y37183D01*
X623831Y37352D01*
X623948Y37510D01*
X624080Y37655D01*
X624226Y37787D01*
X624383Y37904D01*
X624440Y37938D01*
X624474Y37995D01*
X624591Y38153D01*
X624723Y38299D01*
X624869Y38431D01*
X625027Y38548D01*
X625195Y38649D01*
X625373Y38733D01*
X625424Y38751D01*
Y40672D01*
X617846D01*
Y38813D01*
Y38751D01*
X617897Y38733D01*
X618075Y38649D01*
X618243Y38548D01*
X618401Y38431D01*
X618547Y38299D01*
X618679Y38153D01*
X618796Y37995D01*
X618830Y37938D01*
X618887Y37904D01*
X619045Y37787D01*
X619190Y37655D01*
X619322Y37510D01*
X619439Y37352D01*
X619540Y37183D01*
X619624Y37006D01*
X619691Y36821D01*
X619738Y36630D01*
X619767Y36436D01*
X619767Y36428D01*
X619834Y36368D01*
X619966Y36223D01*
X620083Y36065D01*
X620184Y35896D01*
X620268Y35719D01*
X620334Y35534D01*
X620382Y35343D01*
X620410Y35149D01*
X620420Y34952D01*
Y32379D01*
X620410Y32182D01*
X620382Y31988D01*
X620334Y31797D01*
X620268Y31612D01*
X620184Y31435D01*
X620083Y31266D01*
X619966Y31108D01*
X619834Y30963D01*
X619767Y30903D01*
X619767Y30896D01*
X619738Y30701D01*
X619691Y30510D01*
X619624Y30326D01*
X619540Y30148D01*
X619439Y29979D01*
X619322Y29822D01*
X619190Y29676D01*
X619045Y29544D01*
X618887Y29427D01*
X618830Y29393D01*
X618796Y29336D01*
X618679Y29178D01*
X618547Y29032D01*
X618401Y28900D01*
X618243Y28783D01*
X618075Y28682D01*
X617897Y28598D01*
X617712Y28532D01*
X617522Y28484D01*
X617327Y28456D01*
X617320Y28455D01*
X617260Y28389D01*
X617114Y28257D01*
X616956Y28140D01*
X616788Y28039D01*
X616610Y27955D01*
X616425Y27889D01*
X616235Y27841D01*
X616040Y27812D01*
X615844Y27802D01*
X613270D01*
X613074Y27812D01*
X612879Y27841D01*
X612689Y27889D01*
X612504Y27955D01*
X612326Y28039D01*
X612158Y28140D01*
X612000Y28257D01*
X611854Y28389D01*
X611794Y28455D01*
X611787Y28456D01*
X611592Y28484D01*
X611402Y28532D01*
X611217Y28598D01*
X611039Y28682D01*
X610871Y28783D01*
X610713Y28900D01*
X610567Y29032D01*
X610435Y29178D01*
X610318Y29336D01*
X610284Y29393D01*
X610227Y29427D01*
X610069Y29544D01*
X609924Y29676D01*
X609792Y29822D01*
X609675Y29979D01*
X609574Y30148D01*
X609490Y30326D01*
X609423Y30510D01*
X609376Y30701D01*
X609347Y30896D01*
X609347Y30903D01*
X609280Y30963D01*
X609148Y31108D01*
X609031Y31266D01*
X608930Y31435D01*
X608846Y31612D01*
X608780Y31797D01*
X608732Y31988D01*
X608703Y32182D01*
X608694Y32379D01*
Y34952D01*
X608703Y35149D01*
X608732Y35343D01*
X608780Y35534D01*
X608846Y35719D01*
X608930Y35896D01*
X609031Y36065D01*
X609148Y36223D01*
X609280Y36368D01*
X609347Y36428D01*
X609347Y36436D01*
X609376Y36630D01*
X609423Y36821D01*
X609490Y37006D01*
X609574Y37183D01*
X609675Y37352D01*
X609792Y37510D01*
X609924Y37655D01*
X610069Y37787D01*
X610227Y37904D01*
X610284Y37938D01*
X610318Y37995D01*
X610435Y38153D01*
X610567Y38299D01*
X610713Y38431D01*
X610871Y38548D01*
X611039Y38649D01*
X611217Y38733D01*
X611268Y38751D01*
Y40672D01*
X603690D01*
Y38751D01*
X603741Y38733D01*
X603919Y38649D01*
X604087Y38548D01*
X604245Y38431D01*
X604391Y38299D01*
X604523Y38153D01*
X604640Y37995D01*
X604674Y37938D01*
X604731Y37904D01*
X604888Y37787D01*
X605034Y37655D01*
X605166Y37510D01*
X605283Y37352D01*
X605384Y37183D01*
X605468Y37006D01*
X605534Y36821D01*
X605582Y36630D01*
X605611Y36436D01*
X605611Y36428D01*
X605677Y36368D01*
X605810Y36223D01*
X605927Y36065D01*
X606028Y35896D01*
X606112Y35719D01*
X606178Y35534D01*
X606226Y35343D01*
X606254Y35149D01*
X606264Y34952D01*
Y32379D01*
X606254Y32182D01*
X606226Y31988D01*
X606178Y31797D01*
X606112Y31612D01*
X606028Y31435D01*
X605927Y31266D01*
X605810Y31108D01*
X605677Y30963D01*
X605611Y30903D01*
X605611Y30896D01*
X605582Y30701D01*
X605534Y30510D01*
X605468Y30326D01*
X605384Y30148D01*
X605283Y29979D01*
X605166Y29822D01*
X605034Y29676D01*
X604888Y29544D01*
X604731Y29427D01*
X604674Y29393D01*
X604640Y29336D01*
X604523Y29178D01*
X604391Y29032D01*
X604245Y28900D01*
X604087Y28783D01*
X603919Y28682D01*
X603741Y28598D01*
X603556Y28532D01*
X603365Y28484D01*
X603171Y28456D01*
X603164Y28455D01*
X603104Y28389D01*
X602958Y28257D01*
X602800Y28140D01*
X602632Y28039D01*
X602454Y27955D01*
X602269Y27889D01*
X602078Y27841D01*
X601884Y27812D01*
X601688Y27802D01*
X599114D01*
X598918Y27812D01*
X598723Y27841D01*
X598533Y27889D01*
X598348Y27955D01*
X598170Y28039D01*
X598002Y28140D01*
X597844Y28257D01*
X597698Y28389D01*
X597638Y28455D01*
X597631Y28456D01*
X597436Y28484D01*
X597246Y28532D01*
X597061Y28598D01*
X596883Y28682D01*
X596715Y28783D01*
X596557Y28900D01*
X596411Y29032D01*
X596279Y29178D01*
X596162Y29336D01*
X596128Y29393D01*
X596071Y29427D01*
X595913Y29544D01*
X595768Y29676D01*
X595636Y29822D01*
X595519Y29979D01*
X595418Y30148D01*
X595334Y30326D01*
X595267Y30510D01*
X595220Y30701D01*
X595191Y30896D01*
X595191Y30903D01*
X595124Y30963D01*
X594992Y31108D01*
X594875Y31266D01*
X594774Y31435D01*
X594690Y31612D01*
X594624Y31797D01*
X594576Y31988D01*
X594547Y32182D01*
X594538Y32379D01*
Y34952D01*
X594547Y35149D01*
X594576Y35343D01*
X594624Y35534D01*
X594690Y35719D01*
X594774Y35896D01*
X594875Y36065D01*
X594992Y36223D01*
X595124Y36368D01*
X595191Y36428D01*
X595191Y36436D01*
X595220Y36630D01*
X595267Y36821D01*
X595334Y37006D01*
X595418Y37183D01*
X595519Y37352D01*
X595636Y37510D01*
X595768Y37655D01*
X595913Y37787D01*
X596071Y37904D01*
X596128Y37938D01*
X596162Y37995D01*
X596279Y38153D01*
X596411Y38299D01*
X596557Y38431D01*
X596715Y38548D01*
X596883Y38649D01*
X597061Y38733D01*
X597112Y38751D01*
Y38813D01*
Y40672D01*
X592036D01*
X591840Y40681D01*
X591645Y40710D01*
X591455Y40758D01*
X591270Y40824D01*
X591092Y40908D01*
X590923Y41009D01*
X590766Y41126D01*
X590620Y41258D01*
X590568Y41315D01*
X590106D01*
X589909Y41325D01*
X589715Y41354D01*
X589524Y41401D01*
X589339Y41467D01*
X589162Y41552D01*
X588993Y41653D01*
X588835Y41770D01*
X588690Y41902D01*
X588684Y41908D01*
X588630Y41968D01*
X588622Y41968D01*
X588428Y41997D01*
X588237Y42045D01*
X588052Y42111D01*
X587875Y42195D01*
X587706Y42296D01*
X587548Y42413D01*
X587403Y42545D01*
X587343Y42611D01*
X587335Y42612D01*
X587141Y42641D01*
X586950Y42688D01*
X586765Y42754D01*
X586588Y42839D01*
X586419Y42940D01*
X586261Y43057D01*
X586116Y43189D01*
X585984Y43334D01*
X585867Y43492D01*
X585833Y43549D01*
X585776Y43583D01*
X585618Y43700D01*
X585472Y43832D01*
X585340Y43978D01*
X585223Y44135D01*
X585189Y44192D01*
X585132Y44226D01*
X584974Y44344D01*
X584829Y44475D01*
X584697Y44621D01*
X584580Y44779D01*
X584546Y44836D01*
X584489Y44870D01*
X584331Y44987D01*
X584185Y45119D01*
X584053Y45265D01*
X583936Y45422D01*
X583902Y45479D01*
X583845Y45513D01*
X583688Y45630D01*
X583542Y45762D01*
X583410Y45908D01*
X583293Y46066D01*
X583259Y46123D01*
X583202Y46157D01*
X583044Y46274D01*
X582898Y46406D01*
X582766Y46551D01*
X582649Y46709D01*
X582548Y46878D01*
X582464Y47055D01*
X582398Y47240D01*
X582350Y47431D01*
X582322Y47625D01*
X582321Y47633D01*
X582255Y47693D01*
X582123Y47838D01*
X582006Y47996D01*
X581905Y48165D01*
X581821Y48342D01*
X581755Y48527D01*
X581707Y48718D01*
X581678Y48912D01*
X581678Y48920D01*
X581612Y48980D01*
X581480Y49125D01*
X581362Y49283D01*
X581261Y49452D01*
X581177Y49629D01*
X581111Y49814D01*
X581063Y50005D01*
X581035Y50199D01*
X581025Y50396D01*
Y50858D01*
X580968Y50910D01*
X580836Y51056D01*
X580719Y51213D01*
X580618Y51382D01*
X580534Y51560D01*
X580468Y51745D01*
X580420Y51935D01*
X580391Y52130D01*
X580382Y52326D01*
Y58117D01*
X580391Y58313D01*
X580420Y58508D01*
X580468Y58698D01*
X580534Y58883D01*
X580618Y59061D01*
X580719Y59229D01*
X580836Y59387D01*
X580968Y59533D01*
X581025Y59585D01*
Y60047D01*
X581035Y60244D01*
X581063Y60438D01*
X581111Y60629D01*
X581177Y60814D01*
X581261Y60991D01*
X581362Y61160D01*
X581480Y61318D01*
X581612Y61463D01*
X581669Y61515D01*
Y61978D01*
X581678Y62174D01*
X581707Y62368D01*
X581755Y62559D01*
X581821Y62744D01*
X581905Y62922D01*
X582006Y63090D01*
X582123Y63248D01*
X582255Y63394D01*
X582401Y63526D01*
X582558Y63643D01*
X582615Y63677D01*
X582649Y63734D01*
X582766Y63892D01*
X582898Y64037D01*
X582965Y64097D01*
X582965Y64104D01*
X582994Y64299D01*
X583042Y64489D01*
X583108Y64675D01*
X583192Y64852D01*
X583293Y65021D01*
X583410Y65178D01*
X583542Y65324D01*
X583688Y65456D01*
X583845Y65573D01*
X583902Y65607D01*
X583936Y65664D01*
X584053Y65822D01*
X584185Y65968D01*
X584331Y66100D01*
X584489Y66217D01*
X584546Y66251D01*
X584580Y66308D01*
X584697Y66465D01*
X584829Y66611D01*
X584974Y66743D01*
X585132Y66860D01*
X585189Y66894D01*
X585223Y66951D01*
X585340Y67109D01*
X585472Y67255D01*
X585618Y67386D01*
X585776Y67503D01*
X585944Y67605D01*
X586122Y67689D01*
X586307Y67755D01*
X586498Y67803D01*
X586692Y67831D01*
X586699Y67832D01*
X586759Y67898D01*
X586905Y68030D01*
X587063Y68147D01*
X587231Y68248D01*
X587409Y68332D01*
X587594Y68398D01*
X587785Y68446D01*
X587979Y68475D01*
X587986Y68475D01*
X588046Y68541D01*
X588192Y68673D01*
X588350Y68790D01*
X588518Y68892D01*
X588696Y68976D01*
X588881Y69042D01*
X589071Y69089D01*
X589266Y69118D01*
X589273Y69119D01*
X589333Y69185D01*
X589390Y69236D01*
Y69699D01*
X589400Y69896D01*
X589428Y70090D01*
X589476Y70281D01*
X589542Y70466D01*
X589627Y70643D01*
X589728Y70812D01*
X589845Y70970D01*
X589977Y71115D01*
X590033Y71167D01*
Y71630D01*
X590043Y71826D01*
X590072Y72020D01*
X590120Y72211D01*
X590186Y72396D01*
X590270Y72574D01*
X590371Y72742D01*
X590488Y72900D01*
X590620Y73046D01*
X590766Y73178D01*
X590923Y73295D01*
X590980Y73329D01*
X591014Y73386D01*
X591132Y73544D01*
X591263Y73689D01*
X591330Y73749D01*
X591330Y73756D01*
X591359Y73951D01*
X591407Y74141D01*
X591473Y74326D01*
X591557Y74504D01*
X591658Y74673D01*
X591775Y74830D01*
X591907Y74976D01*
X592052Y75108D01*
X592210Y75225D01*
X592267Y75259D01*
X592301Y75316D01*
X592418Y75474D01*
X592550Y75620D01*
X592696Y75752D01*
X592854Y75869D01*
X593022Y75970D01*
X593200Y76054D01*
X593385Y76120D01*
X593576Y76167D01*
X593770Y76196D01*
X593777Y76197D01*
X593837Y76263D01*
X593983Y76395D01*
X594141Y76512D01*
X594198Y76546D01*
X594232Y76603D01*
X594349Y76761D01*
X594481Y76906D01*
X594626Y77038D01*
X594784Y77155D01*
X594953Y77256D01*
X595130Y77340D01*
X595315Y77407D01*
X595506Y77454D01*
X595700Y77483D01*
X595897Y77493D01*
X596359D01*
X596411Y77550D01*
X596557Y77682D01*
X596715Y77799D01*
X596883Y77900D01*
X597061Y77984D01*
X597246Y78050D01*
X597436Y78098D01*
X597631Y78127D01*
X597827Y78136D01*
X602331D01*
X602528Y78127D01*
X602722Y78098D01*
X602912Y78050D01*
X603097Y77984D01*
X603275Y77900D01*
X603444Y77799D01*
X603601Y77682D01*
X603715Y77579D01*
X603783Y77721D01*
X603884Y77890D01*
X604001Y78048D01*
X604133Y78193D01*
X604278Y78325D01*
X604436Y78442D01*
X604493Y78476D01*
X604527Y78533D01*
X604644Y78691D01*
X604776Y78837D01*
X604922Y78969D01*
X605079Y79086D01*
X605136Y79120D01*
X605171Y79177D01*
X605288Y79335D01*
X605420Y79480D01*
X605565Y79612D01*
X605723Y79729D01*
X605780Y79763D01*
X605814Y79820D01*
X605931Y79978D01*
X606063Y80124D01*
X606209Y80256D01*
X606367Y80373D01*
X606423Y80407D01*
X606457Y80464D01*
X606575Y80622D01*
X606707Y80767D01*
X606852Y80899D01*
X607010Y81016D01*
X607067Y81050D01*
X607101Y81107D01*
X607218Y81265D01*
X607350Y81411D01*
X607495Y81543D01*
X607653Y81660D01*
X607710Y81694D01*
X607744Y81751D01*
X607861Y81909D01*
X607993Y82054D01*
X608139Y82186D01*
X608297Y82303D01*
X608354Y82337D01*
X608388Y82394D01*
X608505Y82552D01*
X608637Y82698D01*
X608783Y82830D01*
X608940Y82947D01*
X609109Y83048D01*
X609286Y83132D01*
X609472Y83198D01*
X609662Y83246D01*
X609856Y83274D01*
X609864Y83275D01*
X609924Y83341D01*
X610069Y83473D01*
X610227Y83590D01*
X610396Y83691D01*
X610573Y83775D01*
X610758Y83841D01*
X610949Y83889D01*
X611143Y83918D01*
X611151Y83918D01*
X611211Y83984D01*
X611356Y84116D01*
X611514Y84234D01*
X611683Y84334D01*
X611860Y84419D01*
X612045Y84485D01*
X612236Y84532D01*
X612430Y84561D01*
X612438Y84562D01*
X612498Y84628D01*
X612643Y84760D01*
X612801Y84877D01*
X612970Y84978D01*
X613147Y85062D01*
X613332Y85128D01*
X613523Y85176D01*
X613717Y85205D01*
X613913Y85214D01*
X615020D01*
X615071Y85271D01*
X615217Y85403D01*
X615375Y85520D01*
X615543Y85621D01*
X615721Y85705D01*
X615906Y85772D01*
X616097Y85819D01*
X616291Y85848D01*
X616487Y85858D01*
X622922D01*
X623118Y85848D01*
D02*
G37*
G36*
X121268Y71108D02*
Y69076D01*
Y67044D01*
Y65012D01*
Y62980D01*
Y60948D01*
Y58916D01*
Y56884D01*
Y54852D01*
Y52820D01*
Y50788D01*
Y48756D01*
Y46724D01*
Y44692D01*
Y42660D01*
Y40628D01*
Y38596D01*
Y36564D01*
Y34532D01*
Y32500D01*
Y30468D01*
Y28436D01*
Y26404D01*
Y24372D01*
Y22340D01*
Y20308D01*
Y18276D01*
Y16244D01*
Y14212D01*
Y12180D01*
Y10148D01*
Y8116D01*
Y6084D01*
X54212D01*
Y8116D01*
Y10148D01*
Y12180D01*
Y14212D01*
Y16244D01*
Y18276D01*
Y20308D01*
Y22340D01*
Y24372D01*
Y26404D01*
Y28436D01*
Y30468D01*
Y32500D01*
Y34532D01*
Y36564D01*
Y38596D01*
Y40628D01*
Y42660D01*
Y44692D01*
Y46724D01*
Y48756D01*
Y50788D01*
Y52820D01*
Y54852D01*
Y56884D01*
Y58916D01*
Y60948D01*
Y62980D01*
Y65012D01*
Y67044D01*
Y69076D01*
Y71108D01*
Y73140D01*
X121268D01*
Y71108D01*
D02*
G37*
G36*
X135000Y6084D02*
X123435D01*
Y73140D01*
X135000D01*
Y6084D01*
D02*
G37*
%LPC*%
G36*
X92820Y65012D02*
X90788D01*
Y62980D01*
X92820D01*
Y65012D01*
D02*
G37*
G36*
X96884Y62980D02*
X94852D01*
Y60948D01*
X96884D01*
Y62980D01*
D02*
G37*
G36*
X88756Y65012D02*
X86724D01*
Y62980D01*
X88756D01*
Y60948D01*
Y58916D01*
X82660D01*
Y60948D01*
X86724D01*
Y62980D01*
X82660D01*
Y65012D01*
X78596D01*
Y62980D01*
Y60948D01*
Y58916D01*
X80628D01*
Y56884D01*
X78596D01*
Y54852D01*
X82660D01*
Y52820D01*
Y50788D01*
X84692D01*
Y52820D01*
X86724D01*
Y50788D01*
Y48756D01*
X90788D01*
Y46724D01*
X92820D01*
Y44692D01*
X90788D01*
Y42660D01*
X92820D01*
Y40628D01*
Y38596D01*
X88756D01*
Y40628D01*
Y42660D01*
X86724D01*
Y44692D01*
X88756D01*
Y46724D01*
X84692D01*
Y48756D01*
X82660D01*
Y50788D01*
X80628D01*
Y52820D01*
X78596D01*
Y50788D01*
X80628D01*
Y48756D01*
X68436D01*
Y46724D01*
X66404D01*
Y44692D01*
X62340D01*
Y42660D01*
X66404D01*
Y40628D01*
Y38596D01*
Y36564D01*
Y34532D01*
X64372D01*
Y32500D01*
Y30468D01*
X70468D01*
Y32500D01*
X68436D01*
Y34532D01*
Y36564D01*
X72500D01*
Y38596D01*
X70468D01*
Y40628D01*
Y42660D01*
X68436D01*
Y44692D01*
X70468D01*
Y46724D01*
X76564D01*
Y44692D01*
X80628D01*
Y42660D01*
X82660D01*
Y40628D01*
X84692D01*
Y38596D01*
X86724D01*
Y36564D01*
X88756D01*
Y34532D01*
X90788D01*
Y36564D01*
X92820D01*
Y34532D01*
X94852D01*
Y32500D01*
X92820D01*
Y30468D01*
X94852D01*
Y28436D01*
Y26404D01*
X92820D01*
Y28436D01*
Y30468D01*
X90788D01*
Y32500D01*
X88756D01*
Y30468D01*
X90788D01*
Y28436D01*
Y26404D01*
X88756D01*
Y24372D01*
X90788D01*
Y22340D01*
X92820D01*
Y20308D01*
X94852D01*
Y18276D01*
X98916D01*
Y16244D01*
Y14212D01*
X100948D01*
Y16244D01*
X105012D01*
Y14212D01*
X107044D01*
Y16244D01*
X105012D01*
Y18276D01*
X107044D01*
Y16244D01*
X111108D01*
Y14212D01*
X113140D01*
Y16244D01*
Y18276D01*
Y20308D01*
Y22340D01*
X109076D01*
Y20308D01*
X102980D01*
Y18276D01*
X98916D01*
Y20308D01*
X100948D01*
Y22340D01*
X105012D01*
Y24372D01*
Y26404D01*
Y28436D01*
Y30468D01*
Y32500D01*
X102980D01*
Y34532D01*
X98916D01*
Y36564D01*
X96884D01*
Y38596D01*
X94852D01*
Y40628D01*
X98916D01*
Y38596D01*
X100948D01*
Y40628D01*
X98916D01*
Y42660D01*
X94852D01*
Y44692D01*
Y46724D01*
Y48756D01*
X90788D01*
Y50788D01*
X88756D01*
Y52820D01*
X86724D01*
Y54852D01*
X82660D01*
Y56884D01*
X90788D01*
Y58916D01*
X94852D01*
Y56884D01*
Y54852D01*
Y52820D01*
Y50788D01*
Y48756D01*
X96884D01*
Y46724D01*
X98916D01*
Y48756D01*
X96884D01*
Y50788D01*
Y52820D01*
Y54852D01*
Y56884D01*
Y58916D01*
X94852D01*
Y60948D01*
X90788D01*
Y62980D01*
X88756D01*
Y65012D01*
D02*
G37*
G36*
X113140D02*
X98916D01*
Y62980D01*
Y60948D01*
Y58916D01*
Y56884D01*
Y54852D01*
Y52820D01*
Y50788D01*
X113140D01*
Y52820D01*
Y54852D01*
Y56884D01*
Y58916D01*
Y60948D01*
Y62980D01*
Y65012D01*
D02*
G37*
G36*
X90788Y54852D02*
X88756D01*
Y52820D01*
X90788D01*
Y50788D01*
X92820D01*
Y52820D01*
X90788D01*
Y54852D01*
D02*
G37*
G36*
X76564Y65012D02*
X62340D01*
Y62980D01*
Y60948D01*
Y58916D01*
Y56884D01*
Y54852D01*
Y52820D01*
Y50788D01*
X76564D01*
Y52820D01*
Y54852D01*
Y56884D01*
Y58916D01*
Y60948D01*
Y62980D01*
Y65012D01*
D02*
G37*
G36*
X113140Y48756D02*
X107044D01*
Y46724D01*
X105012D01*
Y48756D01*
X102980D01*
Y46724D01*
Y44692D01*
Y42660D01*
X105012D01*
Y40628D01*
X111108D01*
Y38596D01*
X113140D01*
Y40628D01*
Y42660D01*
Y44692D01*
X111108D01*
Y46724D01*
X113140D01*
Y48756D01*
D02*
G37*
G36*
X64372D02*
X62340D01*
Y46724D01*
X64372D01*
Y48756D01*
D02*
G37*
G36*
X102980Y42660D02*
X100948D01*
Y40628D01*
X102980D01*
Y42660D01*
D02*
G37*
G36*
X111108Y38596D02*
X109076D01*
Y36564D01*
X105012D01*
Y38596D01*
X102980D01*
Y36564D01*
Y34532D01*
X105012D01*
Y32500D01*
X107044D01*
Y30468D01*
Y28436D01*
X111108D01*
Y26404D01*
X113140D01*
Y28436D01*
X111108D01*
Y30468D01*
Y32500D01*
X109076D01*
Y34532D01*
X111108D01*
Y32500D01*
X113140D01*
Y34532D01*
Y36564D01*
X111108D01*
Y38596D01*
D02*
G37*
G36*
X84692D02*
X82660D01*
Y36564D01*
X84692D01*
Y38596D01*
D02*
G37*
G36*
X76564Y44692D02*
X74532D01*
Y42660D01*
X76564D01*
Y40628D01*
X72500D01*
Y38596D01*
X76564D01*
Y36564D01*
X80628D01*
Y34532D01*
X82660D01*
Y36564D01*
X80628D01*
Y38596D01*
X78596D01*
Y40628D01*
Y42660D01*
X76564D01*
Y44692D01*
D02*
G37*
G36*
Y36564D02*
X74532D01*
Y34532D01*
X76564D01*
Y36564D01*
D02*
G37*
G36*
X86724Y34532D02*
X84692D01*
Y32500D01*
X80628D01*
Y34532D01*
X78596D01*
Y32500D01*
X80628D01*
Y30468D01*
X82660D01*
Y28436D01*
Y26404D01*
X84692D01*
Y24372D01*
X80628D01*
Y26404D01*
Y28436D01*
Y30468D01*
X78596D01*
Y28436D01*
Y26404D01*
Y24372D01*
Y22340D01*
Y20308D01*
X80628D01*
Y18276D01*
Y16244D01*
X78596D01*
Y14212D01*
X82660D01*
Y16244D01*
X84692D01*
Y14212D01*
X86724D01*
Y16244D01*
X84692D01*
Y18276D01*
X86724D01*
Y16244D01*
X88756D01*
Y18276D01*
X92820D01*
Y20308D01*
X86724D01*
Y22340D01*
X88756D01*
Y24372D01*
X86724D01*
Y26404D01*
Y28436D01*
X84692D01*
Y30468D01*
X86724D01*
Y32500D01*
Y34532D01*
D02*
G37*
G36*
X76564Y32500D02*
X72500D01*
Y30468D01*
X76564D01*
Y32500D01*
D02*
G37*
G36*
X96884Y16244D02*
X92820D01*
Y14212D01*
X96884D01*
Y16244D01*
D02*
G37*
G36*
X76564Y28436D02*
X62340D01*
Y26404D01*
Y24372D01*
Y22340D01*
Y20308D01*
Y18276D01*
Y16244D01*
Y14212D01*
X76564D01*
Y16244D01*
Y18276D01*
Y20308D01*
Y22340D01*
Y24372D01*
Y26404D01*
Y28436D01*
D02*
G37*
%LPD*%
G36*
X84692Y44692D02*
Y42660D01*
X86724D01*
Y40628D01*
X84692D01*
Y42660D01*
X82660D01*
Y44692D01*
Y46724D01*
X84692D01*
Y44692D01*
D02*
G37*
G36*
X102980Y28436D02*
Y26404D01*
Y24372D01*
X96884D01*
Y26404D01*
Y28436D01*
Y30468D01*
X102980D01*
Y28436D01*
D02*
G37*
%LPC*%
G36*
X100948D02*
X98916D01*
Y26404D01*
X100948D01*
Y28436D01*
D02*
G37*
%LPD*%
G36*
X111108Y60948D02*
Y58916D01*
Y56884D01*
Y54852D01*
Y52820D01*
X100948D01*
Y54852D01*
Y56884D01*
Y58916D01*
Y60948D01*
Y62980D01*
X111108D01*
Y60948D01*
D02*
G37*
%LPC*%
G36*
X109076D02*
X102980D01*
Y58916D01*
Y56884D01*
Y54852D01*
X109076D01*
Y56884D01*
Y58916D01*
Y60948D01*
D02*
G37*
%LPD*%
G36*
X74532D02*
Y58916D01*
Y56884D01*
Y54852D01*
Y52820D01*
X64372D01*
Y54852D01*
Y56884D01*
Y58916D01*
Y60948D01*
Y62980D01*
X74532D01*
Y60948D01*
D02*
G37*
%LPC*%
G36*
X72500D02*
X66404D01*
Y58916D01*
Y56884D01*
Y54852D01*
X72500D01*
Y56884D01*
Y58916D01*
Y60948D01*
D02*
G37*
%LPD*%
G36*
X74532Y24372D02*
Y22340D01*
Y20308D01*
Y18276D01*
Y16244D01*
X64372D01*
Y18276D01*
Y20308D01*
Y22340D01*
Y24372D01*
Y26404D01*
X74532D01*
Y24372D01*
D02*
G37*
%LPC*%
G36*
X72500D02*
X66404D01*
Y22340D01*
Y20308D01*
Y18276D01*
X72500D01*
Y20308D01*
Y22340D01*
Y24372D01*
D02*
G37*
G36*
X127890Y63635D02*
X124638D01*
Y57573D01*
Y60643D01*
X124651Y60565D01*
Y60448D01*
X124677Y60306D01*
X124703Y60138D01*
X124729Y59956D01*
X124781Y59775D01*
X124832Y59568D01*
X124910Y59360D01*
X125001Y59153D01*
X125105Y58946D01*
X125234Y58739D01*
X125377Y58544D01*
X125545Y58376D01*
X125739Y58208D01*
X125752Y58194D01*
X125778Y58182D01*
X125830Y58156D01*
X125895Y58104D01*
X125985Y58065D01*
X126089Y58013D01*
X126206Y57948D01*
X126348Y57897D01*
X126503Y57832D01*
X126672Y57780D01*
X126853Y57715D01*
X127061Y57676D01*
X127268Y57638D01*
X127488Y57599D01*
X127734Y57586D01*
X127980Y57573D01*
X128136D01*
X128252Y57586D01*
X128382Y57599D01*
X128537Y57612D01*
X128706Y57638D01*
X128900Y57676D01*
X129302Y57780D01*
X129509Y57845D01*
X129729Y57923D01*
X129936Y58026D01*
X130131Y58143D01*
X130325Y58272D01*
X130506Y58415D01*
X130519Y58428D01*
X130545Y58454D01*
X130597Y58505D01*
X130649Y58570D01*
X130714Y58648D01*
X130791Y58752D01*
X130882Y58868D01*
X130973Y58998D01*
X131050Y59140D01*
X131141Y59309D01*
X131219Y59477D01*
X131284Y59671D01*
X131335Y59866D01*
X131387Y60086D01*
X131413Y60306D01*
X131426Y60539D01*
Y60682D01*
X131413Y60785D01*
X131400Y60902D01*
X131374Y61044D01*
X131348Y61200D01*
X131309Y61368D01*
X131258Y61550D01*
X131193Y61731D01*
X131115Y61925D01*
X131011Y62120D01*
X130908Y62301D01*
X130778Y62482D01*
X130623Y62664D01*
X130455Y62819D01*
X130442Y62832D01*
X130416Y62858D01*
X130351Y62897D01*
X130273Y62949D01*
X130169Y63013D01*
X130053Y63078D01*
X129897Y63156D01*
X129729Y63234D01*
X129535Y63311D01*
X129314Y63389D01*
X129081Y63454D01*
X128809Y63519D01*
X128524Y63570D01*
X128214Y63609D01*
X127890Y63635D01*
D02*
G37*
G36*
X131089Y57327D02*
X129600Y56782D01*
X129613Y56770D01*
X129638Y56705D01*
X129690Y56627D01*
X129742Y56523D01*
X129794Y56394D01*
X129846Y56264D01*
X129872Y56122D01*
X129885Y55979D01*
Y55928D01*
X129872Y55850D01*
X129859Y55772D01*
X129833Y55681D01*
X129794Y55578D01*
X129742Y55474D01*
X129677Y55370D01*
X129664Y55358D01*
X129638Y55332D01*
X129587Y55280D01*
X129509Y55228D01*
X129418Y55163D01*
X129289Y55099D01*
X129133Y55034D01*
X128952Y54982D01*
X128926D01*
X128887Y54969D01*
X128848Y54956D01*
X128783D01*
X128706Y54943D01*
X128602Y54930D01*
X128485Y54917D01*
X128356Y54904D01*
X128188Y54891D01*
X128019Y54878D01*
X127812D01*
X127592Y54865D01*
X127346Y54852D01*
X127073D01*
X126776D01*
X124781D01*
Y53130D01*
X131284D01*
Y54723D01*
X130364D01*
X130377Y54736D01*
X130455Y54788D01*
X130571Y54865D01*
X130714Y54969D01*
X130856Y55073D01*
X130999Y55202D01*
X131128Y55319D01*
X131219Y55448D01*
X131232Y55461D01*
X131258Y55500D01*
X131284Y55578D01*
X131322Y55669D01*
X131361Y55772D01*
X131400Y55902D01*
X131413Y56031D01*
X131426Y56187D01*
Y56290D01*
X131413Y56407D01*
X131387Y56549D01*
X131348Y56731D01*
X131284Y56925D01*
X131206Y57119D01*
X131089Y57327D01*
D02*
G37*
G36*
X124781Y51873D02*
Y50176D01*
X124794D01*
X124807Y50163D01*
X124858Y50150D01*
X124910Y50124D01*
X124975Y50098D01*
X125066Y50072D01*
X125169Y50046D01*
X125286Y50008D01*
X125299D01*
X125312Y49995D01*
X125364Y49982D01*
X125428Y49956D01*
X125480Y49943D01*
X125467Y49917D01*
X125415Y49865D01*
X125338Y49774D01*
X125247Y49658D01*
X125143Y49515D01*
X125027Y49360D01*
X124936Y49179D01*
X124845Y48997D01*
X124832Y48971D01*
X124819Y48906D01*
X124781Y48803D01*
X124742Y48673D01*
X124703Y48518D01*
X124677Y48337D01*
X124651Y48129D01*
X124638Y47922D01*
Y51873D01*
X124781D01*
X124638D01*
Y45772D01*
Y47831D01*
X124651Y47754D01*
Y47676D01*
X124664Y47572D01*
X124703Y47352D01*
X124768Y47093D01*
X124858Y46834D01*
X124988Y46575D01*
X125169Y46342D01*
X125182D01*
X125195Y46316D01*
X125273Y46251D01*
X125389Y46160D01*
X125545Y46057D01*
X125739Y45953D01*
X125972Y45862D01*
X126244Y45798D01*
X126387Y45785D01*
X126542Y45772D01*
X131426D01*
Y49049D01*
Y48958D01*
X131413Y49049D01*
Y49153D01*
X131387Y49412D01*
X131361Y49684D01*
X131309Y49969D01*
X131232Y50241D01*
X131193Y50357D01*
X131141Y50474D01*
Y50487D01*
X131128Y50500D01*
X131089Y50565D01*
X131037Y50668D01*
X130960Y50785D01*
X130856Y50927D01*
X130739Y51057D01*
X130597Y51173D01*
X130455Y51277D01*
X130429Y51290D01*
X130377Y51316D01*
X130260Y51355D01*
X130195Y51368D01*
X130105Y51394D01*
X130014Y51420D01*
X129897Y51432D01*
X129768Y51458D01*
X129625Y51471D01*
X129470Y51484D01*
X129302Y51497D01*
X129120Y51510D01*
X128913D01*
X126905Y51484D01*
X126892D01*
X126866D01*
X126827D01*
X126763D01*
X126607D01*
X126426Y51497D01*
X126219D01*
X126011Y51523D01*
X125804Y51536D01*
X125636Y51562D01*
X125623D01*
X125571Y51575D01*
X125480Y51601D01*
X125377Y51627D01*
X125247Y51679D01*
X125105Y51730D01*
X124949Y51795D01*
X124781Y51873D01*
D02*
G37*
G36*
X131426Y42572D02*
Y42507D01*
D01*
Y42572D01*
D02*
G37*
G36*
Y44528D02*
X124781D01*
Y42805D01*
X128485D01*
X128498D01*
X128524D01*
X128576D01*
X128641D01*
X128809Y42792D01*
X129004Y42779D01*
X129211Y42766D01*
X129418Y42727D01*
X129600Y42689D01*
X129664Y42650D01*
X129729Y42624D01*
X129742Y42611D01*
X129794Y42572D01*
X129846Y42520D01*
X129923Y42442D01*
X129988Y42339D01*
X130053Y42209D01*
X130092Y42054D01*
X130105Y41885D01*
Y41821D01*
X130092Y41756D01*
X130079Y41665D01*
X130053Y41562D01*
X130014Y41445D01*
X129962Y41315D01*
X129885Y41199D01*
X129872Y41186D01*
X129846Y41147D01*
X129794Y41095D01*
X129716Y41030D01*
X129625Y40953D01*
X129522Y40875D01*
X129392Y40810D01*
X129237Y40746D01*
X129211D01*
X129159Y40720D01*
X129056Y40707D01*
X128913Y40681D01*
X128719Y40655D01*
X128485Y40642D01*
X128214Y40616D01*
X127890D01*
X124781D01*
Y38893D01*
X128330D01*
X128343D01*
X128369D01*
X128421D01*
X128485D01*
X128641D01*
X128835Y38880D01*
X129043Y38867D01*
X129237Y38854D01*
X129418Y38828D01*
X129496Y38802D01*
X129548Y38789D01*
X129561D01*
X129600Y38777D01*
X129651Y38751D01*
X129703Y38725D01*
X129846Y38634D01*
X129910Y38569D01*
X129962Y38504D01*
X129975Y38491D01*
X129988Y38466D01*
X130014Y38427D01*
X130040Y38375D01*
X130066Y38297D01*
X130079Y38207D01*
X130105Y38103D01*
Y37922D01*
X130092Y37844D01*
X130079Y37753D01*
X130053Y37636D01*
X130014Y37520D01*
X129962Y37403D01*
X129885Y37274D01*
X129872Y37261D01*
X129846Y37222D01*
X129794Y37170D01*
X129729Y37105D01*
X129638Y37028D01*
X129535Y36950D01*
X129405Y36885D01*
X129263Y36820D01*
X129250D01*
X129185Y36795D01*
X129081Y36781D01*
X128952Y36756D01*
X128757Y36730D01*
X128537Y36717D01*
X128252Y36691D01*
X127928D01*
X124781D01*
Y34968D01*
X131284D01*
Y36548D01*
X130390D01*
X130403Y36561D01*
X130429Y36587D01*
X130480Y36639D01*
X130558Y36704D01*
X130636Y36781D01*
X130714Y36872D01*
X130817Y36989D01*
X130908Y37118D01*
X130999Y37261D01*
X131102Y37416D01*
X131271Y37753D01*
X131335Y37947D01*
X131387Y38142D01*
X131413Y38349D01*
X131426Y38569D01*
Y36781D01*
Y38673D01*
X131413Y38789D01*
X131400Y38932D01*
X131361Y39100D01*
X131322Y39282D01*
X131258Y39463D01*
X131167Y39644D01*
X131154Y39670D01*
X131115Y39722D01*
X131063Y39813D01*
X130973Y39916D01*
X130856Y40033D01*
X130726Y40163D01*
X130558Y40292D01*
X130377Y40409D01*
X130403Y40435D01*
X130468Y40486D01*
X130558Y40564D01*
X130675Y40681D01*
X130804Y40823D01*
X130934Y40979D01*
X131063Y41147D01*
X131167Y41328D01*
X131180Y41354D01*
X131206Y41419D01*
X131245Y41523D01*
X131297Y41652D01*
X131348Y41808D01*
X131387Y41989D01*
X131413Y42183D01*
X131426Y42391D01*
Y42507D01*
X131413Y42637D01*
X131387Y42805D01*
X131348Y43000D01*
X131297Y43194D01*
X131232Y43401D01*
X131128Y43595D01*
X131115Y43621D01*
X131076Y43673D01*
X131011Y43764D01*
X130921Y43880D01*
X130791Y43997D01*
X130649Y44127D01*
X130480Y44243D01*
X130273Y44347D01*
X130260Y44360D01*
X130195Y44373D01*
X130092Y44398D01*
X129949Y44437D01*
X129768Y44476D01*
X129535Y44502D01*
X129250Y44515D01*
X128926Y44528D01*
X131426D01*
D02*
G37*
G36*
X133589Y34048D02*
Y32727D01*
X131284D01*
Y33906D01*
X129910D01*
Y32727D01*
X127281D01*
X127268D01*
X127242D01*
X127203D01*
X127151D01*
X127022D01*
X126866D01*
X126711Y32740D01*
X126555D01*
X126439D01*
X126387Y32753D01*
X126361D01*
X126335Y32766D01*
X126283Y32792D01*
X126219Y32831D01*
X126141Y32908D01*
X126128Y32934D01*
X126102Y32986D01*
X126076Y33077D01*
X126063Y33193D01*
Y33245D01*
X126076Y33297D01*
X126089Y33375D01*
X126102Y33478D01*
X126128Y33595D01*
X126167Y33737D01*
X126219Y33893D01*
X124884Y34048D01*
D01*
Y34035D01*
X124871Y34022D01*
X124845Y33945D01*
X124807Y33815D01*
X124768Y33647D01*
X124716Y33452D01*
X124677Y33219D01*
X124651Y32960D01*
X124638Y32688D01*
Y34048D01*
X124884D01*
X124638D01*
Y30214D01*
Y32610D01*
X124651Y32520D01*
X124664Y32403D01*
X124677Y32273D01*
X124703Y32131D01*
X124742Y31989D01*
X124794Y31846D01*
X124807Y31833D01*
X124819Y31781D01*
X124858Y31716D01*
X124897Y31639D01*
X125027Y31457D01*
X125105Y31367D01*
X125195Y31289D01*
X125208Y31276D01*
X125247Y31263D01*
X125299Y31237D01*
X125377Y31198D01*
X125467Y31160D01*
X125584Y31121D01*
X125713Y31082D01*
X125856Y31056D01*
X125869D01*
X125921Y31043D01*
X125998D01*
X126128Y31030D01*
X126296Y31017D01*
X126503D01*
X126620Y31004D01*
X126763D01*
X126905D01*
X127073D01*
X129910D01*
Y30214D01*
X131284D01*
Y31004D01*
X132579D01*
X133589Y32727D01*
Y31457D01*
Y34048D01*
D02*
G37*
G36*
X133745Y29152D02*
X124781D01*
Y27429D01*
X133745D01*
Y29152D01*
D02*
G37*
G36*
X133797Y24488D02*
X124781D01*
Y20550D01*
Y22765D01*
X131271D01*
X131258Y22752D01*
X131232Y22726D01*
X131193Y22675D01*
X131128Y22597D01*
X131050Y22506D01*
X130973Y22403D01*
X130882Y22273D01*
X130778Y22131D01*
X130675Y21975D01*
X130571Y21807D01*
X130455Y21625D01*
X130351Y21431D01*
X130157Y21016D01*
X129975Y20550D01*
X124781D01*
X133797D01*
X131530D01*
Y20563D01*
X131543Y20576D01*
X131556Y20615D01*
X131568Y20667D01*
X131633Y20796D01*
X131711Y20978D01*
X131815Y21198D01*
X131957Y21444D01*
X132139Y21716D01*
X132346Y22001D01*
X132359Y22014D01*
X132372Y22040D01*
X132411Y22079D01*
X132462Y22131D01*
X132592Y22273D01*
X132760Y22429D01*
X132968Y22610D01*
X133227Y22791D01*
X133499Y22960D01*
X133797Y23089D01*
Y24488D01*
D02*
G37*
G36*
X133589Y19423D02*
Y18102D01*
X131284D01*
Y19281D01*
X129910D01*
Y18102D01*
X127281D01*
X127268D01*
X127242D01*
X127203D01*
X127151D01*
X127022D01*
X126866D01*
X126711Y18115D01*
X126555D01*
X126439D01*
X126387Y18128D01*
X126361D01*
X126335Y18141D01*
X126283Y18167D01*
X126219Y18205D01*
X126141Y18283D01*
X126128Y18309D01*
X126102Y18361D01*
X126076Y18452D01*
X126063Y18568D01*
Y18620D01*
X126076Y18672D01*
X126089Y18750D01*
X126102Y18853D01*
X126128Y18970D01*
X126167Y19112D01*
X126219Y19268D01*
X124884Y19423D01*
D01*
Y19410D01*
X124871Y19397D01*
X124845Y19319D01*
X124807Y19190D01*
X124768Y19022D01*
X124716Y18827D01*
X124677Y18594D01*
X124651Y18335D01*
X124638Y18063D01*
Y17985D01*
X124651Y17895D01*
X124664Y17778D01*
X124677Y17649D01*
X124703Y17506D01*
X124742Y17364D01*
X124794Y17221D01*
X124807Y17208D01*
X124819Y17156D01*
X124858Y17091D01*
X124897Y17014D01*
X125027Y16832D01*
X125105Y16742D01*
X125195Y16664D01*
X125208Y16651D01*
X125247Y16638D01*
X125299Y16612D01*
X125377Y16573D01*
X125467Y16534D01*
X125584Y16496D01*
X125713Y16457D01*
X125856Y16431D01*
X125869D01*
X125921Y16418D01*
X125998D01*
X126128Y16405D01*
X126296Y16392D01*
X126503D01*
X126620Y16379D01*
X126763D01*
X126905D01*
X127073D01*
X129910D01*
Y15589D01*
X131284D01*
Y16379D01*
X132579D01*
X133589Y18102D01*
Y16832D01*
Y19423D01*
D02*
G37*
%LPD*%
G36*
X128693Y61912D02*
X128835Y61899D01*
X128991Y61873D01*
X129172Y61822D01*
X129366Y61757D01*
X129548Y61653D01*
X129703Y61537D01*
X129716Y61524D01*
X129768Y61472D01*
X129833Y61394D01*
X129910Y61290D01*
X129975Y61161D01*
X130040Y61006D01*
X130092Y60837D01*
X130105Y60643D01*
Y60552D01*
X130079Y60448D01*
X130053Y60319D01*
X130001Y60177D01*
X129936Y60021D01*
X129833Y59866D01*
X129690Y59723D01*
X129677Y59710D01*
X129613Y59671D01*
X129522Y59606D01*
X129392Y59542D01*
X129237Y59464D01*
X129043Y59412D01*
X128822Y59373D01*
X128576Y59360D01*
Y61925D01*
X128589D01*
X128615D01*
X128641D01*
X128693Y61912D01*
D02*
G37*
G36*
X127527Y59335D02*
X127514D01*
X127488D01*
X127449D01*
X127397Y59347D01*
X127268Y59360D01*
X127086Y59386D01*
X126905Y59438D01*
X126698Y59516D01*
X126503Y59606D01*
X126335Y59736D01*
X126322Y59749D01*
X126270Y59814D01*
X126206Y59892D01*
X126128Y60008D01*
X126050Y60151D01*
X125985Y60332D01*
X125934Y60526D01*
X125921Y60733D01*
Y60798D01*
X125934Y60876D01*
X125947Y60967D01*
X125972Y61070D01*
X126011Y61187D01*
X126063Y61304D01*
X126141Y61407D01*
X126154Y61420D01*
X126180Y61459D01*
X126231Y61511D01*
X126309Y61562D01*
X126413Y61640D01*
X126529Y61705D01*
X126685Y61770D01*
X126853Y61835D01*
X126568Y63545D01*
X126555D01*
X126529Y63531D01*
X126478Y63506D01*
X126413Y63480D01*
X126335Y63441D01*
X126244Y63402D01*
X126037Y63285D01*
X125804Y63143D01*
X125558Y62962D01*
X125338Y62741D01*
X125130Y62495D01*
Y62482D01*
X125105Y62469D01*
X125091Y62417D01*
X125053Y62366D01*
X125014Y62301D01*
X124975Y62210D01*
X124936Y62120D01*
X124884Y62003D01*
X124794Y61744D01*
X124716Y61446D01*
X124664Y61096D01*
X124638Y60721D01*
Y63635D01*
X127527D01*
Y59335D01*
D02*
G37*
G36*
X127890Y49800D02*
X127864Y49749D01*
X127851Y49671D01*
X127812Y49554D01*
X127773Y49412D01*
X127721Y49217D01*
X127669Y49010D01*
X127618Y48751D01*
Y48725D01*
X127605Y48686D01*
X127592Y48634D01*
X127566Y48518D01*
X127527Y48362D01*
X127488Y48207D01*
X127436Y48052D01*
X127371Y47922D01*
X127320Y47818D01*
X127307Y47805D01*
X127281Y47766D01*
X127229Y47715D01*
X127164Y47663D01*
X127073Y47598D01*
X126970Y47546D01*
X126853Y47507D01*
X126724Y47495D01*
X126711D01*
X126659D01*
X126594Y47507D01*
X126517Y47533D01*
X126413Y47559D01*
X126309Y47598D01*
X126206Y47663D01*
X126102Y47754D01*
X126089Y47766D01*
X126063Y47805D01*
X126024Y47857D01*
X125972Y47948D01*
X125921Y48039D01*
X125882Y48155D01*
X125856Y48298D01*
X125843Y48440D01*
Y48518D01*
X125856Y48608D01*
X125882Y48725D01*
X125921Y48868D01*
X125972Y49010D01*
X126037Y49179D01*
X126141Y49334D01*
X126154Y49347D01*
X126180Y49386D01*
X126231Y49438D01*
X126296Y49502D01*
X126387Y49567D01*
X126478Y49632D01*
X126594Y49697D01*
X126711Y49735D01*
X126724D01*
X126750Y49749D01*
X126814Y49761D01*
X126892Y49774D01*
X127009Y49787D01*
X127151Y49800D01*
X127333Y49813D01*
X127540D01*
X127890D01*
Y49800D01*
D02*
G37*
G36*
X129340D02*
X129457Y49787D01*
X129574Y49749D01*
X129690Y49710D01*
X129794Y49645D01*
X129885Y49554D01*
X129897Y49541D01*
X129923Y49502D01*
X129949Y49438D01*
X130001Y49347D01*
X130040Y49217D01*
X130066Y49062D01*
X130092Y48868D01*
X130105Y48634D01*
Y48557D01*
X130092Y48479D01*
X130079Y48375D01*
X130053Y48259D01*
X130027Y48129D01*
X129975Y48013D01*
X129910Y47909D01*
X129897Y47896D01*
X129872Y47870D01*
X129833Y47818D01*
X129768Y47766D01*
X129677Y47689D01*
X129561Y47624D01*
X129431Y47559D01*
X129276Y47495D01*
X129561Y45953D01*
X129574D01*
X129600Y45966D01*
X129651Y45979D01*
X129716Y46005D01*
X129794Y46031D01*
X129885Y46070D01*
X130092Y46160D01*
X130312Y46290D01*
X130545Y46445D01*
X130765Y46627D01*
X130960Y46847D01*
Y46860D01*
X130986Y46873D01*
X130999Y46912D01*
X131037Y46963D01*
X131063Y47041D01*
X131102Y47119D01*
X131154Y47222D01*
X131193Y47326D01*
X131232Y47456D01*
X131284Y47598D01*
X131322Y47754D01*
X131348Y47935D01*
X131387Y48116D01*
X131400Y48324D01*
X131426Y48531D01*
Y45772D01*
X126633D01*
X126737Y45785D01*
X126866Y45810D01*
X127022Y45836D01*
X127177Y45875D01*
X127346Y45940D01*
X127514Y46031D01*
X127540Y46044D01*
X127592Y46083D01*
X127669Y46134D01*
X127760Y46225D01*
X127864Y46316D01*
X127980Y46445D01*
X128084Y46588D01*
X128175Y46756D01*
X128188Y46782D01*
X128214Y46847D01*
X128252Y46950D01*
X128317Y47106D01*
X128382Y47300D01*
X128447Y47533D01*
X128511Y47818D01*
X128576Y48129D01*
Y48142D01*
X128589Y48181D01*
X128602Y48246D01*
X128615Y48324D01*
X128628Y48427D01*
X128654Y48544D01*
X128719Y48803D01*
X128783Y49075D01*
X128848Y49360D01*
X128926Y49606D01*
X128965Y49723D01*
X129004Y49813D01*
X129172D01*
X129198D01*
X129250D01*
X129340Y49800D01*
D02*
G37*
D17*
X150000Y112000D02*
D03*
Y128000D02*
D03*
D37*
X193000Y252500D02*
D03*
X113000D02*
D03*
D38*
X44700Y111900D02*
D03*
Y137300D02*
D03*
X44700Y162700D02*
D03*
X44700Y188100D02*
D03*
X19300Y137300D02*
D03*
Y162700D02*
D03*
Y111900D02*
D03*
D39*
Y188100D02*
D03*
D40*
X665000Y158900D02*
D03*
Y101100D02*
D03*
X654100Y210990D02*
D03*
Y231310D02*
D03*
X704900Y221150D02*
D03*
D41*
X691997Y272000D02*
D03*
Y28000D02*
D03*
X27996D02*
D03*
Y272000D02*
D03*
D82*
X185000Y146500D02*
D03*
X174000D02*
D03*
X163000D02*
D03*
X152000D02*
D03*
X141000D02*
D03*
X130000D02*
D03*
X119000D02*
D03*
X108000D02*
D03*
X97000D02*
D03*
D83*
X82500Y152500D02*
D03*
D84*
X85000Y248500D02*
D03*
X240000D02*
D03*
D85*
X231000Y152500D02*
D03*
D86*
X666800Y227500D02*
D03*
X692200Y214800D02*
D03*
Y227500D02*
D03*
X679500Y214800D02*
D03*
X666800D02*
D03*
X679500Y227500D02*
D03*
M02*
