0
SECTION
2
HEADER
9
$INSUNITS
70
4
9
$ACADVER
1
AC1014
9
$HANDSEED
5
FFFF
0
ENDSEC
0
SECTION
2
TABLES
0
TABLE
2
VPORT
5
8
100
AcDbSymbolTable
0
ENDTAB
0
TABLE
2
LTYPE
5
5
100
AcDbSymbolTable
0
LTYPE
5
14
100
AcDbSymbolTableRecord
100
AcDbLinetypeTableRecord
2
BYBLOCK
70
0
0
LTYPE
5
15
100
AcDbSymbolTableRecord
100
AcDbLinetypeTableRecord
2
BYLAYER
70
0
0
LTYPE
5
16
100
AcDbSymbolTableRecord
100
AcDbLinetypeTableRecord
2
DASHED
70
0
3
Dashed __ __ __ __ __ __ __ __ __ __ __ __ __ _
72
65
73
2
40
0.75
49
0.5
74
0
49
-0.25
74
0
0
ENDTAB
0
TABLE
2
LAYER
5
2
100
AcDbSymbolTable
70
2
0
LAYER
5
50
100
AcDbSymbolTableRecord
100
AcDbLayerTableRecord
2
0
70
0
62
7
6
CONTINUOUS
0
ENDTAB
0
TABLE
2
STYLE
5
3
100
AcDbSymbolTable
70
1
0
STYLE
5
11
100
AcDbSymbolTableRecord
100
AcDbTextStyleTableRecord
2
STANDARD
70
0
0
ENDTAB
0
TABLE
2
VIEW
5
6
100
AcDbSymbolTable
70
0
0
ENDTAB
0
TABLE
2
UCS
5
7
100
AcDbSymbolTable
70
0
0
ENDTAB
0
TABLE
2
APPID
5
9
100
AcDbSymbolTable
70
2
0
APPID
5
12
100
AcDbSymbolTableRecord
100
AcDbRegAppTableRecord
2
ACAD
70
0
0
ENDTAB
0
TABLE
2
DIMSTYLE
5
A
100
AcDbSymbolTable
70
1
0
ENDTAB
0
TABLE
2
BLOCK_RECORD
5
1
100
AcDbSymbolTable
70
1
0
BLOCK_RECORD
5
1F
100
AcDbSymbolTableRecord
100
AcDbBlockTableRecord
2
*MODEL_SPACE
0
BLOCK_RECORD
5
1B
100
AcDbSymbolTableRecord
100
AcDbBlockTableRecord
2
*PAPER_SPACE
0
ENDTAB
0
ENDSEC
0
SECTION
2
BLOCKS
0
BLOCK
5
20
100
AcDbEntity
100
AcDbBlockBegin
2
*MODEL_SPACE
0
ENDBLK
5
21
100
AcDbEntity
100
AcDbBlockEnd
0
BLOCK
5
1C
100
AcDbEntity
100
AcDbBlockBegin
2
*PAPER_SPACE
0
ENDBLK
5
1D
100
AcDbEntity
100
AcDbBlockEnd
0
ENDSEC
0
SECTION
2
ENTITIES
0
LWPOLYLINE
5
100
100
AcDbEntity
8
0
100
AcDbPolyline
90
12
70
1
43
0.0
10
-194.56400000000002
20
134.24199999999999
10
-194.56400000000002
20
158.642
42
0.41428571428546396
10
-197.36400000000003
20
161.44199999999415
10
-263.76400000000001
20
161.44200000000001
42
0.41428571428441197
10
-266.56399999999417
20
158.642
10
-266.56400000000008
20
157.34200000000001
10
-263.16399999999999
20
153.94200000000001
10
-263.16399999999999
20
138.94200000000001
10
-266.56400000000008
20
135.54200000000003
10
-266.56400000000008
20
134.24199999999999
42
0.41392861650264046
10
-263.76400000000001
20
131.44199999999995
10
-197.36400000000003
20
131.44200000000001
42
0.41428571428650846
0
CIRCLE
5
101
100
AcDbEntity
8
0
100
AcDbCircle
10
-196.494
20
145.172
30
0
40
0.40600000000000003
210
0
220
-0
230
1
0
CIRCLE
5
102
100
AcDbEntity
8
0
100
AcDbCircle
10
-197.36400000000003
20
134.24199999999999
30
0
40
1.6000000000000003
210
0
220
-0
230
1
0
CIRCLE
5
103
100
AcDbEntity
8
0
100
AcDbCircle
10
-196.494
20
142.63200000000001
30
0
40
0.40600000000000003
210
0
220
-0
230
1
0
CIRCLE
5
104
100
AcDbEntity
8
0
100
AcDbCircle
10
-196.494
20
147.71199999999999
30
0
40
0.40600000000000003
210
0
220
-0
230
1
0
CIRCLE
5
105
100
AcDbEntity
8
0
100
AcDbCircle
10
-196.494
20
150.25200000000001
30
0
40
0.40600000000000003
210
0
220
-0
230
1
0
CIRCLE
5
106
100
AcDbEntity
8
0
100
AcDbCircle
10
-197.36400000000003
20
158.642
30
0
40
1.6000000000000003
210
0
220
-0
230
1
0
CIRCLE
5
107
100
AcDbEntity
8
0
100
AcDbCircle
10
-199.03400000000002
20
145.172
30
0
40
0.40600000000000003
210
0
220
-0
230
1
0
CIRCLE
5
108
100
AcDbEntity
8
0
100
AcDbCircle
10
-263.76400000000001
20
134.24199999999999
30
0
40
1.6000000000000003
210
0
220
-0
230
1
0
CIRCLE
5
109
100
AcDbEntity
8
0
100
AcDbCircle
10
-199.03400000000002
20
142.63200000000001
30
0
40
0.40600000000000003
210
0
220
-0
230
1
0
CIRCLE
5
110
100
AcDbEntity
8
0
100
AcDbCircle
10
-199.03400000000002
20
147.71199999999999
30
0
40
0.40600000000000003
210
0
220
-0
230
1
0
CIRCLE
5
111
100
AcDbEntity
8
0
100
AcDbCircle
10
-199.03400000000002
20
150.25200000000001
30
0
40
0.40600000000000003
210
0
220
-0
230
1
0
CIRCLE
5
112
100
AcDbEntity
8
0
100
AcDbCircle
10
-263.76400000000001
20
158.642
30
0
40
1.6000000000000003
210
0
220
-0
230
1
0
LWPOLYLINE
5
113
100
AcDbEntity
8
0
100
AcDbPolyline
90
12
70
1
43
0.0
10
-197.36400000000003
20
131.44199999999583
42
0.41428571428650834
10
-194.56399999999587
20
134.24199999999999
10
-194.56400000000002
20
158.642
42
0.41428571428546396
10
-197.36400000000003
20
161.44199999999415
10
-263.76400000000001
20
161.44200000000001
42
0.41428571428441197
10
-266.56399999999417
20
158.642
10
-266.56400000000008
20
157.34200000000001
10
-263.16399999999999
20
153.94200000000001
10
-263.16399999999999
20
138.94200000000001
10
-266.56400000000008
20
135.54200000000003
10
-266.56400000000002
20
134.24199999999999
42
0.41392861650264046
10
-263.76400000000001
20
131.44200000000001
0
CIRCLE
5
114
100
AcDbEntity
8
0
100
AcDbCircle
10
-197.36400000000003
20
134.24199999999999
30
0
40
1.6000000000000003
210
0
220
-0
230
1
0
CIRCLE
5
115
100
AcDbEntity
8
0
100
AcDbCircle
10
-197.36400000000003
20
158.642
30
0
40
1.6000000000000003
210
0
220
-0
230
1
0
CIRCLE
5
116
100
AcDbEntity
8
0
100
AcDbCircle
10
-263.76400000000001
20
158.642
30
0
40
1.6000000000000003
210
0
220
-0
230
1
0
CIRCLE
5
117
100
AcDbEntity
8
0
100
AcDbCircle
10
-263.76400000000001
20
134.24199999999999
30
0
40
1.6000000000000003
210
0
220
-0
230
1
0
LWPOLYLINE
5
118
100
AcDbEntity
8
0
100
AcDbPolyline
90
4
70
1
43
0.0
10
-196.65443495220956
20
142.47232172881735
10
-196.33443495220956
20
142.47232171482972
10
-196.33443493822193
20
142.79232171483574
10
-196.65443493822193
20
142.79232172882337
0
LWPOLYLINE
5
119
100
AcDbEntity
8
0
100
AcDbPolyline
90
4
70
1
43
0.0
10
-199.19443495220958
20
142.47232183984431
10
-198.87443495220958
20
142.47232182585665
10
-198.87443493822192
20
142.79232182586264
10
-199.19443493822195
20
142.79232183985027
0
LWPOLYLINE
5
120
100
AcDbEntity
8
0
100
AcDbPolyline
90
4
70
1
43
0.0
10
-199.19443484118264
20
145.0123218398443
10
-198.87443484118265
20
145.01232182585665
10
-198.87443482719502
20
145.33232182586264
10
-199.19443482719501
20
145.33232183985029
0
LWPOLYLINE
5
121
100
AcDbEntity
8
0
100
AcDbPolyline
90
4
70
1
43
0.0
10
-196.65443484118265
20
145.01232172881737
10
-196.33443484118263
20
145.01232171482974
10
-196.334434827195
20
145.33232171483573
10
-196.65443482719499
20
145.33232172882336
0
LWPOLYLINE
5
122
100
AcDbEntity
8
0
100
AcDbPolyline
90
4
70
1
43
0.0
10
-196.65443473015571
20
147.55232172881736
10
-196.33443473015572
20
147.55232171482973
10
-196.33443471616806
20
147.87232171483572
10
-196.65443471616808
20
147.87232172882335
0
LWPOLYLINE
5
123
100
AcDbEntity
8
0
100
AcDbPolyline
90
4
70
1
43
0.0
10
-196.65443461912878
20
150.09232172881735
10
-196.33443461912879
20
150.09232171482972
10
-196.33443460514115
20
150.41232171483571
10
-196.65443460514115
20
150.41232172882334
0
LWPOLYLINE
5
124
100
AcDbEntity
8
0
100
AcDbPolyline
90
4
70
1
43
0.0
10
-199.19443461912877
20
150.09232183984429
10
-198.87443461912878
20
150.09232182585666
10
-198.87443460514118
20
150.41232182586265
10
-199.19443460514114
20
150.41232183985028
0
LWPOLYLINE
5
125
100
AcDbEntity
8
0
100
AcDbPolyline
90
4
70
1
43
0.0
10
-199.19443473015573
20
147.5523218398443
10
-198.87443473015571
20
147.55232182585667
10
-198.87443471616808
20
147.87232182586266
10
-199.19443471616805
20
147.87232183985029
0
CIRCLE
5
126
100
AcDbEntity
8
0
100
AcDbCircle
10
-196.494
20
142.63200000000001
30
0
40
0.40600000000000003
210
0
220
-0
230
1
0
CIRCLE
5
127
100
AcDbEntity
8
0
100
AcDbCircle
10
-199.03400000000002
20
142.63200000000001
30
0
40
0.40600000000000003
210
0
220
-0
230
1
0
CIRCLE
5
128
100
AcDbEntity
8
0
100
AcDbCircle
10
-199.03400000000002
20
145.172
30
0
40
0.40600000000000003
210
0
220
-0
230
1
0
CIRCLE
5
129
100
AcDbEntity
8
0
100
AcDbCircle
10
-196.494
20
145.172
30
0
40
0.40600000000000003
210
0
220
-0
230
1
0
CIRCLE
5
130
100
AcDbEntity
8
0
100
AcDbCircle
10
-196.494
20
147.71199999999999
30
0
40
0.40600000000000003
210
0
220
-0
230
1
0
CIRCLE
5
131
100
AcDbEntity
8
0
100
AcDbCircle
10
-199.03400000000002
20
147.71199999999999
30
0
40
0.40600000000000003
210
0
220
-0
230
1
0
CIRCLE
5
132
100
AcDbEntity
8
0
100
AcDbCircle
10
-199.03400000000002
20
150.25200000000001
30
0
40
0.40600000000000003
210
0
220
-0
230
1
0
CIRCLE
5
133
100
AcDbEntity
8
0
100
AcDbCircle
10
-196.494
20
150.25200000000001
30
0
40
0.40600000000000003
210
0
220
-0
230
1
0
ENDSEC
0
SECTION
2
OBJECTS
0
DICTIONARY
5
C
100
AcDbDictionary
3
ACAD_GROUP
350
D
3
ACAD_MLINESTYLE
350
17
0
DICTIONARY
5
D
100
AcDbDictionary
0
DICTIONARY
5
1A
330
C
100
AcDbDictionary
0
DICTIONARY
5
17
100
AcDbDictionary
0
ENDSEC
0
EOF
